%TF.GenerationSoftware,KiCad,Pcbnew,7.0.10*%
%TF.CreationDate,2024-04-30T16:54:10+09:00*%
%TF.ProjectId,Panel_board,50616e65-6c5f-4626-9f61-72642e6b6963,rev?*%
%TF.SameCoordinates,Original*%
%TF.FileFunction,Copper,L4,Bot*%
%TF.FilePolarity,Positive*%
%FSLAX46Y46*%
G04 Gerber Fmt 4.6, Leading zero omitted, Abs format (unit mm)*
G04 Created by KiCad (PCBNEW 7.0.10) date 2024-04-30 16:54:10*
%MOMM*%
%LPD*%
G01*
G04 APERTURE LIST*
G04 Aperture macros list*
%AMRoundRect*
0 Rectangle with rounded corners*
0 $1 Rounding radius*
0 $2 $3 $4 $5 $6 $7 $8 $9 X,Y pos of 4 corners*
0 Add a 4 corners polygon primitive as box body*
4,1,4,$2,$3,$4,$5,$6,$7,$8,$9,$2,$3,0*
0 Add four circle primitives for the rounded corners*
1,1,$1+$1,$2,$3*
1,1,$1+$1,$4,$5*
1,1,$1+$1,$6,$7*
1,1,$1+$1,$8,$9*
0 Add four rect primitives between the rounded corners*
20,1,$1+$1,$2,$3,$4,$5,0*
20,1,$1+$1,$4,$5,$6,$7,0*
20,1,$1+$1,$6,$7,$8,$9,0*
20,1,$1+$1,$8,$9,$2,$3,0*%
G04 Aperture macros list end*
%TA.AperFunction,ComponentPad*%
%ADD10R,1.000000X1.000000*%
%TD*%
%TA.AperFunction,ComponentPad*%
%ADD11RoundRect,0.250000X0.675000X-0.600000X0.675000X0.600000X-0.675000X0.600000X-0.675000X-0.600000X0*%
%TD*%
%TA.AperFunction,ComponentPad*%
%ADD12O,1.850000X1.700000*%
%TD*%
%TA.AperFunction,ComponentPad*%
%ADD13C,1.400000*%
%TD*%
%TA.AperFunction,ComponentPad*%
%ADD14RoundRect,0.250000X1.550000X-0.650000X1.550000X0.650000X-1.550000X0.650000X-1.550000X-0.650000X0*%
%TD*%
%TA.AperFunction,ComponentPad*%
%ADD15O,3.600000X1.800000*%
%TD*%
%TA.AperFunction,ComponentPad*%
%ADD16R,1.500000X1.500000*%
%TD*%
%TA.AperFunction,ComponentPad*%
%ADD17C,1.500000*%
%TD*%
%TA.AperFunction,ComponentPad*%
%ADD18C,3.000000*%
%TD*%
%TA.AperFunction,ComponentPad*%
%ADD19R,2.000000X2.000000*%
%TD*%
%TA.AperFunction,ComponentPad*%
%ADD20C,2.000000*%
%TD*%
%TA.AperFunction,ComponentPad*%
%ADD21R,1.700000X1.700000*%
%TD*%
%TA.AperFunction,ComponentPad*%
%ADD22O,1.700000X1.700000*%
%TD*%
%TA.AperFunction,ViaPad*%
%ADD23C,0.600000*%
%TD*%
%TA.AperFunction,ViaPad*%
%ADD24C,1.000000*%
%TD*%
%TA.AperFunction,Conductor*%
%ADD25C,1.500000*%
%TD*%
%TA.AperFunction,Conductor*%
%ADD26C,0.250000*%
%TD*%
%TA.AperFunction,Conductor*%
%ADD27C,0.500000*%
%TD*%
G04 APERTURE END LIST*
D10*
%TO.P,TP8,1,1*%
%TO.N,/SDA*%
X-8382000Y-22225000D03*
%TD*%
D11*
%TO.P,J2,1,Pin_1*%
%TO.N,+5VA*%
X15765000Y-65726000D03*
D12*
%TO.P,J2,2,Pin_2*%
%TO.N,GND*%
X15765000Y-63226000D03*
%TO.P,J2,3,Pin_3*%
%TO.N,/A-*%
X15765000Y-60726000D03*
%TO.P,J2,4,Pin_4*%
%TO.N,/A+*%
X15765000Y-58226000D03*
%TD*%
D13*
%TO.P,U1,1,-Vin*%
%TO.N,GNDPWR*%
X-15875000Y-94533000D03*
%TO.P,U1,2,+Vin*%
%TO.N,Net-(U1-+Vin)*%
X-18415000Y-94533000D03*
%TO.P,U1,3,-Vout*%
%TO.N,GND*%
X-20955000Y-94533000D03*
%TO.P,U1,4,+Vout*%
%TO.N,Net-(U1-+Vout)*%
X-23495000Y-94533000D03*
%TD*%
D14*
%TO.P,J1,1,Pin_1*%
%TO.N,Net-(J1-Pin_1)*%
X14466500Y-103721000D03*
D15*
%TO.P,J1,2,Pin_2*%
%TO.N,Net-(D1-K)*%
X14466500Y-100221000D03*
%TD*%
D16*
%TO.P,J11,1*%
%TO.N,GNDPWR*%
X8001000Y-87421000D03*
D17*
%TO.P,J11,2*%
%TO.N,Net-(C19-Pad1)*%
X5461000Y-86151000D03*
%TO.P,J11,3*%
%TO.N,/Communication/5V_Comm_GND*%
X8001000Y-84881000D03*
%TO.P,J11,4*%
%TO.N,/Communication/H_INT*%
X5461000Y-83611000D03*
%TO.P,J11,5*%
%TO.N,/Communication/RFID_TX*%
X8001000Y-82341000D03*
%TO.P,J11,6*%
%TO.N,/Communication/RFID_RX*%
X5461000Y-81071000D03*
%TO.P,J11,7*%
%TO.N,/Communication/H_SDA*%
X8001000Y-79801000D03*
%TO.P,J11,8*%
%TO.N,/Communication/H_SCL*%
X5461000Y-78531000D03*
D18*
%TO.P,J11,SH*%
%TO.N,N/C*%
X17401000Y-90746000D03*
X17401000Y-75206000D03*
%TD*%
D10*
%TO.P,TP6,1,1*%
%TO.N,GNDPWR*%
X17399000Y-95295000D03*
%TD*%
%TO.P,TP1,1,1*%
%TO.N,+5V*%
X-22987000Y-74086000D03*
%TD*%
%TO.P,TP7,1,1*%
%TO.N,/SCL*%
X-8382000Y-17145000D03*
%TD*%
%TO.P,TP4,1,1*%
%TO.N,/Communication/5V_Comm_GND*%
X6223000Y-71165000D03*
%TD*%
D19*
%TO.P,BZ1,1,-*%
%TO.N,Net-(BZ1--)*%
X12827000Y-25562000D03*
D20*
%TO.P,BZ1,2,+*%
%TO.N,GND*%
X12827000Y-17962000D03*
%TD*%
D21*
%TO.P,J3,1,Pin_1*%
%TO.N,GND*%
X-16580000Y-26070000D03*
D22*
%TO.P,J3,2,Pin_2*%
%TO.N,+5V*%
X-16580000Y-23530000D03*
%TO.P,J3,3,Pin_3*%
%TO.N,/SDA*%
X-16580000Y-20990000D03*
%TO.P,J3,4,Pin_4*%
%TO.N,/SCL*%
X-16580000Y-18450000D03*
%TD*%
D13*
%TO.P,U8,1,-Vin*%
%TO.N,GNDPWR*%
X-12573000Y-88691000D03*
%TO.P,U8,2,+Vin*%
%TO.N,Net-(U8-+Vin)*%
X-12573000Y-86151000D03*
%TO.P,U8,3,-Vout*%
%TO.N,/Communication/5V_Comm_GND*%
X-12573000Y-83611000D03*
%TO.P,U8,4,+Vout*%
%TO.N,Net-(U8-+Vout)*%
X-12573000Y-81071000D03*
%TD*%
D10*
%TO.P,TP3,1,1*%
%TO.N,/Communication/5V_Comm*%
X1143000Y-71165000D03*
%TD*%
%TO.P,TP5,1,1*%
%TO.N,+12V*%
X12319000Y-95295000D03*
%TD*%
%TO.P,TP2,1,1*%
%TO.N,GND*%
X-22987000Y-79166000D03*
%TD*%
D23*
%TO.N,+5V*%
X-10668000Y-56687000D03*
D24*
X-20955000Y-90469000D03*
D23*
X-889000Y-36367000D03*
X-4064000Y-57576000D03*
X-3429000Y-33192000D03*
X-22987000Y-87929000D03*
X11176000Y-47670000D03*
X-2413000Y-61386000D03*
X-19304000Y-52115000D03*
X-12954000Y-47670000D03*
X-889000Y-47670000D03*
X-3429000Y-44495000D03*
X8636000Y-44495000D03*
X-15494000Y-33192000D03*
X7112000Y-66593000D03*
X11176000Y-36367000D03*
X-9271000Y-60751000D03*
X8636000Y-33192000D03*
X-15494000Y-44495000D03*
X-12954000Y-36367000D03*
D24*
%TO.N,+12V*%
X-7493000Y-95250000D03*
X127000Y-105664000D03*
D23*
%TO.N,GND*%
X-5715000Y-58420000D03*
X-5969000Y-33274000D03*
X-17653000Y-53848000D03*
X4826000Y-21717000D03*
X-18034000Y-44577000D03*
X6096000Y-33274000D03*
X6477000Y-20066000D03*
X6096000Y-44577000D03*
X-5969000Y-44577000D03*
X-6858000Y-19685000D03*
X-18034000Y-33274000D03*
%TO.N,/H_INT*%
X-2794000Y-56052000D03*
X-20574000Y-64053000D03*
%TO.N,/PWR_USB*%
X-6731000Y-50845000D03*
X-24511000Y-99613000D03*
%TO.N,/SCL*%
X4318000Y-60116000D03*
X-8382000Y-59100000D03*
%TO.N,/SDA*%
X5588000Y-60116000D03*
X-6985000Y-59100000D03*
%TO.N,/NET_L*%
X7366000Y-33319000D03*
X-22479000Y-58846000D03*
%TO.N,/TARE_L*%
X-22479000Y-57576000D03*
X-4699000Y-33319000D03*
%TO.N,/BTN1_L*%
X-16764000Y-33319000D03*
X-22479000Y-56306000D03*
%TO.N,/BTN2_L*%
X7366000Y-44622000D03*
X-22479000Y-62656000D03*
%TO.N,/BTN3_L*%
X-4699000Y-44622000D03*
X-22479000Y-61386000D03*
%TO.N,/BTN4_L*%
X-16764000Y-44622000D03*
X-22479000Y-60116000D03*
%TO.N,/Communication/5V_Comm*%
X508000Y-76118000D03*
X-1524000Y-68371000D03*
X-8382000Y-70911000D03*
X-4953000Y-83357000D03*
X3175000Y-78785000D03*
X-13589000Y-66593000D03*
X-10160000Y-77896000D03*
X-3810000Y-70911000D03*
D24*
X-7747000Y-83611000D03*
D23*
X-7366000Y-72562000D03*
D24*
%TO.N,GNDPWR*%
X1524000Y-102616000D03*
X889000Y-96139000D03*
X889000Y-85979000D03*
D23*
%TO.N,Net-(U2-SDA2)*%
X-4826000Y-79928000D03*
X-5334000Y-70911000D03*
%TO.N,/Communication/RFID_TX*%
X-13970000Y-78150000D03*
%TO.N,/Communication/RFID_RX*%
X-15240000Y-75991000D03*
%TO.N,/Communication/H_SDA*%
X-3556000Y-79801000D03*
%TO.N,/Communication/H_SCL*%
X-3556000Y-77769000D03*
%TO.N,Net-(U2-SCL2)*%
X-6096000Y-78023000D03*
X-6731000Y-70911000D03*
%TD*%
D25*
%TO.N,+12V*%
X8554000Y-99060000D02*
X2667000Y-99060000D01*
X8554000Y-99060000D02*
X8509000Y-99060000D01*
X-3683000Y-99060000D02*
X-7493000Y-95250000D01*
X1905000Y-105664000D02*
X127000Y-105664000D01*
X8509000Y-99060000D02*
X2159000Y-105410000D01*
X2667000Y-99060000D02*
X-3683000Y-99060000D01*
X2159000Y-105410000D02*
X1905000Y-105664000D01*
X12319000Y-95295000D02*
X8554000Y-99060000D01*
D26*
%TO.N,/H_INT*%
X-6217884Y-56052000D02*
X-14218884Y-64053000D01*
X-20574000Y-64053000D02*
X-14218884Y-64053000D01*
X-2794000Y-56052000D02*
X-6217884Y-56052000D01*
%TO.N,/PWR_USB*%
X-9017000Y-50845000D02*
X-6731000Y-50845000D01*
X-24520000Y-66348000D02*
X-9017000Y-50845000D01*
X-24511000Y-99613000D02*
X-24520000Y-99604000D01*
X-24520000Y-99604000D02*
X-24520000Y-66348000D01*
%TO.N,/SCL*%
X1016000Y-19177000D02*
X17907000Y-36068000D01*
X-6350000Y-19177000D02*
X1016000Y-19177000D01*
X-7757000Y-59725000D02*
X3800000Y-59725000D01*
X5207000Y-61005000D02*
X4318000Y-60116000D01*
X-8382000Y-59100000D02*
X-7757000Y-59725000D01*
X3800000Y-59725000D02*
X4191000Y-60116000D01*
X-8382000Y-17145000D02*
X-6350000Y-19177000D01*
X17907000Y-36068000D02*
X17907000Y-53004000D01*
X9906000Y-61005000D02*
X5207000Y-61005000D01*
X17907000Y-53004000D02*
X9906000Y-61005000D01*
X4191000Y-60116000D02*
X4318000Y-60116000D01*
%TO.N,/SDA*%
X9398000Y-60116000D02*
X5588000Y-60116000D01*
X4572000Y-59100000D02*
X5588000Y-60116000D01*
X16891000Y-36576000D02*
X16891000Y-52623000D01*
X-6985000Y-59100000D02*
X4572000Y-59100000D01*
X-6350000Y-20193000D02*
X508000Y-20193000D01*
X508000Y-20193000D02*
X16891000Y-36576000D01*
X-8382000Y-22225000D02*
X-6350000Y-20193000D01*
X16891000Y-52623000D02*
X9398000Y-60116000D01*
%TO.N,/NET_L*%
X-16957906Y-34785698D02*
X5899302Y-34785698D01*
X5899302Y-34785698D02*
X7366000Y-33319000D01*
X-21404000Y-39231792D02*
X-16957906Y-34785698D01*
X-21404000Y-57771000D02*
X-21404000Y-39231792D01*
X-22479000Y-58846000D02*
X-21404000Y-57771000D01*
%TO.N,/TARE_L*%
X-22479000Y-57576000D02*
X-21854000Y-56951000D01*
X-5715698Y-34335698D02*
X-4699000Y-33319000D01*
X-21854000Y-56951000D02*
X-21854000Y-39045396D01*
X-17144302Y-34335698D02*
X-5715698Y-34335698D01*
X-21854000Y-39045396D02*
X-17144302Y-34335698D01*
%TO.N,/BTN1_L*%
X-22304000Y-38859000D02*
X-16764000Y-33319000D01*
X-22479000Y-56306000D02*
X-22304000Y-56131000D01*
X-22304000Y-56131000D02*
X-22304000Y-38859000D01*
%TO.N,/BTN2_L*%
X-20054000Y-60231000D02*
X-20054000Y-49194000D01*
X5904104Y-46083896D02*
X7366000Y-44622000D01*
X-22479000Y-62656000D02*
X-20054000Y-60231000D01*
X-20054000Y-49194000D02*
X-20054000Y-49184792D01*
X-20054000Y-49184792D02*
X-16953104Y-46083896D01*
X-16953104Y-46083896D02*
X5904104Y-46083896D01*
%TO.N,/BTN3_L*%
X-17017302Y-45511698D02*
X-17016604Y-45511000D01*
X-17016604Y-45511000D02*
X-5588000Y-45511000D01*
X-20504000Y-48998396D02*
X-17017302Y-45511698D01*
X-20504000Y-59411000D02*
X-20504000Y-48998396D01*
X-5588000Y-45511000D02*
X-4699000Y-44622000D01*
X-22479000Y-61386000D02*
X-20504000Y-59411000D01*
%TO.N,/BTN4_L*%
X-20954000Y-58591000D02*
X-20954000Y-48812000D01*
X-20954000Y-48812000D02*
X-16764000Y-44622000D01*
X-22479000Y-60116000D02*
X-20954000Y-58591000D01*
%TO.N,Net-(U2-SDA2)*%
X-4826000Y-71419000D02*
X-5334000Y-70911000D01*
X-4826000Y-79928000D02*
X-4826000Y-71419000D01*
D27*
%TO.N,/Communication/RFID_TX*%
X-12827000Y-78150000D02*
X-13970000Y-78150000D01*
X-8636000Y-82341000D02*
X-12827000Y-78150000D01*
X8001000Y-82341000D02*
X-8636000Y-82341000D01*
%TO.N,/Communication/RFID_RX*%
X5461000Y-81071000D02*
X-8128000Y-81071000D01*
X-13208000Y-75991000D02*
X-8128000Y-81071000D01*
X-13208000Y-75991000D02*
X-15240000Y-75991000D01*
%TO.N,/Communication/H_SDA*%
X-3556000Y-79801000D02*
X8001000Y-79801000D01*
%TO.N,/Communication/H_SCL*%
X4191000Y-78531000D02*
X5461000Y-78531000D01*
X-3556000Y-77769000D02*
X3429000Y-77769000D01*
X3429000Y-77769000D02*
X4191000Y-78531000D01*
D26*
%TO.N,Net-(U2-SCL2)*%
X-6096000Y-71546000D02*
X-6731000Y-70911000D01*
X-6096000Y-78023000D02*
X-6096000Y-71546000D01*
%TD*%
%TA.AperFunction,Conductor*%
%TO.N,GNDPWR*%
G36*
X-12674714Y-85153306D02*
G01*
X-12656408Y-85197500D01*
X-12674714Y-85241694D01*
X-12705914Y-85258634D01*
X-12852797Y-85289854D01*
X-12852814Y-85289860D01*
X-13025725Y-85366846D01*
X-13025734Y-85366851D01*
X-13175473Y-85475643D01*
X-13178871Y-85478112D01*
X-13305533Y-85618784D01*
X-13400179Y-85782716D01*
X-13400180Y-85782719D01*
X-13400181Y-85782721D01*
X-13454988Y-85951401D01*
X-13458674Y-85962744D01*
X-13478460Y-86151000D01*
X-13458674Y-86339256D01*
X-13400179Y-86519284D01*
X-13305533Y-86683216D01*
X-13178871Y-86823888D01*
X-13025730Y-86935151D01*
X-12852803Y-87012144D01*
X-12667646Y-87051500D01*
X-12478354Y-87051500D01*
X-12293202Y-87012145D01*
X-12293197Y-87012144D01*
X-12293188Y-87012140D01*
X-12293185Y-87012139D01*
X-12120274Y-86935153D01*
X-12120265Y-86935148D01*
X-11967129Y-86823888D01*
X-11967128Y-86823887D01*
X-11894901Y-86743671D01*
X-11840467Y-86683216D01*
X-11745821Y-86519284D01*
X-11745820Y-86519282D01*
X-11745818Y-86519278D01*
X-11687326Y-86339258D01*
X-11667540Y-86151000D01*
X-11687326Y-85962741D01*
X-11745818Y-85782721D01*
X-11840466Y-85618785D01*
X-11967128Y-85478112D01*
X-11967129Y-85478111D01*
X-12120265Y-85366851D01*
X-12120274Y-85366846D01*
X-12293185Y-85289860D01*
X-12293202Y-85289854D01*
X-12440086Y-85258634D01*
X-12479509Y-85231540D01*
X-12488226Y-85184506D01*
X-12461132Y-85145083D01*
X-12427092Y-85135000D01*
X5114593Y-85135000D01*
X5158787Y-85153306D01*
X5177093Y-85197500D01*
X5158787Y-85241694D01*
X5132738Y-85257307D01*
X5095499Y-85268604D01*
X5095498Y-85268604D01*
X5095493Y-85268606D01*
X4930380Y-85356860D01*
X4930374Y-85356864D01*
X4785643Y-85475643D01*
X4666864Y-85620374D01*
X4666860Y-85620380D01*
X4578606Y-85785493D01*
X4524252Y-85964670D01*
X4505901Y-86150999D01*
X4505901Y-86151000D01*
X4524252Y-86337329D01*
X4544780Y-86405000D01*
X4564145Y-86468838D01*
X4578606Y-86516506D01*
X4666860Y-86681619D01*
X4666864Y-86681625D01*
X4785643Y-86826357D01*
X4930375Y-86945136D01*
X4930377Y-86945137D01*
X4930380Y-86945139D01*
X5095493Y-87033393D01*
X5095499Y-87033396D01*
X5274669Y-87087747D01*
X5461000Y-87106099D01*
X5647331Y-87087747D01*
X5826501Y-87033396D01*
X5991625Y-86945136D01*
X6136357Y-86826357D01*
X6255136Y-86681625D01*
X6343396Y-86516501D01*
X6397747Y-86337331D01*
X6416099Y-86151000D01*
X6397747Y-85964669D01*
X6350900Y-85810237D01*
X6355589Y-85762635D01*
X6392566Y-85732288D01*
X6440171Y-85736977D01*
X6454903Y-85747903D01*
X7112000Y-86405000D01*
X18926906Y-86405000D01*
X18935064Y-86405535D01*
X19052252Y-86420963D01*
X19068012Y-86425186D01*
X19173397Y-86468838D01*
X19187527Y-86476996D01*
X19278025Y-86546438D01*
X19289561Y-86557974D01*
X19359003Y-86648472D01*
X19367161Y-86662602D01*
X19400742Y-86743671D01*
X19405500Y-86767589D01*
X19405500Y-123998370D01*
X19405414Y-124001641D01*
X19388281Y-124328547D01*
X19387598Y-124335053D01*
X19336641Y-124656788D01*
X19335280Y-124663187D01*
X19250978Y-124977804D01*
X19248957Y-124984026D01*
X19132222Y-125288129D01*
X19129561Y-125294105D01*
X18981686Y-125584329D01*
X18978415Y-125589995D01*
X18801007Y-125863178D01*
X18797166Y-125868464D01*
X18664205Y-126032659D01*
X18592173Y-126121611D01*
X18587795Y-126126472D01*
X18357472Y-126356795D01*
X18352610Y-126361173D01*
X18099464Y-126566166D01*
X18094178Y-126570007D01*
X17820995Y-126747415D01*
X17815329Y-126750686D01*
X17525105Y-126898561D01*
X17519129Y-126901222D01*
X17215026Y-127017957D01*
X17208804Y-127019978D01*
X16894187Y-127104280D01*
X16887788Y-127105641D01*
X16566053Y-127156598D01*
X16559547Y-127157281D01*
X16280345Y-127171914D01*
X16277074Y-127172000D01*
X-18799906Y-127172000D01*
X-18808064Y-127171465D01*
X-18925252Y-127156036D01*
X-18941012Y-127151813D01*
X-19046397Y-127108161D01*
X-19060527Y-127100003D01*
X-19151025Y-127030561D01*
X-19162561Y-127019025D01*
X-19232003Y-126928527D01*
X-19240161Y-126914397D01*
X-19283813Y-126809012D01*
X-19288036Y-126793252D01*
X-19303465Y-126676063D01*
X-19304000Y-126667905D01*
X-19304000Y-124067765D01*
X-1854212Y-124067765D01*
X-1824586Y-124337018D01*
X-1756072Y-124599088D01*
X-1650130Y-124848390D01*
X-1509018Y-125079610D01*
X-1335745Y-125287820D01*
X-1335735Y-125287828D01*
X-1335732Y-125287832D01*
X-1230759Y-125381888D01*
X-1134002Y-125468582D01*
X-908090Y-125618044D01*
X-662824Y-125733020D01*
X-403431Y-125811060D01*
X-135439Y-125850500D01*
X-135438Y-125850500D01*
X67628Y-125850500D01*
X67631Y-125850500D01*
X67634Y-125850499D01*
X67652Y-125850499D01*
X270147Y-125835678D01*
X270149Y-125835677D01*
X270156Y-125835677D01*
X534553Y-125776780D01*
X787558Y-125680014D01*
X1023777Y-125547441D01*
X1238177Y-125381888D01*
X1426186Y-125186881D01*
X1583799Y-124966579D01*
X1707656Y-124725675D01*
X1795118Y-124469305D01*
X1844319Y-124202933D01*
X1854212Y-123932235D01*
X1824586Y-123662982D01*
X1756072Y-123400912D01*
X1650130Y-123151610D01*
X1509018Y-122920390D01*
X1419743Y-122813115D01*
X1335746Y-122712181D01*
X1335732Y-122712167D01*
X1134011Y-122531425D01*
X1134004Y-122531420D01*
X1134002Y-122531418D01*
X1014807Y-122452559D01*
X908093Y-122381957D01*
X908091Y-122381956D01*
X766610Y-122315633D01*
X662824Y-122266980D01*
X662821Y-122266979D01*
X662819Y-122266978D01*
X403440Y-122188942D01*
X403426Y-122188939D01*
X135445Y-122149500D01*
X135439Y-122149500D01*
X-67631Y-122149500D01*
X-67652Y-122149500D01*
X-270147Y-122164321D01*
X-270155Y-122164322D01*
X-270156Y-122164323D01*
X-534553Y-122223220D01*
X-534554Y-122223220D01*
X-787559Y-122319986D01*
X-1023776Y-122452558D01*
X-1023777Y-122452559D01*
X-1238177Y-122618112D01*
X-1238179Y-122618114D01*
X-1238184Y-122618118D01*
X-1426182Y-122813115D01*
X-1426190Y-122813124D01*
X-1583795Y-123033414D01*
X-1583797Y-123033419D01*
X-1583799Y-123033421D01*
X-1707656Y-123274325D01*
X-1707657Y-123274328D01*
X-1707659Y-123274332D01*
X-1750842Y-123400912D01*
X-1795118Y-123530695D01*
X-1844319Y-123797067D01*
X-1854212Y-124067765D01*
X-19304000Y-124067765D01*
X-19304000Y-95027460D01*
X-19285694Y-94983266D01*
X-19241500Y-94964960D01*
X-19197306Y-94983266D01*
X-19187375Y-94996207D01*
X-19147533Y-95065216D01*
X-19020871Y-95205888D01*
X-18867730Y-95317151D01*
X-18694803Y-95394144D01*
X-18509646Y-95433500D01*
X-18320354Y-95433500D01*
X-18135202Y-95394145D01*
X-18135197Y-95394144D01*
X-18135188Y-95394140D01*
X-18135185Y-95394139D01*
X-17974387Y-95322546D01*
X-8445644Y-95322546D01*
X-8411539Y-95512828D01*
X-8339830Y-95692348D01*
X-8233451Y-95853759D01*
X-4364155Y-99723053D01*
X-4363089Y-99724147D01*
X-4305323Y-99784919D01*
X-4305320Y-99784921D01*
X-4257604Y-99818132D01*
X-4253822Y-99820982D01*
X-4208751Y-99857734D01*
X-4180024Y-99872738D01*
X-4173258Y-99876838D01*
X-4163056Y-99883939D01*
X-4146658Y-99895353D01*
X-4093221Y-99918283D01*
X-4088959Y-99920306D01*
X-4037406Y-99947237D01*
X-4006239Y-99956154D01*
X-3998803Y-99958801D01*
X-3969012Y-99971587D01*
X-3912033Y-99983295D01*
X-3907474Y-99984414D01*
X-3851551Y-100000417D01*
X-3819226Y-100002877D01*
X-3811398Y-100003975D01*
X-3779656Y-100010500D01*
X-3721521Y-100010500D01*
X-3716776Y-100010680D01*
X-3714390Y-100010861D01*
X-3658797Y-100015095D01*
X-3626651Y-100011000D01*
X-3618755Y-100010500D01*
X2570344Y-100010500D01*
X6063402Y-100010500D01*
X6107596Y-100028806D01*
X6125902Y-100073000D01*
X6107596Y-100117194D01*
X1529596Y-104695194D01*
X1485402Y-104713500D01*
X78787Y-104713500D01*
X-65318Y-104728154D01*
X-65319Y-104728154D01*
X-249766Y-104786025D01*
X-249768Y-104786026D01*
X-418791Y-104879841D01*
X-418796Y-104879845D01*
X-418797Y-104879846D01*
X-565463Y-105005755D01*
X-565464Y-105005757D01*
X-565468Y-105005760D01*
X-683796Y-105158627D01*
X-768930Y-105332184D01*
X-817385Y-105519326D01*
X-827176Y-105712390D01*
X-797903Y-105903474D01*
X-730764Y-106084753D01*
X-628509Y-106248807D01*
X-495323Y-106388919D01*
X-336658Y-106499353D01*
X-159012Y-106575587D01*
X30344Y-106614500D01*
X1892143Y-106614500D01*
X1893726Y-106614520D01*
X1977546Y-106616644D01*
X2034795Y-106606382D01*
X2039456Y-106605728D01*
X2097321Y-106599845D01*
X2128258Y-106590137D01*
X2135921Y-106588256D01*
X2167828Y-106582539D01*
X2167831Y-106582537D01*
X2167834Y-106582537D01*
X2202874Y-106568539D01*
X2221824Y-106560969D01*
X2226285Y-106559381D01*
X2281768Y-106541974D01*
X2310114Y-106526239D01*
X2317238Y-106522856D01*
X2347348Y-106510830D01*
X2395914Y-106478820D01*
X2399937Y-106476383D01*
X2450791Y-106448159D01*
X2475395Y-106427035D01*
X2481686Y-106422291D01*
X2508759Y-106404451D01*
X2549889Y-106363319D01*
X2553346Y-106360116D01*
X2597468Y-106322240D01*
X2617304Y-106296612D01*
X2622526Y-106290682D01*
X2865192Y-106048018D01*
X4487947Y-104425262D01*
X12466000Y-104425262D01*
X12468853Y-104455696D01*
X12468854Y-104455701D01*
X12513707Y-104583882D01*
X12513707Y-104583883D01*
X12554028Y-104638516D01*
X12594350Y-104693150D01*
X12703618Y-104773793D01*
X12831801Y-104818646D01*
X12862234Y-104821500D01*
X12862238Y-104821500D01*
X16070762Y-104821500D01*
X16070766Y-104821500D01*
X16101199Y-104818646D01*
X16229382Y-104773793D01*
X16338650Y-104693150D01*
X16419293Y-104583882D01*
X16464146Y-104455699D01*
X16467000Y-104425266D01*
X16467000Y-103016734D01*
X16464146Y-102986301D01*
X16419293Y-102858118D01*
X16338650Y-102748850D01*
X16229382Y-102668207D01*
X16101201Y-102623354D01*
X16101196Y-102623353D01*
X16081199Y-102621478D01*
X16070766Y-102620500D01*
X12862234Y-102620500D01*
X12852624Y-102621401D01*
X12831803Y-102623353D01*
X12831798Y-102623354D01*
X12703617Y-102668207D01*
X12703616Y-102668207D01*
X12594350Y-102748850D01*
X12513707Y-102858116D01*
X12513707Y-102858117D01*
X12468854Y-102986298D01*
X12468853Y-102986303D01*
X12466000Y-103016737D01*
X12466000Y-104425262D01*
X4487947Y-104425262D01*
X8744810Y-100168398D01*
X12462245Y-100168398D01*
X12472245Y-100378324D01*
X12472245Y-100378330D01*
X12497306Y-100481629D01*
X12521796Y-100582576D01*
X12609104Y-100773753D01*
X12609105Y-100773754D01*
X12731011Y-100944949D01*
X12731013Y-100944951D01*
X12731014Y-100944952D01*
X12883122Y-101089986D01*
X12883124Y-101089987D01*
X12883127Y-101089990D01*
X13059922Y-101203610D01*
X13059925Y-101203611D01*
X13059928Y-101203613D01*
X13169093Y-101247316D01*
X13255037Y-101281723D01*
X13255040Y-101281724D01*
X13255043Y-101281725D01*
X13461415Y-101321500D01*
X13461417Y-101321500D01*
X15418916Y-101321500D01*
X15418925Y-101321500D01*
X15575718Y-101306528D01*
X15777375Y-101247316D01*
X15964182Y-101151011D01*
X16129386Y-101021092D01*
X16267019Y-100862256D01*
X16372104Y-100680244D01*
X16440844Y-100481633D01*
X16470754Y-100273602D01*
X16460754Y-100063670D01*
X16411204Y-99859424D01*
X16323896Y-99668247D01*
X16260871Y-99579740D01*
X16201988Y-99497050D01*
X16122132Y-99420908D01*
X16049878Y-99352014D01*
X16049875Y-99352012D01*
X16049872Y-99352009D01*
X15873077Y-99238389D01*
X15677962Y-99160276D01*
X15677959Y-99160275D01*
X15549267Y-99135472D01*
X15471585Y-99120500D01*
X13514075Y-99120500D01*
X13514074Y-99120500D01*
X13357280Y-99135472D01*
X13155624Y-99194683D01*
X12968821Y-99290987D01*
X12968810Y-99290994D01*
X12803613Y-99420908D01*
X12803612Y-99420909D01*
X12665983Y-99579740D01*
X12665983Y-99579741D01*
X12560896Y-99761755D01*
X12492155Y-99960370D01*
X12462245Y-100168398D01*
X8744810Y-100168398D01*
X9021283Y-99891925D01*
X9031066Y-99883947D01*
X9044925Y-99874813D01*
X9048925Y-99872390D01*
X9099791Y-99844159D01*
X9124395Y-99823035D01*
X9130686Y-99818291D01*
X9157759Y-99800451D01*
X9198889Y-99759319D01*
X9202346Y-99756116D01*
X9246468Y-99718240D01*
X9266304Y-99692612D01*
X9271526Y-99686682D01*
X13025192Y-95933018D01*
X13116734Y-95820751D01*
X13206237Y-95649406D01*
X13259417Y-95463552D01*
X13274095Y-95270797D01*
X13249672Y-95079033D01*
X13249670Y-95079029D01*
X13249670Y-95079024D01*
X13210680Y-94964960D01*
X13187147Y-94896111D01*
X13089081Y-94729519D01*
X12959487Y-94586079D01*
X12803671Y-94471661D01*
X12761457Y-94452265D01*
X12628009Y-94390950D01*
X12439704Y-94347253D01*
X12246454Y-94342356D01*
X12056172Y-94376461D01*
X12056168Y-94376462D01*
X12056165Y-94376463D01*
X11876651Y-94448170D01*
X11715241Y-94554548D01*
X11715237Y-94554552D01*
X8178596Y-98091194D01*
X8134402Y-98109500D01*
X-3263402Y-98109500D01*
X-3307596Y-98091194D01*
X-6854983Y-94543806D01*
X-6967250Y-94452265D01*
X-7138595Y-94362762D01*
X-7241752Y-94333245D01*
X-7324448Y-94309583D01*
X-7517203Y-94294905D01*
X-7517204Y-94294905D01*
X-7517208Y-94294905D01*
X-7708963Y-94319327D01*
X-7708965Y-94319327D01*
X-7708967Y-94319328D01*
X-7891889Y-94381852D01*
X-7891890Y-94381852D01*
X-7891891Y-94381853D01*
X-8058480Y-94479918D01*
X-8141085Y-94554549D01*
X-8201921Y-94609513D01*
X-8316339Y-94765329D01*
X-8397048Y-94940987D01*
X-8397049Y-94940990D01*
X-8397049Y-94940991D01*
X-8425876Y-95065214D01*
X-8440747Y-95129295D01*
X-8445644Y-95322546D01*
X-17974387Y-95322546D01*
X-17962274Y-95317153D01*
X-17962265Y-95317148D01*
X-17809129Y-95205888D01*
X-17809128Y-95205887D01*
X-17795118Y-95190327D01*
X-17682467Y-95065216D01*
X-17587821Y-94901284D01*
X-17587820Y-94901282D01*
X-17587818Y-94901278D01*
X-17529326Y-94721258D01*
X-17509540Y-94533000D01*
X-17529326Y-94344741D01*
X-17587818Y-94164721D01*
X-17682466Y-94000785D01*
X-17809128Y-93860112D01*
X-17809129Y-93860111D01*
X-17962265Y-93748851D01*
X-17962274Y-93748846D01*
X-18135185Y-93671860D01*
X-18135202Y-93671854D01*
X-18320354Y-93632500D01*
X-18509646Y-93632500D01*
X-18694797Y-93671854D01*
X-18694814Y-93671860D01*
X-18867725Y-93748846D01*
X-18867734Y-93748851D01*
X-19020870Y-93860111D01*
X-19020871Y-93860112D01*
X-19147533Y-94000784D01*
X-19169331Y-94038539D01*
X-19187373Y-94069789D01*
X-19225324Y-94098909D01*
X-19272750Y-94092666D01*
X-19301870Y-94054715D01*
X-19304000Y-94038539D01*
X-19304000Y-88759676D01*
X12471737Y-88759676D01*
X12486810Y-88896661D01*
X12501764Y-89032571D01*
X12571204Y-89298182D01*
X12678577Y-89550852D01*
X12732261Y-89638816D01*
X12821596Y-89785198D01*
X12916133Y-89898795D01*
X12997209Y-89996218D01*
X12997213Y-89996222D01*
X12997221Y-89996230D01*
X13201678Y-90179424D01*
X13279161Y-90230685D01*
X13430641Y-90330904D01*
X13679221Y-90447433D01*
X13942119Y-90526527D01*
X14213731Y-90566500D01*
X14213732Y-90566500D01*
X14419544Y-90566500D01*
X14419547Y-90566500D01*
X14419550Y-90566499D01*
X14419568Y-90566499D01*
X14624796Y-90551478D01*
X14624798Y-90551477D01*
X14624805Y-90551477D01*
X14892775Y-90491784D01*
X15149198Y-90393711D01*
X15388609Y-90259347D01*
X15605904Y-90091557D01*
X15773325Y-89917905D01*
X15817176Y-89898795D01*
X15861697Y-89916291D01*
X15880808Y-89960143D01*
X15872446Y-89992533D01*
X15864609Y-90006108D01*
X15771489Y-90243369D01*
X15714778Y-90491841D01*
X15714778Y-90491843D01*
X15695732Y-90745996D01*
X15695732Y-90746003D01*
X15714778Y-91000156D01*
X15714778Y-91000158D01*
X15771489Y-91248630D01*
X15771492Y-91248637D01*
X15864607Y-91485888D01*
X15992041Y-91706612D01*
X15992043Y-91706615D01*
X15992047Y-91706621D01*
X16150943Y-91905869D01*
X16150946Y-91905872D01*
X16150950Y-91905877D01*
X16337783Y-92079232D01*
X16337788Y-92079235D01*
X16337791Y-92079238D01*
X16470802Y-92169922D01*
X16548366Y-92222805D01*
X16777996Y-92333389D01*
X16899769Y-92370951D01*
X17021534Y-92408511D01*
X17021537Y-92408511D01*
X17021542Y-92408513D01*
X17273565Y-92446500D01*
X17273571Y-92446500D01*
X17528429Y-92446500D01*
X17528435Y-92446500D01*
X17780458Y-92408513D01*
X17780463Y-92408511D01*
X17780466Y-92408511D01*
X17872033Y-92380265D01*
X18024004Y-92333389D01*
X18253634Y-92222805D01*
X18464217Y-92079232D01*
X18651050Y-91905877D01*
X18809959Y-91706612D01*
X18937393Y-91485888D01*
X19030508Y-91248637D01*
X19087222Y-91000157D01*
X19106268Y-90746000D01*
X19087222Y-90491843D01*
X19050489Y-90330904D01*
X19030510Y-90243369D01*
X19030508Y-90243363D01*
X18937393Y-90006112D01*
X18809959Y-89785388D01*
X18809954Y-89785382D01*
X18809952Y-89785378D01*
X18651056Y-89586130D01*
X18651053Y-89586127D01*
X18651050Y-89586123D01*
X18464217Y-89412768D01*
X18464211Y-89412764D01*
X18464208Y-89412761D01*
X18253634Y-89269195D01*
X18024004Y-89158611D01*
X18024001Y-89158610D01*
X18023999Y-89158609D01*
X18023995Y-89158608D01*
X17780465Y-89083488D01*
X17780466Y-89083488D01*
X17634976Y-89061558D01*
X17528435Y-89045500D01*
X17273565Y-89045500D01*
X17021533Y-89083488D01*
X16778004Y-89158608D01*
X16778000Y-89158609D01*
X16548365Y-89269195D01*
X16337791Y-89412761D01*
X16150948Y-89586124D01*
X16116819Y-89628921D01*
X16074952Y-89652059D01*
X16028986Y-89638816D01*
X16005848Y-89596949D01*
X16012370Y-89561377D01*
X16081727Y-89426479D01*
X16170370Y-89166646D01*
X16220236Y-88896674D01*
X16230262Y-88622320D01*
X16200236Y-88349429D01*
X16130796Y-88083818D01*
X16023423Y-87831148D01*
X15880405Y-87596804D01*
X15704791Y-87385782D01*
X15704785Y-87385777D01*
X15704778Y-87385769D01*
X15500321Y-87202575D01*
X15326757Y-87087747D01*
X15271359Y-87051096D01*
X15022779Y-86934567D01*
X15022776Y-86934566D01*
X15022777Y-86934566D01*
X14759890Y-86855475D01*
X14759876Y-86855472D01*
X14488275Y-86815500D01*
X14488269Y-86815500D01*
X14282453Y-86815500D01*
X14282431Y-86815500D01*
X14077203Y-86830521D01*
X13809225Y-86890216D01*
X13809223Y-86890216D01*
X13552800Y-86988289D01*
X13313390Y-87122653D01*
X13096093Y-87290445D01*
X12905542Y-87488088D01*
X12905541Y-87488089D01*
X12745807Y-87711358D01*
X12745804Y-87711362D01*
X12620269Y-87955528D01*
X12531634Y-88215340D01*
X12531628Y-88215360D01*
X12481765Y-88485317D01*
X12481763Y-88485338D01*
X12471737Y-88759676D01*
X-19304000Y-88759676D01*
X-19304000Y-85639094D01*
X-19303465Y-85630936D01*
X-19288036Y-85513747D01*
X-19283813Y-85497987D01*
X-19240161Y-85392602D01*
X-19232003Y-85378472D01*
X-19162561Y-85287974D01*
X-19151025Y-85276438D01*
X-19060527Y-85206996D01*
X-19046397Y-85198838D01*
X-18941012Y-85155186D01*
X-18925252Y-85150963D01*
X-18808064Y-85135535D01*
X-18799906Y-85135000D01*
X-12718908Y-85135000D01*
X-12674714Y-85153306D01*
G37*
%TD.AperFunction*%
%TD*%
%TA.AperFunction,Conductor*%
%TO.N,/Communication/5V_Comm_GND*%
G36*
X3860957Y-65831535D02*
G01*
X3978145Y-65846963D01*
X3993905Y-65851186D01*
X4099288Y-65894837D01*
X4113418Y-65902994D01*
X4207202Y-65974957D01*
X4213348Y-65980348D01*
X11684000Y-73451000D01*
X16906716Y-73451000D01*
X16950910Y-73469306D01*
X16969216Y-73513500D01*
X16950910Y-73557694D01*
X16925138Y-73573223D01*
X16778004Y-73618608D01*
X16778000Y-73618609D01*
X16548365Y-73729195D01*
X16337791Y-73872761D01*
X16150948Y-74046125D01*
X16150943Y-74046130D01*
X15992047Y-74245378D01*
X15864608Y-74466109D01*
X15771489Y-74703369D01*
X15714778Y-74951841D01*
X15714778Y-74951843D01*
X15695732Y-75205996D01*
X15695732Y-75206003D01*
X15714778Y-75460156D01*
X15714778Y-75460158D01*
X15771489Y-75708630D01*
X15864608Y-75945890D01*
X15879569Y-75971803D01*
X15885812Y-76019229D01*
X15856692Y-76057180D01*
X15809266Y-76063423D01*
X15777402Y-76043033D01*
X15757592Y-76019229D01*
X15704791Y-75955782D01*
X15704785Y-75955777D01*
X15704778Y-75955769D01*
X15500321Y-75772575D01*
X15345355Y-75670051D01*
X15271359Y-75621096D01*
X15022779Y-75504567D01*
X15022776Y-75504566D01*
X15022777Y-75504566D01*
X14759890Y-75425475D01*
X14759876Y-75425472D01*
X14488275Y-75385500D01*
X14488269Y-75385500D01*
X14282453Y-75385500D01*
X14282431Y-75385500D01*
X14077203Y-75400521D01*
X13809225Y-75460216D01*
X13809223Y-75460216D01*
X13552800Y-75558289D01*
X13313390Y-75692653D01*
X13096093Y-75860445D01*
X12905542Y-76058088D01*
X12905541Y-76058089D01*
X12745807Y-76281358D01*
X12745804Y-76281362D01*
X12620269Y-76525528D01*
X12531634Y-76785340D01*
X12531628Y-76785360D01*
X12481765Y-77055317D01*
X12481763Y-77055338D01*
X12471737Y-77329676D01*
X12500849Y-77594253D01*
X12501764Y-77602571D01*
X12571204Y-77868182D01*
X12678577Y-78120852D01*
X12793781Y-78309621D01*
X12821596Y-78355198D01*
X12922091Y-78475954D01*
X12997209Y-78566218D01*
X12997213Y-78566222D01*
X12997221Y-78566230D01*
X13201678Y-78749424D01*
X13255452Y-78785000D01*
X13430641Y-78900904D01*
X13679221Y-79017433D01*
X13942119Y-79096527D01*
X14213731Y-79136500D01*
X14213732Y-79136500D01*
X14419544Y-79136500D01*
X14419547Y-79136500D01*
X14419550Y-79136499D01*
X14419568Y-79136499D01*
X14624796Y-79121478D01*
X14624798Y-79121477D01*
X14624805Y-79121477D01*
X14892775Y-79061784D01*
X15149198Y-78963711D01*
X15388609Y-78829347D01*
X15605904Y-78661557D01*
X15796454Y-78463916D01*
X15956196Y-78240637D01*
X16081727Y-77996479D01*
X16170370Y-77736646D01*
X16220236Y-77466674D01*
X16230262Y-77192320D01*
X16200236Y-76919429D01*
X16130796Y-76653818D01*
X16024905Y-76404637D01*
X16024469Y-76356806D01*
X16057984Y-76322673D01*
X16105817Y-76322236D01*
X16131291Y-76341225D01*
X16143716Y-76356806D01*
X16150947Y-76365874D01*
X16150950Y-76365877D01*
X16337783Y-76539232D01*
X16337788Y-76539235D01*
X16337791Y-76539238D01*
X16454046Y-76618499D01*
X16548366Y-76682805D01*
X16777996Y-76793389D01*
X16899769Y-76830951D01*
X17021534Y-76868511D01*
X17021537Y-76868511D01*
X17021542Y-76868513D01*
X17273565Y-76906500D01*
X17273571Y-76906500D01*
X17528429Y-76906500D01*
X17528435Y-76906500D01*
X17780458Y-76868513D01*
X17780463Y-76868511D01*
X17780466Y-76868511D01*
X17872033Y-76840265D01*
X18024004Y-76793389D01*
X18253634Y-76682805D01*
X18464217Y-76539232D01*
X18651050Y-76365877D01*
X18809959Y-76166612D01*
X18937393Y-75945888D01*
X19030508Y-75708637D01*
X19034118Y-75692823D01*
X19058643Y-75585370D01*
X19087222Y-75460157D01*
X19106268Y-75206000D01*
X19087222Y-74951843D01*
X19060967Y-74836813D01*
X19030510Y-74703369D01*
X19030508Y-74703363D01*
X18937393Y-74466112D01*
X18809959Y-74245388D01*
X18809954Y-74245382D01*
X18809952Y-74245378D01*
X18651056Y-74046130D01*
X18651053Y-74046127D01*
X18651050Y-74046123D01*
X18464217Y-73872768D01*
X18464211Y-73872764D01*
X18464208Y-73872761D01*
X18253634Y-73729195D01*
X18181531Y-73694472D01*
X18024004Y-73618611D01*
X18024001Y-73618610D01*
X18023999Y-73618609D01*
X18023995Y-73618608D01*
X17876862Y-73573223D01*
X17840027Y-73542704D01*
X17835561Y-73495078D01*
X17866080Y-73458243D01*
X17895284Y-73451000D01*
X18926906Y-73451000D01*
X18935064Y-73451535D01*
X19052252Y-73466963D01*
X19068012Y-73471186D01*
X19173397Y-73514838D01*
X19187527Y-73522996D01*
X19278025Y-73592438D01*
X19289561Y-73603974D01*
X19359003Y-73694472D01*
X19367161Y-73708602D01*
X19400742Y-73789671D01*
X19405500Y-73813589D01*
X19405500Y-85534407D01*
X19400742Y-85558325D01*
X19367159Y-85639400D01*
X19359001Y-85653530D01*
X19289561Y-85744025D01*
X19278025Y-85755561D01*
X19187527Y-85825003D01*
X19173397Y-85833161D01*
X19068012Y-85876813D01*
X19052252Y-85881036D01*
X18935064Y-85896465D01*
X18926906Y-85897000D01*
X7831201Y-85897000D01*
X7823043Y-85896465D01*
X7705854Y-85881036D01*
X7690094Y-85876813D01*
X7584711Y-85833162D01*
X7570581Y-85825005D01*
X7476797Y-85753042D01*
X7470651Y-85747651D01*
X6496448Y-84773448D01*
X6496447Y-84773447D01*
X6350000Y-84627000D01*
X6142899Y-84627000D01*
X5807407Y-84627000D01*
X5763213Y-84608694D01*
X5744907Y-84564500D01*
X5763213Y-84520306D01*
X5789261Y-84504692D01*
X5826501Y-84493396D01*
X5991625Y-84405136D01*
X6136357Y-84286357D01*
X6255136Y-84141625D01*
X6343396Y-83976501D01*
X6397747Y-83797331D01*
X6416099Y-83611000D01*
X6397747Y-83424669D01*
X6343396Y-83245499D01*
X6331580Y-83223393D01*
X6255139Y-83080380D01*
X6255135Y-83080374D01*
X6214012Y-83030266D01*
X6136357Y-82935643D01*
X6095743Y-82902312D01*
X6073195Y-82860126D01*
X6087081Y-82814350D01*
X6129268Y-82791801D01*
X6135394Y-82791500D01*
X7126576Y-82791500D01*
X7170770Y-82809806D01*
X7181694Y-82824536D01*
X7189449Y-82839043D01*
X7206860Y-82871619D01*
X7206864Y-82871625D01*
X7325643Y-83016357D01*
X7470375Y-83135136D01*
X7470377Y-83135137D01*
X7470380Y-83135139D01*
X7618936Y-83214543D01*
X7635499Y-83223396D01*
X7814669Y-83277747D01*
X8001000Y-83296099D01*
X8187331Y-83277747D01*
X8366501Y-83223396D01*
X8531625Y-83135136D01*
X8676357Y-83016357D01*
X8795136Y-82871625D01*
X8883396Y-82706501D01*
X8937747Y-82527331D01*
X8956099Y-82341000D01*
X8937747Y-82154669D01*
X8883396Y-81975499D01*
X8860223Y-81932145D01*
X8795139Y-81810380D01*
X8795135Y-81810374D01*
X8769951Y-81779687D01*
X8676357Y-81665643D01*
X8531625Y-81546864D01*
X8531619Y-81546860D01*
X8366506Y-81458606D01*
X8366503Y-81458605D01*
X8366501Y-81458604D01*
X8267723Y-81428640D01*
X8187329Y-81404252D01*
X8001000Y-81385901D01*
X7814670Y-81404252D01*
X7699188Y-81439284D01*
X7635499Y-81458604D01*
X7635498Y-81458604D01*
X7635493Y-81458606D01*
X7470380Y-81546860D01*
X7470374Y-81546864D01*
X7325643Y-81665643D01*
X7206864Y-81810374D01*
X7206862Y-81810377D01*
X7197443Y-81828000D01*
X7181695Y-81857461D01*
X7144720Y-81887808D01*
X7126576Y-81890500D01*
X6135394Y-81890500D01*
X6091200Y-81872194D01*
X6072894Y-81828000D01*
X6091200Y-81783806D01*
X6095744Y-81779687D01*
X6136357Y-81746357D01*
X6255136Y-81601625D01*
X6343396Y-81436501D01*
X6397747Y-81257331D01*
X6416099Y-81071000D01*
X6397747Y-80884669D01*
X6343396Y-80705499D01*
X6341911Y-80702721D01*
X6255139Y-80540380D01*
X6255135Y-80540374D01*
X6253830Y-80538784D01*
X6136357Y-80395643D01*
X6095743Y-80362312D01*
X6073195Y-80320126D01*
X6087081Y-80274350D01*
X6129268Y-80251801D01*
X6135394Y-80251500D01*
X7126576Y-80251500D01*
X7170770Y-80269806D01*
X7181694Y-80284536D01*
X7190762Y-80301499D01*
X7206860Y-80331619D01*
X7206864Y-80331625D01*
X7325643Y-80476357D01*
X7470375Y-80595136D01*
X7470377Y-80595137D01*
X7470380Y-80595139D01*
X7635493Y-80683393D01*
X7635499Y-80683396D01*
X7814669Y-80737747D01*
X8001000Y-80756099D01*
X8187331Y-80737747D01*
X8366501Y-80683396D01*
X8531625Y-80595136D01*
X8676357Y-80476357D01*
X8795136Y-80331625D01*
X8883396Y-80166501D01*
X8937747Y-79987331D01*
X8956099Y-79801000D01*
X8937747Y-79614669D01*
X8883396Y-79435499D01*
X8874501Y-79418857D01*
X8795139Y-79270380D01*
X8795135Y-79270374D01*
X8676357Y-79125643D01*
X8531625Y-79006864D01*
X8531619Y-79006860D01*
X8366506Y-78918606D01*
X8366503Y-78918605D01*
X8366501Y-78918604D01*
X8267723Y-78888640D01*
X8187329Y-78864252D01*
X8001000Y-78845901D01*
X7814670Y-78864252D01*
X7672267Y-78907450D01*
X7635499Y-78918604D01*
X7635498Y-78918604D01*
X7635493Y-78918606D01*
X7470380Y-79006860D01*
X7470374Y-79006864D01*
X7325643Y-79125643D01*
X7206864Y-79270374D01*
X7206862Y-79270377D01*
X7197443Y-79288000D01*
X7181695Y-79317461D01*
X7144720Y-79347808D01*
X7126576Y-79350500D01*
X6135394Y-79350500D01*
X6091200Y-79332194D01*
X6072894Y-79288000D01*
X6091200Y-79243806D01*
X6095744Y-79239687D01*
X6136357Y-79206357D01*
X6255136Y-79061625D01*
X6343396Y-78896501D01*
X6397747Y-78717331D01*
X6416099Y-78531000D01*
X6397747Y-78344669D01*
X6343396Y-78165499D01*
X6343374Y-78165457D01*
X6255139Y-78000380D01*
X6255135Y-78000374D01*
X6136357Y-77855643D01*
X5991625Y-77736864D01*
X5991619Y-77736860D01*
X5826506Y-77648606D01*
X5826503Y-77648605D01*
X5826501Y-77648604D01*
X5674752Y-77602571D01*
X5647329Y-77594252D01*
X5461000Y-77575901D01*
X5274670Y-77594252D01*
X5132961Y-77637240D01*
X5095499Y-77648604D01*
X5095498Y-77648604D01*
X5095493Y-77648606D01*
X4930380Y-77736860D01*
X4930374Y-77736864D01*
X4785643Y-77855643D01*
X4666864Y-78000374D01*
X4666862Y-78000377D01*
X4654771Y-78023000D01*
X4641695Y-78047461D01*
X4604720Y-78077808D01*
X4586576Y-78080500D01*
X4403491Y-78080500D01*
X4359297Y-78062194D01*
X3767922Y-77470819D01*
X3763261Y-77465604D01*
X3738879Y-77435030D01*
X3690661Y-77402155D01*
X3688797Y-77400832D01*
X3662460Y-77381394D01*
X3641884Y-77366208D01*
X3641879Y-77366206D01*
X3641542Y-77366088D01*
X3626975Y-77358734D01*
X3626673Y-77358528D01*
X3626672Y-77358527D01*
X3600011Y-77350304D01*
X3570914Y-77341329D01*
X3568730Y-77340610D01*
X3513699Y-77321354D01*
X3513697Y-77321353D01*
X3513695Y-77321353D01*
X3513321Y-77321339D01*
X3497260Y-77318610D01*
X3496904Y-77318500D01*
X3496902Y-77318500D01*
X3438587Y-77318500D01*
X3436250Y-77318456D01*
X3377991Y-77316276D01*
X3377988Y-77316276D01*
X3377740Y-77316342D01*
X3377638Y-77316370D01*
X3361461Y-77318500D01*
X-3312886Y-77318500D01*
X-3341509Y-77310095D01*
X-3341879Y-77310905D01*
X-3345951Y-77309045D01*
X-3484037Y-77268500D01*
X-3484039Y-77268500D01*
X-3627961Y-77268500D01*
X-3627963Y-77268500D01*
X-3766049Y-77309045D01*
X-3766051Y-77309046D01*
X-3766053Y-77309047D01*
X-3854994Y-77366206D01*
X-3887128Y-77386857D01*
X-3981376Y-77495625D01*
X-3981377Y-77495627D01*
X-4041165Y-77626543D01*
X-4061647Y-77769000D01*
X-4041165Y-77911457D01*
X-3981377Y-78042373D01*
X-3887128Y-78151143D01*
X-3766053Y-78228953D01*
X-3627962Y-78269499D01*
X-3627962Y-78269500D01*
X-3627961Y-78269500D01*
X-3484038Y-78269500D01*
X-3484036Y-78269499D01*
X-3345947Y-78228953D01*
X-3345942Y-78228950D01*
X-3341879Y-78227095D01*
X-3341509Y-78227904D01*
X-3312886Y-78219500D01*
X2916326Y-78219500D01*
X2960520Y-78237806D01*
X2978826Y-78282000D01*
X2960520Y-78326194D01*
X2950120Y-78334575D01*
X2916855Y-78355954D01*
X2843871Y-78402857D01*
X2749623Y-78511625D01*
X2749623Y-78511627D01*
X2689834Y-78642544D01*
X2669353Y-78785000D01*
X2689834Y-78927455D01*
X2699366Y-78948327D01*
X2729604Y-79014539D01*
X2749623Y-79058372D01*
X2749623Y-79058374D01*
X2782683Y-79096527D01*
X2843872Y-79167143D01*
X2950116Y-79235422D01*
X2977398Y-79274714D01*
X2968905Y-79321790D01*
X2929612Y-79349072D01*
X2916326Y-79350500D01*
X-3312886Y-79350500D01*
X-3341509Y-79342095D01*
X-3341879Y-79342905D01*
X-3345951Y-79341045D01*
X-3484037Y-79300500D01*
X-3484039Y-79300500D01*
X-3627961Y-79300500D01*
X-3627963Y-79300500D01*
X-3766049Y-79341045D01*
X-3766051Y-79341046D01*
X-3766053Y-79341047D01*
X-3887128Y-79418857D01*
X-3981376Y-79527625D01*
X-3981377Y-79527627D01*
X-4041165Y-79658543D01*
X-4061647Y-79801000D01*
X-4041165Y-79943457D01*
X-3981377Y-80074373D01*
X-3887128Y-80183143D01*
X-3766053Y-80260953D01*
X-3627962Y-80301499D01*
X-3627962Y-80301500D01*
X-3627961Y-80301500D01*
X-3484038Y-80301500D01*
X-3484036Y-80301499D01*
X-3434142Y-80286849D01*
X-3345947Y-80260953D01*
X-3345942Y-80260950D01*
X-3341879Y-80259095D01*
X-3341509Y-80259904D01*
X-3312886Y-80251500D01*
X4786606Y-80251500D01*
X4830800Y-80269806D01*
X4849106Y-80314000D01*
X4830800Y-80358194D01*
X4826256Y-80362313D01*
X4785643Y-80395643D01*
X4666864Y-80540374D01*
X4666862Y-80540377D01*
X4651327Y-80569441D01*
X4641695Y-80587461D01*
X4604720Y-80617808D01*
X4586576Y-80620500D01*
X-7915508Y-80620500D01*
X-7959702Y-80602194D01*
X-10073352Y-78488543D01*
X-10091658Y-78444349D01*
X-10073352Y-78400155D01*
X-10046766Y-78384381D01*
X-9949947Y-78355953D01*
X-9828872Y-78278143D01*
X-9821382Y-78269499D01*
X-9734623Y-78169374D01*
X-9734623Y-78169372D01*
X-9674834Y-78038455D01*
X-9654353Y-77896000D01*
X-9674834Y-77753544D01*
X-9734623Y-77622627D01*
X-9734623Y-77622625D01*
X-9828871Y-77513857D01*
X-9949950Y-77436045D01*
X-10088037Y-77395500D01*
X-10088039Y-77395500D01*
X-10231961Y-77395500D01*
X-10231963Y-77395500D01*
X-10370049Y-77436045D01*
X-10370051Y-77436046D01*
X-10370053Y-77436047D01*
X-10491128Y-77513857D01*
X-10585376Y-77622625D01*
X-10585377Y-77622627D01*
X-10645165Y-77753543D01*
X-10645165Y-77753544D01*
X-10647909Y-77772628D01*
X-10672318Y-77813767D01*
X-10718667Y-77825598D01*
X-10753967Y-77807928D01*
X-12869072Y-75692823D01*
X-12873741Y-75687599D01*
X-12898119Y-75657031D01*
X-12898121Y-75657030D01*
X-12946325Y-75624163D01*
X-12948199Y-75622834D01*
X-12995118Y-75588207D01*
X-12995123Y-75588204D01*
X-12995461Y-75588086D01*
X-13010015Y-75580740D01*
X-13010323Y-75580529D01*
X-13010329Y-75580526D01*
X-13066048Y-75563340D01*
X-13068267Y-75562610D01*
X-13123304Y-75543353D01*
X-13123679Y-75543339D01*
X-13139737Y-75540611D01*
X-13140097Y-75540500D01*
X-13140098Y-75540500D01*
X-13198413Y-75540500D01*
X-13200750Y-75540456D01*
X-13259008Y-75538276D01*
X-13259011Y-75538276D01*
X-13259203Y-75538327D01*
X-13259361Y-75538370D01*
X-13275539Y-75540500D01*
X-14996886Y-75540500D01*
X-15025509Y-75532095D01*
X-15025879Y-75532905D01*
X-15029951Y-75531045D01*
X-15168037Y-75490500D01*
X-15168039Y-75490500D01*
X-15311961Y-75490500D01*
X-15311963Y-75490500D01*
X-15450049Y-75531045D01*
X-15450051Y-75531046D01*
X-15450053Y-75531047D01*
X-15538991Y-75588204D01*
X-15571128Y-75608857D01*
X-15665376Y-75717625D01*
X-15665377Y-75717627D01*
X-15725165Y-75848543D01*
X-15745647Y-75991000D01*
X-15725165Y-76133457D01*
X-15665377Y-76264373D01*
X-15571128Y-76373143D01*
X-15450053Y-76450953D01*
X-15311962Y-76491499D01*
X-15311962Y-76491500D01*
X-15311961Y-76491500D01*
X-15168038Y-76491500D01*
X-15168036Y-76491499D01*
X-15060098Y-76459806D01*
X-15029947Y-76450953D01*
X-15029942Y-76450950D01*
X-15025879Y-76449095D01*
X-15025509Y-76449904D01*
X-14996886Y-76441500D01*
X-13420492Y-76441500D01*
X-13376297Y-76459806D01*
X-8466915Y-81369186D01*
X-8462261Y-81374394D01*
X-8437879Y-81404970D01*
X-8389658Y-81437845D01*
X-8387805Y-81439161D01*
X-8340882Y-81473793D01*
X-8340552Y-81473908D01*
X-8325969Y-81481269D01*
X-8325673Y-81481472D01*
X-8269903Y-81498673D01*
X-8267729Y-81499389D01*
X-8212699Y-81518646D01*
X-8212335Y-81518659D01*
X-8196246Y-81521393D01*
X-8195902Y-81521500D01*
X-8137587Y-81521500D01*
X-8135250Y-81521543D01*
X-8076990Y-81523724D01*
X-8076638Y-81523629D01*
X-8060461Y-81521500D01*
X4586576Y-81521500D01*
X4630770Y-81539806D01*
X4641694Y-81554536D01*
X4656614Y-81582449D01*
X4666860Y-81601619D01*
X4666864Y-81601625D01*
X4785643Y-81746357D01*
X4826256Y-81779687D01*
X4848805Y-81821874D01*
X4834919Y-81867650D01*
X4792732Y-81890199D01*
X4786606Y-81890500D01*
X-8423508Y-81890500D01*
X-8467702Y-81872194D01*
X-12488072Y-77851823D01*
X-12492741Y-77846599D01*
X-12517119Y-77816031D01*
X-12517121Y-77816030D01*
X-12529004Y-77807928D01*
X-12565325Y-77783163D01*
X-12567199Y-77781834D01*
X-12614118Y-77747207D01*
X-12614123Y-77747204D01*
X-12614461Y-77747086D01*
X-12629015Y-77739740D01*
X-12629323Y-77739529D01*
X-12629329Y-77739526D01*
X-12685048Y-77722340D01*
X-12687267Y-77721610D01*
X-12742304Y-77702353D01*
X-12742679Y-77702339D01*
X-12758737Y-77699611D01*
X-12759097Y-77699500D01*
X-12759098Y-77699500D01*
X-12817413Y-77699500D01*
X-12819750Y-77699456D01*
X-12878008Y-77697276D01*
X-12878011Y-77697276D01*
X-12878203Y-77697327D01*
X-12878361Y-77697370D01*
X-12894539Y-77699500D01*
X-13726886Y-77699500D01*
X-13755509Y-77691095D01*
X-13755879Y-77691905D01*
X-13759951Y-77690045D01*
X-13898037Y-77649500D01*
X-13898039Y-77649500D01*
X-14041961Y-77649500D01*
X-14041963Y-77649500D01*
X-14180049Y-77690045D01*
X-14180051Y-77690046D01*
X-14180053Y-77690047D01*
X-14278855Y-77753543D01*
X-14301128Y-77767857D01*
X-14395376Y-77876625D01*
X-14395377Y-77876627D01*
X-14455165Y-78007543D01*
X-14475647Y-78150000D01*
X-14455165Y-78292457D01*
X-14395377Y-78423373D01*
X-14301128Y-78532143D01*
X-14180053Y-78609953D01*
X-14041962Y-78650499D01*
X-14041962Y-78650500D01*
X-14041961Y-78650500D01*
X-13898038Y-78650500D01*
X-13898036Y-78650499D01*
X-13870940Y-78642543D01*
X-13759947Y-78609953D01*
X-13759942Y-78609950D01*
X-13755879Y-78608095D01*
X-13755509Y-78608904D01*
X-13726886Y-78600500D01*
X-13039492Y-78600500D01*
X-12995297Y-78618806D01*
X-8974915Y-82639186D01*
X-8970261Y-82644394D01*
X-8945879Y-82674970D01*
X-8897658Y-82707845D01*
X-8895805Y-82709161D01*
X-8848882Y-82743793D01*
X-8848552Y-82743908D01*
X-8833969Y-82751269D01*
X-8833673Y-82751472D01*
X-8777903Y-82768673D01*
X-8775729Y-82769389D01*
X-8720699Y-82788646D01*
X-8720335Y-82788659D01*
X-8704246Y-82791393D01*
X-8703902Y-82791500D01*
X-8645587Y-82791500D01*
X-8643250Y-82791543D01*
X-8584990Y-82793724D01*
X-8584638Y-82793629D01*
X-8568461Y-82791500D01*
X-7863989Y-82791500D01*
X-7819795Y-82809806D01*
X-7801489Y-82854000D01*
X-7819795Y-82898194D01*
X-7849032Y-82914684D01*
X-7997226Y-82951210D01*
X-8147851Y-83030265D01*
X-8275181Y-83143069D01*
X-8275188Y-83143077D01*
X-8368144Y-83277747D01*
X-8371818Y-83283070D01*
X-8425518Y-83424669D01*
X-8432140Y-83442129D01*
X-8432141Y-83442135D01*
X-8452645Y-83610996D01*
X-8452645Y-83611003D01*
X-8432141Y-83779864D01*
X-8432140Y-83779872D01*
X-8371818Y-83938930D01*
X-8275183Y-84078929D01*
X-8147852Y-84191734D01*
X-7997225Y-84270790D01*
X-7832056Y-84311500D01*
X-7832054Y-84311500D01*
X-7661946Y-84311500D01*
X-7661944Y-84311500D01*
X-7496775Y-84270790D01*
X-7346148Y-84191734D01*
X-7218817Y-84078929D01*
X-7218816Y-84078928D01*
X-7218811Y-84078922D01*
X-7122182Y-83938931D01*
X-7061859Y-83779870D01*
X-7061858Y-83779864D01*
X-7041355Y-83611003D01*
X-7041355Y-83610996D01*
X-7061858Y-83442135D01*
X-7061859Y-83442129D01*
X-7122182Y-83283068D01*
X-7218811Y-83143077D01*
X-7218818Y-83143069D01*
X-7346148Y-83030265D01*
X-7496773Y-82951210D01*
X-7644968Y-82914684D01*
X-7683497Y-82886334D01*
X-7690695Y-82839043D01*
X-7662345Y-82800514D01*
X-7630011Y-82791500D01*
X-5211674Y-82791500D01*
X-5167480Y-82809806D01*
X-5149174Y-82854000D01*
X-5167480Y-82898194D01*
X-5177879Y-82906575D01*
X-5247332Y-82951210D01*
X-5284128Y-82974857D01*
X-5378376Y-83083625D01*
X-5378377Y-83083627D01*
X-5438165Y-83214543D01*
X-5458647Y-83357000D01*
X-5438165Y-83499457D01*
X-5378377Y-83630373D01*
X-5284128Y-83739143D01*
X-5163053Y-83816953D01*
X-5024962Y-83857499D01*
X-5024962Y-83857500D01*
X-5024961Y-83857500D01*
X-4881038Y-83857500D01*
X-4881036Y-83857499D01*
X-4742950Y-83816954D01*
X-4742949Y-83816953D01*
X-4742947Y-83816953D01*
X-4621872Y-83739143D01*
X-4621871Y-83739142D01*
X-4527623Y-83630374D01*
X-4527623Y-83630372D01*
X-4467834Y-83499455D01*
X-4447353Y-83357000D01*
X-4467834Y-83214544D01*
X-4527623Y-83083627D01*
X-4527623Y-83083625D01*
X-4621871Y-82974857D01*
X-4672095Y-82942580D01*
X-4728116Y-82906577D01*
X-4755398Y-82867286D01*
X-4746905Y-82820210D01*
X-4707612Y-82792928D01*
X-4694326Y-82791500D01*
X4786606Y-82791500D01*
X4830800Y-82809806D01*
X4849106Y-82854000D01*
X4830800Y-82898194D01*
X4826260Y-82902309D01*
X4816280Y-82910500D01*
X4785643Y-82935643D01*
X4666864Y-83080374D01*
X4666860Y-83080380D01*
X4578606Y-83245493D01*
X4524252Y-83424670D01*
X4505901Y-83610999D01*
X4505901Y-83611000D01*
X4524252Y-83797329D01*
X4578606Y-83976506D01*
X4666860Y-84141619D01*
X4666864Y-84141625D01*
X4785643Y-84286357D01*
X4930375Y-84405136D01*
X4930377Y-84405137D01*
X4930380Y-84405139D01*
X5095493Y-84493393D01*
X5095499Y-84493396D01*
X5132737Y-84504692D01*
X5169713Y-84535038D01*
X5174402Y-84582643D01*
X5144055Y-84619620D01*
X5114593Y-84627000D01*
X-18799906Y-84627000D01*
X-18808064Y-84626465D01*
X-18925252Y-84611036D01*
X-18941012Y-84606813D01*
X-19046397Y-84563161D01*
X-19060527Y-84555003D01*
X-19151025Y-84485561D01*
X-19162561Y-84474025D01*
X-19232003Y-84383527D01*
X-19240161Y-84369397D01*
X-19283813Y-84264012D01*
X-19288036Y-84248252D01*
X-19303465Y-84131063D01*
X-19304000Y-84122905D01*
X-19304000Y-81071000D01*
X-13478460Y-81071000D01*
X-13458674Y-81259256D01*
X-13400179Y-81439284D01*
X-13305533Y-81603216D01*
X-13178871Y-81743888D01*
X-13025730Y-81855151D01*
X-12852803Y-81932144D01*
X-12667646Y-81971500D01*
X-12478354Y-81971500D01*
X-12293202Y-81932145D01*
X-12293197Y-81932144D01*
X-12293188Y-81932140D01*
X-12293185Y-81932139D01*
X-12120274Y-81855153D01*
X-12120265Y-81855148D01*
X-11967129Y-81743888D01*
X-11967128Y-81743887D01*
X-11896677Y-81665643D01*
X-11840467Y-81603216D01*
X-11745821Y-81439284D01*
X-11745820Y-81439282D01*
X-11745818Y-81439278D01*
X-11687326Y-81259258D01*
X-11667540Y-81071000D01*
X-11687326Y-80882741D01*
X-11745818Y-80702721D01*
X-11840466Y-80538785D01*
X-11967128Y-80398112D01*
X-11967129Y-80398111D01*
X-12120265Y-80286851D01*
X-12120274Y-80286846D01*
X-12293185Y-80209860D01*
X-12293202Y-80209854D01*
X-12478354Y-80170500D01*
X-12667646Y-80170500D01*
X-12852797Y-80209854D01*
X-12852814Y-80209860D01*
X-13025725Y-80286846D01*
X-13025734Y-80286851D01*
X-13164890Y-80387954D01*
X-13178871Y-80398112D01*
X-13305533Y-80538784D01*
X-13400179Y-80702716D01*
X-13400180Y-80702719D01*
X-13400181Y-80702721D01*
X-13454988Y-80871401D01*
X-13458674Y-80882744D01*
X-13478460Y-81071000D01*
X-19304000Y-81071000D01*
X-19304000Y-72562000D01*
X-7871647Y-72562000D01*
X-7851165Y-72704457D01*
X-7791377Y-72835373D01*
X-7697128Y-72944143D01*
X-7576053Y-73021953D01*
X-7437962Y-73062499D01*
X-7437962Y-73062500D01*
X-7437961Y-73062500D01*
X-7294038Y-73062500D01*
X-7294036Y-73062499D01*
X-7155950Y-73021954D01*
X-7155949Y-73021953D01*
X-7155947Y-73021953D01*
X-7034872Y-72944143D01*
X-7034871Y-72944142D01*
X-6940623Y-72835374D01*
X-6940623Y-72835372D01*
X-6880834Y-72704455D01*
X-6860353Y-72562000D01*
X-6880834Y-72419544D01*
X-6940623Y-72288627D01*
X-6940623Y-72288625D01*
X-7034871Y-72179857D01*
X-7155950Y-72102045D01*
X-7294037Y-72061500D01*
X-7294039Y-72061500D01*
X-7437961Y-72061500D01*
X-7437963Y-72061500D01*
X-7576049Y-72102045D01*
X-7576051Y-72102046D01*
X-7576053Y-72102047D01*
X-7697128Y-72179857D01*
X-7791376Y-72288625D01*
X-7791377Y-72288627D01*
X-7851165Y-72419543D01*
X-7871647Y-72562000D01*
X-19304000Y-72562000D01*
X-19304000Y-70911000D01*
X-8887647Y-70911000D01*
X-8867165Y-71053457D01*
X-8807377Y-71184373D01*
X-8713128Y-71293143D01*
X-8592053Y-71370953D01*
X-8453962Y-71411499D01*
X-8453962Y-71411500D01*
X-8453961Y-71411500D01*
X-8310038Y-71411500D01*
X-8310036Y-71411499D01*
X-8171950Y-71370954D01*
X-8171949Y-71370953D01*
X-8171947Y-71370953D01*
X-8050872Y-71293143D01*
X-8044180Y-71285420D01*
X-7956623Y-71184374D01*
X-7956623Y-71184372D01*
X-7896834Y-71053455D01*
X-7876353Y-70911000D01*
X-7236647Y-70911000D01*
X-7216165Y-71053457D01*
X-7156377Y-71184373D01*
X-7062128Y-71293143D01*
X-6941053Y-71370953D01*
X-6802962Y-71411499D01*
X-6802962Y-71411500D01*
X-6802961Y-71411500D01*
X-6716714Y-71411500D01*
X-6672520Y-71429806D01*
X-6439806Y-71662520D01*
X-6421500Y-71706714D01*
X-6421500Y-77611050D01*
X-6436765Y-77651978D01*
X-6480136Y-77702032D01*
X-6521377Y-77749627D01*
X-6581165Y-77880543D01*
X-6601647Y-78023000D01*
X-6581165Y-78165457D01*
X-6521377Y-78296373D01*
X-6427128Y-78405143D01*
X-6306053Y-78482953D01*
X-6167962Y-78523499D01*
X-6167962Y-78523500D01*
X-6167961Y-78523500D01*
X-6024038Y-78523500D01*
X-6024036Y-78523499D01*
X-5885950Y-78482954D01*
X-5885949Y-78482953D01*
X-5885947Y-78482953D01*
X-5764872Y-78405143D01*
X-5757383Y-78396500D01*
X-5670623Y-78296374D01*
X-5670623Y-78296372D01*
X-5658350Y-78269500D01*
X-5610835Y-78165457D01*
X-5610834Y-78165455D01*
X-5590353Y-78023000D01*
X-5610834Y-77880544D01*
X-5670623Y-77749627D01*
X-5670623Y-77749626D01*
X-5755235Y-77651978D01*
X-5770500Y-77611050D01*
X-5770500Y-71562941D01*
X-5770262Y-71557493D01*
X-5766735Y-71517192D01*
X-5777209Y-71478100D01*
X-5778388Y-71472781D01*
X-5785411Y-71432956D01*
X-5788571Y-71427483D01*
X-5794811Y-71412417D01*
X-5796446Y-71406314D01*
X-5819651Y-71373172D01*
X-5822577Y-71368579D01*
X-5842805Y-71333545D01*
X-5873801Y-71307536D01*
X-5877819Y-71303853D01*
X-6208927Y-70972745D01*
X-6227233Y-70928551D01*
X-6226597Y-70919660D01*
X-6225353Y-70911004D01*
X-6225353Y-70911000D01*
X-5839647Y-70911000D01*
X-5819165Y-71053457D01*
X-5759377Y-71184373D01*
X-5665128Y-71293143D01*
X-5544053Y-71370953D01*
X-5405962Y-71411499D01*
X-5405962Y-71411500D01*
X-5405961Y-71411500D01*
X-5319715Y-71411500D01*
X-5275521Y-71429806D01*
X-5169806Y-71535520D01*
X-5151500Y-71579714D01*
X-5151500Y-79516050D01*
X-5166765Y-79556978D01*
X-5237395Y-79638491D01*
X-5251377Y-79654627D01*
X-5311165Y-79785543D01*
X-5331647Y-79928000D01*
X-5311165Y-80070457D01*
X-5251377Y-80201373D01*
X-5157128Y-80310143D01*
X-5036053Y-80387953D01*
X-4897962Y-80428499D01*
X-4897962Y-80428500D01*
X-4897961Y-80428500D01*
X-4754038Y-80428500D01*
X-4754036Y-80428499D01*
X-4615950Y-80387954D01*
X-4615949Y-80387953D01*
X-4615947Y-80387953D01*
X-4494872Y-80310143D01*
X-4487382Y-80301499D01*
X-4400623Y-80201374D01*
X-4400623Y-80201372D01*
X-4384697Y-80166501D01*
X-4340835Y-80070457D01*
X-4340834Y-80070455D01*
X-4320353Y-79928000D01*
X-4340834Y-79785544D01*
X-4400623Y-79654627D01*
X-4400623Y-79654626D01*
X-4485235Y-79556978D01*
X-4500500Y-79516050D01*
X-4500500Y-76118000D01*
X2353Y-76118000D01*
X22834Y-76260455D01*
X22835Y-76260457D01*
X70979Y-76365877D01*
X82623Y-76391372D01*
X82623Y-76391374D01*
X141920Y-76459806D01*
X176872Y-76500143D01*
X297947Y-76577953D01*
X297949Y-76577953D01*
X297950Y-76577954D01*
X436036Y-76618499D01*
X436038Y-76618500D01*
X436039Y-76618500D01*
X579962Y-76618500D01*
X579962Y-76618499D01*
X718053Y-76577953D01*
X839128Y-76500143D01*
X933377Y-76391373D01*
X993165Y-76260457D01*
X1013647Y-76118000D01*
X993165Y-75975543D01*
X933377Y-75844627D01*
X933376Y-75844625D01*
X839128Y-75735857D01*
X718053Y-75658047D01*
X718051Y-75658046D01*
X718049Y-75658045D01*
X579963Y-75617500D01*
X579961Y-75617500D01*
X436039Y-75617500D01*
X436037Y-75617500D01*
X297950Y-75658045D01*
X176871Y-75735857D01*
X82623Y-75844625D01*
X82623Y-75844627D01*
X22834Y-75975544D01*
X2353Y-76118000D01*
X-4500500Y-76118000D01*
X-4500500Y-71684748D01*
X442500Y-71684748D01*
X454132Y-71743230D01*
X454133Y-71743232D01*
X498447Y-71809552D01*
X564767Y-71853866D01*
X564769Y-71853867D01*
X623252Y-71865500D01*
X1662748Y-71865500D01*
X1721231Y-71853867D01*
X1787552Y-71809552D01*
X1831867Y-71743231D01*
X1843500Y-71684748D01*
X1843500Y-70645252D01*
X1831867Y-70586769D01*
X1793171Y-70528857D01*
X1787552Y-70520447D01*
X1721232Y-70476133D01*
X1721230Y-70476132D01*
X1662748Y-70464500D01*
X623252Y-70464500D01*
X564769Y-70476132D01*
X564767Y-70476133D01*
X498447Y-70520447D01*
X454133Y-70586767D01*
X454132Y-70586769D01*
X442500Y-70645251D01*
X442500Y-71684748D01*
X-4500500Y-71684748D01*
X-4500500Y-71435930D01*
X-4500262Y-71430482D01*
X-4496736Y-71390192D01*
X-4507207Y-71351111D01*
X-4508386Y-71345792D01*
X-4515411Y-71305957D01*
X-4515412Y-71305954D01*
X-4518574Y-71300476D01*
X-4524810Y-71285420D01*
X-4526445Y-71279318D01*
X-4549648Y-71246179D01*
X-4552575Y-71241585D01*
X-4572805Y-71206546D01*
X-4572808Y-71206543D01*
X-4603795Y-71180540D01*
X-4607813Y-71176858D01*
X-4811927Y-70972744D01*
X-4830233Y-70928550D01*
X-4829597Y-70919659D01*
X-4828353Y-70911003D01*
X-4828353Y-70911000D01*
X-4315647Y-70911000D01*
X-4295165Y-71053457D01*
X-4235377Y-71184373D01*
X-4141128Y-71293143D01*
X-4020053Y-71370953D01*
X-3881962Y-71411499D01*
X-3881962Y-71411500D01*
X-3881961Y-71411500D01*
X-3738038Y-71411500D01*
X-3738036Y-71411499D01*
X-3599950Y-71370954D01*
X-3599949Y-71370953D01*
X-3599947Y-71370953D01*
X-3478872Y-71293143D01*
X-3472180Y-71285420D01*
X-3384623Y-71184374D01*
X-3384623Y-71184372D01*
X-3324834Y-71053455D01*
X-3304353Y-70911000D01*
X-3324834Y-70768544D01*
X-3384623Y-70637627D01*
X-3384623Y-70637625D01*
X-3478871Y-70528857D01*
X-3599950Y-70451045D01*
X-3738037Y-70410500D01*
X-3738039Y-70410500D01*
X-3881961Y-70410500D01*
X-3881963Y-70410500D01*
X-4020049Y-70451045D01*
X-4020051Y-70451046D01*
X-4020053Y-70451047D01*
X-4128042Y-70520447D01*
X-4141128Y-70528857D01*
X-4235376Y-70637625D01*
X-4235377Y-70637627D01*
X-4295165Y-70768543D01*
X-4315647Y-70911000D01*
X-4828353Y-70911000D01*
X-4848834Y-70768544D01*
X-4908623Y-70637627D01*
X-4908623Y-70637625D01*
X-5002871Y-70528857D01*
X-5123950Y-70451045D01*
X-5262037Y-70410500D01*
X-5262039Y-70410500D01*
X-5405961Y-70410500D01*
X-5405963Y-70410500D01*
X-5544049Y-70451045D01*
X-5544051Y-70451046D01*
X-5544053Y-70451047D01*
X-5652042Y-70520447D01*
X-5665128Y-70528857D01*
X-5759376Y-70637625D01*
X-5759377Y-70637627D01*
X-5819165Y-70768543D01*
X-5839647Y-70911000D01*
X-6225353Y-70911000D01*
X-6245834Y-70768544D01*
X-6305623Y-70637627D01*
X-6305623Y-70637625D01*
X-6399871Y-70528857D01*
X-6520950Y-70451045D01*
X-6659037Y-70410500D01*
X-6659039Y-70410500D01*
X-6802961Y-70410500D01*
X-6802963Y-70410500D01*
X-6941049Y-70451045D01*
X-6941051Y-70451046D01*
X-6941053Y-70451047D01*
X-7049042Y-70520447D01*
X-7062128Y-70528857D01*
X-7156376Y-70637625D01*
X-7156377Y-70637627D01*
X-7216165Y-70768543D01*
X-7236647Y-70911000D01*
X-7876353Y-70911000D01*
X-7896834Y-70768544D01*
X-7956623Y-70637627D01*
X-7956623Y-70637625D01*
X-8050871Y-70528857D01*
X-8171950Y-70451045D01*
X-8310037Y-70410500D01*
X-8310039Y-70410500D01*
X-8453961Y-70410500D01*
X-8453963Y-70410500D01*
X-8592049Y-70451045D01*
X-8592051Y-70451046D01*
X-8592053Y-70451047D01*
X-8700042Y-70520447D01*
X-8713128Y-70528857D01*
X-8807376Y-70637625D01*
X-8807377Y-70637627D01*
X-8867165Y-70768543D01*
X-8887647Y-70911000D01*
X-19304000Y-70911000D01*
X-19304000Y-68371000D01*
X-2029647Y-68371000D01*
X-2009165Y-68513457D01*
X-1949377Y-68644373D01*
X-1855128Y-68753143D01*
X-1734053Y-68830953D01*
X-1595962Y-68871499D01*
X-1595962Y-68871500D01*
X-1595961Y-68871500D01*
X-1452038Y-68871500D01*
X-1452036Y-68871499D01*
X-1313950Y-68830954D01*
X-1313949Y-68830953D01*
X-1313947Y-68830953D01*
X-1192872Y-68753143D01*
X-1192871Y-68753142D01*
X-1098623Y-68644374D01*
X-1098623Y-68644372D01*
X-1038834Y-68513455D01*
X-1018353Y-68371000D01*
X-1038834Y-68228544D01*
X-1098623Y-68097627D01*
X-1098623Y-68097625D01*
X-1192871Y-67988857D01*
X-1313950Y-67911045D01*
X-1452037Y-67870500D01*
X-1452039Y-67870500D01*
X-1595961Y-67870500D01*
X-1595963Y-67870500D01*
X-1734049Y-67911045D01*
X-1734051Y-67911046D01*
X-1734053Y-67911047D01*
X-1855128Y-67988857D01*
X-1949376Y-68097625D01*
X-1949377Y-68097627D01*
X-2009165Y-68228543D01*
X-2029647Y-68371000D01*
X-19304000Y-68371000D01*
X-19304000Y-66593000D01*
X-14094647Y-66593000D01*
X-14074165Y-66735457D01*
X-14014377Y-66866373D01*
X-13920128Y-66975143D01*
X-13799053Y-67052953D01*
X-13660962Y-67093499D01*
X-13660962Y-67093500D01*
X-13660961Y-67093500D01*
X-13517038Y-67093500D01*
X-13517036Y-67093499D01*
X-13378950Y-67052954D01*
X-13378949Y-67052953D01*
X-13378947Y-67052953D01*
X-13257872Y-66975143D01*
X-13257871Y-66975142D01*
X-13163623Y-66866374D01*
X-13163623Y-66866372D01*
X-13103834Y-66735455D01*
X-13083353Y-66593000D01*
X-13103834Y-66450544D01*
X-13163623Y-66319627D01*
X-13163623Y-66319625D01*
X-13257871Y-66210857D01*
X-13378950Y-66133045D01*
X-13517037Y-66092500D01*
X-13517039Y-66092500D01*
X-13660961Y-66092500D01*
X-13660963Y-66092500D01*
X-13799049Y-66133045D01*
X-13799051Y-66133046D01*
X-13799053Y-66133047D01*
X-13806716Y-66137972D01*
X-13920128Y-66210857D01*
X-14014376Y-66319625D01*
X-14014377Y-66319627D01*
X-14074165Y-66450543D01*
X-14094647Y-66593000D01*
X-19304000Y-66593000D01*
X-19304000Y-66335094D01*
X-19303465Y-66326936D01*
X-19288036Y-66209747D01*
X-19283813Y-66193987D01*
X-19240161Y-66088602D01*
X-19232003Y-66074472D01*
X-19162561Y-65983974D01*
X-19151025Y-65972438D01*
X-19060527Y-65902996D01*
X-19046397Y-65894838D01*
X-18941012Y-65851186D01*
X-18925252Y-65846963D01*
X-18808064Y-65831535D01*
X-18799906Y-65831000D01*
X3852799Y-65831000D01*
X3860957Y-65831535D01*
G37*
%TD.AperFunction*%
%TD*%
%TA.AperFunction,Conductor*%
%TO.N,GND*%
G36*
X16232641Y3174414D02*
G01*
X16559547Y3157281D01*
X16566053Y3156598D01*
X16887788Y3105641D01*
X16894187Y3104280D01*
X17208804Y3019978D01*
X17215026Y3017957D01*
X17519129Y2901222D01*
X17525105Y2898561D01*
X17815329Y2750686D01*
X17820995Y2747415D01*
X18094178Y2570007D01*
X18099464Y2566166D01*
X18316042Y2390785D01*
X18352611Y2361173D01*
X18357472Y2356795D01*
X18587795Y2126472D01*
X18592173Y2121611D01*
X18797165Y1868467D01*
X18801007Y1863178D01*
X18978415Y1589995D01*
X18981686Y1584329D01*
X19129561Y1294105D01*
X19132222Y1288129D01*
X19248957Y984026D01*
X19250978Y977804D01*
X19335280Y663187D01*
X19336641Y656788D01*
X19387598Y335053D01*
X19388281Y328547D01*
X19405414Y1642D01*
X19405500Y-1629D01*
X19405500Y-72072407D01*
X19400742Y-72096325D01*
X19367159Y-72177400D01*
X19359001Y-72191530D01*
X19289561Y-72282025D01*
X19278025Y-72293561D01*
X19187527Y-72363003D01*
X19173397Y-72371161D01*
X19068012Y-72414813D01*
X19052252Y-72419036D01*
X18935064Y-72434465D01*
X18926906Y-72435000D01*
X12149201Y-72435000D01*
X12141043Y-72434465D01*
X12023854Y-72419036D01*
X12008094Y-72414813D01*
X11902711Y-72371162D01*
X11888581Y-72363005D01*
X11794797Y-72291042D01*
X11788651Y-72285651D01*
X6096000Y-66593000D01*
X6606353Y-66593000D01*
X6626834Y-66735455D01*
X6686623Y-66866372D01*
X6686623Y-66866374D01*
X6780871Y-66975142D01*
X6780872Y-66975143D01*
X6901947Y-67052953D01*
X6901949Y-67052953D01*
X6901950Y-67052954D01*
X7040036Y-67093499D01*
X7040038Y-67093500D01*
X7040039Y-67093500D01*
X7183962Y-67093500D01*
X7183962Y-67093499D01*
X7322053Y-67052953D01*
X7443128Y-66975143D01*
X7537377Y-66866373D01*
X7597165Y-66735457D01*
X7617647Y-66593000D01*
X7597165Y-66450543D01*
X7565068Y-66380262D01*
X14639500Y-66380262D01*
X14642353Y-66410696D01*
X14642354Y-66410701D01*
X14687207Y-66538882D01*
X14687207Y-66538883D01*
X14727148Y-66593000D01*
X14767850Y-66648150D01*
X14877118Y-66728793D01*
X15005301Y-66773646D01*
X15035734Y-66776500D01*
X15035738Y-66776500D01*
X16494262Y-66776500D01*
X16494266Y-66776500D01*
X16524699Y-66773646D01*
X16652882Y-66728793D01*
X16762150Y-66648150D01*
X16842793Y-66538882D01*
X16887646Y-66410699D01*
X16890500Y-66380266D01*
X16890500Y-65071734D01*
X16887646Y-65041301D01*
X16842793Y-64913118D01*
X16762150Y-64803850D01*
X16652882Y-64723207D01*
X16524701Y-64678354D01*
X16524696Y-64678353D01*
X16504699Y-64676478D01*
X16494266Y-64675500D01*
X15035734Y-64675500D01*
X15026124Y-64676401D01*
X15005303Y-64678353D01*
X15005298Y-64678354D01*
X14877117Y-64723207D01*
X14877116Y-64723207D01*
X14767850Y-64803850D01*
X14687207Y-64913116D01*
X14687207Y-64913117D01*
X14642354Y-65041298D01*
X14642353Y-65041303D01*
X14639500Y-65071737D01*
X14639500Y-66380262D01*
X7565068Y-66380262D01*
X7537377Y-66319627D01*
X7537376Y-66319625D01*
X7443128Y-66210857D01*
X7387624Y-66175187D01*
X7322053Y-66133047D01*
X7322051Y-66133046D01*
X7322049Y-66133045D01*
X7183963Y-66092500D01*
X7183961Y-66092500D01*
X7040039Y-66092500D01*
X7040037Y-66092500D01*
X6901950Y-66133045D01*
X6780871Y-66210857D01*
X6686623Y-66319625D01*
X6686623Y-66319627D01*
X6626834Y-66450544D01*
X6606353Y-66593000D01*
X6096000Y-66593000D01*
X4464448Y-64961448D01*
X4464447Y-64961447D01*
X4318000Y-64815000D01*
X4110899Y-64815000D01*
X-19566006Y-64815000D01*
X-20066000Y-64815000D01*
X-20066000Y-65315000D01*
X-20066000Y-65315006D01*
X-20066000Y-126667905D01*
X-20066535Y-126676063D01*
X-20081963Y-126793252D01*
X-20086186Y-126809012D01*
X-20129838Y-126914397D01*
X-20137996Y-126928527D01*
X-20207438Y-127019025D01*
X-20218974Y-127030561D01*
X-20309472Y-127100003D01*
X-20323602Y-127108161D01*
X-20428987Y-127151813D01*
X-20444747Y-127156036D01*
X-20561936Y-127171465D01*
X-20570094Y-127172000D01*
X-23922074Y-127172000D01*
X-23925345Y-127171914D01*
X-24204547Y-127157281D01*
X-24211053Y-127156598D01*
X-24532788Y-127105641D01*
X-24539187Y-127104280D01*
X-24853805Y-127019978D01*
X-24860027Y-127017957D01*
X-25164130Y-126901222D01*
X-25170106Y-126898561D01*
X-25460329Y-126750686D01*
X-25465995Y-126747415D01*
X-25739174Y-126570011D01*
X-25744467Y-126566166D01*
X-25997615Y-126361170D01*
X-26002476Y-126356792D01*
X-26232792Y-126126476D01*
X-26237170Y-126121615D01*
X-26442166Y-125868467D01*
X-26446011Y-125863174D01*
X-26623415Y-125589995D01*
X-26626686Y-125584329D01*
X-26774561Y-125294106D01*
X-26777222Y-125288130D01*
X-26893957Y-124984027D01*
X-26895978Y-124977805D01*
X-26980280Y-124663187D01*
X-26981641Y-124656788D01*
X-27032598Y-124335053D01*
X-27033281Y-124328547D01*
X-27050414Y-124001641D01*
X-27050500Y-123998370D01*
X-27050500Y-99613000D01*
X-25016647Y-99613000D01*
X-24996165Y-99755457D01*
X-24936377Y-99886373D01*
X-24842128Y-99995143D01*
X-24721053Y-100072953D01*
X-24582962Y-100113499D01*
X-24582962Y-100113500D01*
X-24582961Y-100113500D01*
X-24439038Y-100113500D01*
X-24439036Y-100113499D01*
X-24300950Y-100072954D01*
X-24300949Y-100072953D01*
X-24300947Y-100072953D01*
X-24179872Y-99995143D01*
X-24179871Y-99995142D01*
X-24085623Y-99886374D01*
X-24085623Y-99886372D01*
X-24066344Y-99844159D01*
X-24025835Y-99755457D01*
X-24025834Y-99755455D01*
X-24005353Y-99613000D01*
X-24025834Y-99470544D01*
X-24085622Y-99339628D01*
X-24127768Y-99290989D01*
X-24179235Y-99231591D01*
X-24194500Y-99190664D01*
X-24194500Y-95260525D01*
X-24176194Y-95216331D01*
X-24132000Y-95198025D01*
X-24095264Y-95209961D01*
X-23947730Y-95317151D01*
X-23774803Y-95394144D01*
X-23589646Y-95433500D01*
X-23400354Y-95433500D01*
X-23215202Y-95394145D01*
X-23215197Y-95394144D01*
X-23215188Y-95394140D01*
X-23215185Y-95394139D01*
X-23042274Y-95317153D01*
X-23042265Y-95317148D01*
X-22889129Y-95205888D01*
X-22889128Y-95205887D01*
X-22875118Y-95190327D01*
X-22762467Y-95065216D01*
X-22667821Y-94901284D01*
X-22667820Y-94901282D01*
X-22667818Y-94901278D01*
X-22609326Y-94721258D01*
X-22589540Y-94533000D01*
X-22609326Y-94344741D01*
X-22667818Y-94164721D01*
X-22762466Y-94000785D01*
X-22889128Y-93860112D01*
X-22889129Y-93860111D01*
X-23042265Y-93748851D01*
X-23042274Y-93748846D01*
X-23215185Y-93671860D01*
X-23215202Y-93671854D01*
X-23400354Y-93632500D01*
X-23589646Y-93632500D01*
X-23774797Y-93671854D01*
X-23774814Y-93671860D01*
X-23947725Y-93748846D01*
X-23947728Y-93748847D01*
X-24025668Y-93805474D01*
X-24095263Y-93856038D01*
X-24141777Y-93867205D01*
X-24182564Y-93842211D01*
X-24194500Y-93805474D01*
X-24194500Y-90469003D01*
X-21660645Y-90469003D01*
X-21648806Y-90566500D01*
X-21640140Y-90637872D01*
X-21579818Y-90796930D01*
X-21483183Y-90936929D01*
X-21355852Y-91049734D01*
X-21205225Y-91128790D01*
X-21040056Y-91169500D01*
X-21040054Y-91169500D01*
X-20869946Y-91169500D01*
X-20869944Y-91169500D01*
X-20704775Y-91128790D01*
X-20554148Y-91049734D01*
X-20426817Y-90936929D01*
X-20426816Y-90936928D01*
X-20426811Y-90936922D01*
X-20330182Y-90796931D01*
X-20269859Y-90637870D01*
X-20269858Y-90637864D01*
X-20249355Y-90469003D01*
X-20249355Y-90468996D01*
X-20269858Y-90300135D01*
X-20269859Y-90300129D01*
X-20330182Y-90141068D01*
X-20426811Y-90001077D01*
X-20426818Y-90001069D01*
X-20554148Y-89888265D01*
X-20704773Y-89809210D01*
X-20869940Y-89768500D01*
X-20869944Y-89768500D01*
X-21040056Y-89768500D01*
X-21040059Y-89768500D01*
X-21205226Y-89809210D01*
X-21355851Y-89888265D01*
X-21483181Y-90001069D01*
X-21483188Y-90001077D01*
X-21579817Y-90141068D01*
X-21640140Y-90300129D01*
X-21640141Y-90300135D01*
X-21660645Y-90468996D01*
X-21660645Y-90469003D01*
X-24194500Y-90469003D01*
X-24194500Y-87929000D01*
X-23492647Y-87929000D01*
X-23472165Y-88071457D01*
X-23412377Y-88202373D01*
X-23318128Y-88311143D01*
X-23197053Y-88388953D01*
X-23058962Y-88429499D01*
X-23058962Y-88429500D01*
X-23058961Y-88429500D01*
X-22915038Y-88429500D01*
X-22915036Y-88429499D01*
X-22776950Y-88388954D01*
X-22776949Y-88388953D01*
X-22776947Y-88388953D01*
X-22655872Y-88311143D01*
X-22602225Y-88249231D01*
X-22561623Y-88202374D01*
X-22561623Y-88202372D01*
X-22541716Y-88158784D01*
X-22501835Y-88071457D01*
X-22501834Y-88071455D01*
X-22481353Y-87929000D01*
X-22501834Y-87786544D01*
X-22561623Y-87655627D01*
X-22561623Y-87655625D01*
X-22655871Y-87546857D01*
X-22776950Y-87469045D01*
X-22915037Y-87428500D01*
X-22915039Y-87428500D01*
X-23058961Y-87428500D01*
X-23058963Y-87428500D01*
X-23197049Y-87469045D01*
X-23197051Y-87469046D01*
X-23197053Y-87469047D01*
X-23226675Y-87488084D01*
X-23318128Y-87546857D01*
X-23412376Y-87655625D01*
X-23412377Y-87655627D01*
X-23472165Y-87786543D01*
X-23492647Y-87929000D01*
X-24194500Y-87929000D01*
X-24194500Y-74605748D01*
X-23687500Y-74605748D01*
X-23675867Y-74664231D01*
X-23631552Y-74730552D01*
X-23565231Y-74774867D01*
X-23506748Y-74786500D01*
X-22467252Y-74786500D01*
X-22408769Y-74774867D01*
X-22408767Y-74774866D01*
X-22342447Y-74730552D01*
X-22298133Y-74664232D01*
X-22298132Y-74664230D01*
X-22286500Y-74605748D01*
X-22286500Y-73566251D01*
X-22298132Y-73507769D01*
X-22298133Y-73507767D01*
X-22342447Y-73441447D01*
X-22408767Y-73397133D01*
X-22408769Y-73397132D01*
X-22467252Y-73385500D01*
X-23506748Y-73385500D01*
X-23565230Y-73397132D01*
X-23565232Y-73397133D01*
X-23631552Y-73441447D01*
X-23674351Y-73505500D01*
X-23675867Y-73507769D01*
X-23687500Y-73566252D01*
X-23687500Y-74605748D01*
X-24194500Y-74605748D01*
X-24194500Y-66508714D01*
X-24176194Y-66464520D01*
X-21764674Y-64053000D01*
X-21079647Y-64053000D01*
X-21059165Y-64195457D01*
X-20999377Y-64326373D01*
X-20905128Y-64435143D01*
X-20784053Y-64512953D01*
X-20645962Y-64553499D01*
X-20645962Y-64553500D01*
X-20645961Y-64553500D01*
X-20502038Y-64553500D01*
X-20502036Y-64553499D01*
X-20363950Y-64512954D01*
X-20363949Y-64512953D01*
X-20363947Y-64512953D01*
X-20242872Y-64435143D01*
X-20212482Y-64400071D01*
X-20169707Y-64378659D01*
X-20165248Y-64378500D01*
X-14235825Y-64378500D01*
X-14230378Y-64378737D01*
X-14190077Y-64382264D01*
X-14150991Y-64371790D01*
X-14145677Y-64370613D01*
X-14105844Y-64363589D01*
X-14105843Y-64363588D01*
X-14105839Y-64363588D01*
X-14100370Y-64360430D01*
X-14085295Y-64354187D01*
X-14079200Y-64352554D01*
X-14046057Y-64329347D01*
X-14041481Y-64326431D01*
X-14006429Y-64306194D01*
X-13980420Y-64275198D01*
X-13976736Y-64271178D01*
X-11091558Y-61386000D01*
X-2918647Y-61386000D01*
X-2898165Y-61528457D01*
X-2838377Y-61659373D01*
X-2744128Y-61768143D01*
X-2623053Y-61845953D01*
X-2484962Y-61886499D01*
X-2484962Y-61886500D01*
X-2484961Y-61886500D01*
X-2341038Y-61886500D01*
X-2341036Y-61886499D01*
X-2202950Y-61845954D01*
X-2202949Y-61845953D01*
X-2202947Y-61845953D01*
X-2081872Y-61768143D01*
X-2081871Y-61768142D01*
X-1987623Y-61659374D01*
X-1987623Y-61659372D01*
X-1977354Y-61636888D01*
X-1927835Y-61528457D01*
X-1927834Y-61528455D01*
X-1907353Y-61386000D01*
X-1927834Y-61243544D01*
X-1987623Y-61112627D01*
X-1987623Y-61112625D01*
X-2081871Y-61003857D01*
X-2202950Y-60926045D01*
X-2341037Y-60885500D01*
X-2341039Y-60885500D01*
X-2484961Y-60885500D01*
X-2484963Y-60885500D01*
X-2623049Y-60926045D01*
X-2623051Y-60926046D01*
X-2623053Y-60926047D01*
X-2744128Y-61003857D01*
X-2838376Y-61112625D01*
X-2838377Y-61112627D01*
X-2898165Y-61243543D01*
X-2918647Y-61386000D01*
X-11091558Y-61386000D01*
X-10456558Y-60751000D01*
X-9776647Y-60751000D01*
X-9756165Y-60893457D01*
X-9696377Y-61024373D01*
X-9602128Y-61133143D01*
X-9481053Y-61210953D01*
X-9342962Y-61251499D01*
X-9342962Y-61251500D01*
X-9342961Y-61251500D01*
X-9199038Y-61251500D01*
X-9199036Y-61251499D01*
X-9060950Y-61210954D01*
X-9060949Y-61210953D01*
X-9060947Y-61210953D01*
X-8939872Y-61133143D01*
X-8922093Y-61112625D01*
X-8845623Y-61024374D01*
X-8845623Y-61024372D01*
X-8785834Y-60893455D01*
X-8765353Y-60751000D01*
X-8785834Y-60608544D01*
X-8845623Y-60477627D01*
X-8845623Y-60477625D01*
X-8939871Y-60368857D01*
X-9060950Y-60291045D01*
X-9199037Y-60250500D01*
X-9199039Y-60250500D01*
X-9342961Y-60250500D01*
X-9342963Y-60250500D01*
X-9481049Y-60291045D01*
X-9481051Y-60291046D01*
X-9481053Y-60291047D01*
X-9570579Y-60348582D01*
X-9602128Y-60368857D01*
X-9696376Y-60477625D01*
X-9696377Y-60477627D01*
X-9756165Y-60608543D01*
X-9776647Y-60751000D01*
X-10456558Y-60751000D01*
X-8956163Y-59250605D01*
X-8911969Y-59232299D01*
X-8867775Y-59250605D01*
X-8855119Y-59268831D01*
X-8807377Y-59373373D01*
X-8713128Y-59482143D01*
X-8592053Y-59559953D01*
X-8453962Y-59600499D01*
X-8453962Y-59600500D01*
X-8453961Y-59600500D01*
X-8367714Y-59600500D01*
X-8323520Y-59618806D01*
X-7999130Y-59943195D01*
X-7995466Y-59947193D01*
X-7969455Y-59978194D01*
X-7934405Y-59998428D01*
X-7929829Y-60001344D01*
X-7896684Y-60024553D01*
X-7890587Y-60026186D01*
X-7875517Y-60032428D01*
X-7870045Y-60035588D01*
X-7830183Y-60042616D01*
X-7824880Y-60043792D01*
X-7785807Y-60054263D01*
X-7745513Y-60050737D01*
X-7740067Y-60050500D01*
X3639286Y-60050500D01*
X3683480Y-60068806D01*
X3811358Y-60196684D01*
X3829028Y-60231983D01*
X3832834Y-60258456D01*
X3892622Y-60389372D01*
X3892623Y-60389374D01*
X3941052Y-60445264D01*
X3986872Y-60498143D01*
X4107947Y-60575953D01*
X4107949Y-60575953D01*
X4107950Y-60575954D01*
X4246036Y-60616499D01*
X4246038Y-60616500D01*
X4246039Y-60616500D01*
X4332286Y-60616500D01*
X4376480Y-60634806D01*
X4964854Y-61223180D01*
X4968538Y-61227200D01*
X4994544Y-61258193D01*
X4994546Y-61258195D01*
X5029587Y-61278426D01*
X5034173Y-61281347D01*
X5067313Y-61304552D01*
X5067316Y-61304554D01*
X5073411Y-61306187D01*
X5088486Y-61312430D01*
X5093955Y-61315588D01*
X5093959Y-61315588D01*
X5093960Y-61315589D01*
X5133793Y-61322613D01*
X5139107Y-61323790D01*
X5178193Y-61334264D01*
X5218498Y-61330737D01*
X5223945Y-61330500D01*
X9889059Y-61330500D01*
X9894505Y-61330737D01*
X9897364Y-61330988D01*
X9934805Y-61334264D01*
X9934805Y-61334263D01*
X9934807Y-61334264D01*
X9973913Y-61323784D01*
X9979187Y-61322615D01*
X10019045Y-61315588D01*
X10024508Y-61312432D01*
X10039584Y-61306188D01*
X10045684Y-61304554D01*
X10078830Y-61281343D01*
X10083401Y-61278431D01*
X10118455Y-61258194D01*
X10144473Y-61227184D01*
X10148136Y-61223188D01*
X10645324Y-60726000D01*
X14634417Y-60726000D01*
X14654699Y-60931930D01*
X14654700Y-60931935D01*
X14714766Y-61129949D01*
X14714768Y-61129954D01*
X14812311Y-61312444D01*
X14812319Y-61312455D01*
X14872675Y-61386000D01*
X14943590Y-61472410D01*
X15103550Y-61603685D01*
X15103553Y-61603686D01*
X15103555Y-61603688D01*
X15131420Y-61618582D01*
X15286046Y-61701232D01*
X15484066Y-61761300D01*
X15638392Y-61776500D01*
X15638396Y-61776500D01*
X15891604Y-61776500D01*
X15891608Y-61776500D01*
X16045934Y-61761300D01*
X16243954Y-61701232D01*
X16426450Y-61603685D01*
X16586410Y-61472410D01*
X16717685Y-61312450D01*
X16815232Y-61129954D01*
X16875300Y-60931934D01*
X16895583Y-60726000D01*
X16875300Y-60520066D01*
X16815232Y-60322046D01*
X16738101Y-60177745D01*
X16717688Y-60139555D01*
X16717686Y-60139553D01*
X16717685Y-60139550D01*
X16602985Y-59999787D01*
X16586411Y-59979591D01*
X16586408Y-59979588D01*
X16426455Y-59848319D01*
X16426453Y-59848318D01*
X16426450Y-59848315D01*
X16426448Y-59848313D01*
X16426444Y-59848311D01*
X16243954Y-59750768D01*
X16243949Y-59750766D01*
X16045935Y-59690700D01*
X16045930Y-59690699D01*
X15952404Y-59681487D01*
X15891608Y-59675500D01*
X15638392Y-59675500D01*
X15583047Y-59680951D01*
X15484069Y-59690699D01*
X15484064Y-59690700D01*
X15286050Y-59750766D01*
X15286045Y-59750768D01*
X15103555Y-59848311D01*
X15103544Y-59848319D01*
X14943591Y-59979588D01*
X14943588Y-59979591D01*
X14812319Y-60139544D01*
X14812311Y-60139555D01*
X14714768Y-60322045D01*
X14714766Y-60322050D01*
X14654700Y-60520064D01*
X14654699Y-60520069D01*
X14634417Y-60725999D01*
X14634417Y-60726000D01*
X10645324Y-60726000D01*
X13145324Y-58226000D01*
X14634417Y-58226000D01*
X14654699Y-58431930D01*
X14654700Y-58431935D01*
X14714766Y-58629949D01*
X14714768Y-58629954D01*
X14812311Y-58812444D01*
X14812319Y-58812455D01*
X14869243Y-58881818D01*
X14943590Y-58972410D01*
X15103550Y-59103685D01*
X15103553Y-59103686D01*
X15103555Y-59103688D01*
X15170785Y-59139623D01*
X15286046Y-59201232D01*
X15484066Y-59261300D01*
X15638392Y-59276500D01*
X15638396Y-59276500D01*
X15891604Y-59276500D01*
X15891608Y-59276500D01*
X16045934Y-59261300D01*
X16243954Y-59201232D01*
X16426450Y-59103685D01*
X16586410Y-58972410D01*
X16717685Y-58812450D01*
X16815232Y-58629954D01*
X16875300Y-58431934D01*
X16895583Y-58226000D01*
X16875300Y-58020066D01*
X16815232Y-57822046D01*
X16757967Y-57714912D01*
X16717688Y-57639555D01*
X16717686Y-57639553D01*
X16717685Y-57639550D01*
X16665531Y-57576000D01*
X16586411Y-57479591D01*
X16586408Y-57479588D01*
X16426455Y-57348319D01*
X16426453Y-57348318D01*
X16426450Y-57348315D01*
X16426448Y-57348313D01*
X16426444Y-57348311D01*
X16243954Y-57250768D01*
X16243949Y-57250766D01*
X16045935Y-57190700D01*
X16045930Y-57190699D01*
X15952404Y-57181487D01*
X15891608Y-57175500D01*
X15638392Y-57175500D01*
X15583047Y-57180951D01*
X15484069Y-57190699D01*
X15484064Y-57190700D01*
X15286050Y-57250766D01*
X15286045Y-57250768D01*
X15103555Y-57348311D01*
X15103544Y-57348319D01*
X14943591Y-57479588D01*
X14943588Y-57479591D01*
X14812319Y-57639544D01*
X14812311Y-57639555D01*
X14714768Y-57822045D01*
X14714766Y-57822050D01*
X14654700Y-58020064D01*
X14654699Y-58020069D01*
X14634417Y-58225999D01*
X14634417Y-58226000D01*
X13145324Y-58226000D01*
X18125189Y-53246135D01*
X18129187Y-53242471D01*
X18160194Y-53216455D01*
X18180431Y-53181401D01*
X18183343Y-53176830D01*
X18206554Y-53143684D01*
X18208188Y-53137584D01*
X18214432Y-53122508D01*
X18217588Y-53117045D01*
X18224615Y-53077187D01*
X18225786Y-53071908D01*
X18236264Y-53032807D01*
X18232737Y-52992501D01*
X18232500Y-52987055D01*
X18232500Y-36084932D01*
X18232738Y-36079484D01*
X18236263Y-36039193D01*
X18225788Y-36000102D01*
X18224615Y-35994813D01*
X18217588Y-35954955D01*
X18214429Y-35949483D01*
X18208187Y-35934414D01*
X18206554Y-35928316D01*
X18183352Y-35895180D01*
X18180425Y-35890584D01*
X18160196Y-35855548D01*
X18160193Y-35855544D01*
X18129204Y-35829541D01*
X18125184Y-35825857D01*
X8881074Y-26581748D01*
X11626500Y-26581748D01*
X11638132Y-26640230D01*
X11638133Y-26640232D01*
X11682447Y-26706552D01*
X11748767Y-26750866D01*
X11748769Y-26750867D01*
X11807252Y-26762500D01*
X13846748Y-26762500D01*
X13905231Y-26750867D01*
X13971552Y-26706552D01*
X14015867Y-26640231D01*
X14027500Y-26581748D01*
X14027500Y-24542252D01*
X14015867Y-24483769D01*
X14015866Y-24483767D01*
X13971552Y-24417447D01*
X13905232Y-24373133D01*
X13905230Y-24373132D01*
X13846748Y-24361500D01*
X11807252Y-24361500D01*
X11748769Y-24373132D01*
X11748767Y-24373133D01*
X11682447Y-24417447D01*
X11638133Y-24483767D01*
X11638132Y-24483769D01*
X11626500Y-24542251D01*
X11626500Y-26581748D01*
X8881074Y-26581748D01*
X1258144Y-18958818D01*
X1254460Y-18954798D01*
X1228455Y-18923806D01*
X1193413Y-18903574D01*
X1188816Y-18900645D01*
X1155684Y-18877446D01*
X1155682Y-18877445D01*
X1155680Y-18877444D01*
X1149582Y-18875810D01*
X1134516Y-18869570D01*
X1129045Y-18866412D01*
X1129042Y-18866410D01*
X1089210Y-18859387D01*
X1083888Y-18858207D01*
X1044808Y-18847735D01*
X1007231Y-18851023D01*
X1004505Y-18851262D01*
X999059Y-18851500D01*
X-6189286Y-18851500D01*
X-6233480Y-18833194D01*
X-7663194Y-17403480D01*
X-7681500Y-17359286D01*
X-7681500Y-16625251D01*
X-7693132Y-16566769D01*
X-7693133Y-16566767D01*
X-7737447Y-16500447D01*
X-7803767Y-16456133D01*
X-7803769Y-16456132D01*
X-7862252Y-16444500D01*
X-8901748Y-16444500D01*
X-8960230Y-16456132D01*
X-8960232Y-16456133D01*
X-9026552Y-16500447D01*
X-9070866Y-16566767D01*
X-9070867Y-16566769D01*
X-9082500Y-16625252D01*
X-9082500Y-17664748D01*
X-9070867Y-17723231D01*
X-9026552Y-17789552D01*
X-8960231Y-17833867D01*
X-8901748Y-17845500D01*
X-8167714Y-17845500D01*
X-8123519Y-17863806D01*
X-6592135Y-19395189D01*
X-6588471Y-19399187D01*
X-6562455Y-19430194D01*
X-6527401Y-19450431D01*
X-6522830Y-19453343D01*
X-6489684Y-19476554D01*
X-6483584Y-19478188D01*
X-6468508Y-19484432D01*
X-6463045Y-19487588D01*
X-6423187Y-19494615D01*
X-6417913Y-19495784D01*
X-6378807Y-19506264D01*
X-6338505Y-19502737D01*
X-6333059Y-19502500D01*
X855286Y-19502500D01*
X899480Y-19520806D01*
X17563194Y-36184520D01*
X17581500Y-36228714D01*
X17581500Y-52843286D01*
X17563194Y-52887480D01*
X9789480Y-60661194D01*
X9745286Y-60679500D01*
X5849786Y-60679500D01*
X5805592Y-60661194D01*
X5787286Y-60617000D01*
X5805592Y-60572806D01*
X5815991Y-60564424D01*
X5919128Y-60498143D01*
X5949518Y-60463071D01*
X5992293Y-60441659D01*
X5996752Y-60441500D01*
X9381059Y-60441500D01*
X9386505Y-60441737D01*
X9397562Y-60442705D01*
X9426805Y-60445264D01*
X9426805Y-60445263D01*
X9426807Y-60445264D01*
X9465913Y-60434784D01*
X9471187Y-60433615D01*
X9511045Y-60426588D01*
X9516508Y-60423432D01*
X9531584Y-60417188D01*
X9537684Y-60415554D01*
X9570830Y-60392343D01*
X9575401Y-60389431D01*
X9610455Y-60369194D01*
X9636473Y-60338184D01*
X9640136Y-60334188D01*
X17109195Y-52865130D01*
X17113193Y-52861466D01*
X17144194Y-52835455D01*
X17164429Y-52800404D01*
X17167341Y-52795833D01*
X17190554Y-52762684D01*
X17192188Y-52756584D01*
X17198432Y-52741508D01*
X17201588Y-52736045D01*
X17208615Y-52696184D01*
X17209787Y-52690901D01*
X17220263Y-52651807D01*
X17216738Y-52611513D01*
X17216500Y-52606066D01*
X17216500Y-36592941D01*
X17216738Y-36587493D01*
X17220264Y-36547193D01*
X17210152Y-36509457D01*
X17209790Y-36508107D01*
X17208613Y-36502793D01*
X17201589Y-36462960D01*
X17201588Y-36462959D01*
X17201588Y-36462955D01*
X17198430Y-36457486D01*
X17192187Y-36442411D01*
X17190554Y-36436316D01*
X17167347Y-36403173D01*
X17164431Y-36398597D01*
X17144194Y-36363545D01*
X17113198Y-36337536D01*
X17109178Y-36333852D01*
X750144Y-19974818D01*
X746460Y-19970798D01*
X720455Y-19939806D01*
X685413Y-19919574D01*
X680816Y-19916645D01*
X647684Y-19893446D01*
X647682Y-19893445D01*
X647680Y-19893444D01*
X641582Y-19891810D01*
X626516Y-19885570D01*
X621045Y-19882412D01*
X621042Y-19882410D01*
X581210Y-19875387D01*
X575888Y-19874207D01*
X536808Y-19863735D01*
X499231Y-19867023D01*
X496505Y-19867262D01*
X491059Y-19867500D01*
X-6333059Y-19867500D01*
X-6338505Y-19867262D01*
X-6341231Y-19867023D01*
X-6378808Y-19863735D01*
X-6417888Y-19874207D01*
X-6423210Y-19875387D01*
X-6463042Y-19882410D01*
X-6463045Y-19882412D01*
X-6468516Y-19885570D01*
X-6483582Y-19891810D01*
X-6489680Y-19893444D01*
X-6489682Y-19893445D01*
X-6489684Y-19893446D01*
X-6522816Y-19916645D01*
X-6527413Y-19919574D01*
X-6562455Y-19939806D01*
X-6588462Y-19970800D01*
X-6592146Y-19974820D01*
X-8123520Y-21506194D01*
X-8167714Y-21524500D01*
X-8901748Y-21524500D01*
X-8960230Y-21536132D01*
X-8960232Y-21536133D01*
X-9026552Y-21580447D01*
X-9070866Y-21646767D01*
X-9070867Y-21646769D01*
X-9082500Y-21705252D01*
X-9082500Y-22744748D01*
X-9070867Y-22803231D01*
X-9026552Y-22869552D01*
X-8960231Y-22913867D01*
X-8901748Y-22925500D01*
X-7862252Y-22925500D01*
X-7803769Y-22913867D01*
X-7803767Y-22913866D01*
X-7737447Y-22869552D01*
X-7693133Y-22803232D01*
X-7693132Y-22803230D01*
X-7681500Y-22744748D01*
X-7681500Y-22010714D01*
X-7663194Y-21966520D01*
X-6233480Y-20536806D01*
X-6189286Y-20518500D01*
X347286Y-20518500D01*
X391480Y-20536806D01*
X16547194Y-36692520D01*
X16565500Y-36736714D01*
X16565500Y-52462285D01*
X16547194Y-52506479D01*
X9281480Y-59772194D01*
X9237286Y-59790500D01*
X5996752Y-59790500D01*
X5952558Y-59772194D01*
X5949518Y-59768929D01*
X5919128Y-59733857D01*
X5851974Y-59690700D01*
X5798053Y-59656047D01*
X5798051Y-59656046D01*
X5798049Y-59656045D01*
X5659963Y-59615500D01*
X5659961Y-59615500D01*
X5573714Y-59615500D01*
X5529520Y-59597194D01*
X4814144Y-58881818D01*
X4810460Y-58877798D01*
X4784455Y-58846806D01*
X4749413Y-58826574D01*
X4744816Y-58823645D01*
X4711684Y-58800446D01*
X4711682Y-58800445D01*
X4711680Y-58800444D01*
X4705582Y-58798810D01*
X4690516Y-58792570D01*
X4685045Y-58789412D01*
X4685042Y-58789410D01*
X4645210Y-58782387D01*
X4639888Y-58781207D01*
X4600808Y-58770735D01*
X4563231Y-58774023D01*
X4560505Y-58774262D01*
X4555059Y-58774500D01*
X-6576248Y-58774500D01*
X-6620442Y-58756194D01*
X-6623482Y-58752929D01*
X-6653871Y-58717857D01*
X-6774950Y-58640045D01*
X-6913037Y-58599500D01*
X-6913039Y-58599500D01*
X-7056961Y-58599500D01*
X-7056963Y-58599500D01*
X-7195049Y-58640045D01*
X-7195051Y-58640046D01*
X-7195053Y-58640047D01*
X-7293855Y-58703543D01*
X-7316128Y-58717857D01*
X-7410376Y-58826625D01*
X-7410377Y-58826627D01*
X-7470165Y-58957543D01*
X-7490647Y-59100000D01*
X-7470165Y-59242457D01*
X-7438844Y-59311037D01*
X-7437137Y-59358841D01*
X-7469733Y-59393852D01*
X-7495697Y-59399500D01*
X-7596285Y-59399500D01*
X-7640479Y-59381194D01*
X-7859927Y-59161744D01*
X-7878233Y-59117550D01*
X-7877597Y-59108659D01*
X-7876353Y-59100003D01*
X-7876353Y-59100000D01*
X-7896834Y-58957544D01*
X-7956623Y-58826627D01*
X-7956623Y-58826625D01*
X-8050873Y-58717854D01*
X-8171942Y-58640049D01*
X-8171951Y-58640045D01*
X-8205117Y-58630307D01*
X-8242364Y-58600292D01*
X-8247477Y-58552731D01*
X-8231703Y-58526145D01*
X-7281558Y-57576000D01*
X-4569647Y-57576000D01*
X-4549165Y-57718457D01*
X-4489377Y-57849373D01*
X-4395128Y-57958143D01*
X-4274053Y-58035953D01*
X-4135962Y-58076499D01*
X-4135962Y-58076500D01*
X-4135961Y-58076500D01*
X-3992038Y-58076500D01*
X-3992036Y-58076499D01*
X-3853950Y-58035954D01*
X-3853949Y-58035953D01*
X-3853947Y-58035953D01*
X-3732872Y-57958143D01*
X-3732871Y-57958142D01*
X-3638623Y-57849374D01*
X-3638623Y-57849372D01*
X-3628354Y-57826888D01*
X-3578835Y-57718457D01*
X-3578834Y-57718455D01*
X-3558353Y-57576000D01*
X-3578834Y-57433544D01*
X-3638623Y-57302627D01*
X-3638623Y-57302625D01*
X-3732871Y-57193857D01*
X-3853950Y-57116045D01*
X-3992037Y-57075500D01*
X-3992039Y-57075500D01*
X-4135961Y-57075500D01*
X-4135963Y-57075500D01*
X-4274049Y-57116045D01*
X-4274051Y-57116046D01*
X-4274053Y-57116047D01*
X-4322145Y-57146954D01*
X-4395128Y-57193857D01*
X-4489376Y-57302625D01*
X-4489377Y-57302627D01*
X-4549165Y-57433543D01*
X-4569647Y-57576000D01*
X-7281558Y-57576000D01*
X-6101364Y-56395806D01*
X-6057170Y-56377500D01*
X-3202752Y-56377500D01*
X-3158558Y-56395806D01*
X-3155518Y-56399071D01*
X-3125128Y-56434143D01*
X-3004053Y-56511953D01*
X-2865962Y-56552499D01*
X-2865962Y-56552500D01*
X-2865961Y-56552500D01*
X-2722038Y-56552500D01*
X-2722036Y-56552499D01*
X-2583950Y-56511954D01*
X-2583949Y-56511953D01*
X-2583947Y-56511953D01*
X-2462872Y-56434143D01*
X-2429653Y-56395806D01*
X-2368623Y-56325374D01*
X-2368623Y-56325372D01*
X-2308834Y-56194455D01*
X-2288353Y-56052000D01*
X-2308834Y-55909544D01*
X-2368623Y-55778627D01*
X-2368623Y-55778625D01*
X-2462871Y-55669857D01*
X-2583950Y-55592045D01*
X-2722037Y-55551500D01*
X-2722039Y-55551500D01*
X-2865961Y-55551500D01*
X-2865963Y-55551500D01*
X-3004049Y-55592045D01*
X-3004051Y-55592046D01*
X-3004053Y-55592047D01*
X-3125128Y-55669857D01*
X-3155518Y-55704929D01*
X-3198293Y-55726341D01*
X-3202752Y-55726500D01*
X-6200943Y-55726500D01*
X-6206389Y-55726262D01*
X-6209115Y-55726023D01*
X-6246692Y-55722735D01*
X-6285772Y-55733207D01*
X-6291094Y-55734387D01*
X-6330926Y-55741410D01*
X-6330929Y-55741412D01*
X-6336400Y-55744570D01*
X-6351466Y-55750810D01*
X-6357564Y-55752444D01*
X-6357566Y-55752445D01*
X-6357568Y-55752446D01*
X-6390700Y-55775645D01*
X-6395297Y-55778574D01*
X-6430339Y-55798806D01*
X-6456346Y-55829800D01*
X-6460030Y-55833820D01*
X-14335404Y-63709194D01*
X-14379598Y-63727500D01*
X-20165248Y-63727500D01*
X-20209442Y-63709194D01*
X-20212482Y-63705929D01*
X-20242871Y-63670857D01*
X-20363950Y-63593045D01*
X-20502037Y-63552500D01*
X-20502039Y-63552500D01*
X-20645961Y-63552500D01*
X-20645963Y-63552500D01*
X-20784049Y-63593045D01*
X-20784051Y-63593046D01*
X-20784053Y-63593047D01*
X-20905128Y-63670857D01*
X-20999376Y-63779625D01*
X-20999377Y-63779627D01*
X-21059165Y-63910543D01*
X-21079647Y-64053000D01*
X-21764674Y-64053000D01*
X-14398674Y-56687000D01*
X-11173647Y-56687000D01*
X-11153165Y-56829457D01*
X-11093377Y-56960373D01*
X-10999128Y-57069143D01*
X-10878053Y-57146953D01*
X-10739962Y-57187499D01*
X-10739962Y-57187500D01*
X-10739961Y-57187500D01*
X-10596038Y-57187500D01*
X-10596036Y-57187499D01*
X-10457950Y-57146954D01*
X-10457949Y-57146953D01*
X-10457947Y-57146953D01*
X-10336872Y-57069143D01*
X-10326518Y-57057194D01*
X-10242623Y-56960374D01*
X-10242623Y-56960372D01*
X-10199891Y-56866805D01*
X-10182835Y-56829457D01*
X-10182834Y-56829455D01*
X-10162353Y-56687000D01*
X-10182834Y-56544544D01*
X-10242623Y-56413627D01*
X-10242623Y-56413625D01*
X-10336871Y-56304857D01*
X-10457950Y-56227045D01*
X-10596037Y-56186500D01*
X-10596039Y-56186500D01*
X-10739961Y-56186500D01*
X-10739963Y-56186500D01*
X-10878049Y-56227045D01*
X-10878051Y-56227046D01*
X-10878053Y-56227047D01*
X-10999128Y-56304857D01*
X-11093376Y-56413625D01*
X-11093377Y-56413627D01*
X-11153165Y-56544543D01*
X-11173647Y-56687000D01*
X-14398674Y-56687000D01*
X-8900480Y-51188806D01*
X-8856286Y-51170500D01*
X-7139752Y-51170500D01*
X-7095558Y-51188806D01*
X-7092518Y-51192071D01*
X-7062128Y-51227143D01*
X-6941053Y-51304953D01*
X-6802962Y-51345499D01*
X-6802962Y-51345500D01*
X-6802961Y-51345500D01*
X-6659038Y-51345500D01*
X-6659036Y-51345499D01*
X-6520950Y-51304954D01*
X-6520949Y-51304953D01*
X-6520947Y-51304953D01*
X-6399872Y-51227143D01*
X-6366653Y-51188806D01*
X-6305623Y-51118374D01*
X-6305623Y-51118372D01*
X-6245834Y-50987455D01*
X-6225353Y-50845000D01*
X-6245834Y-50702544D01*
X-6305623Y-50571627D01*
X-6305623Y-50571625D01*
X-6399871Y-50462857D01*
X-6520950Y-50385045D01*
X-6659037Y-50344500D01*
X-6659039Y-50344500D01*
X-6802961Y-50344500D01*
X-6802963Y-50344500D01*
X-6941049Y-50385045D01*
X-6941051Y-50385046D01*
X-6941053Y-50385047D01*
X-7062128Y-50462857D01*
X-7092518Y-50497929D01*
X-7135293Y-50519341D01*
X-7139752Y-50519500D01*
X-9000059Y-50519500D01*
X-9005505Y-50519262D01*
X-9008231Y-50519023D01*
X-9045808Y-50515735D01*
X-9084888Y-50526207D01*
X-9090210Y-50527387D01*
X-9130042Y-50534410D01*
X-9130045Y-50534412D01*
X-9135516Y-50537570D01*
X-9150582Y-50543810D01*
X-9156680Y-50545444D01*
X-9156682Y-50545445D01*
X-9156684Y-50545446D01*
X-9189816Y-50568645D01*
X-9194413Y-50571574D01*
X-9229455Y-50591806D01*
X-9255462Y-50622800D01*
X-9259146Y-50626820D01*
X-24738180Y-66105854D01*
X-24742200Y-66109538D01*
X-24773193Y-66135544D01*
X-24773195Y-66135546D01*
X-24793426Y-66170587D01*
X-24796347Y-66175173D01*
X-24819554Y-66208316D01*
X-24821187Y-66214411D01*
X-24827430Y-66229486D01*
X-24830588Y-66234955D01*
X-24830588Y-66234959D01*
X-24830589Y-66234960D01*
X-24837613Y-66274793D01*
X-24838793Y-66280118D01*
X-24849264Y-66319193D01*
X-24845738Y-66359493D01*
X-24845500Y-66364941D01*
X-24845500Y-99211436D01*
X-24860765Y-99252364D01*
X-24926067Y-99327729D01*
X-24936377Y-99339627D01*
X-24996165Y-99470543D01*
X-25016647Y-99613000D01*
X-27050500Y-99613000D01*
X-27050500Y-62656000D01*
X-22984647Y-62656000D01*
X-22964165Y-62798457D01*
X-22904377Y-62929373D01*
X-22810128Y-63038143D01*
X-22689053Y-63115953D01*
X-22550962Y-63156499D01*
X-22550962Y-63156500D01*
X-22550961Y-63156500D01*
X-22407038Y-63156500D01*
X-22407036Y-63156499D01*
X-22268950Y-63115954D01*
X-22268949Y-63115953D01*
X-22268947Y-63115953D01*
X-22147872Y-63038143D01*
X-22147871Y-63038142D01*
X-22053623Y-62929374D01*
X-22053623Y-62929372D01*
X-21993834Y-62798455D01*
X-21973353Y-62656000D01*
X-21974598Y-62647337D01*
X-21962764Y-62600988D01*
X-21956927Y-62594253D01*
X-19835818Y-60473144D01*
X-19831798Y-60469460D01*
X-19800806Y-60443455D01*
X-19780574Y-60408413D01*
X-19777645Y-60403816D01*
X-19754446Y-60370684D01*
X-19754445Y-60370682D01*
X-19754444Y-60370680D01*
X-19752810Y-60364582D01*
X-19746570Y-60349516D01*
X-19743412Y-60344045D01*
X-19743410Y-60344042D01*
X-19736387Y-60304210D01*
X-19735207Y-60298888D01*
X-19724735Y-60259808D01*
X-19724736Y-60259807D01*
X-19728262Y-60219506D01*
X-19728500Y-60214058D01*
X-19728500Y-52551597D01*
X-19710194Y-52507403D01*
X-19666000Y-52489097D01*
X-19632210Y-52499017D01*
X-19514053Y-52574953D01*
X-19375962Y-52615499D01*
X-19375962Y-52615500D01*
X-19375961Y-52615500D01*
X-19232038Y-52615500D01*
X-19232036Y-52615499D01*
X-19218460Y-52611513D01*
X-19093947Y-52574953D01*
X-18972872Y-52497143D01*
X-18965900Y-52489097D01*
X-18878623Y-52388374D01*
X-18878623Y-52388372D01*
X-18818834Y-52257455D01*
X-18798353Y-52115000D01*
X-18818834Y-51972544D01*
X-18878623Y-51841627D01*
X-18878623Y-51841625D01*
X-18972871Y-51732857D01*
X-19093950Y-51655045D01*
X-19232037Y-51614500D01*
X-19232039Y-51614500D01*
X-19375961Y-51614500D01*
X-19375963Y-51614500D01*
X-19514049Y-51655045D01*
X-19514051Y-51655046D01*
X-19514053Y-51655047D01*
X-19602974Y-51712193D01*
X-19632210Y-51730982D01*
X-19679286Y-51739475D01*
X-19718579Y-51712193D01*
X-19728500Y-51678403D01*
X-19728500Y-49345506D01*
X-19710194Y-49301312D01*
X-18078881Y-47670000D01*
X-13459647Y-47670000D01*
X-13439165Y-47812457D01*
X-13379377Y-47943373D01*
X-13285128Y-48052143D01*
X-13164053Y-48129953D01*
X-13025962Y-48170499D01*
X-13025962Y-48170500D01*
X-13025961Y-48170500D01*
X-12882038Y-48170500D01*
X-12882036Y-48170499D01*
X-12743950Y-48129954D01*
X-12743949Y-48129953D01*
X-12743947Y-48129953D01*
X-12622872Y-48052143D01*
X-12622871Y-48052142D01*
X-12528623Y-47943374D01*
X-12528623Y-47943372D01*
X-12468834Y-47812455D01*
X-12448353Y-47670000D01*
X-1394647Y-47670000D01*
X-1374165Y-47812457D01*
X-1314377Y-47943373D01*
X-1220128Y-48052143D01*
X-1099053Y-48129953D01*
X-960962Y-48170499D01*
X-960962Y-48170500D01*
X-960961Y-48170500D01*
X-817038Y-48170500D01*
X-817036Y-48170499D01*
X-678950Y-48129954D01*
X-678949Y-48129953D01*
X-678947Y-48129953D01*
X-557872Y-48052143D01*
X-557871Y-48052142D01*
X-463623Y-47943374D01*
X-463623Y-47943372D01*
X-403834Y-47812455D01*
X-383353Y-47670000D01*
X10670353Y-47670000D01*
X10690834Y-47812455D01*
X10750623Y-47943372D01*
X10750623Y-47943374D01*
X10844871Y-48052142D01*
X10844872Y-48052143D01*
X10965947Y-48129953D01*
X10965949Y-48129953D01*
X10965950Y-48129954D01*
X11104036Y-48170499D01*
X11104038Y-48170500D01*
X11104039Y-48170500D01*
X11247962Y-48170500D01*
X11247962Y-48170499D01*
X11386053Y-48129953D01*
X11507128Y-48052143D01*
X11601377Y-47943373D01*
X11661165Y-47812457D01*
X11681647Y-47670000D01*
X11661165Y-47527543D01*
X11601377Y-47396627D01*
X11601376Y-47396625D01*
X11507128Y-47287857D01*
X11386053Y-47210047D01*
X11386051Y-47210046D01*
X11386049Y-47210045D01*
X11247963Y-47169500D01*
X11247961Y-47169500D01*
X11104039Y-47169500D01*
X11104037Y-47169500D01*
X10965950Y-47210045D01*
X10844871Y-47287857D01*
X10750623Y-47396625D01*
X10750623Y-47396627D01*
X10690834Y-47527544D01*
X10670353Y-47670000D01*
X-383353Y-47670000D01*
X-403834Y-47527544D01*
X-463623Y-47396627D01*
X-463623Y-47396625D01*
X-557871Y-47287857D01*
X-678950Y-47210045D01*
X-817037Y-47169500D01*
X-817039Y-47169500D01*
X-960961Y-47169500D01*
X-960963Y-47169500D01*
X-1099049Y-47210045D01*
X-1099051Y-47210046D01*
X-1099053Y-47210047D01*
X-1220128Y-47287857D01*
X-1314376Y-47396625D01*
X-1314377Y-47396627D01*
X-1374165Y-47527543D01*
X-1394647Y-47670000D01*
X-12448353Y-47670000D01*
X-12468834Y-47527544D01*
X-12528623Y-47396627D01*
X-12528623Y-47396625D01*
X-12622871Y-47287857D01*
X-12743950Y-47210045D01*
X-12882037Y-47169500D01*
X-12882039Y-47169500D01*
X-13025961Y-47169500D01*
X-13025963Y-47169500D01*
X-13164049Y-47210045D01*
X-13164051Y-47210046D01*
X-13164053Y-47210047D01*
X-13285128Y-47287857D01*
X-13379376Y-47396625D01*
X-13379377Y-47396627D01*
X-13439165Y-47527543D01*
X-13459647Y-47670000D01*
X-18078881Y-47670000D01*
X-16836583Y-46427702D01*
X-16792389Y-46409396D01*
X5887163Y-46409396D01*
X5892609Y-46409633D01*
X5903666Y-46410601D01*
X5932909Y-46413160D01*
X5932909Y-46413159D01*
X5932911Y-46413160D01*
X5972017Y-46402680D01*
X5977291Y-46401511D01*
X6017149Y-46394484D01*
X6022612Y-46391328D01*
X6037688Y-46385084D01*
X6043788Y-46383450D01*
X6076934Y-46360239D01*
X6081505Y-46357327D01*
X6116559Y-46337090D01*
X6142577Y-46306080D01*
X6146240Y-46302084D01*
X7307520Y-45140806D01*
X7351714Y-45122500D01*
X7437962Y-45122500D01*
X7437962Y-45122499D01*
X7576053Y-45081953D01*
X7697128Y-45004143D01*
X7791377Y-44895373D01*
X7851165Y-44764457D01*
X7871647Y-44622000D01*
X7853387Y-44495000D01*
X8130353Y-44495000D01*
X8150834Y-44637455D01*
X8210623Y-44768372D01*
X8210623Y-44768374D01*
X8304871Y-44877142D01*
X8304872Y-44877143D01*
X8425947Y-44954953D01*
X8425949Y-44954953D01*
X8425950Y-44954954D01*
X8564036Y-44995499D01*
X8564038Y-44995500D01*
X8564039Y-44995500D01*
X8707962Y-44995500D01*
X8707962Y-44995499D01*
X8846053Y-44954953D01*
X8967128Y-44877143D01*
X9061377Y-44768373D01*
X9121165Y-44637457D01*
X9141647Y-44495000D01*
X9121165Y-44352543D01*
X9061377Y-44221627D01*
X9061376Y-44221625D01*
X8967128Y-44112857D01*
X8846053Y-44035047D01*
X8846051Y-44035046D01*
X8846049Y-44035045D01*
X8707963Y-43994500D01*
X8707961Y-43994500D01*
X8564039Y-43994500D01*
X8564037Y-43994500D01*
X8425950Y-44035045D01*
X8304871Y-44112857D01*
X8210623Y-44221625D01*
X8210623Y-44221627D01*
X8150834Y-44352544D01*
X8130353Y-44495000D01*
X7853387Y-44495000D01*
X7851165Y-44479543D01*
X7791377Y-44348627D01*
X7791376Y-44348625D01*
X7697128Y-44239857D01*
X7576053Y-44162047D01*
X7576051Y-44162046D01*
X7576049Y-44162045D01*
X7437963Y-44121500D01*
X7437961Y-44121500D01*
X7294039Y-44121500D01*
X7294037Y-44121500D01*
X7155950Y-44162045D01*
X7034871Y-44239857D01*
X6940623Y-44348625D01*
X6940623Y-44348627D01*
X6880834Y-44479544D01*
X6860353Y-44622000D01*
X6860353Y-44622004D01*
X6861597Y-44630660D01*
X6849765Y-44677009D01*
X6843927Y-44683745D01*
X5787584Y-45740090D01*
X5743390Y-45758396D01*
X-5224182Y-45758396D01*
X-5268376Y-45740090D01*
X-5286682Y-45695896D01*
X-5268376Y-45651702D01*
X-4757480Y-45140806D01*
X-4713286Y-45122500D01*
X-4627038Y-45122500D01*
X-4627036Y-45122499D01*
X-4488950Y-45081954D01*
X-4488949Y-45081953D01*
X-4488947Y-45081953D01*
X-4367872Y-45004143D01*
X-4360382Y-44995499D01*
X-4273623Y-44895374D01*
X-4273623Y-44895372D01*
X-4213834Y-44764455D01*
X-4193353Y-44622000D01*
X-4211612Y-44495000D01*
X-3934647Y-44495000D01*
X-3914165Y-44637457D01*
X-3854377Y-44768373D01*
X-3760128Y-44877143D01*
X-3639053Y-44954953D01*
X-3500962Y-44995499D01*
X-3500962Y-44995500D01*
X-3500961Y-44995500D01*
X-3357038Y-44995500D01*
X-3357036Y-44995499D01*
X-3218950Y-44954954D01*
X-3218949Y-44954953D01*
X-3218947Y-44954953D01*
X-3097872Y-44877143D01*
X-3097871Y-44877142D01*
X-3003623Y-44768374D01*
X-3003623Y-44768372D01*
X-2943834Y-44637455D01*
X-2923353Y-44495000D01*
X-2943834Y-44352544D01*
X-3003623Y-44221627D01*
X-3003623Y-44221625D01*
X-3097871Y-44112857D01*
X-3218950Y-44035045D01*
X-3357037Y-43994500D01*
X-3357039Y-43994500D01*
X-3500961Y-43994500D01*
X-3500963Y-43994500D01*
X-3639049Y-44035045D01*
X-3639051Y-44035046D01*
X-3639053Y-44035047D01*
X-3760128Y-44112857D01*
X-3854376Y-44221625D01*
X-3854377Y-44221627D01*
X-3914165Y-44352543D01*
X-3934647Y-44495000D01*
X-4211612Y-44495000D01*
X-4213834Y-44479544D01*
X-4273623Y-44348627D01*
X-4273623Y-44348625D01*
X-4367871Y-44239857D01*
X-4488950Y-44162045D01*
X-4627037Y-44121500D01*
X-4627039Y-44121500D01*
X-4770961Y-44121500D01*
X-4770963Y-44121500D01*
X-4909049Y-44162045D01*
X-4909051Y-44162046D01*
X-4909053Y-44162047D01*
X-5030128Y-44239857D01*
X-5124376Y-44348625D01*
X-5124377Y-44348627D01*
X-5184165Y-44479543D01*
X-5204647Y-44622000D01*
X-5203402Y-44630652D01*
X-5215227Y-44677001D01*
X-5221071Y-44683745D01*
X-5704520Y-45167194D01*
X-5748714Y-45185500D01*
X-16502214Y-45185500D01*
X-16546408Y-45167194D01*
X-16564714Y-45123000D01*
X-16546408Y-45078806D01*
X-16536008Y-45070424D01*
X-16432872Y-45004143D01*
X-16425382Y-44995499D01*
X-16338623Y-44895374D01*
X-16338623Y-44895372D01*
X-16278834Y-44764455D01*
X-16258353Y-44622000D01*
X-16276612Y-44495000D01*
X-15999647Y-44495000D01*
X-15979165Y-44637457D01*
X-15919377Y-44768373D01*
X-15825128Y-44877143D01*
X-15704053Y-44954953D01*
X-15565962Y-44995499D01*
X-15565962Y-44995500D01*
X-15565961Y-44995500D01*
X-15422038Y-44995500D01*
X-15422036Y-44995499D01*
X-15283950Y-44954954D01*
X-15283949Y-44954953D01*
X-15283947Y-44954953D01*
X-15162872Y-44877143D01*
X-15162871Y-44877142D01*
X-15068623Y-44768374D01*
X-15068623Y-44768372D01*
X-15008834Y-44637455D01*
X-14988353Y-44495000D01*
X-15008834Y-44352544D01*
X-15068623Y-44221627D01*
X-15068623Y-44221625D01*
X-15162871Y-44112857D01*
X-15283950Y-44035045D01*
X-15422037Y-43994500D01*
X-15422039Y-43994500D01*
X-15565961Y-43994500D01*
X-15565963Y-43994500D01*
X-15704049Y-44035045D01*
X-15704051Y-44035046D01*
X-15704053Y-44035047D01*
X-15825128Y-44112857D01*
X-15919376Y-44221625D01*
X-15919377Y-44221627D01*
X-15979165Y-44352543D01*
X-15999647Y-44495000D01*
X-16276612Y-44495000D01*
X-16278834Y-44479544D01*
X-16338623Y-44348627D01*
X-16338623Y-44348625D01*
X-16432871Y-44239857D01*
X-16553950Y-44162045D01*
X-16692037Y-44121500D01*
X-16692039Y-44121500D01*
X-16835961Y-44121500D01*
X-16835963Y-44121500D01*
X-16974049Y-44162045D01*
X-16974051Y-44162046D01*
X-16974053Y-44162047D01*
X-17095128Y-44239857D01*
X-17189376Y-44348625D01*
X-17189377Y-44348627D01*
X-17249165Y-44479543D01*
X-17269647Y-44622000D01*
X-17268402Y-44630652D01*
X-17280227Y-44677001D01*
X-17286071Y-44683745D01*
X-20971806Y-48369480D01*
X-21016000Y-48387786D01*
X-21060194Y-48369480D01*
X-21078500Y-48325286D01*
X-21078500Y-39392506D01*
X-21060194Y-39348312D01*
X-18078881Y-36367000D01*
X-13459647Y-36367000D01*
X-13439165Y-36509457D01*
X-13379377Y-36640373D01*
X-13285128Y-36749143D01*
X-13164053Y-36826953D01*
X-13025962Y-36867499D01*
X-13025962Y-36867500D01*
X-13025961Y-36867500D01*
X-12882038Y-36867500D01*
X-12882036Y-36867499D01*
X-12743950Y-36826954D01*
X-12743949Y-36826953D01*
X-12743947Y-36826953D01*
X-12622872Y-36749143D01*
X-12573808Y-36692520D01*
X-12528623Y-36640374D01*
X-12528623Y-36640372D01*
X-12506961Y-36592941D01*
X-12468835Y-36509457D01*
X-12468834Y-36509455D01*
X-12448353Y-36367000D01*
X-1394647Y-36367000D01*
X-1374165Y-36509457D01*
X-1314377Y-36640373D01*
X-1220128Y-36749143D01*
X-1099053Y-36826953D01*
X-960962Y-36867499D01*
X-960962Y-36867500D01*
X-960961Y-36867500D01*
X-817038Y-36867500D01*
X-817036Y-36867499D01*
X-678950Y-36826954D01*
X-678949Y-36826953D01*
X-678947Y-36826953D01*
X-557872Y-36749143D01*
X-508808Y-36692520D01*
X-463623Y-36640374D01*
X-463623Y-36640372D01*
X-441961Y-36592941D01*
X-403835Y-36509457D01*
X-403834Y-36509455D01*
X-383353Y-36367000D01*
X10670353Y-36367000D01*
X10690834Y-36509455D01*
X10690835Y-36509457D01*
X10728961Y-36592941D01*
X10750623Y-36640372D01*
X10750623Y-36640374D01*
X10795808Y-36692520D01*
X10844872Y-36749143D01*
X10965947Y-36826953D01*
X10965949Y-36826953D01*
X10965950Y-36826954D01*
X11104036Y-36867499D01*
X11104038Y-36867500D01*
X11104039Y-36867500D01*
X11247962Y-36867500D01*
X11247962Y-36867499D01*
X11386053Y-36826953D01*
X11507128Y-36749143D01*
X11601377Y-36640373D01*
X11661165Y-36509457D01*
X11681647Y-36367000D01*
X11661165Y-36224543D01*
X11601377Y-36093627D01*
X11601376Y-36093625D01*
X11507128Y-35984857D01*
X11441004Y-35942362D01*
X11386053Y-35907047D01*
X11386051Y-35907046D01*
X11386049Y-35907045D01*
X11247963Y-35866500D01*
X11247961Y-35866500D01*
X11104039Y-35866500D01*
X11104037Y-35866500D01*
X10965950Y-35907045D01*
X10844871Y-35984857D01*
X10750623Y-36093625D01*
X10750623Y-36093627D01*
X10690834Y-36224544D01*
X10670353Y-36367000D01*
X-383353Y-36367000D01*
X-403834Y-36224544D01*
X-463623Y-36093627D01*
X-463623Y-36093625D01*
X-557871Y-35984857D01*
X-678950Y-35907045D01*
X-817037Y-35866500D01*
X-817039Y-35866500D01*
X-960961Y-35866500D01*
X-960963Y-35866500D01*
X-1099049Y-35907045D01*
X-1099051Y-35907046D01*
X-1099053Y-35907047D01*
X-1154004Y-35942362D01*
X-1220128Y-35984857D01*
X-1314376Y-36093625D01*
X-1314377Y-36093627D01*
X-1374165Y-36224543D01*
X-1394647Y-36367000D01*
X-12448353Y-36367000D01*
X-12468834Y-36224544D01*
X-12528623Y-36093627D01*
X-12528623Y-36093625D01*
X-12622871Y-35984857D01*
X-12743950Y-35907045D01*
X-12882037Y-35866500D01*
X-12882039Y-35866500D01*
X-13025961Y-35866500D01*
X-13025963Y-35866500D01*
X-13164049Y-35907045D01*
X-13164051Y-35907046D01*
X-13164053Y-35907047D01*
X-13219004Y-35942362D01*
X-13285128Y-35984857D01*
X-13379376Y-36093625D01*
X-13379377Y-36093627D01*
X-13439165Y-36224543D01*
X-13459647Y-36367000D01*
X-18078881Y-36367000D01*
X-16841385Y-35129504D01*
X-16797191Y-35111198D01*
X5882361Y-35111198D01*
X5887807Y-35111435D01*
X5898864Y-35112403D01*
X5928107Y-35114962D01*
X5928107Y-35114961D01*
X5928109Y-35114962D01*
X5967215Y-35104482D01*
X5972489Y-35103313D01*
X6012347Y-35096286D01*
X6017810Y-35093130D01*
X6032886Y-35086886D01*
X6038986Y-35085252D01*
X6072132Y-35062041D01*
X6076703Y-35059129D01*
X6111757Y-35038892D01*
X6137776Y-35007881D01*
X6141436Y-35003888D01*
X7307521Y-33837806D01*
X7351715Y-33819500D01*
X7437962Y-33819500D01*
X7437962Y-33819499D01*
X7576053Y-33778953D01*
X7697128Y-33701143D01*
X7791377Y-33592373D01*
X7851165Y-33461457D01*
X7871647Y-33319000D01*
X7853387Y-33192000D01*
X8130353Y-33192000D01*
X8150834Y-33334455D01*
X8210623Y-33465372D01*
X8210623Y-33465374D01*
X8304871Y-33574142D01*
X8304872Y-33574143D01*
X8425947Y-33651953D01*
X8425949Y-33651953D01*
X8425950Y-33651954D01*
X8564036Y-33692499D01*
X8564038Y-33692500D01*
X8564039Y-33692500D01*
X8707962Y-33692500D01*
X8707962Y-33692499D01*
X8846053Y-33651953D01*
X8967128Y-33574143D01*
X9061377Y-33465373D01*
X9121165Y-33334457D01*
X9141647Y-33192000D01*
X9121165Y-33049543D01*
X9061377Y-32918627D01*
X9061376Y-32918625D01*
X8967128Y-32809857D01*
X8846053Y-32732047D01*
X8846051Y-32732046D01*
X8846049Y-32732045D01*
X8707963Y-32691500D01*
X8707961Y-32691500D01*
X8564039Y-32691500D01*
X8564037Y-32691500D01*
X8425950Y-32732045D01*
X8304871Y-32809857D01*
X8210623Y-32918625D01*
X8210623Y-32918627D01*
X8150834Y-33049544D01*
X8130353Y-33192000D01*
X7853387Y-33192000D01*
X7851165Y-33176543D01*
X7791377Y-33045627D01*
X7791376Y-33045625D01*
X7697128Y-32936857D01*
X7576053Y-32859047D01*
X7576051Y-32859046D01*
X7576049Y-32859045D01*
X7437963Y-32818500D01*
X7437961Y-32818500D01*
X7294039Y-32818500D01*
X7294037Y-32818500D01*
X7155950Y-32859045D01*
X7034871Y-32936857D01*
X6940623Y-33045625D01*
X6940623Y-33045627D01*
X6880834Y-33176544D01*
X6860353Y-33319000D01*
X6860353Y-33319003D01*
X6861597Y-33327659D01*
X6849765Y-33374008D01*
X6843927Y-33380744D01*
X5782782Y-34441892D01*
X5738588Y-34460198D01*
X-5228984Y-34460198D01*
X-5273178Y-34441892D01*
X-5291484Y-34397698D01*
X-5273178Y-34353504D01*
X-4757480Y-33837806D01*
X-4713286Y-33819500D01*
X-4627038Y-33819500D01*
X-4627036Y-33819499D01*
X-4488950Y-33778954D01*
X-4488949Y-33778953D01*
X-4488947Y-33778953D01*
X-4367872Y-33701143D01*
X-4360382Y-33692499D01*
X-4273623Y-33592374D01*
X-4273623Y-33592372D01*
X-4213834Y-33461455D01*
X-4193353Y-33319000D01*
X-4211612Y-33192000D01*
X-3934647Y-33192000D01*
X-3914165Y-33334457D01*
X-3854377Y-33465373D01*
X-3760128Y-33574143D01*
X-3639053Y-33651953D01*
X-3500962Y-33692499D01*
X-3500962Y-33692500D01*
X-3500961Y-33692500D01*
X-3357038Y-33692500D01*
X-3357036Y-33692499D01*
X-3218950Y-33651954D01*
X-3218949Y-33651953D01*
X-3218947Y-33651953D01*
X-3097872Y-33574143D01*
X-3097871Y-33574142D01*
X-3003623Y-33465374D01*
X-3003623Y-33465372D01*
X-2943834Y-33334455D01*
X-2923353Y-33192000D01*
X-2943834Y-33049544D01*
X-3003623Y-32918627D01*
X-3003623Y-32918625D01*
X-3097871Y-32809857D01*
X-3218950Y-32732045D01*
X-3357037Y-32691500D01*
X-3357039Y-32691500D01*
X-3500961Y-32691500D01*
X-3500963Y-32691500D01*
X-3639049Y-32732045D01*
X-3639051Y-32732046D01*
X-3639053Y-32732047D01*
X-3760128Y-32809857D01*
X-3854376Y-32918625D01*
X-3854377Y-32918627D01*
X-3914165Y-33049543D01*
X-3934647Y-33192000D01*
X-4211612Y-33192000D01*
X-4213834Y-33176544D01*
X-4273623Y-33045627D01*
X-4273623Y-33045625D01*
X-4367871Y-32936857D01*
X-4488950Y-32859045D01*
X-4627037Y-32818500D01*
X-4627039Y-32818500D01*
X-4770961Y-32818500D01*
X-4770963Y-32818500D01*
X-4909049Y-32859045D01*
X-4909051Y-32859046D01*
X-4909053Y-32859047D01*
X-5030128Y-32936857D01*
X-5124376Y-33045625D01*
X-5124377Y-33045627D01*
X-5184165Y-33176543D01*
X-5204647Y-33319000D01*
X-5203402Y-33327652D01*
X-5215227Y-33374001D01*
X-5221071Y-33380745D01*
X-5832218Y-33991892D01*
X-5876412Y-34010198D01*
X-16843984Y-34010198D01*
X-16888178Y-33991892D01*
X-16906484Y-33947698D01*
X-16888178Y-33903504D01*
X-16822480Y-33837806D01*
X-16778286Y-33819500D01*
X-16692038Y-33819500D01*
X-16692036Y-33819499D01*
X-16553950Y-33778954D01*
X-16553949Y-33778953D01*
X-16553947Y-33778953D01*
X-16432872Y-33701143D01*
X-16425382Y-33692499D01*
X-16338623Y-33592374D01*
X-16338623Y-33592372D01*
X-16278834Y-33461455D01*
X-16258353Y-33319000D01*
X-16276612Y-33192000D01*
X-15999647Y-33192000D01*
X-15979165Y-33334457D01*
X-15919377Y-33465373D01*
X-15825128Y-33574143D01*
X-15704053Y-33651953D01*
X-15565962Y-33692499D01*
X-15565962Y-33692500D01*
X-15565961Y-33692500D01*
X-15422038Y-33692500D01*
X-15422036Y-33692499D01*
X-15283950Y-33651954D01*
X-15283949Y-33651953D01*
X-15283947Y-33651953D01*
X-15162872Y-33574143D01*
X-15162871Y-33574142D01*
X-15068623Y-33465374D01*
X-15068623Y-33465372D01*
X-15008834Y-33334455D01*
X-14988353Y-33192000D01*
X-15008834Y-33049544D01*
X-15068623Y-32918627D01*
X-15068623Y-32918625D01*
X-15162871Y-32809857D01*
X-15283950Y-32732045D01*
X-15422037Y-32691500D01*
X-15422039Y-32691500D01*
X-15565961Y-32691500D01*
X-15565963Y-32691500D01*
X-15704049Y-32732045D01*
X-15704051Y-32732046D01*
X-15704053Y-32732047D01*
X-15825128Y-32809857D01*
X-15919376Y-32918625D01*
X-15919377Y-32918627D01*
X-15979165Y-33049543D01*
X-15999647Y-33192000D01*
X-16276612Y-33192000D01*
X-16278834Y-33176544D01*
X-16338623Y-33045627D01*
X-16338623Y-33045625D01*
X-16432871Y-32936857D01*
X-16553950Y-32859045D01*
X-16692037Y-32818500D01*
X-16692039Y-32818500D01*
X-16835961Y-32818500D01*
X-16835963Y-32818500D01*
X-16974049Y-32859045D01*
X-16974051Y-32859046D01*
X-16974053Y-32859047D01*
X-17095128Y-32936857D01*
X-17189376Y-33045625D01*
X-17189377Y-33045627D01*
X-17249165Y-33176543D01*
X-17269647Y-33319000D01*
X-17268402Y-33327652D01*
X-17280227Y-33374001D01*
X-17286071Y-33380745D01*
X-22522180Y-38616854D01*
X-22526200Y-38620538D01*
X-22557193Y-38646544D01*
X-22557195Y-38646546D01*
X-22577426Y-38681587D01*
X-22580347Y-38686173D01*
X-22603554Y-38719316D01*
X-22605187Y-38725411D01*
X-22611430Y-38740486D01*
X-22614588Y-38745955D01*
X-22614588Y-38745959D01*
X-22614589Y-38745960D01*
X-22621613Y-38785793D01*
X-22622793Y-38791118D01*
X-22633264Y-38830193D01*
X-22629738Y-38870493D01*
X-22629500Y-38875941D01*
X-22629500Y-55781773D01*
X-22647806Y-55825967D01*
X-22674390Y-55841741D01*
X-22689054Y-55846047D01*
X-22810126Y-55923854D01*
X-22904376Y-56032625D01*
X-22904377Y-56032627D01*
X-22964165Y-56163543D01*
X-22984647Y-56306000D01*
X-22964165Y-56448457D01*
X-22904377Y-56579373D01*
X-22810128Y-56688143D01*
X-22689053Y-56765953D01*
X-22550962Y-56806499D01*
X-22550962Y-56806500D01*
X-22550961Y-56806500D01*
X-22407038Y-56806500D01*
X-22407036Y-56806499D01*
X-22323588Y-56781997D01*
X-22306175Y-56776884D01*
X-22258614Y-56781997D01*
X-22228599Y-56819244D01*
X-22233712Y-56866805D01*
X-22244373Y-56881046D01*
X-22420520Y-57057194D01*
X-22464714Y-57075500D01*
X-22550963Y-57075500D01*
X-22689049Y-57116045D01*
X-22689051Y-57116046D01*
X-22689053Y-57116047D01*
X-22737145Y-57146954D01*
X-22810128Y-57193857D01*
X-22904376Y-57302625D01*
X-22904377Y-57302627D01*
X-22964165Y-57433543D01*
X-22984647Y-57576000D01*
X-22964165Y-57718457D01*
X-22904377Y-57849373D01*
X-22810128Y-57958143D01*
X-22689053Y-58035953D01*
X-22550962Y-58076499D01*
X-22550962Y-58076500D01*
X-22550961Y-58076500D01*
X-22407038Y-58076500D01*
X-22407036Y-58076499D01*
X-22306174Y-58046884D01*
X-22258613Y-58051997D01*
X-22228598Y-58089244D01*
X-22233711Y-58136805D01*
X-22244372Y-58151046D01*
X-22420520Y-58327194D01*
X-22464714Y-58345500D01*
X-22550963Y-58345500D01*
X-22689049Y-58386045D01*
X-22689051Y-58386046D01*
X-22689053Y-58386047D01*
X-22760456Y-58431935D01*
X-22810128Y-58463857D01*
X-22904376Y-58572625D01*
X-22904377Y-58572627D01*
X-22964165Y-58703543D01*
X-22984647Y-58846000D01*
X-22964165Y-58988457D01*
X-22904377Y-59119373D01*
X-22810128Y-59228143D01*
X-22689053Y-59305953D01*
X-22550962Y-59346499D01*
X-22550962Y-59346500D01*
X-22550961Y-59346500D01*
X-22407038Y-59346500D01*
X-22407036Y-59346499D01*
X-22306174Y-59316884D01*
X-22258613Y-59321997D01*
X-22228598Y-59359244D01*
X-22233711Y-59406805D01*
X-22244372Y-59421046D01*
X-22420520Y-59597194D01*
X-22464714Y-59615500D01*
X-22550963Y-59615500D01*
X-22689049Y-59656045D01*
X-22689051Y-59656046D01*
X-22689053Y-59656047D01*
X-22742974Y-59690700D01*
X-22810128Y-59733857D01*
X-22904376Y-59842625D01*
X-22904377Y-59842627D01*
X-22964165Y-59973543D01*
X-22984647Y-60116000D01*
X-22964165Y-60258457D01*
X-22904377Y-60389373D01*
X-22810128Y-60498143D01*
X-22689053Y-60575953D01*
X-22550962Y-60616499D01*
X-22550962Y-60616500D01*
X-22550961Y-60616500D01*
X-22407038Y-60616500D01*
X-22407036Y-60616499D01*
X-22306174Y-60586884D01*
X-22258613Y-60591997D01*
X-22228598Y-60629244D01*
X-22233711Y-60676805D01*
X-22244372Y-60691046D01*
X-22420520Y-60867194D01*
X-22464714Y-60885500D01*
X-22550963Y-60885500D01*
X-22689049Y-60926045D01*
X-22689051Y-60926046D01*
X-22689053Y-60926047D01*
X-22810128Y-61003857D01*
X-22904376Y-61112625D01*
X-22904377Y-61112627D01*
X-22964165Y-61243543D01*
X-22984647Y-61386000D01*
X-22964165Y-61528457D01*
X-22904377Y-61659373D01*
X-22810128Y-61768143D01*
X-22689053Y-61845953D01*
X-22550962Y-61886499D01*
X-22550962Y-61886500D01*
X-22550961Y-61886500D01*
X-22407038Y-61886500D01*
X-22407036Y-61886499D01*
X-22306174Y-61856884D01*
X-22258613Y-61861997D01*
X-22228598Y-61899244D01*
X-22233711Y-61946805D01*
X-22244372Y-61961046D01*
X-22420520Y-62137194D01*
X-22464714Y-62155500D01*
X-22550963Y-62155500D01*
X-22689049Y-62196045D01*
X-22689051Y-62196046D01*
X-22689053Y-62196047D01*
X-22810128Y-62273857D01*
X-22904376Y-62382625D01*
X-22904377Y-62382627D01*
X-22964165Y-62513543D01*
X-22984647Y-62656000D01*
X-27050500Y-62656000D01*
X-27050500Y-23530000D01*
X-17635583Y-23530000D01*
X-17615300Y-23735934D01*
X-17555232Y-23933954D01*
X-17457685Y-24116450D01*
X-17326410Y-24276410D01*
X-17166450Y-24407685D01*
X-16983954Y-24505232D01*
X-16785934Y-24565300D01*
X-16580000Y-24585583D01*
X-16374066Y-24565300D01*
X-16176046Y-24505232D01*
X-16011813Y-24417447D01*
X-15993555Y-24407688D01*
X-15993553Y-24407686D01*
X-15993550Y-24407685D01*
X-15833590Y-24276410D01*
X-15702315Y-24116450D01*
X-15702313Y-24116448D01*
X-15702311Y-24116444D01*
X-15604768Y-23933954D01*
X-15604766Y-23933949D01*
X-15544700Y-23735935D01*
X-15544699Y-23735930D01*
X-15524417Y-23530000D01*
X-15524417Y-23529999D01*
X-15544699Y-23324069D01*
X-15544700Y-23324064D01*
X-15604766Y-23126050D01*
X-15604768Y-23126045D01*
X-15702311Y-22943555D01*
X-15702319Y-22943544D01*
X-15833588Y-22783591D01*
X-15833591Y-22783588D01*
X-15993544Y-22652319D01*
X-15993555Y-22652311D01*
X-16176045Y-22554768D01*
X-16176050Y-22554766D01*
X-16374064Y-22494700D01*
X-16374069Y-22494699D01*
X-16580000Y-22474417D01*
X-16785930Y-22494699D01*
X-16785935Y-22494700D01*
X-16983949Y-22554766D01*
X-16983954Y-22554768D01*
X-17166444Y-22652311D01*
X-17166448Y-22652313D01*
X-17166450Y-22652315D01*
X-17326410Y-22783590D01*
X-17457685Y-22943550D01*
X-17555232Y-23126046D01*
X-17615300Y-23324066D01*
X-17635583Y-23530000D01*
X-27050500Y-23530000D01*
X-27050500Y-20990000D01*
X-17635583Y-20990000D01*
X-17615300Y-21195934D01*
X-17555232Y-21393954D01*
X-17457685Y-21576450D01*
X-17326410Y-21736410D01*
X-17166450Y-21867685D01*
X-16983954Y-21965232D01*
X-16785934Y-22025300D01*
X-16580000Y-22045583D01*
X-16374066Y-22025300D01*
X-16176046Y-21965232D01*
X-16068912Y-21907967D01*
X-15993555Y-21867688D01*
X-15993553Y-21867686D01*
X-15993550Y-21867685D01*
X-15833590Y-21736410D01*
X-15808018Y-21705251D01*
X-15702319Y-21576455D01*
X-15702311Y-21576444D01*
X-15604768Y-21393954D01*
X-15604766Y-21393949D01*
X-15544700Y-21195935D01*
X-15544699Y-21195930D01*
X-15524417Y-20990000D01*
X-15524417Y-20989999D01*
X-15544699Y-20784069D01*
X-15544700Y-20784064D01*
X-15604766Y-20586050D01*
X-15604768Y-20586045D01*
X-15702311Y-20403555D01*
X-15702319Y-20403544D01*
X-15833588Y-20243591D01*
X-15833591Y-20243588D01*
X-15993544Y-20112319D01*
X-15993555Y-20112311D01*
X-16176045Y-20014768D01*
X-16176050Y-20014766D01*
X-16374064Y-19954700D01*
X-16374069Y-19954699D01*
X-16580000Y-19934417D01*
X-16785930Y-19954699D01*
X-16785935Y-19954700D01*
X-16983949Y-20014766D01*
X-16983954Y-20014768D01*
X-17166444Y-20112311D01*
X-17166448Y-20112313D01*
X-17166450Y-20112315D01*
X-17326410Y-20243590D01*
X-17457685Y-20403550D01*
X-17555232Y-20586046D01*
X-17615300Y-20784066D01*
X-17635583Y-20990000D01*
X-27050500Y-20990000D01*
X-27050500Y-18450000D01*
X-17635583Y-18450000D01*
X-17615300Y-18655934D01*
X-17555232Y-18853954D01*
X-17457685Y-19036450D01*
X-17326410Y-19196410D01*
X-17166450Y-19327685D01*
X-16983954Y-19425232D01*
X-16785934Y-19485300D01*
X-16580000Y-19505583D01*
X-16374066Y-19485300D01*
X-16176046Y-19425232D01*
X-16068912Y-19367967D01*
X-15993555Y-19327688D01*
X-15993553Y-19327686D01*
X-15993550Y-19327685D01*
X-15833590Y-19196410D01*
X-15702315Y-19036450D01*
X-15702313Y-19036448D01*
X-15702311Y-19036444D01*
X-15604768Y-18853954D01*
X-15604766Y-18853949D01*
X-15544700Y-18655935D01*
X-15544699Y-18655930D01*
X-15524417Y-18450000D01*
X-15524417Y-18449999D01*
X-15544699Y-18244069D01*
X-15544700Y-18244064D01*
X-15604766Y-18046050D01*
X-15604768Y-18046045D01*
X-15702311Y-17863555D01*
X-15702319Y-17863544D01*
X-15833588Y-17703591D01*
X-15833591Y-17703588D01*
X-15993544Y-17572319D01*
X-15993555Y-17572311D01*
X-16176045Y-17474768D01*
X-16176050Y-17474766D01*
X-16374064Y-17414700D01*
X-16374069Y-17414699D01*
X-16580000Y-17394417D01*
X-16785930Y-17414699D01*
X-16785935Y-17414700D01*
X-16983949Y-17474766D01*
X-16983954Y-17474768D01*
X-17166444Y-17572311D01*
X-17166448Y-17572313D01*
X-17166450Y-17572315D01*
X-17326410Y-17703590D01*
X-17457685Y-17863550D01*
X-17555232Y-18046046D01*
X-17615300Y-18244066D01*
X-17635583Y-18450000D01*
X-27050500Y-18450000D01*
X-27050500Y-67765D01*
X-1854212Y-67765D01*
X-1824586Y-337018D01*
X-1756072Y-599088D01*
X-1650130Y-848390D01*
X-1509018Y-1079610D01*
X-1335745Y-1287820D01*
X-1335735Y-1287828D01*
X-1335732Y-1287832D01*
X-1230759Y-1381888D01*
X-1134002Y-1468582D01*
X-908090Y-1618044D01*
X-662824Y-1733020D01*
X-403431Y-1811060D01*
X-135439Y-1850500D01*
X-135438Y-1850500D01*
X67628Y-1850500D01*
X67631Y-1850500D01*
X67634Y-1850499D01*
X67652Y-1850499D01*
X270147Y-1835678D01*
X270149Y-1835677D01*
X270156Y-1835677D01*
X534553Y-1776780D01*
X787558Y-1680014D01*
X1023777Y-1547441D01*
X1238177Y-1381888D01*
X1426186Y-1186881D01*
X1583799Y-966579D01*
X1707656Y-725675D01*
X1795118Y-469305D01*
X1844319Y-202933D01*
X1854212Y67765D01*
X1824586Y337018D01*
X1756072Y599088D01*
X1650130Y848390D01*
X1509018Y1079610D01*
X1335745Y1287820D01*
X1335400Y1288129D01*
X1134011Y1468574D01*
X1134010Y1468574D01*
X1134002Y1468582D01*
X908090Y1618044D01*
X662824Y1733020D01*
X403431Y1811060D01*
X135439Y1850500D01*
X-67631Y1850500D01*
X-67634Y1850499D01*
X-67652Y1850499D01*
X-270147Y1835678D01*
X-270149Y1835677D01*
X-270156Y1835677D01*
X-534553Y1776780D01*
X-787558Y1680014D01*
X-1023777Y1547441D01*
X-1238177Y1381888D01*
X-1426186Y1186881D01*
X-1426190Y1186875D01*
X-1575767Y977805D01*
X-1583799Y966579D01*
X-1707656Y725675D01*
X-1795118Y469305D01*
X-1844319Y202933D01*
X-1854212Y-67765D01*
X-27050500Y-67765D01*
X-27050500Y-1629D01*
X-27050414Y1642D01*
X-27033281Y328547D01*
X-27032598Y335053D01*
X-26981641Y656788D01*
X-26980280Y663187D01*
X-26895978Y977805D01*
X-26893957Y984027D01*
X-26777222Y1288130D01*
X-26774561Y1294106D01*
X-26626686Y1584329D01*
X-26623415Y1589995D01*
X-26446011Y1863174D01*
X-26442166Y1868467D01*
X-26237170Y2121615D01*
X-26232792Y2126476D01*
X-26002476Y2356792D01*
X-25997615Y2361170D01*
X-25744467Y2566166D01*
X-25739174Y2570011D01*
X-25465995Y2747415D01*
X-25460329Y2750686D01*
X-25170106Y2898561D01*
X-25164130Y2901222D01*
X-24860027Y3017957D01*
X-24853805Y3019978D01*
X-24539187Y3104280D01*
X-24532788Y3105641D01*
X-24211053Y3156598D01*
X-24204547Y3157281D01*
X-23877641Y3174414D01*
X-23874370Y3174500D01*
X-23867715Y3174500D01*
X16222715Y3174500D01*
X16229370Y3174500D01*
X16232641Y3174414D01*
G37*
%TD.AperFunction*%
%TD*%
M02*
