M48
; DRILL file {KiCad 7.0.10} date Tue Apr 30 16:54:11 2024
; FORMAT={-:-/ absolute / inch / decimal}
; #@! TF.CreationDate,2024-04-30T16:54:11+09:00
; #@! TF.GenerationSoftware,Kicad,Pcbnew,7.0.10
; #@! TF.FileFunction,Plated,1,4,PTH
FMAT,2
INCH
; #@! TA.AperFunction,Plated,PTH,ViaDrill
T1C0.0157
; #@! TA.AperFunction,Plated,PTH,ViaDrill
T2C0.0197
; #@! TA.AperFunction,Plated,PTH,ComponentDrill
T3C0.0197
; #@! TA.AperFunction,Plated,PTH,ComponentDrill
T4C0.0300
; #@! TA.AperFunction,Plated,PTH,ComponentDrill
T5C0.0335
; #@! TA.AperFunction,Plated,PTH,ComponentDrill
T6C0.0354
; #@! TA.AperFunction,Plated,PTH,ComponentDrill
T7C0.0394
; #@! TA.AperFunction,Plated,PTH,ComponentDrill
T8C0.0472
; #@! TA.AperFunction,Plated,PTH,ComponentDrill
T9C0.0630
%
G90
G05
T1
X-0.965Y-3.9218
X-0.905Y-3.4618
X-0.885Y-2.2168
X-0.885Y-2.2668
X-0.885Y-2.3168
X-0.885Y-2.3668
X-0.885Y-2.4168
X-0.885Y-2.4668
X-0.81Y-2.5218
X-0.76Y-2.0518
X-0.71Y-1.31
X-0.71Y-1.755
X-0.695Y-2.12
X-0.66Y-1.3118
X-0.66Y-1.7568
X-0.61Y-1.3068
X-0.61Y-1.7518
X-0.6Y-2.9918
X-0.55Y-3.0768
X-0.535Y-2.6218
X-0.51Y-1.4318
X-0.51Y-1.8768
X-0.42Y-2.2318
X-0.4Y-3.0668
X-0.365Y-2.3918
X-0.33Y-2.3268
X-0.33Y-2.7918
X-0.29Y-2.8568
X-0.275Y-2.3268
X-0.27Y-0.775
X-0.265Y-2.0018
X-0.265Y-2.7918
X-0.24Y-3.0718
X-0.235Y-1.31
X-0.235Y-1.755
X-0.225Y-2.3
X-0.21Y-2.7918
X-0.195Y-3.2818
X-0.19Y-3.1468
X-0.185Y-1.3118
X-0.185Y-1.7568
X-0.16Y-2.2668
X-0.15Y-2.7918
X-0.14Y-3.0618
X-0.14Y-3.1418
X-0.135Y-1.3068
X-0.135Y-1.7518
X-0.11Y-2.2068
X-0.095Y-2.4168
X-0.06Y-2.6918
X-0.035Y-1.4318
X-0.035Y-1.8768
X0.02Y-2.9968
X0.125Y-3.1018
X0.17Y-2.3668
X0.19Y-0.855
X0.22Y-2.3668
X0.24Y-1.31
X0.24Y-1.755
X0.255Y-0.79
X0.28Y-2.6218
X0.29Y-1.3118
X0.29Y-1.7568
X0.34Y-1.3068
X0.34Y-1.7518
X0.44Y-1.4318
X0.44Y-1.8768
T2
X-0.825Y-3.5618
X-0.305Y-3.2918
X-0.295Y-3.75
X0.005Y-4.16
X0.035Y-3.385
X0.035Y-3.785
X0.06Y-4.04
T3
X-0.905Y-2.9168
X-0.905Y-3.1168
X-0.33Y-0.675
X-0.33Y-0.875
X0.045Y-2.8018
X0.245Y-2.8018
X0.485Y-3.7518
X0.685Y-3.7518
T4
X-0.925Y-3.7218
X-0.825Y-3.7218
X-0.725Y-3.7218
X-0.625Y-3.7218
X-0.495Y-3.1918
X-0.495Y-3.2918
X-0.495Y-3.3918
X-0.495Y-3.4918
T5
X0.6207Y-2.2924
X0.6207Y-2.3908
X0.6207Y-2.4892
X0.6207Y-2.5876
T6
X0.215Y-3.0918
X0.215Y-3.1918
X0.215Y-3.2918
X0.215Y-3.3918
X0.315Y-3.1418
X0.315Y-3.2418
X0.315Y-3.3418
X0.315Y-3.4418
T7
X-0.6528Y-0.7264
X-0.6528Y-0.8264
X-0.6528Y-0.9264
X-0.6528Y-1.0264
X0.505Y-0.7072
X0.505Y-1.0064
T8
X0.5695Y-3.9457
X0.5695Y-4.0835
T9
X0.6851Y-2.9609
X0.6851Y-3.5727
M30
