%TF.GenerationSoftware,KiCad,Pcbnew,7.0.10*%
%TF.CreationDate,2024-04-30T16:54:10+09:00*%
%TF.ProjectId,Panel_board,50616e65-6c5f-4626-9f61-72642e6b6963,rev?*%
%TF.SameCoordinates,Original*%
%TF.FileFunction,Paste,Top*%
%TF.FilePolarity,Positive*%
%FSLAX46Y46*%
G04 Gerber Fmt 4.6, Leading zero omitted, Abs format (unit mm)*
G04 Created by KiCad (PCBNEW 7.0.10) date 2024-04-30 16:54:10*
%MOMM*%
%LPD*%
G01*
G04 APERTURE LIST*
G04 Aperture macros list*
%AMRoundRect*
0 Rectangle with rounded corners*
0 $1 Rounding radius*
0 $2 $3 $4 $5 $6 $7 $8 $9 X,Y pos of 4 corners*
0 Add a 4 corners polygon primitive as box body*
4,1,4,$2,$3,$4,$5,$6,$7,$8,$9,$2,$3,0*
0 Add four circle primitives for the rounded corners*
1,1,$1+$1,$2,$3*
1,1,$1+$1,$4,$5*
1,1,$1+$1,$6,$7*
1,1,$1+$1,$8,$9*
0 Add four rect primitives between the rounded corners*
20,1,$1+$1,$2,$3,$4,$5,0*
20,1,$1+$1,$4,$5,$6,$7,0*
20,1,$1+$1,$6,$7,$8,$9,0*
20,1,$1+$1,$8,$9,$2,$3,0*%
G04 Aperture macros list end*
%ADD10RoundRect,0.200000X0.200000X0.275000X-0.200000X0.275000X-0.200000X-0.275000X0.200000X-0.275000X0*%
%ADD11RoundRect,0.200000X-0.275000X0.200000X-0.275000X-0.200000X0.275000X-0.200000X0.275000X0.200000X0*%
%ADD12RoundRect,0.225000X-0.250000X0.225000X-0.250000X-0.225000X0.250000X-0.225000X0.250000X0.225000X0*%
%ADD13RoundRect,0.225000X0.225000X0.250000X-0.225000X0.250000X-0.225000X-0.250000X0.225000X-0.250000X0*%
%ADD14RoundRect,0.150000X-0.150000X0.850000X-0.150000X-0.850000X0.150000X-0.850000X0.150000X0.850000X0*%
%ADD15RoundRect,0.225000X0.250000X-0.225000X0.250000X0.225000X-0.250000X0.225000X-0.250000X-0.225000X0*%
%ADD16RoundRect,0.253800X-0.451200X-0.481200X0.451200X-0.481200X0.451200X0.481200X-0.451200X0.481200X0*%
%ADD17RoundRect,0.200000X0.275000X-0.200000X0.275000X0.200000X-0.275000X0.200000X-0.275000X-0.200000X0*%
%ADD18RoundRect,0.200000X-0.200000X-0.275000X0.200000X-0.275000X0.200000X0.275000X-0.200000X0.275000X0*%
%ADD19RoundRect,0.250000X0.550000X-1.500000X0.550000X1.500000X-0.550000X1.500000X-0.550000X-1.500000X0*%
%ADD20RoundRect,0.200000X0.200000X0.450000X-0.200000X0.450000X-0.200000X-0.450000X0.200000X-0.450000X0*%
%ADD21RoundRect,0.250001X0.799999X1.249999X-0.799999X1.249999X-0.799999X-1.249999X0.799999X-1.249999X0*%
%ADD22RoundRect,0.218750X0.218750X0.256250X-0.218750X0.256250X-0.218750X-0.256250X0.218750X-0.256250X0*%
%ADD23RoundRect,0.225000X-0.225000X-0.250000X0.225000X-0.250000X0.225000X0.250000X-0.225000X0.250000X0*%
%ADD24R,1.000000X0.700000*%
%ADD25RoundRect,0.218750X-0.256250X0.218750X-0.256250X-0.218750X0.256250X-0.218750X0.256250X0.218750X0*%
%ADD26RoundRect,0.150000X0.150000X-0.825000X0.150000X0.825000X-0.150000X0.825000X-0.150000X-0.825000X0*%
%ADD27RoundRect,0.218750X-0.218750X-0.256250X0.218750X-0.256250X0.218750X0.256250X-0.218750X0.256250X0*%
%ADD28RoundRect,0.225000X0.375000X-0.225000X0.375000X0.225000X-0.375000X0.225000X-0.375000X-0.225000X0*%
%ADD29RoundRect,0.150000X-0.150000X0.825000X-0.150000X-0.825000X0.150000X-0.825000X0.150000X0.825000X0*%
%ADD30RoundRect,0.150000X-0.512500X-0.150000X0.512500X-0.150000X0.512500X0.150000X-0.512500X0.150000X0*%
%ADD31R,0.700000X0.450000*%
%ADD32RoundRect,0.250000X-0.312500X-1.450000X0.312500X-1.450000X0.312500X1.450000X-0.312500X1.450000X0*%
%ADD33RoundRect,0.250000X1.000000X-1.500000X1.000000X1.500000X-1.000000X1.500000X-1.000000X-1.500000X0*%
%ADD34RoundRect,0.250000X-0.320000X-0.320000X0.320000X-0.320000X0.320000X0.320000X-0.320000X0.320000X0*%
%ADD35RoundRect,0.075000X-0.437500X-0.075000X0.437500X-0.075000X0.437500X0.075000X-0.437500X0.075000X0*%
%ADD36RoundRect,0.075000X-0.075000X-0.437500X0.075000X-0.437500X0.075000X0.437500X-0.075000X0.437500X0*%
%ADD37RoundRect,0.250000X0.312500X1.450000X-0.312500X1.450000X-0.312500X-1.450000X0.312500X-1.450000X0*%
%ADD38RoundRect,0.150000X0.825000X0.150000X-0.825000X0.150000X-0.825000X-0.150000X0.825000X-0.150000X0*%
G04 APERTURE END LIST*
D10*
%TO.C,R13*%
X-2350000Y-83357000D03*
X-4000000Y-83357000D03*
%TD*%
D11*
%TO.C,R9*%
X-12827000Y-67927000D03*
X-12827000Y-69577000D03*
%TD*%
D12*
%TO.C,C13*%
X-11303000Y-56039000D03*
X-11303000Y-57589000D03*
%TD*%
D13*
%TO.C,C23*%
X7229000Y-47626000D03*
X5679000Y-47626000D03*
%TD*%
%TO.C,C22*%
X-16901000Y-36323000D03*
X-18451000Y-36323000D03*
%TD*%
D11*
%TO.C,R10*%
X-12827000Y-103233000D03*
X-12827000Y-104883000D03*
%TD*%
D14*
%TO.C,U4*%
X8128000Y-56513000D03*
X6858000Y-56513000D03*
X5588000Y-56513000D03*
X4318000Y-56513000D03*
X3048000Y-56513000D03*
X1778000Y-56513000D03*
X508000Y-56513000D03*
X-762000Y-56513000D03*
X-762000Y-61513000D03*
X508000Y-61513000D03*
X1778000Y-61513000D03*
X3048000Y-61513000D03*
X4318000Y-61513000D03*
X5588000Y-61513000D03*
X6858000Y-61513000D03*
X8128000Y-61513000D03*
%TD*%
D15*
%TO.C,C19*%
X2286000Y-87516000D03*
X2286000Y-85966000D03*
%TD*%
%TO.C,C9*%
X-12319000Y-96451000D03*
X-12319000Y-94901000D03*
%TD*%
D16*
%TO.C,U6*%
X-24535000Y-102788000D03*
X-24535000Y-105328000D03*
X-14835000Y-105328000D03*
X-14835000Y-102788000D03*
%TD*%
D17*
%TO.C,R16*%
X-3175000Y-101155000D03*
X-3175000Y-99505000D03*
%TD*%
D10*
%TO.C,R17*%
X10327000Y-36323000D03*
X8677000Y-36323000D03*
%TD*%
D12*
%TO.C,C6*%
X10033000Y-53200000D03*
X10033000Y-54750000D03*
%TD*%
D10*
%TO.C,R11*%
X-3747000Y-69895000D03*
X-5397000Y-69895000D03*
%TD*%
%TO.C,R19*%
X-13803000Y-36323000D03*
X-15453000Y-36323000D03*
%TD*%
D18*
%TO.C,R5*%
X11494000Y-60706000D03*
X13144000Y-60706000D03*
%TD*%
D19*
%TO.C,C28*%
X7239000Y-104781000D03*
X7239000Y-99181000D03*
%TD*%
D13*
%TO.C,C3*%
X1283000Y-54274000D03*
X-267000Y-54274000D03*
%TD*%
%TO.C,C25*%
X-16901000Y-47626000D03*
X-18451000Y-47626000D03*
%TD*%
D20*
%TO.C,J7*%
X-14274000Y-34291000D03*
X-15524000Y-34291000D03*
X-16774000Y-34291000D03*
X-18024000Y-34291000D03*
D21*
X-11724000Y-31541000D03*
X-20574000Y-31541000D03*
%TD*%
D12*
%TO.C,C18*%
X-8382000Y-86138000D03*
X-8382000Y-87688000D03*
%TD*%
D22*
%TO.C,FB2*%
X-8610500Y-82722000D03*
X-10185500Y-82722000D03*
%TD*%
D23*
%TO.C,C17*%
X-6363000Y-72562000D03*
X-4813000Y-72562000D03*
%TD*%
D24*
%TO.C,Q2*%
X-1234000Y-99253000D03*
X-1234000Y-100203000D03*
X-1234000Y-101153000D03*
X1366000Y-101153000D03*
X1366000Y-100203000D03*
X1366000Y-99253000D03*
%TD*%
D25*
%TO.C,D2*%
X-22987000Y-82163000D03*
X-22987000Y-83738000D03*
%TD*%
D17*
%TO.C,R7*%
X-22987000Y-86950500D03*
X-22987000Y-85300500D03*
%TD*%
D13*
%TO.C,C21*%
X-4836000Y-36323000D03*
X-6386000Y-36323000D03*
%TD*%
D15*
%TO.C,C14*%
X-10160000Y-81084000D03*
X-10160000Y-79534000D03*
%TD*%
D10*
%TO.C,R1*%
X-3747000Y-60751000D03*
X-5397000Y-60751000D03*
%TD*%
%TO.C,R20*%
X10327000Y-47626000D03*
X8677000Y-47626000D03*
%TD*%
D20*
%TO.C,J10*%
X-14274000Y-45594000D03*
X-15524000Y-45594000D03*
X-16774000Y-45594000D03*
X-18024000Y-45594000D03*
D21*
X-11724000Y-42844000D03*
X-20574000Y-42844000D03*
%TD*%
D15*
%TO.C,C1*%
X-2413000Y-63812000D03*
X-2413000Y-62262000D03*
%TD*%
D22*
%TO.C,FB1*%
X-21945500Y-90469000D03*
X-23520500Y-90469000D03*
%TD*%
D20*
%TO.C,J5*%
X9856000Y-34291000D03*
X8606000Y-34291000D03*
X7356000Y-34291000D03*
X6106000Y-34291000D03*
D21*
X12406000Y-31541000D03*
X3556000Y-31541000D03*
%TD*%
D16*
%TO.C,U3*%
X-24559000Y-67101000D03*
X-24559000Y-69641000D03*
X-14859000Y-69641000D03*
X-14859000Y-67101000D03*
%TD*%
D12*
%TO.C,C16*%
X-10160000Y-86138000D03*
X-10160000Y-87688000D03*
%TD*%
D26*
%TO.C,U7*%
X-6096000Y-81260000D03*
X-4826000Y-81260000D03*
X-3556000Y-81260000D03*
X-2286000Y-81260000D03*
X-2286000Y-76310000D03*
X-3556000Y-76310000D03*
X-4826000Y-76310000D03*
X-6096000Y-76310000D03*
%TD*%
D10*
%TO.C,R22*%
X-13803000Y-47626000D03*
X-15453000Y-47626000D03*
%TD*%
D15*
%TO.C,C10*%
X-10668000Y-96451000D03*
X-10668000Y-94901000D03*
%TD*%
D20*
%TO.C,J9*%
X-2209000Y-45594000D03*
X-3459000Y-45594000D03*
X-4709000Y-45594000D03*
X-5959000Y-45594000D03*
D21*
X341000Y-42844000D03*
X-8509000Y-42844000D03*
%TD*%
D10*
%TO.C,R2*%
X-6795000Y-60751000D03*
X-8445000Y-60751000D03*
%TD*%
D27*
%TO.C,TH1*%
X-9042500Y-96438000D03*
X-7467500Y-96438000D03*
%TD*%
D23*
%TO.C,C12*%
X6464000Y-65450000D03*
X8014000Y-65450000D03*
%TD*%
D27*
%TO.C,TH2*%
X-6756500Y-86151000D03*
X-5181500Y-86151000D03*
%TD*%
D10*
%TO.C,R18*%
X-1738000Y-36323000D03*
X-3388000Y-36323000D03*
%TD*%
%TO.C,R4*%
X-21654000Y-64942000D03*
X-23304000Y-64942000D03*
%TD*%
D11*
%TO.C,R14*%
X-508000Y-74531000D03*
X-508000Y-76181000D03*
%TD*%
D20*
%TO.C,J8*%
X9856000Y-45594000D03*
X8606000Y-45594000D03*
X7356000Y-45594000D03*
X6106000Y-45594000D03*
D21*
X12406000Y-42844000D03*
X3556000Y-42844000D03*
%TD*%
D12*
%TO.C,C5*%
X-2413000Y-66834000D03*
X-2413000Y-68384000D03*
%TD*%
D28*
%TO.C,D3*%
X4826000Y-23412000D03*
X4826000Y-20112000D03*
%TD*%
D29*
%TO.C,U2*%
X-4191000Y-62848000D03*
X-5461000Y-62848000D03*
X-6731000Y-62848000D03*
X-8001000Y-62848000D03*
X-8001000Y-67798000D03*
X-6731000Y-67798000D03*
X-5461000Y-67798000D03*
X-4191000Y-67798000D03*
%TD*%
D30*
%TO.C,U9*%
X-121500Y-77835000D03*
X-121500Y-78785000D03*
X-121500Y-79735000D03*
X2153500Y-79735000D03*
X2153500Y-78785000D03*
X2153500Y-77835000D03*
%TD*%
D18*
%TO.C,R6*%
X-24447000Y-100629000D03*
X-22797000Y-100629000D03*
%TD*%
%TO.C,R12*%
X-8445000Y-69895000D03*
X-6795000Y-69895000D03*
%TD*%
D11*
%TO.C,R15*%
X-4826000Y-99505000D03*
X-4826000Y-101155000D03*
%TD*%
D13*
%TO.C,C20*%
X7229000Y-36323000D03*
X5679000Y-36323000D03*
%TD*%
D23*
%TO.C,C11*%
X6464000Y-63712000D03*
X8014000Y-63712000D03*
%TD*%
D31*
%TO.C,U10*%
X2143000Y-82737000D03*
X2143000Y-81437000D03*
X143000Y-82087000D03*
%TD*%
D20*
%TO.C,J6*%
X-2209000Y-34291000D03*
X-3459000Y-34291000D03*
X-4709000Y-34291000D03*
X-5959000Y-34291000D03*
D21*
X341000Y-31541000D03*
X-8509000Y-31541000D03*
%TD*%
D10*
%TO.C,R21*%
X-1738000Y-47626000D03*
X-3388000Y-47626000D03*
%TD*%
D23*
%TO.C,C2*%
X-23508000Y-92247000D03*
X-21958000Y-92247000D03*
%TD*%
D32*
%TO.C,F1*%
X5482500Y-94996000D03*
X9757500Y-94996000D03*
%TD*%
D18*
%TO.C,R3*%
X11494000Y-58166000D03*
X13144000Y-58166000D03*
%TD*%
D23*
%TO.C,C7*%
X2908000Y-54274000D03*
X4458000Y-54274000D03*
%TD*%
D11*
%TO.C,R8*%
X15494000Y-108903000D03*
X15494000Y-110553000D03*
%TD*%
D33*
%TO.C,C27*%
X-1143000Y-96214000D03*
X-1143000Y-89714000D03*
%TD*%
D20*
%TO.C,J12*%
X-11557000Y-77134000D03*
X-12807000Y-77134000D03*
X-14057000Y-77134000D03*
X-15307000Y-77134000D03*
D21*
X-9007000Y-74384000D03*
X-17857000Y-74384000D03*
%TD*%
D15*
%TO.C,C8*%
X12954000Y-65164000D03*
X12954000Y-63614000D03*
%TD*%
D34*
%TO.C,U5*%
X-8151000Y-53362000D03*
X-8151000Y-54782000D03*
X-8151000Y-56202000D03*
X-6731000Y-53362000D03*
X-6731000Y-54782000D03*
X-6731000Y-56202000D03*
X-5311000Y-53362000D03*
X-5311000Y-54782000D03*
X-5311000Y-56202000D03*
D35*
X-9568500Y-52832000D03*
X-9568500Y-53482000D03*
X-9568500Y-54132000D03*
X-9568500Y-54782000D03*
X-9568500Y-55432000D03*
X-9568500Y-56082000D03*
X-9568500Y-56732000D03*
D36*
X-8681000Y-57619500D03*
X-8031000Y-57619500D03*
X-7381000Y-57619500D03*
X-6731000Y-57619500D03*
X-6081000Y-57619500D03*
X-5431000Y-57619500D03*
X-4781000Y-57619500D03*
D35*
X-3893500Y-56732000D03*
X-3893500Y-56082000D03*
X-3893500Y-55432000D03*
X-3893500Y-54782000D03*
X-3893500Y-54132000D03*
X-3893500Y-53482000D03*
X-3893500Y-52832000D03*
D36*
X-4781000Y-51944500D03*
X-5431000Y-51944500D03*
X-6081000Y-51944500D03*
X-6731000Y-51944500D03*
X-7381000Y-51944500D03*
X-8031000Y-51944500D03*
X-8681000Y-51944500D03*
%TD*%
D23*
%TO.C,C26*%
X-22492000Y-52115000D03*
X-20942000Y-52115000D03*
%TD*%
D37*
%TO.C,TH3*%
X2645500Y-105664000D03*
X-1629500Y-105664000D03*
%TD*%
D13*
%TO.C,C24*%
X-4836000Y-47626000D03*
X-6386000Y-47626000D03*
%TD*%
D38*
%TO.C,U11*%
X-16005000Y-62656000D03*
X-16005000Y-61386000D03*
X-16005000Y-60116000D03*
X-16005000Y-58846000D03*
X-16005000Y-57576000D03*
X-16005000Y-56306000D03*
X-16005000Y-55036000D03*
X-16005000Y-53766000D03*
X-20955000Y-53766000D03*
X-20955000Y-55036000D03*
X-20955000Y-56306000D03*
X-20955000Y-57576000D03*
X-20955000Y-58846000D03*
X-20955000Y-60116000D03*
X-20955000Y-61386000D03*
X-20955000Y-62656000D03*
%TD*%
D23*
%TO.C,C15*%
X-6376000Y-74213000D03*
X-4826000Y-74213000D03*
%TD*%
D15*
%TO.C,C4*%
X11049000Y-65164000D03*
X11049000Y-63614000D03*
%TD*%
D25*
%TO.C,D1*%
X17780000Y-108940500D03*
X17780000Y-110515500D03*
%TD*%
M02*
