%TF.GenerationSoftware,KiCad,Pcbnew,7.0.10*%
%TF.CreationDate,2024-04-30T16:54:10+09:00*%
%TF.ProjectId,Panel_board,50616e65-6c5f-4626-9f61-72642e6b6963,rev?*%
%TF.SameCoordinates,Original*%
%TF.FileFunction,Copper,L3,Inr*%
%TF.FilePolarity,Positive*%
%FSLAX46Y46*%
G04 Gerber Fmt 4.6, Leading zero omitted, Abs format (unit mm)*
G04 Created by KiCad (PCBNEW 7.0.10) date 2024-04-30 16:54:10*
%MOMM*%
%LPD*%
G01*
G04 APERTURE LIST*
G04 Aperture macros list*
%AMRoundRect*
0 Rectangle with rounded corners*
0 $1 Rounding radius*
0 $2 $3 $4 $5 $6 $7 $8 $9 X,Y pos of 4 corners*
0 Add a 4 corners polygon primitive as box body*
4,1,4,$2,$3,$4,$5,$6,$7,$8,$9,$2,$3,0*
0 Add four circle primitives for the rounded corners*
1,1,$1+$1,$2,$3*
1,1,$1+$1,$4,$5*
1,1,$1+$1,$6,$7*
1,1,$1+$1,$8,$9*
0 Add four rect primitives between the rounded corners*
20,1,$1+$1,$2,$3,$4,$5,0*
20,1,$1+$1,$4,$5,$6,$7,0*
20,1,$1+$1,$6,$7,$8,$9,0*
20,1,$1+$1,$8,$9,$2,$3,0*%
G04 Aperture macros list end*
%TA.AperFunction,ComponentPad*%
%ADD10R,1.000000X1.000000*%
%TD*%
%TA.AperFunction,ComponentPad*%
%ADD11RoundRect,0.250000X0.675000X-0.600000X0.675000X0.600000X-0.675000X0.600000X-0.675000X-0.600000X0*%
%TD*%
%TA.AperFunction,ComponentPad*%
%ADD12O,1.850000X1.700000*%
%TD*%
%TA.AperFunction,ComponentPad*%
%ADD13C,1.400000*%
%TD*%
%TA.AperFunction,ComponentPad*%
%ADD14RoundRect,0.250000X1.550000X-0.650000X1.550000X0.650000X-1.550000X0.650000X-1.550000X-0.650000X0*%
%TD*%
%TA.AperFunction,ComponentPad*%
%ADD15O,3.600000X1.800000*%
%TD*%
%TA.AperFunction,ComponentPad*%
%ADD16R,1.500000X1.500000*%
%TD*%
%TA.AperFunction,ComponentPad*%
%ADD17C,1.500000*%
%TD*%
%TA.AperFunction,ComponentPad*%
%ADD18C,3.000000*%
%TD*%
%TA.AperFunction,ComponentPad*%
%ADD19R,2.000000X2.000000*%
%TD*%
%TA.AperFunction,ComponentPad*%
%ADD20C,2.000000*%
%TD*%
%TA.AperFunction,ComponentPad*%
%ADD21R,1.700000X1.700000*%
%TD*%
%TA.AperFunction,ComponentPad*%
%ADD22O,1.700000X1.700000*%
%TD*%
%TA.AperFunction,ViaPad*%
%ADD23C,0.600000*%
%TD*%
%TA.AperFunction,ViaPad*%
%ADD24C,1.000000*%
%TD*%
G04 APERTURE END LIST*
D10*
%TO.N,/SDA*%
%TO.C,TP8*%
X-8382000Y-22225000D03*
%TD*%
D11*
%TO.N,+5VA*%
%TO.C,J2*%
X15765000Y-65726000D03*
D12*
%TO.N,GND*%
X15765000Y-63226000D03*
%TO.N,/A-*%
X15765000Y-60726000D03*
%TO.N,/A+*%
X15765000Y-58226000D03*
%TD*%
D13*
%TO.N,GNDPWR*%
%TO.C,U1*%
X-15875000Y-94533000D03*
%TO.N,Net-(U1-+Vin)*%
X-18415000Y-94533000D03*
%TO.N,GND*%
X-20955000Y-94533000D03*
%TO.N,Net-(U1-+Vout)*%
X-23495000Y-94533000D03*
%TD*%
D14*
%TO.N,Net-(J1-Pin_1)*%
%TO.C,J1*%
X14466500Y-103721000D03*
D15*
%TO.N,Net-(D1-K)*%
X14466500Y-100221000D03*
%TD*%
D16*
%TO.N,GNDPWR*%
%TO.C,J11*%
X8001000Y-87421000D03*
D17*
%TO.N,Net-(C19-Pad1)*%
X5461000Y-86151000D03*
%TO.N,/Communication/5V_Comm_GND*%
X8001000Y-84881000D03*
%TO.N,/Communication/H_INT*%
X5461000Y-83611000D03*
%TO.N,/Communication/RFID_TX*%
X8001000Y-82341000D03*
%TO.N,/Communication/RFID_RX*%
X5461000Y-81071000D03*
%TO.N,/Communication/H_SDA*%
X8001000Y-79801000D03*
%TO.N,/Communication/H_SCL*%
X5461000Y-78531000D03*
D18*
%TO.N,N/C*%
X17401000Y-90746000D03*
X17401000Y-75206000D03*
%TD*%
D10*
%TO.N,GNDPWR*%
%TO.C,TP6*%
X17399000Y-95295000D03*
%TD*%
%TO.N,+5V*%
%TO.C,TP1*%
X-22987000Y-74086000D03*
%TD*%
%TO.N,/SCL*%
%TO.C,TP7*%
X-8382000Y-17145000D03*
%TD*%
%TO.N,/Communication/5V_Comm_GND*%
%TO.C,TP4*%
X6223000Y-71165000D03*
%TD*%
D19*
%TO.N,Net-(BZ1--)*%
%TO.C,BZ1*%
X12827000Y-25562000D03*
D20*
%TO.N,GND*%
X12827000Y-17962000D03*
%TD*%
D21*
%TO.N,GND*%
%TO.C,J3*%
X-16580000Y-26070000D03*
D22*
%TO.N,+5V*%
X-16580000Y-23530000D03*
%TO.N,/SDA*%
X-16580000Y-20990000D03*
%TO.N,/SCL*%
X-16580000Y-18450000D03*
%TD*%
D13*
%TO.N,GNDPWR*%
%TO.C,U8*%
X-12573000Y-88691000D03*
%TO.N,Net-(U8-+Vin)*%
X-12573000Y-86151000D03*
%TO.N,/Communication/5V_Comm_GND*%
X-12573000Y-83611000D03*
%TO.N,Net-(U8-+Vout)*%
X-12573000Y-81071000D03*
%TD*%
D10*
%TO.N,/Communication/5V_Comm*%
%TO.C,TP3*%
X1143000Y-71165000D03*
%TD*%
%TO.N,+12V*%
%TO.C,TP5*%
X12319000Y-95295000D03*
%TD*%
%TO.N,GND*%
%TO.C,TP2*%
X-22987000Y-79166000D03*
%TD*%
D23*
%TO.N,+5V*%
X-10668000Y-56687000D03*
D24*
X-20955000Y-90469000D03*
D23*
X-889000Y-36367000D03*
X-4064000Y-57576000D03*
X-3429000Y-33192000D03*
X-22987000Y-87929000D03*
X11176000Y-47670000D03*
X-2413000Y-61386000D03*
X-19304000Y-52115000D03*
X-12954000Y-47670000D03*
X-889000Y-47670000D03*
X-3429000Y-44495000D03*
X8636000Y-44495000D03*
X-15494000Y-33192000D03*
X7112000Y-66593000D03*
X11176000Y-36367000D03*
X-9271000Y-60751000D03*
X8636000Y-33192000D03*
X-15494000Y-44495000D03*
X-12954000Y-36367000D03*
D24*
%TO.N,+12V*%
X-7493000Y-95250000D03*
X127000Y-105664000D03*
D23*
%TO.N,GND*%
X-5715000Y-58420000D03*
X-5969000Y-33274000D03*
X-17653000Y-53848000D03*
X4826000Y-21717000D03*
X-18034000Y-44577000D03*
X6096000Y-33274000D03*
X6477000Y-20066000D03*
X6096000Y-44577000D03*
X-5969000Y-44577000D03*
X-6858000Y-19685000D03*
X-18034000Y-33274000D03*
%TO.N,/H_INT*%
X-2794000Y-56052000D03*
X-20574000Y-64053000D03*
%TO.N,/PWR_USB*%
X-6731000Y-50845000D03*
X-24511000Y-99613000D03*
%TO.N,/SCL*%
X4318000Y-60116000D03*
X-8382000Y-59100000D03*
%TO.N,/SDA*%
X5588000Y-60116000D03*
X-6985000Y-59100000D03*
%TO.N,/NET_L*%
X7366000Y-33319000D03*
X-22479000Y-58846000D03*
%TO.N,/TARE_L*%
X-22479000Y-57576000D03*
X-4699000Y-33319000D03*
%TO.N,/BTN1_L*%
X-16764000Y-33319000D03*
X-22479000Y-56306000D03*
%TO.N,/BTN2_L*%
X7366000Y-44622000D03*
X-22479000Y-62656000D03*
%TO.N,/BTN3_L*%
X-4699000Y-44622000D03*
X-22479000Y-61386000D03*
%TO.N,/BTN4_L*%
X-16764000Y-44622000D03*
X-22479000Y-60116000D03*
%TO.N,/Communication/5V_Comm*%
X508000Y-76118000D03*
X-1524000Y-68371000D03*
X-8382000Y-70911000D03*
X-4953000Y-83357000D03*
X3175000Y-78785000D03*
X-13589000Y-66593000D03*
X-10160000Y-77896000D03*
X-3810000Y-70911000D03*
D24*
X-7747000Y-83611000D03*
D23*
X-7366000Y-72562000D03*
D24*
%TO.N,GNDPWR*%
X1524000Y-102616000D03*
X889000Y-96139000D03*
X889000Y-85979000D03*
D23*
%TO.N,Net-(U2-SDA2)*%
X-4826000Y-79928000D03*
X-5334000Y-70911000D03*
%TO.N,/Communication/RFID_TX*%
X-13970000Y-78150000D03*
%TO.N,/Communication/RFID_RX*%
X-15240000Y-75991000D03*
%TO.N,/Communication/H_SDA*%
X-3556000Y-79801000D03*
%TO.N,/Communication/H_SCL*%
X-3556000Y-77769000D03*
%TO.N,Net-(U2-SCL2)*%
X-6096000Y-78023000D03*
X-6731000Y-70911000D03*
%TD*%
%TA.AperFunction,Conductor*%
%TO.N,GNDPWR*%
G36*
X-12674714Y-85153306D02*
G01*
X-12656408Y-85197500D01*
X-12674714Y-85241694D01*
X-12705914Y-85258634D01*
X-12852797Y-85289854D01*
X-12852814Y-85289860D01*
X-13025725Y-85366846D01*
X-13025734Y-85366851D01*
X-13168448Y-85470539D01*
X-13178871Y-85478112D01*
X-13305533Y-85618784D01*
X-13400179Y-85782716D01*
X-13400180Y-85782719D01*
X-13400181Y-85782721D01*
X-13442557Y-85913142D01*
X-13458674Y-85962744D01*
X-13478460Y-86151000D01*
X-13458674Y-86339256D01*
X-13400179Y-86519284D01*
X-13305533Y-86683216D01*
X-13178871Y-86823888D01*
X-13025730Y-86935151D01*
X-12852803Y-87012144D01*
X-12667646Y-87051500D01*
X-12478354Y-87051500D01*
X-12293202Y-87012145D01*
X-12293197Y-87012144D01*
X-12293188Y-87012140D01*
X-12293185Y-87012139D01*
X-12120274Y-86935153D01*
X-12120265Y-86935148D01*
X-11967129Y-86823888D01*
X-11967128Y-86823887D01*
X-11894901Y-86743671D01*
X-11840467Y-86683216D01*
X-11745821Y-86519284D01*
X-11745820Y-86519282D01*
X-11745818Y-86519278D01*
X-11687326Y-86339258D01*
X-11667540Y-86151000D01*
X-11687326Y-85962741D01*
X-11745818Y-85782721D01*
X-11840466Y-85618785D01*
X-11967128Y-85478112D01*
X-11967129Y-85478111D01*
X-12120265Y-85366851D01*
X-12120274Y-85366846D01*
X-12293185Y-85289860D01*
X-12293202Y-85289854D01*
X-12440086Y-85258634D01*
X-12479509Y-85231540D01*
X-12488226Y-85184506D01*
X-12461132Y-85145083D01*
X-12427092Y-85135000D01*
X5114593Y-85135000D01*
X5158787Y-85153306D01*
X5177093Y-85197500D01*
X5158787Y-85241694D01*
X5132738Y-85257307D01*
X5095499Y-85268604D01*
X5095498Y-85268604D01*
X5095493Y-85268606D01*
X4930380Y-85356860D01*
X4930374Y-85356864D01*
X4785643Y-85475643D01*
X4666864Y-85620374D01*
X4666860Y-85620380D01*
X4578606Y-85785493D01*
X4524252Y-85964670D01*
X4505901Y-86150999D01*
X4505901Y-86151000D01*
X4524252Y-86337329D01*
X4544780Y-86405000D01*
X4564145Y-86468838D01*
X4578606Y-86516506D01*
X4666860Y-86681619D01*
X4666864Y-86681625D01*
X4785643Y-86826357D01*
X4930375Y-86945136D01*
X4930377Y-86945137D01*
X4930380Y-86945139D01*
X5095493Y-87033393D01*
X5095499Y-87033396D01*
X5274669Y-87087747D01*
X5461000Y-87106099D01*
X5647331Y-87087747D01*
X5826501Y-87033396D01*
X5991625Y-86945136D01*
X6136357Y-86826357D01*
X6255136Y-86681625D01*
X6343396Y-86516501D01*
X6397747Y-86337331D01*
X6416099Y-86151000D01*
X6397747Y-85964669D01*
X6350900Y-85810237D01*
X6355589Y-85762635D01*
X6392566Y-85732288D01*
X6440171Y-85736977D01*
X6454903Y-85747903D01*
X7112000Y-86405000D01*
X18926906Y-86405000D01*
X18935064Y-86405535D01*
X19052252Y-86420963D01*
X19068012Y-86425186D01*
X19173397Y-86468838D01*
X19187527Y-86476996D01*
X19278025Y-86546438D01*
X19289561Y-86557974D01*
X19359003Y-86648472D01*
X19367161Y-86662602D01*
X19400742Y-86743671D01*
X19405500Y-86767589D01*
X19405500Y-123998370D01*
X19405414Y-124001641D01*
X19388281Y-124328547D01*
X19387598Y-124335053D01*
X19336641Y-124656788D01*
X19335280Y-124663187D01*
X19250978Y-124977804D01*
X19248957Y-124984026D01*
X19132222Y-125288129D01*
X19129561Y-125294105D01*
X18981686Y-125584329D01*
X18978415Y-125589995D01*
X18801007Y-125863178D01*
X18797166Y-125868464D01*
X18710818Y-125975097D01*
X18592173Y-126121611D01*
X18587795Y-126126472D01*
X18357472Y-126356795D01*
X18352610Y-126361173D01*
X18099464Y-126566166D01*
X18094178Y-126570007D01*
X17820995Y-126747415D01*
X17815329Y-126750686D01*
X17525105Y-126898561D01*
X17519129Y-126901222D01*
X17215026Y-127017957D01*
X17208804Y-127019978D01*
X16894187Y-127104280D01*
X16887788Y-127105641D01*
X16566053Y-127156598D01*
X16559547Y-127157281D01*
X16280345Y-127171914D01*
X16277074Y-127172000D01*
X-18799906Y-127172000D01*
X-18808064Y-127171465D01*
X-18925252Y-127156036D01*
X-18941012Y-127151813D01*
X-19046397Y-127108161D01*
X-19060527Y-127100003D01*
X-19151025Y-127030561D01*
X-19162561Y-127019025D01*
X-19232003Y-126928527D01*
X-19240161Y-126914397D01*
X-19283813Y-126809012D01*
X-19288036Y-126793252D01*
X-19303465Y-126676063D01*
X-19304000Y-126667905D01*
X-19304000Y-124067765D01*
X-1854212Y-124067765D01*
X-1824586Y-124337018D01*
X-1756072Y-124599088D01*
X-1650130Y-124848390D01*
X-1509018Y-125079610D01*
X-1335745Y-125287820D01*
X-1335735Y-125287828D01*
X-1335732Y-125287832D01*
X-1230759Y-125381888D01*
X-1134002Y-125468582D01*
X-908090Y-125618044D01*
X-662824Y-125733020D01*
X-403431Y-125811060D01*
X-135439Y-125850500D01*
X-135438Y-125850500D01*
X67628Y-125850500D01*
X67631Y-125850500D01*
X67634Y-125850499D01*
X67652Y-125850499D01*
X270147Y-125835678D01*
X270149Y-125835677D01*
X270156Y-125835677D01*
X534553Y-125776780D01*
X787558Y-125680014D01*
X1023777Y-125547441D01*
X1238177Y-125381888D01*
X1426186Y-125186881D01*
X1583799Y-124966579D01*
X1707656Y-124725675D01*
X1714390Y-124705938D01*
X1750842Y-124599087D01*
X1795118Y-124469305D01*
X1844319Y-124202933D01*
X1854212Y-123932235D01*
X1824586Y-123662982D01*
X1756072Y-123400912D01*
X1650130Y-123151610D01*
X1509018Y-122920390D01*
X1419743Y-122813115D01*
X1335746Y-122712181D01*
X1335732Y-122712167D01*
X1134011Y-122531425D01*
X1134004Y-122531420D01*
X1134002Y-122531418D01*
X1014807Y-122452559D01*
X908093Y-122381957D01*
X908091Y-122381956D01*
X766610Y-122315633D01*
X662824Y-122266980D01*
X662821Y-122266979D01*
X662819Y-122266978D01*
X403440Y-122188942D01*
X403426Y-122188939D01*
X135445Y-122149500D01*
X135439Y-122149500D01*
X-67631Y-122149500D01*
X-67652Y-122149500D01*
X-270147Y-122164321D01*
X-270155Y-122164322D01*
X-270156Y-122164323D01*
X-534553Y-122223220D01*
X-534554Y-122223220D01*
X-787559Y-122319986D01*
X-1023776Y-122452558D01*
X-1023777Y-122452559D01*
X-1238177Y-122618112D01*
X-1238179Y-122618114D01*
X-1238184Y-122618118D01*
X-1426182Y-122813115D01*
X-1426190Y-122813124D01*
X-1583795Y-123033414D01*
X-1583797Y-123033419D01*
X-1583799Y-123033421D01*
X-1707656Y-123274325D01*
X-1707657Y-123274328D01*
X-1707659Y-123274332D01*
X-1750842Y-123400912D01*
X-1795118Y-123530695D01*
X-1844319Y-123797067D01*
X-1854212Y-124067765D01*
X-19304000Y-124067765D01*
X-19304000Y-105664000D01*
X-578645Y-105664000D01*
X-558140Y-105832872D01*
X-497818Y-105991930D01*
X-401183Y-106131929D01*
X-273852Y-106244734D01*
X-123225Y-106323790D01*
X41944Y-106364500D01*
X41946Y-106364500D01*
X212054Y-106364500D01*
X212056Y-106364500D01*
X377225Y-106323790D01*
X527852Y-106244734D01*
X655183Y-106131929D01*
X751818Y-105991930D01*
X812140Y-105832872D01*
X832645Y-105664000D01*
X812140Y-105495128D01*
X751818Y-105336070D01*
X751817Y-105336068D01*
X655188Y-105196077D01*
X655181Y-105196069D01*
X527851Y-105083265D01*
X377226Y-105004210D01*
X212059Y-104963500D01*
X212056Y-104963500D01*
X41944Y-104963500D01*
X41940Y-104963500D01*
X-123226Y-105004210D01*
X-273851Y-105083265D01*
X-401181Y-105196069D01*
X-401188Y-105196077D01*
X-497817Y-105336068D01*
X-497818Y-105336070D01*
X-558140Y-105495128D01*
X-578645Y-105664000D01*
X-19304000Y-105664000D01*
X-19304000Y-104425262D01*
X12466000Y-104425262D01*
X12468853Y-104455696D01*
X12468854Y-104455701D01*
X12513707Y-104583882D01*
X12513707Y-104583883D01*
X12554028Y-104638516D01*
X12594350Y-104693150D01*
X12703618Y-104773793D01*
X12831801Y-104818646D01*
X12862234Y-104821500D01*
X12862238Y-104821500D01*
X16070762Y-104821500D01*
X16070766Y-104821500D01*
X16101199Y-104818646D01*
X16229382Y-104773793D01*
X16338650Y-104693150D01*
X16419293Y-104583882D01*
X16464146Y-104455699D01*
X16467000Y-104425266D01*
X16467000Y-103016734D01*
X16464146Y-102986301D01*
X16419293Y-102858118D01*
X16338650Y-102748850D01*
X16229382Y-102668207D01*
X16101201Y-102623354D01*
X16101196Y-102623353D01*
X16081199Y-102621478D01*
X16070766Y-102620500D01*
X12862234Y-102620500D01*
X12852624Y-102621401D01*
X12831803Y-102623353D01*
X12831798Y-102623354D01*
X12703617Y-102668207D01*
X12703616Y-102668207D01*
X12594350Y-102748850D01*
X12513707Y-102858116D01*
X12513707Y-102858117D01*
X12468854Y-102986298D01*
X12468853Y-102986303D01*
X12466000Y-103016737D01*
X12466000Y-104425262D01*
X-19304000Y-104425262D01*
X-19304000Y-100168398D01*
X12462245Y-100168398D01*
X12472245Y-100378324D01*
X12472245Y-100378330D01*
X12497306Y-100481629D01*
X12521796Y-100582576D01*
X12609104Y-100773753D01*
X12609105Y-100773754D01*
X12731011Y-100944949D01*
X12731013Y-100944951D01*
X12731014Y-100944952D01*
X12883122Y-101089986D01*
X12883124Y-101089987D01*
X12883127Y-101089990D01*
X13059922Y-101203610D01*
X13059925Y-101203611D01*
X13059928Y-101203613D01*
X13169093Y-101247316D01*
X13255037Y-101281723D01*
X13255040Y-101281724D01*
X13255043Y-101281725D01*
X13461415Y-101321500D01*
X13461417Y-101321500D01*
X15418916Y-101321500D01*
X15418925Y-101321500D01*
X15575718Y-101306528D01*
X15777375Y-101247316D01*
X15964182Y-101151011D01*
X16129386Y-101021092D01*
X16267019Y-100862256D01*
X16372104Y-100680244D01*
X16440844Y-100481633D01*
X16470754Y-100273602D01*
X16460754Y-100063670D01*
X16411204Y-99859424D01*
X16323896Y-99668247D01*
X16224762Y-99529032D01*
X16201988Y-99497050D01*
X16201986Y-99497048D01*
X16049878Y-99352014D01*
X16049875Y-99352012D01*
X16049872Y-99352009D01*
X15873077Y-99238389D01*
X15677962Y-99160276D01*
X15677959Y-99160275D01*
X15549267Y-99135472D01*
X15471585Y-99120500D01*
X13514075Y-99120500D01*
X13514074Y-99120500D01*
X13357280Y-99135472D01*
X13155624Y-99194683D01*
X12968821Y-99290987D01*
X12968810Y-99290994D01*
X12803613Y-99420908D01*
X12803612Y-99420909D01*
X12665983Y-99579740D01*
X12665983Y-99579741D01*
X12560896Y-99761755D01*
X12492155Y-99960370D01*
X12462245Y-100168398D01*
X-19304000Y-100168398D01*
X-19304000Y-95027460D01*
X-19285694Y-94983266D01*
X-19241500Y-94964960D01*
X-19197306Y-94983266D01*
X-19187375Y-94996207D01*
X-19147533Y-95065216D01*
X-19020871Y-95205888D01*
X-18867730Y-95317151D01*
X-18694803Y-95394144D01*
X-18509646Y-95433500D01*
X-18320354Y-95433500D01*
X-18251525Y-95418870D01*
X-18135197Y-95394144D01*
X-18135188Y-95394140D01*
X-18135185Y-95394139D01*
X-17962274Y-95317153D01*
X-17962265Y-95317148D01*
X-17869848Y-95250003D01*
X-8198645Y-95250003D01*
X-8178141Y-95418864D01*
X-8178140Y-95418872D01*
X-8117818Y-95577930D01*
X-8021183Y-95717929D01*
X-7893852Y-95830734D01*
X-7743225Y-95909790D01*
X-7578056Y-95950500D01*
X-7578054Y-95950500D01*
X-7407946Y-95950500D01*
X-7407944Y-95950500D01*
X-7242775Y-95909790D01*
X-7092148Y-95830734D01*
X-7074103Y-95814748D01*
X11618500Y-95814748D01*
X11630132Y-95873230D01*
X11630133Y-95873232D01*
X11674447Y-95939552D01*
X11740767Y-95983866D01*
X11740769Y-95983867D01*
X11799252Y-95995500D01*
X12838748Y-95995500D01*
X12897231Y-95983867D01*
X12963552Y-95939552D01*
X13007867Y-95873231D01*
X13019500Y-95814748D01*
X13019500Y-94775252D01*
X13007867Y-94716769D01*
X12982158Y-94678293D01*
X12963552Y-94650447D01*
X12897232Y-94606133D01*
X12897230Y-94606132D01*
X12838748Y-94594500D01*
X11799252Y-94594500D01*
X11740769Y-94606132D01*
X11740767Y-94606133D01*
X11674447Y-94650447D01*
X11630133Y-94716767D01*
X11630132Y-94716769D01*
X11618500Y-94775251D01*
X11618500Y-95814748D01*
X-7074103Y-95814748D01*
X-6964817Y-95717929D01*
X-6964816Y-95717928D01*
X-6964811Y-95717922D01*
X-6868182Y-95577931D01*
X-6807859Y-95418870D01*
X-6807858Y-95418864D01*
X-6787355Y-95250003D01*
X-6787355Y-95249996D01*
X-6807858Y-95081135D01*
X-6807859Y-95081129D01*
X-6868182Y-94922068D01*
X-6964811Y-94782077D01*
X-6964818Y-94782069D01*
X-7092148Y-94669265D01*
X-7242773Y-94590210D01*
X-7407940Y-94549500D01*
X-7407944Y-94549500D01*
X-7578056Y-94549500D01*
X-7578059Y-94549500D01*
X-7743226Y-94590210D01*
X-7893851Y-94669265D01*
X-8021181Y-94782069D01*
X-8021188Y-94782077D01*
X-8117817Y-94922068D01*
X-8117818Y-94922070D01*
X-8172104Y-95065214D01*
X-8178140Y-95081129D01*
X-8178141Y-95081135D01*
X-8198645Y-95249996D01*
X-8198645Y-95250003D01*
X-17869848Y-95250003D01*
X-17809129Y-95205888D01*
X-17809128Y-95205887D01*
X-17748185Y-95138203D01*
X-17682467Y-95065216D01*
X-17587821Y-94901284D01*
X-17587820Y-94901282D01*
X-17587818Y-94901278D01*
X-17529326Y-94721258D01*
X-17509540Y-94533000D01*
X-17529326Y-94344741D01*
X-17587818Y-94164721D01*
X-17682466Y-94000785D01*
X-17809128Y-93860112D01*
X-17809129Y-93860111D01*
X-17962265Y-93748851D01*
X-17962274Y-93748846D01*
X-18135185Y-93671860D01*
X-18135202Y-93671854D01*
X-18320354Y-93632500D01*
X-18509646Y-93632500D01*
X-18694797Y-93671854D01*
X-18694814Y-93671860D01*
X-18867725Y-93748846D01*
X-18867734Y-93748851D01*
X-19020870Y-93860111D01*
X-19020871Y-93860112D01*
X-19147533Y-94000784D01*
X-19154973Y-94013671D01*
X-19187373Y-94069789D01*
X-19225324Y-94098909D01*
X-19272750Y-94092666D01*
X-19301870Y-94054715D01*
X-19304000Y-94038539D01*
X-19304000Y-88759676D01*
X12471737Y-88759676D01*
X12486810Y-88896661D01*
X12501764Y-89032571D01*
X12571204Y-89298182D01*
X12678577Y-89550852D01*
X12732261Y-89638816D01*
X12821596Y-89785198D01*
X12916133Y-89898795D01*
X12997209Y-89996218D01*
X12997213Y-89996222D01*
X12997221Y-89996230D01*
X13201678Y-90179424D01*
X13279161Y-90230685D01*
X13430641Y-90330904D01*
X13679221Y-90447433D01*
X13942119Y-90526527D01*
X14213731Y-90566500D01*
X14213732Y-90566500D01*
X14419544Y-90566500D01*
X14419547Y-90566500D01*
X14419550Y-90566499D01*
X14419568Y-90566499D01*
X14624796Y-90551478D01*
X14624798Y-90551477D01*
X14624805Y-90551477D01*
X14892775Y-90491784D01*
X15149198Y-90393711D01*
X15388609Y-90259347D01*
X15605904Y-90091557D01*
X15773325Y-89917905D01*
X15817176Y-89898795D01*
X15861697Y-89916291D01*
X15880808Y-89960143D01*
X15872446Y-89992533D01*
X15864609Y-90006108D01*
X15771489Y-90243369D01*
X15714778Y-90491841D01*
X15714778Y-90491843D01*
X15695732Y-90745996D01*
X15695732Y-90746003D01*
X15714778Y-91000156D01*
X15714778Y-91000158D01*
X15771489Y-91248630D01*
X15771492Y-91248637D01*
X15864607Y-91485888D01*
X15992041Y-91706612D01*
X15992043Y-91706615D01*
X15992047Y-91706621D01*
X16150943Y-91905869D01*
X16150946Y-91905872D01*
X16150950Y-91905877D01*
X16337783Y-92079232D01*
X16337788Y-92079235D01*
X16337791Y-92079238D01*
X16470802Y-92169922D01*
X16548366Y-92222805D01*
X16777996Y-92333389D01*
X16899769Y-92370951D01*
X17021534Y-92408511D01*
X17021537Y-92408511D01*
X17021542Y-92408513D01*
X17273565Y-92446500D01*
X17273571Y-92446500D01*
X17528429Y-92446500D01*
X17528435Y-92446500D01*
X17780458Y-92408513D01*
X17780463Y-92408511D01*
X17780466Y-92408511D01*
X17872033Y-92380265D01*
X18024004Y-92333389D01*
X18253634Y-92222805D01*
X18464217Y-92079232D01*
X18651050Y-91905877D01*
X18809959Y-91706612D01*
X18937393Y-91485888D01*
X19030508Y-91248637D01*
X19087222Y-91000157D01*
X19106268Y-90746000D01*
X19087222Y-90491843D01*
X19050489Y-90330904D01*
X19030510Y-90243369D01*
X19030508Y-90243363D01*
X18937393Y-90006112D01*
X18809959Y-89785388D01*
X18809954Y-89785382D01*
X18809952Y-89785378D01*
X18651056Y-89586130D01*
X18651053Y-89586127D01*
X18651050Y-89586123D01*
X18464217Y-89412768D01*
X18464211Y-89412764D01*
X18464208Y-89412761D01*
X18253634Y-89269195D01*
X18024004Y-89158611D01*
X18024001Y-89158610D01*
X18023999Y-89158609D01*
X18023995Y-89158608D01*
X17780465Y-89083488D01*
X17780466Y-89083488D01*
X17634976Y-89061558D01*
X17528435Y-89045500D01*
X17273565Y-89045500D01*
X17021533Y-89083488D01*
X16778004Y-89158608D01*
X16778000Y-89158609D01*
X16548365Y-89269195D01*
X16337791Y-89412761D01*
X16150948Y-89586124D01*
X16116819Y-89628921D01*
X16074952Y-89652059D01*
X16028986Y-89638816D01*
X16005848Y-89596949D01*
X16012370Y-89561377D01*
X16081727Y-89426479D01*
X16170370Y-89166646D01*
X16220236Y-88896674D01*
X16230262Y-88622320D01*
X16200236Y-88349429D01*
X16130796Y-88083818D01*
X16023423Y-87831148D01*
X15880405Y-87596804D01*
X15704791Y-87385782D01*
X15704785Y-87385777D01*
X15704778Y-87385769D01*
X15500321Y-87202575D01*
X15326757Y-87087747D01*
X15271359Y-87051096D01*
X15022779Y-86934567D01*
X15022776Y-86934566D01*
X15022777Y-86934566D01*
X14759890Y-86855475D01*
X14759876Y-86855472D01*
X14488275Y-86815500D01*
X14488269Y-86815500D01*
X14282453Y-86815500D01*
X14282431Y-86815500D01*
X14077203Y-86830521D01*
X13809225Y-86890216D01*
X13809223Y-86890216D01*
X13552800Y-86988289D01*
X13313390Y-87122653D01*
X13096093Y-87290445D01*
X12905542Y-87488088D01*
X12905541Y-87488089D01*
X12745807Y-87711358D01*
X12745804Y-87711362D01*
X12620269Y-87955528D01*
X12531634Y-88215340D01*
X12531628Y-88215360D01*
X12481765Y-88485317D01*
X12481763Y-88485338D01*
X12471737Y-88759676D01*
X-19304000Y-88759676D01*
X-19304000Y-85639094D01*
X-19303465Y-85630936D01*
X-19288036Y-85513747D01*
X-19283813Y-85497987D01*
X-19240161Y-85392602D01*
X-19232003Y-85378472D01*
X-19162561Y-85287974D01*
X-19151025Y-85276438D01*
X-19060527Y-85206996D01*
X-19046397Y-85198838D01*
X-18941012Y-85155186D01*
X-18925252Y-85150963D01*
X-18808064Y-85135535D01*
X-18799906Y-85135000D01*
X-12718908Y-85135000D01*
X-12674714Y-85153306D01*
G37*
%TD.AperFunction*%
%TD*%
%TA.AperFunction,Conductor*%
%TO.N,+5V*%
G36*
X16232641Y3174414D02*
G01*
X16559547Y3157281D01*
X16566053Y3156598D01*
X16887788Y3105641D01*
X16894187Y3104280D01*
X17208804Y3019978D01*
X17215026Y3017957D01*
X17519129Y2901222D01*
X17525105Y2898561D01*
X17815329Y2750686D01*
X17820995Y2747415D01*
X18094178Y2570007D01*
X18099464Y2566166D01*
X18316042Y2390785D01*
X18352611Y2361173D01*
X18357472Y2356795D01*
X18587795Y2126472D01*
X18592173Y2121611D01*
X18797165Y1868467D01*
X18801007Y1863178D01*
X18978415Y1589995D01*
X18981686Y1584329D01*
X19129561Y1294105D01*
X19132222Y1288129D01*
X19248957Y984026D01*
X19250978Y977804D01*
X19335280Y663187D01*
X19336641Y656788D01*
X19387598Y335053D01*
X19388281Y328547D01*
X19405414Y1642D01*
X19405500Y-1629D01*
X19405500Y-72072407D01*
X19400742Y-72096325D01*
X19367159Y-72177400D01*
X19359001Y-72191530D01*
X19289561Y-72282025D01*
X19278025Y-72293561D01*
X19187527Y-72363003D01*
X19173397Y-72371161D01*
X19068012Y-72414813D01*
X19052252Y-72419036D01*
X18935064Y-72434465D01*
X18926906Y-72435000D01*
X12149201Y-72435000D01*
X12141043Y-72434465D01*
X12023854Y-72419036D01*
X12008094Y-72414813D01*
X11902711Y-72371162D01*
X11888581Y-72363005D01*
X11794797Y-72291042D01*
X11788651Y-72285651D01*
X5883262Y-66380262D01*
X14639500Y-66380262D01*
X14642353Y-66410696D01*
X14642354Y-66410701D01*
X14687207Y-66538882D01*
X14687207Y-66538883D01*
X14727148Y-66593000D01*
X14767850Y-66648150D01*
X14877118Y-66728793D01*
X15005301Y-66773646D01*
X15035734Y-66776500D01*
X15035738Y-66776500D01*
X16494262Y-66776500D01*
X16494266Y-66776500D01*
X16524699Y-66773646D01*
X16652882Y-66728793D01*
X16762150Y-66648150D01*
X16842793Y-66538882D01*
X16887646Y-66410699D01*
X16890500Y-66380266D01*
X16890500Y-65071734D01*
X16887646Y-65041301D01*
X16842793Y-64913118D01*
X16762150Y-64803850D01*
X16652882Y-64723207D01*
X16524701Y-64678354D01*
X16524696Y-64678353D01*
X16504699Y-64676478D01*
X16494266Y-64675500D01*
X15035734Y-64675500D01*
X15026124Y-64676401D01*
X15005303Y-64678353D01*
X15005298Y-64678354D01*
X14877117Y-64723207D01*
X14877116Y-64723207D01*
X14767850Y-64803850D01*
X14687207Y-64913116D01*
X14687207Y-64913117D01*
X14642354Y-65041298D01*
X14642353Y-65041303D01*
X14639500Y-65071737D01*
X14639500Y-66380262D01*
X5883262Y-66380262D01*
X4464448Y-64961448D01*
X4464447Y-64961447D01*
X4318000Y-64815000D01*
X4110899Y-64815000D01*
X-19566006Y-64815000D01*
X-20066000Y-64815000D01*
X-20066000Y-65315000D01*
X-20066000Y-65315006D01*
X-20066000Y-94038539D01*
X-20084306Y-94082733D01*
X-20128500Y-94101039D01*
X-20172694Y-94082733D01*
X-20182627Y-94069789D01*
X-20222466Y-94000785D01*
X-20349128Y-93860112D01*
X-20349129Y-93860111D01*
X-20502265Y-93748851D01*
X-20502274Y-93748846D01*
X-20675185Y-93671860D01*
X-20675202Y-93671854D01*
X-20860354Y-93632500D01*
X-21049646Y-93632500D01*
X-21234797Y-93671854D01*
X-21234814Y-93671860D01*
X-21407725Y-93748846D01*
X-21407734Y-93748851D01*
X-21560870Y-93860111D01*
X-21560871Y-93860112D01*
X-21687533Y-94000784D01*
X-21782179Y-94164716D01*
X-21840674Y-94344744D01*
X-21860460Y-94533000D01*
X-21840674Y-94721256D01*
X-21782179Y-94901284D01*
X-21687533Y-95065216D01*
X-21560871Y-95205888D01*
X-21407730Y-95317151D01*
X-21234803Y-95394144D01*
X-21049646Y-95433500D01*
X-20860354Y-95433500D01*
X-20675202Y-95394145D01*
X-20675197Y-95394144D01*
X-20675188Y-95394140D01*
X-20675185Y-95394139D01*
X-20502274Y-95317153D01*
X-20502265Y-95317148D01*
X-20349129Y-95205888D01*
X-20349128Y-95205887D01*
X-20335118Y-95190327D01*
X-20222467Y-95065216D01*
X-20182626Y-94996209D01*
X-20144677Y-94967090D01*
X-20097250Y-94973333D01*
X-20068130Y-95011283D01*
X-20066000Y-95027460D01*
X-20066000Y-126667905D01*
X-20066535Y-126676063D01*
X-20081963Y-126793252D01*
X-20086186Y-126809012D01*
X-20129838Y-126914397D01*
X-20137996Y-126928527D01*
X-20207438Y-127019025D01*
X-20218974Y-127030561D01*
X-20309472Y-127100003D01*
X-20323602Y-127108161D01*
X-20428987Y-127151813D01*
X-20444747Y-127156036D01*
X-20561936Y-127171465D01*
X-20570094Y-127172000D01*
X-23922074Y-127172000D01*
X-23925345Y-127171914D01*
X-24204547Y-127157281D01*
X-24211053Y-127156598D01*
X-24532788Y-127105641D01*
X-24539187Y-127104280D01*
X-24853805Y-127019978D01*
X-24860027Y-127017957D01*
X-25164130Y-126901222D01*
X-25170106Y-126898561D01*
X-25460329Y-126750686D01*
X-25465995Y-126747415D01*
X-25739174Y-126570011D01*
X-25744467Y-126566166D01*
X-25997615Y-126361170D01*
X-26002476Y-126356792D01*
X-26232792Y-126126476D01*
X-26237170Y-126121615D01*
X-26442166Y-125868467D01*
X-26446011Y-125863174D01*
X-26623415Y-125589995D01*
X-26626686Y-125584329D01*
X-26774561Y-125294106D01*
X-26777222Y-125288130D01*
X-26893957Y-124984027D01*
X-26895978Y-124977805D01*
X-26980280Y-124663187D01*
X-26981641Y-124656788D01*
X-27032598Y-124335053D01*
X-27033281Y-124328547D01*
X-27050414Y-124001641D01*
X-27050500Y-123998370D01*
X-27050500Y-99613000D01*
X-25016647Y-99613000D01*
X-24996165Y-99755457D01*
X-24936377Y-99886373D01*
X-24842128Y-99995143D01*
X-24721053Y-100072953D01*
X-24582962Y-100113499D01*
X-24582962Y-100113500D01*
X-24582961Y-100113500D01*
X-24439038Y-100113500D01*
X-24439036Y-100113499D01*
X-24300950Y-100072954D01*
X-24300949Y-100072953D01*
X-24300947Y-100072953D01*
X-24179872Y-99995143D01*
X-24179871Y-99995142D01*
X-24085623Y-99886374D01*
X-24085623Y-99886372D01*
X-24025834Y-99755455D01*
X-24005353Y-99613000D01*
X-24025834Y-99470544D01*
X-24085623Y-99339627D01*
X-24085623Y-99339625D01*
X-24179871Y-99230857D01*
X-24300950Y-99153045D01*
X-24439037Y-99112500D01*
X-24439039Y-99112500D01*
X-24582961Y-99112500D01*
X-24582963Y-99112500D01*
X-24721049Y-99153045D01*
X-24721051Y-99153046D01*
X-24721053Y-99153047D01*
X-24842128Y-99230857D01*
X-24936376Y-99339625D01*
X-24936377Y-99339627D01*
X-24996165Y-99470543D01*
X-25016647Y-99613000D01*
X-27050500Y-99613000D01*
X-27050500Y-94533000D01*
X-24400460Y-94533000D01*
X-24380674Y-94721256D01*
X-24322179Y-94901284D01*
X-24227533Y-95065216D01*
X-24100871Y-95205888D01*
X-23947730Y-95317151D01*
X-23774803Y-95394144D01*
X-23589646Y-95433500D01*
X-23400354Y-95433500D01*
X-23215202Y-95394145D01*
X-23215197Y-95394144D01*
X-23215188Y-95394140D01*
X-23215185Y-95394139D01*
X-23042274Y-95317153D01*
X-23042265Y-95317148D01*
X-22889129Y-95205888D01*
X-22889128Y-95205887D01*
X-22875118Y-95190327D01*
X-22762467Y-95065216D01*
X-22667821Y-94901284D01*
X-22667820Y-94901282D01*
X-22667818Y-94901278D01*
X-22609326Y-94721258D01*
X-22589540Y-94533000D01*
X-22609326Y-94344741D01*
X-22667818Y-94164721D01*
X-22762466Y-94000785D01*
X-22889128Y-93860112D01*
X-22889129Y-93860111D01*
X-23042265Y-93748851D01*
X-23042274Y-93748846D01*
X-23215185Y-93671860D01*
X-23215202Y-93671854D01*
X-23400354Y-93632500D01*
X-23589646Y-93632500D01*
X-23774797Y-93671854D01*
X-23774814Y-93671860D01*
X-23947725Y-93748846D01*
X-23947734Y-93748851D01*
X-24100870Y-93860111D01*
X-24100871Y-93860112D01*
X-24227533Y-94000784D01*
X-24322179Y-94164716D01*
X-24380674Y-94344744D01*
X-24400460Y-94533000D01*
X-27050500Y-94533000D01*
X-27050500Y-79685748D01*
X-23687500Y-79685748D01*
X-23675867Y-79744231D01*
X-23631552Y-79810552D01*
X-23565231Y-79854867D01*
X-23506748Y-79866500D01*
X-22467252Y-79866500D01*
X-22408769Y-79854867D01*
X-22408767Y-79854866D01*
X-22342447Y-79810552D01*
X-22298133Y-79744232D01*
X-22298132Y-79744230D01*
X-22286500Y-79685748D01*
X-22286500Y-78646251D01*
X-22298132Y-78587769D01*
X-22298133Y-78587767D01*
X-22342447Y-78521447D01*
X-22408767Y-78477133D01*
X-22408769Y-78477132D01*
X-22467252Y-78465500D01*
X-23506748Y-78465500D01*
X-23565230Y-78477132D01*
X-23565232Y-78477133D01*
X-23631552Y-78521447D01*
X-23661467Y-78566218D01*
X-23675867Y-78587769D01*
X-23687500Y-78646252D01*
X-23687500Y-79685748D01*
X-27050500Y-79685748D01*
X-27050500Y-64053000D01*
X-21079647Y-64053000D01*
X-21059165Y-64195457D01*
X-20999377Y-64326373D01*
X-20905128Y-64435143D01*
X-20784053Y-64512953D01*
X-20645962Y-64553499D01*
X-20645962Y-64553500D01*
X-20645961Y-64553500D01*
X-20502038Y-64553500D01*
X-20502036Y-64553499D01*
X-20363950Y-64512954D01*
X-20363949Y-64512953D01*
X-20363947Y-64512953D01*
X-20242872Y-64435143D01*
X-20242871Y-64435142D01*
X-20148623Y-64326374D01*
X-20148623Y-64326372D01*
X-20118904Y-64261299D01*
X-20088835Y-64195457D01*
X-20088834Y-64195455D01*
X-20068353Y-64053000D01*
X-20088834Y-63910544D01*
X-20148623Y-63779627D01*
X-20148623Y-63779625D01*
X-20242871Y-63670857D01*
X-20363950Y-63593045D01*
X-20502037Y-63552500D01*
X-20502039Y-63552500D01*
X-20645961Y-63552500D01*
X-20645963Y-63552500D01*
X-20784049Y-63593045D01*
X-20784051Y-63593046D01*
X-20784053Y-63593047D01*
X-20905128Y-63670857D01*
X-20999376Y-63779625D01*
X-20999377Y-63779627D01*
X-21059165Y-63910543D01*
X-21079647Y-64053000D01*
X-27050500Y-64053000D01*
X-27050500Y-63226000D01*
X14634417Y-63226000D01*
X14654699Y-63431930D01*
X14654700Y-63431935D01*
X14714766Y-63629949D01*
X14714768Y-63629954D01*
X14812311Y-63812444D01*
X14812313Y-63812448D01*
X14812315Y-63812450D01*
X14943590Y-63972410D01*
X15103550Y-64103685D01*
X15103553Y-64103686D01*
X15103555Y-64103688D01*
X15178912Y-64143967D01*
X15286046Y-64201232D01*
X15484066Y-64261300D01*
X15638392Y-64276500D01*
X15638396Y-64276500D01*
X15891604Y-64276500D01*
X15891608Y-64276500D01*
X16045934Y-64261300D01*
X16243954Y-64201232D01*
X16426450Y-64103685D01*
X16586410Y-63972410D01*
X16717685Y-63812450D01*
X16815232Y-63629954D01*
X16875300Y-63431934D01*
X16895583Y-63226000D01*
X16875300Y-63020066D01*
X16815232Y-62822046D01*
X16717685Y-62639550D01*
X16586410Y-62479590D01*
X16426450Y-62348315D01*
X16426448Y-62348313D01*
X16426444Y-62348311D01*
X16243954Y-62250768D01*
X16243949Y-62250766D01*
X16045935Y-62190700D01*
X16045930Y-62190699D01*
X15952404Y-62181487D01*
X15891608Y-62175500D01*
X15638392Y-62175500D01*
X15583047Y-62180951D01*
X15484069Y-62190699D01*
X15484064Y-62190700D01*
X15286050Y-62250766D01*
X15286045Y-62250768D01*
X15103555Y-62348311D01*
X15103544Y-62348319D01*
X14943591Y-62479588D01*
X14943588Y-62479591D01*
X14812319Y-62639544D01*
X14812311Y-62639555D01*
X14714768Y-62822045D01*
X14714766Y-62822050D01*
X14654700Y-63020064D01*
X14654699Y-63020069D01*
X14634417Y-63225999D01*
X14634417Y-63226000D01*
X-27050500Y-63226000D01*
X-27050500Y-62656000D01*
X-22984647Y-62656000D01*
X-22964165Y-62798457D01*
X-22904377Y-62929373D01*
X-22810128Y-63038143D01*
X-22689053Y-63115953D01*
X-22550962Y-63156499D01*
X-22550962Y-63156500D01*
X-22550961Y-63156500D01*
X-22407038Y-63156500D01*
X-22407036Y-63156499D01*
X-22268950Y-63115954D01*
X-22268949Y-63115953D01*
X-22268947Y-63115953D01*
X-22147872Y-63038143D01*
X-22132208Y-63020066D01*
X-22053623Y-62929374D01*
X-22053623Y-62929372D01*
X-21993834Y-62798455D01*
X-21973353Y-62656000D01*
X-21993834Y-62513544D01*
X-22053623Y-62382627D01*
X-22053623Y-62382625D01*
X-22147871Y-62273857D01*
X-22268950Y-62196045D01*
X-22407037Y-62155500D01*
X-22407039Y-62155500D01*
X-22550961Y-62155500D01*
X-22550963Y-62155500D01*
X-22689049Y-62196045D01*
X-22689051Y-62196046D01*
X-22689053Y-62196047D01*
X-22810128Y-62273857D01*
X-22904376Y-62382625D01*
X-22904377Y-62382627D01*
X-22964165Y-62513543D01*
X-22984647Y-62656000D01*
X-27050500Y-62656000D01*
X-27050500Y-61386000D01*
X-22984647Y-61386000D01*
X-22964165Y-61528457D01*
X-22904377Y-61659373D01*
X-22810128Y-61768143D01*
X-22689053Y-61845953D01*
X-22550962Y-61886499D01*
X-22550962Y-61886500D01*
X-22550961Y-61886500D01*
X-22407038Y-61886500D01*
X-22407036Y-61886499D01*
X-22268950Y-61845954D01*
X-22268949Y-61845953D01*
X-22268947Y-61845953D01*
X-22147872Y-61768143D01*
X-22147871Y-61768142D01*
X-22053623Y-61659374D01*
X-22053623Y-61659372D01*
X-21993834Y-61528455D01*
X-21973353Y-61386000D01*
X-21993834Y-61243544D01*
X-22053623Y-61112627D01*
X-22053623Y-61112625D01*
X-22147871Y-61003857D01*
X-22268950Y-60926045D01*
X-22407037Y-60885500D01*
X-22407039Y-60885500D01*
X-22550961Y-60885500D01*
X-22550963Y-60885500D01*
X-22689049Y-60926045D01*
X-22689051Y-60926046D01*
X-22689053Y-60926047D01*
X-22810128Y-61003857D01*
X-22904376Y-61112625D01*
X-22904377Y-61112627D01*
X-22964165Y-61243543D01*
X-22984647Y-61386000D01*
X-27050500Y-61386000D01*
X-27050500Y-60726000D01*
X14634417Y-60726000D01*
X14654699Y-60931930D01*
X14654700Y-60931935D01*
X14714766Y-61129949D01*
X14714768Y-61129954D01*
X14812311Y-61312444D01*
X14812319Y-61312455D01*
X14872675Y-61386000D01*
X14943590Y-61472410D01*
X15103550Y-61603685D01*
X15103553Y-61603686D01*
X15103555Y-61603688D01*
X15178912Y-61643967D01*
X15286046Y-61701232D01*
X15484066Y-61761300D01*
X15638392Y-61776500D01*
X15638396Y-61776500D01*
X15891604Y-61776500D01*
X15891608Y-61776500D01*
X16045934Y-61761300D01*
X16243954Y-61701232D01*
X16426450Y-61603685D01*
X16586410Y-61472410D01*
X16717685Y-61312450D01*
X16815232Y-61129954D01*
X16875300Y-60931934D01*
X16895583Y-60726000D01*
X16875300Y-60520066D01*
X16815232Y-60322046D01*
X16717685Y-60139550D01*
X16586410Y-59979590D01*
X16426450Y-59848315D01*
X16426448Y-59848313D01*
X16426444Y-59848311D01*
X16243954Y-59750768D01*
X16243949Y-59750766D01*
X16045935Y-59690700D01*
X16045930Y-59690699D01*
X15952404Y-59681487D01*
X15891608Y-59675500D01*
X15638392Y-59675500D01*
X15583047Y-59680951D01*
X15484069Y-59690699D01*
X15484064Y-59690700D01*
X15286050Y-59750766D01*
X15286045Y-59750768D01*
X15103555Y-59848311D01*
X15103544Y-59848319D01*
X14943591Y-59979588D01*
X14943588Y-59979591D01*
X14812319Y-60139544D01*
X14812311Y-60139555D01*
X14714768Y-60322045D01*
X14714766Y-60322050D01*
X14654700Y-60520064D01*
X14654699Y-60520069D01*
X14634417Y-60725999D01*
X14634417Y-60726000D01*
X-27050500Y-60726000D01*
X-27050500Y-60116000D01*
X-22984647Y-60116000D01*
X-22964165Y-60258457D01*
X-22904377Y-60389373D01*
X-22810128Y-60498143D01*
X-22689053Y-60575953D01*
X-22550962Y-60616499D01*
X-22550962Y-60616500D01*
X-22550961Y-60616500D01*
X-22407038Y-60616500D01*
X-22407036Y-60616499D01*
X-22268950Y-60575954D01*
X-22268949Y-60575953D01*
X-22268947Y-60575953D01*
X-22147872Y-60498143D01*
X-22147871Y-60498142D01*
X-22053623Y-60389374D01*
X-22053623Y-60389372D01*
X-22022875Y-60322046D01*
X-21993835Y-60258457D01*
X-21993834Y-60258455D01*
X-21973353Y-60116000D01*
X3812353Y-60116000D01*
X3832834Y-60258455D01*
X3832835Y-60258457D01*
X3861875Y-60322046D01*
X3892623Y-60389372D01*
X3892623Y-60389374D01*
X3986871Y-60498142D01*
X3986872Y-60498143D01*
X4107947Y-60575953D01*
X4107949Y-60575953D01*
X4107950Y-60575954D01*
X4246036Y-60616499D01*
X4246038Y-60616500D01*
X4246039Y-60616500D01*
X4389962Y-60616500D01*
X4389962Y-60616499D01*
X4528053Y-60575953D01*
X4649128Y-60498143D01*
X4743377Y-60389373D01*
X4803165Y-60258457D01*
X4823647Y-60116000D01*
X5082353Y-60116000D01*
X5102834Y-60258455D01*
X5102835Y-60258457D01*
X5131875Y-60322046D01*
X5162623Y-60389372D01*
X5162623Y-60389374D01*
X5256871Y-60498142D01*
X5256872Y-60498143D01*
X5377947Y-60575953D01*
X5377949Y-60575953D01*
X5377950Y-60575954D01*
X5516036Y-60616499D01*
X5516038Y-60616500D01*
X5516039Y-60616500D01*
X5659962Y-60616500D01*
X5659962Y-60616499D01*
X5798053Y-60575953D01*
X5919128Y-60498143D01*
X6013377Y-60389373D01*
X6073165Y-60258457D01*
X6093647Y-60116000D01*
X6073165Y-59973543D01*
X6013377Y-59842627D01*
X6013376Y-59842625D01*
X5919128Y-59733857D01*
X5851974Y-59690700D01*
X5798053Y-59656047D01*
X5798051Y-59656046D01*
X5798049Y-59656045D01*
X5659963Y-59615500D01*
X5659961Y-59615500D01*
X5516039Y-59615500D01*
X5516037Y-59615500D01*
X5377950Y-59656045D01*
X5256871Y-59733857D01*
X5162623Y-59842625D01*
X5162623Y-59842627D01*
X5102834Y-59973544D01*
X5082353Y-60116000D01*
X4823647Y-60116000D01*
X4803165Y-59973543D01*
X4743377Y-59842627D01*
X4743376Y-59842625D01*
X4649128Y-59733857D01*
X4581974Y-59690700D01*
X4528053Y-59656047D01*
X4528051Y-59656046D01*
X4528049Y-59656045D01*
X4389963Y-59615500D01*
X4389961Y-59615500D01*
X4246039Y-59615500D01*
X4246037Y-59615500D01*
X4107950Y-59656045D01*
X3986871Y-59733857D01*
X3892623Y-59842625D01*
X3892623Y-59842627D01*
X3832834Y-59973544D01*
X3812353Y-60116000D01*
X-21973353Y-60116000D01*
X-21993834Y-59973544D01*
X-22053623Y-59842627D01*
X-22053623Y-59842625D01*
X-22147871Y-59733857D01*
X-22268950Y-59656045D01*
X-22407037Y-59615500D01*
X-22407039Y-59615500D01*
X-22550961Y-59615500D01*
X-22550963Y-59615500D01*
X-22689049Y-59656045D01*
X-22689051Y-59656046D01*
X-22689053Y-59656047D01*
X-22742974Y-59690700D01*
X-22810128Y-59733857D01*
X-22904376Y-59842625D01*
X-22904377Y-59842627D01*
X-22964165Y-59973543D01*
X-22984647Y-60116000D01*
X-27050500Y-60116000D01*
X-27050500Y-58846000D01*
X-22984647Y-58846000D01*
X-22964165Y-58988457D01*
X-22904377Y-59119373D01*
X-22810128Y-59228143D01*
X-22689053Y-59305953D01*
X-22550962Y-59346499D01*
X-22550962Y-59346500D01*
X-22550961Y-59346500D01*
X-22407038Y-59346500D01*
X-22407036Y-59346499D01*
X-22268950Y-59305954D01*
X-22268949Y-59305953D01*
X-22268947Y-59305953D01*
X-22147872Y-59228143D01*
X-22147871Y-59228142D01*
X-22053623Y-59119374D01*
X-22053623Y-59119372D01*
X-22046458Y-59103685D01*
X-22044775Y-59100000D01*
X-8887647Y-59100000D01*
X-8867165Y-59242457D01*
X-8807377Y-59373373D01*
X-8713128Y-59482143D01*
X-8592053Y-59559953D01*
X-8453962Y-59600499D01*
X-8453962Y-59600500D01*
X-8453961Y-59600500D01*
X-8310038Y-59600500D01*
X-8310036Y-59600499D01*
X-8171950Y-59559954D01*
X-8171949Y-59559953D01*
X-8171947Y-59559953D01*
X-8050872Y-59482143D01*
X-8050871Y-59482142D01*
X-7956623Y-59373374D01*
X-7956623Y-59373372D01*
X-7944350Y-59346500D01*
X-7896835Y-59242457D01*
X-7896834Y-59242455D01*
X-7876353Y-59100000D01*
X-7490647Y-59100000D01*
X-7470165Y-59242457D01*
X-7410377Y-59373373D01*
X-7316128Y-59482143D01*
X-7195053Y-59559953D01*
X-7056962Y-59600499D01*
X-7056962Y-59600500D01*
X-7056961Y-59600500D01*
X-6913038Y-59600500D01*
X-6913036Y-59600499D01*
X-6774950Y-59559954D01*
X-6774949Y-59559953D01*
X-6774947Y-59559953D01*
X-6653872Y-59482143D01*
X-6653871Y-59482142D01*
X-6559623Y-59373374D01*
X-6559623Y-59373372D01*
X-6547350Y-59346500D01*
X-6499835Y-59242457D01*
X-6499834Y-59242455D01*
X-6479353Y-59100000D01*
X-6499834Y-58957544D01*
X-6559623Y-58826627D01*
X-6559623Y-58826625D01*
X-6653871Y-58717857D01*
X-6774950Y-58640045D01*
X-6913037Y-58599500D01*
X-6913039Y-58599500D01*
X-7056961Y-58599500D01*
X-7056963Y-58599500D01*
X-7195049Y-58640045D01*
X-7195051Y-58640046D01*
X-7195053Y-58640047D01*
X-7293855Y-58703543D01*
X-7316128Y-58717857D01*
X-7410376Y-58826625D01*
X-7410377Y-58826627D01*
X-7470165Y-58957543D01*
X-7490647Y-59100000D01*
X-7876353Y-59100000D01*
X-7896834Y-58957544D01*
X-7956623Y-58826627D01*
X-7956623Y-58826625D01*
X-8050871Y-58717857D01*
X-8171950Y-58640045D01*
X-8310037Y-58599500D01*
X-8310039Y-58599500D01*
X-8453961Y-58599500D01*
X-8453963Y-58599500D01*
X-8592049Y-58640045D01*
X-8592051Y-58640046D01*
X-8592053Y-58640047D01*
X-8690855Y-58703543D01*
X-8713128Y-58717857D01*
X-8807376Y-58826625D01*
X-8807377Y-58826627D01*
X-8867165Y-58957543D01*
X-8887647Y-59100000D01*
X-22044775Y-59100000D01*
X-21993835Y-58988457D01*
X-21993834Y-58988455D01*
X-21973353Y-58846000D01*
X-21993834Y-58703544D01*
X-22053623Y-58572627D01*
X-22053623Y-58572625D01*
X-22147871Y-58463857D01*
X-22216114Y-58420000D01*
X-6220647Y-58420000D01*
X-6200165Y-58562457D01*
X-6140377Y-58693373D01*
X-6046128Y-58802143D01*
X-5925053Y-58879953D01*
X-5786962Y-58920499D01*
X-5786962Y-58920500D01*
X-5786961Y-58920500D01*
X-5643038Y-58920500D01*
X-5643036Y-58920499D01*
X-5504950Y-58879954D01*
X-5504949Y-58879953D01*
X-5504947Y-58879953D01*
X-5383872Y-58802143D01*
X-5310838Y-58717857D01*
X-5289623Y-58693374D01*
X-5289623Y-58693372D01*
X-5229834Y-58562455D01*
X-5209353Y-58420000D01*
X-5229834Y-58277544D01*
X-5253374Y-58226000D01*
X14634417Y-58226000D01*
X14654699Y-58431930D01*
X14654700Y-58431935D01*
X14714766Y-58629949D01*
X14714768Y-58629954D01*
X14812311Y-58812444D01*
X14812319Y-58812455D01*
X14839848Y-58846000D01*
X14943590Y-58972410D01*
X15103550Y-59103685D01*
X15103553Y-59103686D01*
X15103555Y-59103688D01*
X15178912Y-59143967D01*
X15286046Y-59201232D01*
X15484066Y-59261300D01*
X15638392Y-59276500D01*
X15638396Y-59276500D01*
X15891604Y-59276500D01*
X15891608Y-59276500D01*
X16045934Y-59261300D01*
X16243954Y-59201232D01*
X16426450Y-59103685D01*
X16586410Y-58972410D01*
X16717685Y-58812450D01*
X16815232Y-58629954D01*
X16875300Y-58431934D01*
X16895583Y-58226000D01*
X16875300Y-58020066D01*
X16815232Y-57822046D01*
X16717685Y-57639550D01*
X16586410Y-57479590D01*
X16530302Y-57433544D01*
X16426455Y-57348319D01*
X16426453Y-57348318D01*
X16426450Y-57348315D01*
X16426448Y-57348313D01*
X16426444Y-57348311D01*
X16243954Y-57250768D01*
X16243949Y-57250766D01*
X16045935Y-57190700D01*
X16045930Y-57190699D01*
X15952404Y-57181487D01*
X15891608Y-57175500D01*
X15638392Y-57175500D01*
X15583047Y-57180951D01*
X15484069Y-57190699D01*
X15484064Y-57190700D01*
X15286050Y-57250766D01*
X15286045Y-57250768D01*
X15103555Y-57348311D01*
X15103544Y-57348319D01*
X14943591Y-57479588D01*
X14943588Y-57479591D01*
X14812319Y-57639544D01*
X14812311Y-57639555D01*
X14714768Y-57822045D01*
X14714766Y-57822050D01*
X14654700Y-58020064D01*
X14654699Y-58020069D01*
X14634417Y-58225999D01*
X14634417Y-58226000D01*
X-5253374Y-58226000D01*
X-5289623Y-58146627D01*
X-5289623Y-58146625D01*
X-5383871Y-58037857D01*
X-5504950Y-57960045D01*
X-5643037Y-57919500D01*
X-5643039Y-57919500D01*
X-5786961Y-57919500D01*
X-5786963Y-57919500D01*
X-5925049Y-57960045D01*
X-5925051Y-57960046D01*
X-5925053Y-57960047D01*
X-6018449Y-58020069D01*
X-6046128Y-58037857D01*
X-6140376Y-58146625D01*
X-6140377Y-58146627D01*
X-6200165Y-58277543D01*
X-6220647Y-58420000D01*
X-22216114Y-58420000D01*
X-22268950Y-58386045D01*
X-22407037Y-58345500D01*
X-22407039Y-58345500D01*
X-22550961Y-58345500D01*
X-22550963Y-58345500D01*
X-22689049Y-58386045D01*
X-22689051Y-58386046D01*
X-22689053Y-58386047D01*
X-22760456Y-58431935D01*
X-22810128Y-58463857D01*
X-22904376Y-58572625D01*
X-22904377Y-58572627D01*
X-22964165Y-58703543D01*
X-22984647Y-58846000D01*
X-27050500Y-58846000D01*
X-27050500Y-57576000D01*
X-22984647Y-57576000D01*
X-22964165Y-57718457D01*
X-22904377Y-57849373D01*
X-22810128Y-57958143D01*
X-22689053Y-58035953D01*
X-22550962Y-58076499D01*
X-22550962Y-58076500D01*
X-22550961Y-58076500D01*
X-22407038Y-58076500D01*
X-22407036Y-58076499D01*
X-22268950Y-58035954D01*
X-22268949Y-58035953D01*
X-22268947Y-58035953D01*
X-22147872Y-57958143D01*
X-22114388Y-57919500D01*
X-22053623Y-57849374D01*
X-22053623Y-57849372D01*
X-21993834Y-57718455D01*
X-21973353Y-57576000D01*
X-21993834Y-57433544D01*
X-22053623Y-57302627D01*
X-22053623Y-57302625D01*
X-22147871Y-57193857D01*
X-22268950Y-57116045D01*
X-22407037Y-57075500D01*
X-22407039Y-57075500D01*
X-22550961Y-57075500D01*
X-22550963Y-57075500D01*
X-22689049Y-57116045D01*
X-22689051Y-57116046D01*
X-22689053Y-57116047D01*
X-22781564Y-57175500D01*
X-22810128Y-57193857D01*
X-22904376Y-57302625D01*
X-22904377Y-57302627D01*
X-22964165Y-57433543D01*
X-22984647Y-57576000D01*
X-27050500Y-57576000D01*
X-27050500Y-56306000D01*
X-22984647Y-56306000D01*
X-22964165Y-56448457D01*
X-22904377Y-56579373D01*
X-22810128Y-56688143D01*
X-22689053Y-56765953D01*
X-22550962Y-56806499D01*
X-22550962Y-56806500D01*
X-22550961Y-56806500D01*
X-22407038Y-56806500D01*
X-22407036Y-56806499D01*
X-22268950Y-56765954D01*
X-22268949Y-56765953D01*
X-22268947Y-56765953D01*
X-22147872Y-56688143D01*
X-22147871Y-56688142D01*
X-22053623Y-56579374D01*
X-22053623Y-56579372D01*
X-22041350Y-56552500D01*
X-21993835Y-56448457D01*
X-21993834Y-56448455D01*
X-21973353Y-56306000D01*
X-21993834Y-56163544D01*
X-22044775Y-56052000D01*
X-3299647Y-56052000D01*
X-3279165Y-56194457D01*
X-3219377Y-56325373D01*
X-3125128Y-56434143D01*
X-3004053Y-56511953D01*
X-2865962Y-56552499D01*
X-2865962Y-56552500D01*
X-2865961Y-56552500D01*
X-2722038Y-56552500D01*
X-2722036Y-56552499D01*
X-2583950Y-56511954D01*
X-2583949Y-56511953D01*
X-2583947Y-56511953D01*
X-2462872Y-56434143D01*
X-2462871Y-56434142D01*
X-2368623Y-56325374D01*
X-2368623Y-56325372D01*
X-2308834Y-56194455D01*
X-2288353Y-56052000D01*
X-2308834Y-55909544D01*
X-2368623Y-55778627D01*
X-2368623Y-55778625D01*
X-2462871Y-55669857D01*
X-2583950Y-55592045D01*
X-2722037Y-55551500D01*
X-2722039Y-55551500D01*
X-2865961Y-55551500D01*
X-2865963Y-55551500D01*
X-3004049Y-55592045D01*
X-3004051Y-55592046D01*
X-3004053Y-55592047D01*
X-3125128Y-55669857D01*
X-3219376Y-55778625D01*
X-3219377Y-55778627D01*
X-3279165Y-55909543D01*
X-3299647Y-56052000D01*
X-22044775Y-56052000D01*
X-22053623Y-56032627D01*
X-22053623Y-56032625D01*
X-22147871Y-55923857D01*
X-22268950Y-55846045D01*
X-22407037Y-55805500D01*
X-22407039Y-55805500D01*
X-22550961Y-55805500D01*
X-22550963Y-55805500D01*
X-22689049Y-55846045D01*
X-22689051Y-55846046D01*
X-22689053Y-55846047D01*
X-22787855Y-55909543D01*
X-22810128Y-55923857D01*
X-22904376Y-56032625D01*
X-22904377Y-56032627D01*
X-22964165Y-56163543D01*
X-22984647Y-56306000D01*
X-27050500Y-56306000D01*
X-27050500Y-53848000D01*
X-18158647Y-53848000D01*
X-18138165Y-53990457D01*
X-18078377Y-54121373D01*
X-17984128Y-54230143D01*
X-17863053Y-54307953D01*
X-17724962Y-54348499D01*
X-17724962Y-54348500D01*
X-17724961Y-54348500D01*
X-17581038Y-54348500D01*
X-17581036Y-54348499D01*
X-17442950Y-54307954D01*
X-17442949Y-54307953D01*
X-17442947Y-54307953D01*
X-17321872Y-54230143D01*
X-17321871Y-54230142D01*
X-17227623Y-54121374D01*
X-17227623Y-54121372D01*
X-17167834Y-53990455D01*
X-17147353Y-53848000D01*
X-17167834Y-53705544D01*
X-17227623Y-53574627D01*
X-17227623Y-53574625D01*
X-17321871Y-53465857D01*
X-17442950Y-53388045D01*
X-17581037Y-53347500D01*
X-17581039Y-53347500D01*
X-17724961Y-53347500D01*
X-17724963Y-53347500D01*
X-17863049Y-53388045D01*
X-17863051Y-53388046D01*
X-17863053Y-53388047D01*
X-17984128Y-53465857D01*
X-18078376Y-53574625D01*
X-18078377Y-53574627D01*
X-18138165Y-53705543D01*
X-18158647Y-53848000D01*
X-27050500Y-53848000D01*
X-27050500Y-50845000D01*
X-7236647Y-50845000D01*
X-7216165Y-50987457D01*
X-7156377Y-51118373D01*
X-7062128Y-51227143D01*
X-6941053Y-51304953D01*
X-6802962Y-51345499D01*
X-6802962Y-51345500D01*
X-6802961Y-51345500D01*
X-6659038Y-51345500D01*
X-6659036Y-51345499D01*
X-6520950Y-51304954D01*
X-6520949Y-51304953D01*
X-6520947Y-51304953D01*
X-6399872Y-51227143D01*
X-6399871Y-51227142D01*
X-6305623Y-51118374D01*
X-6305623Y-51118372D01*
X-6245834Y-50987455D01*
X-6225353Y-50845000D01*
X-6245834Y-50702544D01*
X-6305623Y-50571627D01*
X-6305623Y-50571625D01*
X-6399871Y-50462857D01*
X-6520950Y-50385045D01*
X-6659037Y-50344500D01*
X-6659039Y-50344500D01*
X-6802961Y-50344500D01*
X-6802963Y-50344500D01*
X-6941049Y-50385045D01*
X-6941051Y-50385046D01*
X-6941053Y-50385047D01*
X-7062128Y-50462857D01*
X-7156376Y-50571625D01*
X-7156377Y-50571627D01*
X-7216165Y-50702543D01*
X-7236647Y-50845000D01*
X-27050500Y-50845000D01*
X-27050500Y-44577000D01*
X-18539647Y-44577000D01*
X-18519165Y-44719457D01*
X-18459377Y-44850373D01*
X-18365128Y-44959143D01*
X-18244053Y-45036953D01*
X-18105962Y-45077499D01*
X-18105962Y-45077500D01*
X-18105961Y-45077500D01*
X-17962038Y-45077500D01*
X-17962036Y-45077499D01*
X-17823950Y-45036954D01*
X-17823949Y-45036953D01*
X-17823947Y-45036953D01*
X-17702872Y-44959143D01*
X-17647615Y-44895373D01*
X-17608623Y-44850374D01*
X-17608623Y-44850372D01*
X-17548834Y-44719455D01*
X-17534823Y-44622000D01*
X-17269647Y-44622000D01*
X-17249165Y-44764457D01*
X-17189377Y-44895373D01*
X-17095128Y-45004143D01*
X-16974053Y-45081953D01*
X-16835962Y-45122499D01*
X-16835962Y-45122500D01*
X-16835961Y-45122500D01*
X-16692038Y-45122500D01*
X-16692036Y-45122499D01*
X-16553950Y-45081954D01*
X-16553949Y-45081953D01*
X-16553947Y-45081953D01*
X-16432872Y-45004143D01*
X-16432871Y-45004142D01*
X-16338623Y-44895374D01*
X-16338623Y-44895372D01*
X-16318072Y-44850374D01*
X-16278835Y-44764457D01*
X-16278834Y-44764455D01*
X-16258353Y-44622000D01*
X-16264823Y-44577000D01*
X-6474647Y-44577000D01*
X-6454165Y-44719457D01*
X-6394377Y-44850373D01*
X-6300128Y-44959143D01*
X-6179053Y-45036953D01*
X-6040962Y-45077499D01*
X-6040962Y-45077500D01*
X-6040961Y-45077500D01*
X-5897038Y-45077500D01*
X-5897036Y-45077499D01*
X-5758950Y-45036954D01*
X-5758949Y-45036953D01*
X-5758947Y-45036953D01*
X-5637872Y-44959143D01*
X-5582615Y-44895373D01*
X-5543623Y-44850374D01*
X-5543623Y-44850372D01*
X-5483834Y-44719455D01*
X-5469823Y-44622000D01*
X-5204647Y-44622000D01*
X-5184165Y-44764457D01*
X-5124377Y-44895373D01*
X-5030128Y-45004143D01*
X-4909053Y-45081953D01*
X-4770962Y-45122499D01*
X-4770962Y-45122500D01*
X-4770961Y-45122500D01*
X-4627038Y-45122500D01*
X-4627036Y-45122499D01*
X-4488950Y-45081954D01*
X-4488949Y-45081953D01*
X-4488947Y-45081953D01*
X-4367872Y-45004143D01*
X-4367871Y-45004142D01*
X-4273623Y-44895374D01*
X-4273623Y-44895372D01*
X-4253072Y-44850374D01*
X-4213835Y-44764457D01*
X-4213834Y-44764455D01*
X-4193353Y-44622000D01*
X-4199823Y-44577000D01*
X5590353Y-44577000D01*
X5610834Y-44719455D01*
X5670623Y-44850372D01*
X5670623Y-44850374D01*
X5709615Y-44895373D01*
X5764872Y-44959143D01*
X5885947Y-45036953D01*
X5885949Y-45036953D01*
X5885950Y-45036954D01*
X6024036Y-45077499D01*
X6024038Y-45077500D01*
X6024039Y-45077500D01*
X6167962Y-45077500D01*
X6167962Y-45077499D01*
X6306053Y-45036953D01*
X6427128Y-44959143D01*
X6521377Y-44850373D01*
X6581165Y-44719457D01*
X6595177Y-44622000D01*
X6860353Y-44622000D01*
X6880834Y-44764455D01*
X6880835Y-44764457D01*
X6920072Y-44850374D01*
X6940623Y-44895372D01*
X6940623Y-44895374D01*
X7034871Y-45004142D01*
X7034872Y-45004143D01*
X7155947Y-45081953D01*
X7155949Y-45081953D01*
X7155950Y-45081954D01*
X7294036Y-45122499D01*
X7294038Y-45122500D01*
X7294039Y-45122500D01*
X7437962Y-45122500D01*
X7437962Y-45122499D01*
X7576053Y-45081953D01*
X7697128Y-45004143D01*
X7791377Y-44895373D01*
X7851165Y-44764457D01*
X7871647Y-44622000D01*
X7851165Y-44479543D01*
X7791377Y-44348627D01*
X7791376Y-44348625D01*
X7697128Y-44239857D01*
X7627106Y-44194857D01*
X7576053Y-44162047D01*
X7576051Y-44162046D01*
X7576049Y-44162045D01*
X7437963Y-44121500D01*
X7437961Y-44121500D01*
X7294039Y-44121500D01*
X7294037Y-44121500D01*
X7155950Y-44162045D01*
X7034871Y-44239857D01*
X6940623Y-44348625D01*
X6940623Y-44348627D01*
X6880834Y-44479544D01*
X6860353Y-44622000D01*
X6595177Y-44622000D01*
X6601647Y-44577000D01*
X6581165Y-44434543D01*
X6521377Y-44303627D01*
X6521376Y-44303625D01*
X6427128Y-44194857D01*
X6306053Y-44117047D01*
X6306051Y-44117046D01*
X6306049Y-44117045D01*
X6167963Y-44076500D01*
X6167961Y-44076500D01*
X6024039Y-44076500D01*
X6024037Y-44076500D01*
X5885950Y-44117045D01*
X5764871Y-44194857D01*
X5670623Y-44303625D01*
X5670623Y-44303627D01*
X5610834Y-44434544D01*
X5590353Y-44577000D01*
X-4199823Y-44577000D01*
X-4213834Y-44479544D01*
X-4273623Y-44348627D01*
X-4273623Y-44348625D01*
X-4367871Y-44239857D01*
X-4488950Y-44162045D01*
X-4627037Y-44121500D01*
X-4627039Y-44121500D01*
X-4770961Y-44121500D01*
X-4770963Y-44121500D01*
X-4909049Y-44162045D01*
X-4909051Y-44162046D01*
X-4909053Y-44162047D01*
X-4960106Y-44194857D01*
X-5030128Y-44239857D01*
X-5124376Y-44348625D01*
X-5124377Y-44348627D01*
X-5184165Y-44479543D01*
X-5204647Y-44622000D01*
X-5469823Y-44622000D01*
X-5463353Y-44577000D01*
X-5483834Y-44434544D01*
X-5543623Y-44303627D01*
X-5543623Y-44303625D01*
X-5637871Y-44194857D01*
X-5758950Y-44117045D01*
X-5897037Y-44076500D01*
X-5897039Y-44076500D01*
X-6040961Y-44076500D01*
X-6040963Y-44076500D01*
X-6179049Y-44117045D01*
X-6179051Y-44117046D01*
X-6179053Y-44117047D01*
X-6300128Y-44194857D01*
X-6394376Y-44303625D01*
X-6394377Y-44303627D01*
X-6454165Y-44434543D01*
X-6474647Y-44577000D01*
X-16264823Y-44577000D01*
X-16278834Y-44479544D01*
X-16338623Y-44348627D01*
X-16338623Y-44348625D01*
X-16432871Y-44239857D01*
X-16553950Y-44162045D01*
X-16692037Y-44121500D01*
X-16692039Y-44121500D01*
X-16835961Y-44121500D01*
X-16835963Y-44121500D01*
X-16974049Y-44162045D01*
X-16974051Y-44162046D01*
X-16974053Y-44162047D01*
X-17025106Y-44194857D01*
X-17095128Y-44239857D01*
X-17189376Y-44348625D01*
X-17189377Y-44348627D01*
X-17249165Y-44479543D01*
X-17269647Y-44622000D01*
X-17534823Y-44622000D01*
X-17528353Y-44577000D01*
X-17548834Y-44434544D01*
X-17608623Y-44303627D01*
X-17608623Y-44303625D01*
X-17702871Y-44194857D01*
X-17823950Y-44117045D01*
X-17962037Y-44076500D01*
X-17962039Y-44076500D01*
X-18105961Y-44076500D01*
X-18105963Y-44076500D01*
X-18244049Y-44117045D01*
X-18244051Y-44117046D01*
X-18244053Y-44117047D01*
X-18365128Y-44194857D01*
X-18459376Y-44303625D01*
X-18459377Y-44303627D01*
X-18519165Y-44434543D01*
X-18539647Y-44577000D01*
X-27050500Y-44577000D01*
X-27050500Y-33274000D01*
X-18539647Y-33274000D01*
X-18519165Y-33416457D01*
X-18459377Y-33547373D01*
X-18365128Y-33656143D01*
X-18244053Y-33733953D01*
X-18105962Y-33774499D01*
X-18105962Y-33774500D01*
X-18105961Y-33774500D01*
X-17962038Y-33774500D01*
X-17962036Y-33774499D01*
X-17823950Y-33733954D01*
X-17823949Y-33733953D01*
X-17823947Y-33733953D01*
X-17702872Y-33656143D01*
X-17647615Y-33592373D01*
X-17608623Y-33547374D01*
X-17608623Y-33547372D01*
X-17548834Y-33416455D01*
X-17534823Y-33319000D01*
X-17269647Y-33319000D01*
X-17249165Y-33461457D01*
X-17189377Y-33592373D01*
X-17095128Y-33701143D01*
X-16974053Y-33778953D01*
X-16835962Y-33819499D01*
X-16835962Y-33819500D01*
X-16835961Y-33819500D01*
X-16692038Y-33819500D01*
X-16692036Y-33819499D01*
X-16553950Y-33778954D01*
X-16553949Y-33778953D01*
X-16553947Y-33778953D01*
X-16432872Y-33701143D01*
X-16432871Y-33701142D01*
X-16338623Y-33592374D01*
X-16338623Y-33592372D01*
X-16318072Y-33547374D01*
X-16278835Y-33461457D01*
X-16278834Y-33461455D01*
X-16258353Y-33319000D01*
X-16264823Y-33274000D01*
X-6474647Y-33274000D01*
X-6454165Y-33416457D01*
X-6394377Y-33547373D01*
X-6300128Y-33656143D01*
X-6179053Y-33733953D01*
X-6040962Y-33774499D01*
X-6040962Y-33774500D01*
X-6040961Y-33774500D01*
X-5897038Y-33774500D01*
X-5897036Y-33774499D01*
X-5758950Y-33733954D01*
X-5758949Y-33733953D01*
X-5758947Y-33733953D01*
X-5637872Y-33656143D01*
X-5582615Y-33592373D01*
X-5543623Y-33547374D01*
X-5543623Y-33547372D01*
X-5483834Y-33416455D01*
X-5469823Y-33319000D01*
X-5204647Y-33319000D01*
X-5184165Y-33461457D01*
X-5124377Y-33592373D01*
X-5030128Y-33701143D01*
X-4909053Y-33778953D01*
X-4770962Y-33819499D01*
X-4770962Y-33819500D01*
X-4770961Y-33819500D01*
X-4627038Y-33819500D01*
X-4627036Y-33819499D01*
X-4488950Y-33778954D01*
X-4488949Y-33778953D01*
X-4488947Y-33778953D01*
X-4367872Y-33701143D01*
X-4367871Y-33701142D01*
X-4273623Y-33592374D01*
X-4273623Y-33592372D01*
X-4253072Y-33547374D01*
X-4213835Y-33461457D01*
X-4213834Y-33461455D01*
X-4193353Y-33319000D01*
X-4199823Y-33274000D01*
X5590353Y-33274000D01*
X5610834Y-33416455D01*
X5670623Y-33547372D01*
X5670623Y-33547374D01*
X5709615Y-33592373D01*
X5764872Y-33656143D01*
X5885947Y-33733953D01*
X5885949Y-33733953D01*
X5885950Y-33733954D01*
X6024036Y-33774499D01*
X6024038Y-33774500D01*
X6024039Y-33774500D01*
X6167962Y-33774500D01*
X6167962Y-33774499D01*
X6306053Y-33733953D01*
X6427128Y-33656143D01*
X6521377Y-33547373D01*
X6581165Y-33416457D01*
X6595177Y-33319000D01*
X6860353Y-33319000D01*
X6880834Y-33461455D01*
X6880835Y-33461457D01*
X6920072Y-33547374D01*
X6940623Y-33592372D01*
X6940623Y-33592374D01*
X7034871Y-33701142D01*
X7034872Y-33701143D01*
X7155947Y-33778953D01*
X7155949Y-33778953D01*
X7155950Y-33778954D01*
X7294036Y-33819499D01*
X7294038Y-33819500D01*
X7294039Y-33819500D01*
X7437962Y-33819500D01*
X7437962Y-33819499D01*
X7576053Y-33778953D01*
X7697128Y-33701143D01*
X7791377Y-33592373D01*
X7851165Y-33461457D01*
X7871647Y-33319000D01*
X7851165Y-33176543D01*
X7791377Y-33045627D01*
X7791376Y-33045625D01*
X7697128Y-32936857D01*
X7627106Y-32891857D01*
X7576053Y-32859047D01*
X7576051Y-32859046D01*
X7576049Y-32859045D01*
X7437963Y-32818500D01*
X7437961Y-32818500D01*
X7294039Y-32818500D01*
X7294037Y-32818500D01*
X7155950Y-32859045D01*
X7034871Y-32936857D01*
X6940623Y-33045625D01*
X6940623Y-33045627D01*
X6880834Y-33176544D01*
X6860353Y-33319000D01*
X6595177Y-33319000D01*
X6601647Y-33274000D01*
X6581165Y-33131543D01*
X6521377Y-33000627D01*
X6521376Y-33000625D01*
X6427128Y-32891857D01*
X6306053Y-32814047D01*
X6306051Y-32814046D01*
X6306049Y-32814045D01*
X6167963Y-32773500D01*
X6167961Y-32773500D01*
X6024039Y-32773500D01*
X6024037Y-32773500D01*
X5885950Y-32814045D01*
X5764871Y-32891857D01*
X5670623Y-33000625D01*
X5670623Y-33000627D01*
X5610834Y-33131544D01*
X5590353Y-33274000D01*
X-4199823Y-33274000D01*
X-4213834Y-33176544D01*
X-4273623Y-33045627D01*
X-4273623Y-33045625D01*
X-4367871Y-32936857D01*
X-4488950Y-32859045D01*
X-4627037Y-32818500D01*
X-4627039Y-32818500D01*
X-4770961Y-32818500D01*
X-4770963Y-32818500D01*
X-4909049Y-32859045D01*
X-4909051Y-32859046D01*
X-4909053Y-32859047D01*
X-4960106Y-32891857D01*
X-5030128Y-32936857D01*
X-5124376Y-33045625D01*
X-5124377Y-33045627D01*
X-5184165Y-33176543D01*
X-5204647Y-33319000D01*
X-5469823Y-33319000D01*
X-5463353Y-33274000D01*
X-5483834Y-33131544D01*
X-5543623Y-33000627D01*
X-5543623Y-33000625D01*
X-5637871Y-32891857D01*
X-5758950Y-32814045D01*
X-5897037Y-32773500D01*
X-5897039Y-32773500D01*
X-6040961Y-32773500D01*
X-6040963Y-32773500D01*
X-6179049Y-32814045D01*
X-6179051Y-32814046D01*
X-6179053Y-32814047D01*
X-6300128Y-32891857D01*
X-6394376Y-33000625D01*
X-6394377Y-33000627D01*
X-6454165Y-33131543D01*
X-6474647Y-33274000D01*
X-16264823Y-33274000D01*
X-16278834Y-33176544D01*
X-16338623Y-33045627D01*
X-16338623Y-33045625D01*
X-16432871Y-32936857D01*
X-16553950Y-32859045D01*
X-16692037Y-32818500D01*
X-16692039Y-32818500D01*
X-16835961Y-32818500D01*
X-16835963Y-32818500D01*
X-16974049Y-32859045D01*
X-16974051Y-32859046D01*
X-16974053Y-32859047D01*
X-17025106Y-32891857D01*
X-17095128Y-32936857D01*
X-17189376Y-33045625D01*
X-17189377Y-33045627D01*
X-17249165Y-33176543D01*
X-17269647Y-33319000D01*
X-17534823Y-33319000D01*
X-17528353Y-33274000D01*
X-17548834Y-33131544D01*
X-17608623Y-33000627D01*
X-17608623Y-33000625D01*
X-17702871Y-32891857D01*
X-17823950Y-32814045D01*
X-17962037Y-32773500D01*
X-17962039Y-32773500D01*
X-18105961Y-32773500D01*
X-18105963Y-32773500D01*
X-18244049Y-32814045D01*
X-18244051Y-32814046D01*
X-18244053Y-32814047D01*
X-18365128Y-32891857D01*
X-18459376Y-33000625D01*
X-18459377Y-33000627D01*
X-18519165Y-33131543D01*
X-18539647Y-33274000D01*
X-27050500Y-33274000D01*
X-27050500Y-26939748D01*
X-17630500Y-26939748D01*
X-17618867Y-26998231D01*
X-17574552Y-27064552D01*
X-17508231Y-27108867D01*
X-17449748Y-27120500D01*
X-15710252Y-27120500D01*
X-15651769Y-27108867D01*
X-15651767Y-27108866D01*
X-15585447Y-27064552D01*
X-15541133Y-26998232D01*
X-15541132Y-26998230D01*
X-15529500Y-26939748D01*
X-15529500Y-26581748D01*
X11626500Y-26581748D01*
X11638132Y-26640230D01*
X11638133Y-26640232D01*
X11682447Y-26706552D01*
X11748767Y-26750866D01*
X11748769Y-26750867D01*
X11807252Y-26762500D01*
X13846748Y-26762500D01*
X13905231Y-26750867D01*
X13971552Y-26706552D01*
X14015867Y-26640231D01*
X14027500Y-26581748D01*
X14027500Y-24542252D01*
X14015867Y-24483769D01*
X14015866Y-24483767D01*
X13971552Y-24417447D01*
X13905232Y-24373133D01*
X13905230Y-24373132D01*
X13846748Y-24361500D01*
X11807252Y-24361500D01*
X11748769Y-24373132D01*
X11748767Y-24373133D01*
X11682447Y-24417447D01*
X11638133Y-24483767D01*
X11638132Y-24483769D01*
X11626500Y-24542251D01*
X11626500Y-26581748D01*
X-15529500Y-26581748D01*
X-15529500Y-25200251D01*
X-15541132Y-25141769D01*
X-15541133Y-25141767D01*
X-15585447Y-25075447D01*
X-15651767Y-25031133D01*
X-15651769Y-25031132D01*
X-15710252Y-25019500D01*
X-17449748Y-25019500D01*
X-17508230Y-25031132D01*
X-17508232Y-25031133D01*
X-17574552Y-25075447D01*
X-17618866Y-25141767D01*
X-17618867Y-25141769D01*
X-17630500Y-25200252D01*
X-17630500Y-26939748D01*
X-27050500Y-26939748D01*
X-27050500Y-22744748D01*
X-9082500Y-22744748D01*
X-9070867Y-22803231D01*
X-9026552Y-22869552D01*
X-8960231Y-22913867D01*
X-8901748Y-22925500D01*
X-7862252Y-22925500D01*
X-7803769Y-22913867D01*
X-7803767Y-22913866D01*
X-7737447Y-22869552D01*
X-7693133Y-22803232D01*
X-7693132Y-22803230D01*
X-7681500Y-22744748D01*
X-7681500Y-21717000D01*
X4320353Y-21717000D01*
X4340834Y-21859455D01*
X4340835Y-21859457D01*
X4389141Y-21965232D01*
X4400623Y-21990372D01*
X4400623Y-21990374D01*
X4430886Y-22025299D01*
X4494872Y-22099143D01*
X4615947Y-22176953D01*
X4615949Y-22176953D01*
X4615950Y-22176954D01*
X4754036Y-22217499D01*
X4754038Y-22217500D01*
X4754039Y-22217500D01*
X4897962Y-22217500D01*
X4897962Y-22217499D01*
X5036053Y-22176953D01*
X5157128Y-22099143D01*
X5251377Y-21990373D01*
X5311165Y-21859457D01*
X5331647Y-21717000D01*
X5311165Y-21574543D01*
X5251377Y-21443627D01*
X5251376Y-21443625D01*
X5157128Y-21334857D01*
X5036053Y-21257047D01*
X5036051Y-21257046D01*
X5036049Y-21257045D01*
X4897963Y-21216500D01*
X4897961Y-21216500D01*
X4754039Y-21216500D01*
X4754037Y-21216500D01*
X4615950Y-21257045D01*
X4494871Y-21334857D01*
X4400623Y-21443625D01*
X4400623Y-21443627D01*
X4340834Y-21574544D01*
X4320353Y-21717000D01*
X-7681500Y-21717000D01*
X-7681500Y-21705251D01*
X-7693132Y-21646769D01*
X-7693133Y-21646767D01*
X-7737447Y-21580447D01*
X-7803767Y-21536133D01*
X-7803769Y-21536132D01*
X-7862252Y-21524500D01*
X-8901748Y-21524500D01*
X-8960230Y-21536132D01*
X-8960232Y-21536133D01*
X-9026552Y-21580447D01*
X-9070866Y-21646767D01*
X-9070867Y-21646769D01*
X-9082500Y-21705252D01*
X-9082500Y-22744748D01*
X-27050500Y-22744748D01*
X-27050500Y-20990000D01*
X-17635583Y-20990000D01*
X-17615300Y-21195934D01*
X-17555232Y-21393954D01*
X-17457685Y-21576450D01*
X-17326410Y-21736410D01*
X-17166450Y-21867685D01*
X-16983954Y-21965232D01*
X-16785934Y-22025300D01*
X-16580000Y-22045583D01*
X-16374066Y-22025300D01*
X-16176046Y-21965232D01*
X-16068912Y-21907967D01*
X-15993555Y-21867688D01*
X-15993553Y-21867686D01*
X-15993550Y-21867685D01*
X-15833590Y-21736410D01*
X-15817660Y-21717000D01*
X-15702319Y-21576455D01*
X-15702311Y-21576444D01*
X-15604768Y-21393954D01*
X-15604766Y-21393949D01*
X-15544700Y-21195935D01*
X-15544699Y-21195930D01*
X-15524417Y-20990000D01*
X-15524417Y-20989999D01*
X-15544699Y-20784069D01*
X-15544700Y-20784064D01*
X-15604766Y-20586050D01*
X-15604768Y-20586045D01*
X-15702311Y-20403555D01*
X-15702319Y-20403544D01*
X-15833588Y-20243591D01*
X-15833591Y-20243588D01*
X-15993544Y-20112319D01*
X-15993555Y-20112311D01*
X-16176045Y-20014768D01*
X-16176050Y-20014766D01*
X-16374064Y-19954700D01*
X-16374069Y-19954699D01*
X-16580000Y-19934417D01*
X-16785930Y-19954699D01*
X-16785935Y-19954700D01*
X-16983949Y-20014766D01*
X-16983954Y-20014768D01*
X-17166444Y-20112311D01*
X-17166448Y-20112313D01*
X-17166450Y-20112315D01*
X-17166453Y-20112318D01*
X-17166455Y-20112319D01*
X-17255625Y-20185499D01*
X-17326410Y-20243590D01*
X-17457685Y-20403550D01*
X-17555232Y-20586046D01*
X-17615300Y-20784066D01*
X-17635583Y-20990000D01*
X-27050500Y-20990000D01*
X-27050500Y-19685000D01*
X-7363647Y-19685000D01*
X-7343165Y-19827457D01*
X-7283377Y-19958373D01*
X-7189128Y-20067143D01*
X-7068053Y-20144953D01*
X-6929962Y-20185499D01*
X-6929962Y-20185500D01*
X-6929961Y-20185500D01*
X-6786038Y-20185500D01*
X-6786036Y-20185499D01*
X-6647950Y-20144954D01*
X-6647949Y-20144953D01*
X-6647947Y-20144953D01*
X-6526872Y-20067143D01*
X-6526871Y-20067142D01*
X-6525881Y-20066000D01*
X5971353Y-20066000D01*
X5991834Y-20208455D01*
X6051623Y-20339372D01*
X6051623Y-20339374D01*
X6145871Y-20448142D01*
X6145872Y-20448143D01*
X6266947Y-20525953D01*
X6266949Y-20525953D01*
X6266950Y-20525954D01*
X6405036Y-20566499D01*
X6405038Y-20566500D01*
X6405039Y-20566500D01*
X6548962Y-20566500D01*
X6548962Y-20566499D01*
X6687053Y-20525953D01*
X6808128Y-20448143D01*
X6902377Y-20339373D01*
X6962165Y-20208457D01*
X6982647Y-20066000D01*
X6962165Y-19923543D01*
X6902377Y-19792627D01*
X6902376Y-19792625D01*
X6808128Y-19683857D01*
X6687053Y-19606047D01*
X6687051Y-19606046D01*
X6687049Y-19606045D01*
X6548963Y-19565500D01*
X6548961Y-19565500D01*
X6405039Y-19565500D01*
X6405037Y-19565500D01*
X6266950Y-19606045D01*
X6145871Y-19683857D01*
X6051623Y-19792625D01*
X6051623Y-19792627D01*
X5991834Y-19923544D01*
X5971353Y-20066000D01*
X-6525881Y-20066000D01*
X-6432623Y-19958374D01*
X-6432623Y-19958372D01*
X-6430945Y-19954699D01*
X-6372835Y-19827457D01*
X-6372834Y-19827455D01*
X-6352353Y-19685000D01*
X-6372834Y-19542544D01*
X-6432623Y-19411627D01*
X-6432623Y-19411625D01*
X-6526871Y-19302857D01*
X-6647950Y-19225045D01*
X-6786037Y-19184500D01*
X-6786039Y-19184500D01*
X-6929961Y-19184500D01*
X-6929963Y-19184500D01*
X-7068049Y-19225045D01*
X-7068051Y-19225046D01*
X-7068053Y-19225047D01*
X-7189128Y-19302857D01*
X-7283376Y-19411625D01*
X-7283377Y-19411627D01*
X-7343165Y-19542543D01*
X-7363647Y-19685000D01*
X-27050500Y-19685000D01*
X-27050500Y-18450000D01*
X-17635583Y-18450000D01*
X-17615300Y-18655934D01*
X-17555232Y-18853954D01*
X-17457685Y-19036450D01*
X-17326410Y-19196410D01*
X-17166450Y-19327685D01*
X-16983954Y-19425232D01*
X-16785934Y-19485300D01*
X-16580000Y-19505583D01*
X-16374066Y-19485300D01*
X-16176046Y-19425232D01*
X-16068912Y-19367967D01*
X-15993555Y-19327688D01*
X-15993553Y-19327686D01*
X-15993550Y-19327685D01*
X-15833590Y-19196410D01*
X-15823815Y-19184500D01*
X-15702319Y-19036455D01*
X-15702311Y-19036444D01*
X-15604768Y-18853954D01*
X-15604766Y-18853949D01*
X-15544700Y-18655935D01*
X-15544699Y-18655930D01*
X-15524417Y-18450000D01*
X-15524417Y-18449999D01*
X-15544699Y-18244069D01*
X-15544700Y-18244064D01*
X-15604766Y-18046050D01*
X-15604768Y-18046045D01*
X-15649689Y-17962004D01*
X11621357Y-17962004D01*
X11641883Y-18183528D01*
X11641885Y-18183540D01*
X11702771Y-18397528D01*
X11801942Y-18596689D01*
X11801943Y-18596690D01*
X11801945Y-18596694D01*
X11936010Y-18774226D01*
X11936015Y-18774231D01*
X11936019Y-18774236D01*
X12047539Y-18875900D01*
X12100433Y-18924120D01*
X12100434Y-18924121D01*
X12100438Y-18924124D01*
X12289599Y-19041247D01*
X12497060Y-19121618D01*
X12715757Y-19162500D01*
X12715760Y-19162500D01*
X12938240Y-19162500D01*
X12938243Y-19162500D01*
X13156940Y-19121618D01*
X13364401Y-19041247D01*
X13553562Y-18924124D01*
X13717981Y-18774236D01*
X13852058Y-18596689D01*
X13951229Y-18397528D01*
X14012115Y-18183536D01*
X14024855Y-18046046D01*
X14032643Y-17962004D01*
X14032643Y-17961995D01*
X14012116Y-17740471D01*
X14012114Y-17740459D01*
X13989504Y-17660996D01*
X13951229Y-17526472D01*
X13852058Y-17327311D01*
X13852055Y-17327307D01*
X13852054Y-17327305D01*
X13717989Y-17149773D01*
X13717984Y-17149768D01*
X13717981Y-17149764D01*
X13614834Y-17055733D01*
X13553566Y-16999879D01*
X13553563Y-16999877D01*
X13553562Y-16999876D01*
X13364401Y-16882753D01*
X13364399Y-16882752D01*
X13304100Y-16859392D01*
X13156940Y-16802382D01*
X13156937Y-16802381D01*
X13156936Y-16802381D01*
X12938247Y-16761500D01*
X12938243Y-16761500D01*
X12715757Y-16761500D01*
X12715752Y-16761500D01*
X12497063Y-16802381D01*
X12289600Y-16882752D01*
X12100433Y-16999879D01*
X11936017Y-17149766D01*
X11936010Y-17149773D01*
X11801945Y-17327305D01*
X11801942Y-17327311D01*
X11702771Y-17526471D01*
X11641885Y-17740459D01*
X11641883Y-17740471D01*
X11621357Y-17961995D01*
X11621357Y-17962004D01*
X-15649689Y-17962004D01*
X-15702311Y-17863555D01*
X-15702319Y-17863544D01*
X-15833588Y-17703591D01*
X-15833591Y-17703588D01*
X-15880918Y-17664748D01*
X-9082500Y-17664748D01*
X-9070867Y-17723231D01*
X-9026552Y-17789552D01*
X-8960231Y-17833867D01*
X-8901748Y-17845500D01*
X-7862252Y-17845500D01*
X-7803769Y-17833867D01*
X-7803767Y-17833866D01*
X-7737447Y-17789552D01*
X-7693133Y-17723232D01*
X-7693132Y-17723230D01*
X-7681500Y-17664748D01*
X-7681500Y-16625251D01*
X-7693132Y-16566769D01*
X-7693133Y-16566767D01*
X-7737447Y-16500447D01*
X-7803767Y-16456133D01*
X-7803769Y-16456132D01*
X-7862252Y-16444500D01*
X-8901748Y-16444500D01*
X-8960230Y-16456132D01*
X-8960232Y-16456133D01*
X-9026552Y-16500447D01*
X-9070866Y-16566767D01*
X-9070867Y-16566769D01*
X-9082500Y-16625252D01*
X-9082500Y-17664748D01*
X-15880918Y-17664748D01*
X-15993544Y-17572319D01*
X-15993555Y-17572311D01*
X-16176045Y-17474768D01*
X-16176050Y-17474766D01*
X-16374064Y-17414700D01*
X-16374069Y-17414699D01*
X-16580000Y-17394417D01*
X-16785930Y-17414699D01*
X-16785935Y-17414700D01*
X-16983949Y-17474766D01*
X-16983954Y-17474768D01*
X-17166444Y-17572311D01*
X-17166448Y-17572313D01*
X-17166450Y-17572315D01*
X-17166453Y-17572318D01*
X-17166455Y-17572319D01*
X-17326408Y-17703588D01*
X-17326411Y-17703591D01*
X-17356672Y-17740464D01*
X-17457685Y-17863550D01*
X-17555232Y-18046046D01*
X-17615300Y-18244066D01*
X-17635583Y-18450000D01*
X-27050500Y-18450000D01*
X-27050500Y-67765D01*
X-1854212Y-67765D01*
X-1824586Y-337018D01*
X-1756072Y-599088D01*
X-1650130Y-848390D01*
X-1509018Y-1079610D01*
X-1335745Y-1287820D01*
X-1335735Y-1287828D01*
X-1335732Y-1287832D01*
X-1230759Y-1381888D01*
X-1134002Y-1468582D01*
X-908090Y-1618044D01*
X-662824Y-1733020D01*
X-403431Y-1811060D01*
X-135439Y-1850500D01*
X-135438Y-1850500D01*
X67628Y-1850500D01*
X67631Y-1850500D01*
X67634Y-1850499D01*
X67652Y-1850499D01*
X270147Y-1835678D01*
X270149Y-1835677D01*
X270156Y-1835677D01*
X534553Y-1776780D01*
X787558Y-1680014D01*
X1023777Y-1547441D01*
X1238177Y-1381888D01*
X1426186Y-1186881D01*
X1583799Y-966579D01*
X1707656Y-725675D01*
X1795118Y-469305D01*
X1844319Y-202933D01*
X1854212Y67765D01*
X1824586Y337018D01*
X1756072Y599088D01*
X1650130Y848390D01*
X1509018Y1079610D01*
X1335745Y1287820D01*
X1335400Y1288129D01*
X1134011Y1468574D01*
X1134010Y1468574D01*
X1134002Y1468582D01*
X908090Y1618044D01*
X662824Y1733020D01*
X403431Y1811060D01*
X135439Y1850500D01*
X-67631Y1850500D01*
X-67634Y1850499D01*
X-67652Y1850499D01*
X-270147Y1835678D01*
X-270149Y1835677D01*
X-270156Y1835677D01*
X-534553Y1776780D01*
X-787558Y1680014D01*
X-1023777Y1547441D01*
X-1238177Y1381888D01*
X-1426186Y1186881D01*
X-1426190Y1186875D01*
X-1575767Y977805D01*
X-1583799Y966579D01*
X-1707656Y725675D01*
X-1795118Y469305D01*
X-1844319Y202933D01*
X-1854212Y-67765D01*
X-27050500Y-67765D01*
X-27050500Y-1629D01*
X-27050414Y1642D01*
X-27033281Y328547D01*
X-27032598Y335053D01*
X-26981641Y656788D01*
X-26980280Y663187D01*
X-26895978Y977805D01*
X-26893957Y984027D01*
X-26777222Y1288130D01*
X-26774561Y1294106D01*
X-26626686Y1584329D01*
X-26623415Y1589995D01*
X-26446011Y1863174D01*
X-26442166Y1868467D01*
X-26237170Y2121615D01*
X-26232792Y2126476D01*
X-26002476Y2356792D01*
X-25997615Y2361170D01*
X-25744467Y2566166D01*
X-25739174Y2570011D01*
X-25465995Y2747415D01*
X-25460329Y2750686D01*
X-25170106Y2898561D01*
X-25164130Y2901222D01*
X-24860027Y3017957D01*
X-24853805Y3019978D01*
X-24539187Y3104280D01*
X-24532788Y3105641D01*
X-24211053Y3156598D01*
X-24204547Y3157281D01*
X-23877641Y3174414D01*
X-23874370Y3174500D01*
X-23867715Y3174500D01*
X16222715Y3174500D01*
X16229370Y3174500D01*
X16232641Y3174414D01*
G37*
%TD.AperFunction*%
%TD*%
%TA.AperFunction,Conductor*%
%TO.N,/Communication/5V_Comm*%
G36*
X3860957Y-65831535D02*
G01*
X3978145Y-65846963D01*
X3993905Y-65851186D01*
X4099288Y-65894837D01*
X4113418Y-65902994D01*
X4207202Y-65974957D01*
X4213348Y-65980348D01*
X11684000Y-73451000D01*
X16906716Y-73451000D01*
X16950910Y-73469306D01*
X16969216Y-73513500D01*
X16950910Y-73557694D01*
X16925138Y-73573223D01*
X16778004Y-73618608D01*
X16778000Y-73618609D01*
X16548365Y-73729195D01*
X16337791Y-73872761D01*
X16150948Y-74046125D01*
X16150943Y-74046130D01*
X15992047Y-74245378D01*
X15864608Y-74466109D01*
X15771489Y-74703369D01*
X15714778Y-74951841D01*
X15714778Y-74951843D01*
X15695732Y-75205996D01*
X15695732Y-75206003D01*
X15714778Y-75460156D01*
X15714778Y-75460158D01*
X15771489Y-75708630D01*
X15864608Y-75945890D01*
X15879569Y-75971803D01*
X15885812Y-76019229D01*
X15856692Y-76057180D01*
X15809266Y-76063423D01*
X15777402Y-76043033D01*
X15757592Y-76019229D01*
X15704791Y-75955782D01*
X15704785Y-75955777D01*
X15704778Y-75955769D01*
X15500321Y-75772575D01*
X15271357Y-75621095D01*
X15079266Y-75531047D01*
X15022779Y-75504567D01*
X15022776Y-75504566D01*
X15022777Y-75504566D01*
X14759890Y-75425475D01*
X14759876Y-75425472D01*
X14488275Y-75385500D01*
X14488269Y-75385500D01*
X14282453Y-75385500D01*
X14282431Y-75385500D01*
X14077203Y-75400521D01*
X13809225Y-75460216D01*
X13809223Y-75460216D01*
X13552800Y-75558289D01*
X13313390Y-75692653D01*
X13096093Y-75860445D01*
X12905542Y-76058088D01*
X12905541Y-76058089D01*
X12745807Y-76281358D01*
X12745804Y-76281362D01*
X12620269Y-76525528D01*
X12531634Y-76785340D01*
X12531628Y-76785360D01*
X12481765Y-77055317D01*
X12481763Y-77055338D01*
X12471737Y-77329676D01*
X12500849Y-77594253D01*
X12501764Y-77602571D01*
X12571204Y-77868182D01*
X12678577Y-78120852D01*
X12799705Y-78319329D01*
X12821596Y-78355198D01*
X12922091Y-78475954D01*
X12997209Y-78566218D01*
X12997213Y-78566222D01*
X12997221Y-78566230D01*
X13201678Y-78749424D01*
X13279161Y-78800685D01*
X13430641Y-78900904D01*
X13679221Y-79017433D01*
X13942119Y-79096527D01*
X14213731Y-79136500D01*
X14213732Y-79136500D01*
X14419544Y-79136500D01*
X14419547Y-79136500D01*
X14419550Y-79136499D01*
X14419568Y-79136499D01*
X14624796Y-79121478D01*
X14624798Y-79121477D01*
X14624805Y-79121477D01*
X14892775Y-79061784D01*
X15149198Y-78963711D01*
X15388609Y-78829347D01*
X15605904Y-78661557D01*
X15796454Y-78463916D01*
X15956196Y-78240637D01*
X16081727Y-77996479D01*
X16170370Y-77736646D01*
X16220236Y-77466674D01*
X16230262Y-77192320D01*
X16200236Y-76919429D01*
X16130796Y-76653818D01*
X16024905Y-76404637D01*
X16024469Y-76356806D01*
X16057984Y-76322673D01*
X16105817Y-76322236D01*
X16131291Y-76341225D01*
X16143716Y-76356806D01*
X16150947Y-76365874D01*
X16150950Y-76365877D01*
X16337783Y-76539232D01*
X16337788Y-76539235D01*
X16337791Y-76539238D01*
X16470802Y-76629922D01*
X16548366Y-76682805D01*
X16777996Y-76793389D01*
X16899769Y-76830951D01*
X17021534Y-76868511D01*
X17021537Y-76868511D01*
X17021542Y-76868513D01*
X17273565Y-76906500D01*
X17273571Y-76906500D01*
X17528429Y-76906500D01*
X17528435Y-76906500D01*
X17780458Y-76868513D01*
X17780463Y-76868511D01*
X17780466Y-76868511D01*
X17872033Y-76840265D01*
X18024004Y-76793389D01*
X18253634Y-76682805D01*
X18464217Y-76539232D01*
X18651050Y-76365877D01*
X18809959Y-76166612D01*
X18937393Y-75945888D01*
X19030508Y-75708637D01*
X19034157Y-75692653D01*
X19064824Y-75558289D01*
X19087222Y-75460157D01*
X19106268Y-75206000D01*
X19087222Y-74951843D01*
X19060967Y-74836813D01*
X19030510Y-74703369D01*
X19030508Y-74703363D01*
X18937393Y-74466112D01*
X18809959Y-74245388D01*
X18809954Y-74245382D01*
X18809952Y-74245378D01*
X18651056Y-74046130D01*
X18651053Y-74046127D01*
X18651050Y-74046123D01*
X18464217Y-73872768D01*
X18464211Y-73872764D01*
X18464208Y-73872761D01*
X18253634Y-73729195D01*
X18181531Y-73694472D01*
X18024004Y-73618611D01*
X18024001Y-73618610D01*
X18023999Y-73618609D01*
X18023995Y-73618608D01*
X17876862Y-73573223D01*
X17840027Y-73542704D01*
X17835561Y-73495078D01*
X17866080Y-73458243D01*
X17895284Y-73451000D01*
X18926906Y-73451000D01*
X18935064Y-73451535D01*
X19052252Y-73466963D01*
X19068012Y-73471186D01*
X19173397Y-73514838D01*
X19187527Y-73522996D01*
X19278025Y-73592438D01*
X19289561Y-73603974D01*
X19359003Y-73694472D01*
X19367161Y-73708602D01*
X19400742Y-73789671D01*
X19405500Y-73813589D01*
X19405500Y-85534407D01*
X19400742Y-85558325D01*
X19367159Y-85639400D01*
X19359001Y-85653530D01*
X19289561Y-85744025D01*
X19278025Y-85755561D01*
X19187527Y-85825003D01*
X19173397Y-85833161D01*
X19068012Y-85876813D01*
X19052252Y-85881036D01*
X18935064Y-85896465D01*
X18926906Y-85897000D01*
X8347407Y-85897000D01*
X8303213Y-85878694D01*
X8284907Y-85834500D01*
X8303213Y-85790306D01*
X8329261Y-85774692D01*
X8366501Y-85763396D01*
X8531625Y-85675136D01*
X8676357Y-85556357D01*
X8795136Y-85411625D01*
X8883396Y-85246501D01*
X8937747Y-85067331D01*
X8956099Y-84881000D01*
X8937747Y-84694669D01*
X8883396Y-84515499D01*
X8860223Y-84472145D01*
X8795139Y-84350380D01*
X8795135Y-84350374D01*
X8676357Y-84205643D01*
X8531625Y-84086864D01*
X8531619Y-84086860D01*
X8366506Y-83998606D01*
X8366503Y-83998605D01*
X8366501Y-83998604D01*
X8267723Y-83968640D01*
X8187329Y-83944252D01*
X8001000Y-83925901D01*
X7814670Y-83944252D01*
X7699188Y-83979284D01*
X7635499Y-83998604D01*
X7635498Y-83998604D01*
X7635493Y-83998606D01*
X7470380Y-84086860D01*
X7470374Y-84086864D01*
X7325643Y-84205643D01*
X7206864Y-84350374D01*
X7206860Y-84350380D01*
X7118606Y-84515493D01*
X7064252Y-84694670D01*
X7045901Y-84880999D01*
X7045901Y-84881000D01*
X7064252Y-85067329D01*
X7111099Y-85221759D01*
X7106410Y-85269364D01*
X7069433Y-85299711D01*
X7021828Y-85295022D01*
X7007096Y-85284096D01*
X6496448Y-84773448D01*
X6496447Y-84773447D01*
X6350000Y-84627000D01*
X6142899Y-84627000D01*
X5807407Y-84627000D01*
X5763213Y-84608694D01*
X5744907Y-84564500D01*
X5763213Y-84520306D01*
X5789261Y-84504692D01*
X5826501Y-84493396D01*
X5991625Y-84405136D01*
X6136357Y-84286357D01*
X6255136Y-84141625D01*
X6343396Y-83976501D01*
X6397747Y-83797331D01*
X6416099Y-83611000D01*
X6397747Y-83424669D01*
X6343396Y-83245499D01*
X6341911Y-83242721D01*
X6255139Y-83080380D01*
X6255135Y-83080374D01*
X6253830Y-83078784D01*
X6136357Y-82935643D01*
X5991625Y-82816864D01*
X5991619Y-82816860D01*
X5826506Y-82728606D01*
X5826503Y-82728605D01*
X5826501Y-82728604D01*
X5727723Y-82698640D01*
X5647329Y-82674252D01*
X5461000Y-82655901D01*
X5274670Y-82674252D01*
X5155179Y-82710500D01*
X5095499Y-82728604D01*
X5095498Y-82728604D01*
X5095493Y-82728606D01*
X4930380Y-82816860D01*
X4930374Y-82816864D01*
X4785643Y-82935643D01*
X4666864Y-83080374D01*
X4666860Y-83080380D01*
X4578606Y-83245493D01*
X4524252Y-83424670D01*
X4505901Y-83610999D01*
X4505901Y-83611000D01*
X4524252Y-83797329D01*
X4548640Y-83877723D01*
X4568821Y-83944252D01*
X4578606Y-83976506D01*
X4666860Y-84141619D01*
X4666864Y-84141625D01*
X4785643Y-84286357D01*
X4930375Y-84405136D01*
X4930377Y-84405137D01*
X4930380Y-84405139D01*
X5095493Y-84493393D01*
X5095499Y-84493396D01*
X5132737Y-84504692D01*
X5169713Y-84535038D01*
X5174402Y-84582643D01*
X5144055Y-84619620D01*
X5114593Y-84627000D01*
X-12427092Y-84627000D01*
X-12471286Y-84608694D01*
X-12489592Y-84564500D01*
X-12471286Y-84520306D01*
X-12440086Y-84503366D01*
X-12356320Y-84485561D01*
X-12293197Y-84472144D01*
X-12293188Y-84472140D01*
X-12293185Y-84472139D01*
X-12120274Y-84395153D01*
X-12120265Y-84395148D01*
X-11967129Y-84283888D01*
X-11967128Y-84283887D01*
X-11896677Y-84205643D01*
X-11840467Y-84143216D01*
X-11745821Y-83979284D01*
X-11745820Y-83979282D01*
X-11745818Y-83979278D01*
X-11687326Y-83799258D01*
X-11667540Y-83611000D01*
X-11687326Y-83422741D01*
X-11745818Y-83242721D01*
X-11840466Y-83078785D01*
X-11967128Y-82938112D01*
X-11967129Y-82938111D01*
X-12120265Y-82826851D01*
X-12120274Y-82826846D01*
X-12293185Y-82749860D01*
X-12293202Y-82749854D01*
X-12478354Y-82710500D01*
X-12667646Y-82710500D01*
X-12852797Y-82749854D01*
X-12852814Y-82749860D01*
X-13025725Y-82826846D01*
X-13025734Y-82826851D01*
X-13175473Y-82935643D01*
X-13178871Y-82938112D01*
X-13305533Y-83078784D01*
X-13400179Y-83242716D01*
X-13400180Y-83242719D01*
X-13400181Y-83242721D01*
X-13454988Y-83411401D01*
X-13458674Y-83422744D01*
X-13478460Y-83611000D01*
X-13458674Y-83799256D01*
X-13400179Y-83979284D01*
X-13305533Y-84143216D01*
X-13178871Y-84283888D01*
X-13025730Y-84395151D01*
X-12852803Y-84472144D01*
X-12789680Y-84485561D01*
X-12705914Y-84503366D01*
X-12666491Y-84530460D01*
X-12657774Y-84577494D01*
X-12684868Y-84616917D01*
X-12718908Y-84627000D01*
X-18799906Y-84627000D01*
X-18808064Y-84626465D01*
X-18925252Y-84611036D01*
X-18941012Y-84606813D01*
X-19046397Y-84563161D01*
X-19060527Y-84555003D01*
X-19151025Y-84485561D01*
X-19162561Y-84474025D01*
X-19232003Y-84383527D01*
X-19240161Y-84369397D01*
X-19283813Y-84264012D01*
X-19288036Y-84248252D01*
X-19303465Y-84131063D01*
X-19304000Y-84122905D01*
X-19304000Y-82341000D01*
X7045901Y-82341000D01*
X7064252Y-82527329D01*
X7064253Y-82527331D01*
X7108821Y-82674252D01*
X7118606Y-82706506D01*
X7206860Y-82871619D01*
X7206864Y-82871625D01*
X7325643Y-83016357D01*
X7470375Y-83135136D01*
X7470377Y-83135137D01*
X7470380Y-83135139D01*
X7635493Y-83223393D01*
X7635499Y-83223396D01*
X7814669Y-83277747D01*
X8001000Y-83296099D01*
X8187331Y-83277747D01*
X8366501Y-83223396D01*
X8531625Y-83135136D01*
X8676357Y-83016357D01*
X8795136Y-82871625D01*
X8883396Y-82706501D01*
X8937747Y-82527331D01*
X8956099Y-82341000D01*
X8937747Y-82154669D01*
X8883396Y-81975499D01*
X8860223Y-81932145D01*
X8795139Y-81810380D01*
X8795135Y-81810374D01*
X8676357Y-81665643D01*
X8531625Y-81546864D01*
X8531619Y-81546860D01*
X8366506Y-81458606D01*
X8366503Y-81458605D01*
X8366501Y-81458604D01*
X8267723Y-81428640D01*
X8187329Y-81404252D01*
X8001000Y-81385901D01*
X7814670Y-81404252D01*
X7699188Y-81439284D01*
X7635499Y-81458604D01*
X7635498Y-81458604D01*
X7635493Y-81458606D01*
X7470380Y-81546860D01*
X7470374Y-81546864D01*
X7325643Y-81665643D01*
X7206864Y-81810374D01*
X7206860Y-81810380D01*
X7118606Y-81975493D01*
X7064252Y-82154670D01*
X7045901Y-82340999D01*
X7045901Y-82341000D01*
X-19304000Y-82341000D01*
X-19304000Y-81071000D01*
X-13478460Y-81071000D01*
X-13458674Y-81259256D01*
X-13400179Y-81439284D01*
X-13305533Y-81603216D01*
X-13178871Y-81743888D01*
X-13025730Y-81855151D01*
X-12852803Y-81932144D01*
X-12667646Y-81971500D01*
X-12478354Y-81971500D01*
X-12293202Y-81932145D01*
X-12293197Y-81932144D01*
X-12293188Y-81932140D01*
X-12293185Y-81932139D01*
X-12120274Y-81855153D01*
X-12120265Y-81855148D01*
X-11967129Y-81743888D01*
X-11967128Y-81743887D01*
X-11896677Y-81665643D01*
X-11840467Y-81603216D01*
X-11745821Y-81439284D01*
X-11745820Y-81439282D01*
X-11745818Y-81439278D01*
X-11687326Y-81259258D01*
X-11667540Y-81071000D01*
X4505901Y-81071000D01*
X4524252Y-81257329D01*
X4548640Y-81337723D01*
X4568821Y-81404252D01*
X4578606Y-81436506D01*
X4666860Y-81601619D01*
X4666864Y-81601625D01*
X4785643Y-81746357D01*
X4930375Y-81865136D01*
X4930377Y-81865137D01*
X4930380Y-81865139D01*
X5095493Y-81953393D01*
X5095499Y-81953396D01*
X5274669Y-82007747D01*
X5461000Y-82026099D01*
X5647331Y-82007747D01*
X5826501Y-81953396D01*
X5991625Y-81865136D01*
X6136357Y-81746357D01*
X6255136Y-81601625D01*
X6343396Y-81436501D01*
X6397747Y-81257331D01*
X6416099Y-81071000D01*
X6397747Y-80884669D01*
X6343396Y-80705499D01*
X6341911Y-80702721D01*
X6255139Y-80540380D01*
X6255135Y-80540374D01*
X6253830Y-80538784D01*
X6136357Y-80395643D01*
X5991625Y-80276864D01*
X5991619Y-80276860D01*
X5826506Y-80188606D01*
X5826503Y-80188605D01*
X5826501Y-80188604D01*
X5727723Y-80158640D01*
X5647329Y-80134252D01*
X5461000Y-80115901D01*
X5274670Y-80134252D01*
X5155179Y-80170500D01*
X5095499Y-80188604D01*
X5095498Y-80188604D01*
X5095493Y-80188606D01*
X4930380Y-80276860D01*
X4930374Y-80276864D01*
X4785643Y-80395643D01*
X4666864Y-80540374D01*
X4666860Y-80540380D01*
X4578606Y-80705493D01*
X4524252Y-80884670D01*
X4505901Y-81070999D01*
X4505901Y-81071000D01*
X-11667540Y-81071000D01*
X-11687326Y-80882741D01*
X-11745818Y-80702721D01*
X-11840466Y-80538785D01*
X-11967128Y-80398112D01*
X-11967129Y-80398111D01*
X-12120265Y-80286851D01*
X-12120274Y-80286846D01*
X-12293185Y-80209860D01*
X-12293202Y-80209854D01*
X-12478354Y-80170500D01*
X-12667646Y-80170500D01*
X-12852797Y-80209854D01*
X-12852814Y-80209860D01*
X-13025725Y-80286846D01*
X-13025734Y-80286851D01*
X-13164890Y-80387954D01*
X-13178871Y-80398112D01*
X-13305533Y-80538784D01*
X-13400179Y-80702716D01*
X-13400180Y-80702719D01*
X-13400181Y-80702721D01*
X-13454988Y-80871401D01*
X-13458674Y-80882744D01*
X-13478460Y-81071000D01*
X-19304000Y-81071000D01*
X-19304000Y-79928000D01*
X-5331647Y-79928000D01*
X-5311165Y-80070457D01*
X-5251377Y-80201373D01*
X-5157128Y-80310143D01*
X-5036053Y-80387953D01*
X-4897962Y-80428499D01*
X-4897962Y-80428500D01*
X-4897961Y-80428500D01*
X-4754038Y-80428500D01*
X-4754036Y-80428499D01*
X-4615950Y-80387954D01*
X-4615949Y-80387953D01*
X-4615947Y-80387953D01*
X-4494872Y-80310143D01*
X-4487382Y-80301499D01*
X-4400623Y-80201374D01*
X-4400623Y-80201372D01*
X-4394792Y-80188606D01*
X-4340835Y-80070457D01*
X-4340834Y-80070455D01*
X-4320353Y-79928000D01*
X-4338612Y-79801000D01*
X-4061647Y-79801000D01*
X-4041165Y-79943457D01*
X-3981377Y-80074373D01*
X-3887128Y-80183143D01*
X-3766053Y-80260953D01*
X-3627962Y-80301499D01*
X-3627962Y-80301500D01*
X-3627961Y-80301500D01*
X-3484038Y-80301500D01*
X-3484036Y-80301499D01*
X-3434131Y-80286846D01*
X-3414993Y-80281226D01*
X-3345950Y-80260954D01*
X-3345949Y-80260953D01*
X-3345947Y-80260953D01*
X-3224872Y-80183143D01*
X-3210456Y-80166506D01*
X-3130623Y-80074374D01*
X-3130623Y-80074372D01*
X-3070834Y-79943455D01*
X-3050353Y-79801000D01*
X7045901Y-79801000D01*
X7064252Y-79987329D01*
X7064253Y-79987331D01*
X7108821Y-80134252D01*
X7118606Y-80166506D01*
X7206860Y-80331619D01*
X7206864Y-80331625D01*
X7325643Y-80476357D01*
X7470375Y-80595136D01*
X7470377Y-80595137D01*
X7470380Y-80595139D01*
X7635493Y-80683393D01*
X7635499Y-80683396D01*
X7814669Y-80737747D01*
X8001000Y-80756099D01*
X8187331Y-80737747D01*
X8366501Y-80683396D01*
X8531625Y-80595136D01*
X8676357Y-80476357D01*
X8795136Y-80331625D01*
X8883396Y-80166501D01*
X8937747Y-79987331D01*
X8956099Y-79801000D01*
X8937747Y-79614669D01*
X8883396Y-79435499D01*
X8883393Y-79435493D01*
X8795139Y-79270380D01*
X8795135Y-79270374D01*
X8676357Y-79125643D01*
X8531625Y-79006864D01*
X8531619Y-79006860D01*
X8366506Y-78918606D01*
X8366503Y-78918605D01*
X8366501Y-78918604D01*
X8267723Y-78888640D01*
X8187329Y-78864252D01*
X8001000Y-78845901D01*
X7814670Y-78864252D01*
X7672267Y-78907450D01*
X7635499Y-78918604D01*
X7635498Y-78918604D01*
X7635493Y-78918606D01*
X7470380Y-79006860D01*
X7470374Y-79006864D01*
X7325643Y-79125643D01*
X7206864Y-79270374D01*
X7206860Y-79270380D01*
X7118606Y-79435493D01*
X7064252Y-79614670D01*
X7045901Y-79800999D01*
X7045901Y-79801000D01*
X-3050353Y-79801000D01*
X-3070834Y-79658544D01*
X-3130623Y-79527627D01*
X-3130623Y-79527625D01*
X-3224871Y-79418857D01*
X-3345950Y-79341045D01*
X-3484037Y-79300500D01*
X-3484039Y-79300500D01*
X-3627961Y-79300500D01*
X-3627963Y-79300500D01*
X-3766049Y-79341045D01*
X-3766051Y-79341046D01*
X-3766053Y-79341047D01*
X-3878626Y-79413393D01*
X-3887128Y-79418857D01*
X-3981376Y-79527625D01*
X-3981377Y-79527627D01*
X-4041165Y-79658543D01*
X-4061647Y-79801000D01*
X-4338612Y-79801000D01*
X-4340834Y-79785544D01*
X-4400623Y-79654627D01*
X-4400623Y-79654625D01*
X-4494871Y-79545857D01*
X-4615950Y-79468045D01*
X-4754037Y-79427500D01*
X-4754039Y-79427500D01*
X-4897961Y-79427500D01*
X-4897963Y-79427500D01*
X-5036049Y-79468045D01*
X-5036051Y-79468046D01*
X-5036053Y-79468047D01*
X-5157128Y-79545857D01*
X-5251376Y-79654625D01*
X-5251377Y-79654627D01*
X-5311165Y-79785543D01*
X-5331647Y-79928000D01*
X-19304000Y-79928000D01*
X-19304000Y-78150000D01*
X-14475647Y-78150000D01*
X-14455165Y-78292457D01*
X-14395377Y-78423373D01*
X-14301128Y-78532143D01*
X-14180053Y-78609953D01*
X-14041962Y-78650499D01*
X-14041962Y-78650500D01*
X-14041961Y-78650500D01*
X-13898038Y-78650500D01*
X-13898036Y-78650499D01*
X-13759950Y-78609954D01*
X-13759949Y-78609953D01*
X-13759947Y-78609953D01*
X-13638872Y-78532143D01*
X-13638871Y-78532142D01*
X-13637881Y-78531000D01*
X4505901Y-78531000D01*
X4524252Y-78717329D01*
X4524253Y-78717331D01*
X4568821Y-78864252D01*
X4578606Y-78896506D01*
X4666860Y-79061619D01*
X4666864Y-79061625D01*
X4785643Y-79206357D01*
X4930375Y-79325136D01*
X4930377Y-79325137D01*
X4930380Y-79325139D01*
X5095493Y-79413393D01*
X5095499Y-79413396D01*
X5274669Y-79467747D01*
X5461000Y-79486099D01*
X5647331Y-79467747D01*
X5826501Y-79413396D01*
X5991625Y-79325136D01*
X6136357Y-79206357D01*
X6255136Y-79061625D01*
X6343396Y-78896501D01*
X6397747Y-78717331D01*
X6416099Y-78531000D01*
X6397747Y-78344669D01*
X6343396Y-78165499D01*
X6343374Y-78165457D01*
X6255139Y-78000380D01*
X6255135Y-78000374D01*
X6136357Y-77855643D01*
X5991625Y-77736864D01*
X5991619Y-77736860D01*
X5826506Y-77648606D01*
X5826503Y-77648605D01*
X5826501Y-77648604D01*
X5674752Y-77602571D01*
X5647329Y-77594252D01*
X5461000Y-77575901D01*
X5274670Y-77594252D01*
X5132267Y-77637450D01*
X5095499Y-77648604D01*
X5095498Y-77648604D01*
X5095493Y-77648606D01*
X4930380Y-77736860D01*
X4930374Y-77736864D01*
X4785643Y-77855643D01*
X4666864Y-78000374D01*
X4666860Y-78000380D01*
X4578606Y-78165493D01*
X4524252Y-78344670D01*
X4505901Y-78530999D01*
X4505901Y-78531000D01*
X-13637881Y-78531000D01*
X-13544623Y-78423374D01*
X-13544623Y-78423372D01*
X-13484834Y-78292455D01*
X-13464353Y-78150000D01*
X-13482612Y-78023000D01*
X-6601647Y-78023000D01*
X-6581165Y-78165457D01*
X-6521377Y-78296373D01*
X-6427128Y-78405143D01*
X-6306053Y-78482953D01*
X-6167962Y-78523499D01*
X-6167962Y-78523500D01*
X-6167961Y-78523500D01*
X-6024038Y-78523500D01*
X-6024036Y-78523499D01*
X-5885950Y-78482954D01*
X-5885949Y-78482953D01*
X-5885947Y-78482953D01*
X-5764872Y-78405143D01*
X-5764871Y-78405142D01*
X-5670623Y-78296374D01*
X-5670623Y-78296372D01*
X-5658350Y-78269500D01*
X-5610835Y-78165457D01*
X-5610834Y-78165455D01*
X-5590353Y-78023000D01*
X-5610834Y-77880544D01*
X-5661775Y-77769000D01*
X-4061647Y-77769000D01*
X-4041165Y-77911457D01*
X-3981377Y-78042373D01*
X-3887128Y-78151143D01*
X-3766053Y-78228953D01*
X-3627962Y-78269499D01*
X-3627962Y-78269500D01*
X-3627961Y-78269500D01*
X-3484038Y-78269500D01*
X-3484036Y-78269499D01*
X-3345950Y-78228954D01*
X-3345949Y-78228953D01*
X-3345947Y-78228953D01*
X-3224872Y-78151143D01*
X-3224871Y-78151142D01*
X-3130623Y-78042374D01*
X-3130623Y-78042372D01*
X-3114716Y-78007543D01*
X-3070835Y-77911457D01*
X-3070834Y-77911455D01*
X-3050353Y-77769000D01*
X-3070834Y-77626544D01*
X-3130623Y-77495627D01*
X-3130623Y-77495625D01*
X-3224871Y-77386857D01*
X-3345950Y-77309045D01*
X-3484037Y-77268500D01*
X-3484039Y-77268500D01*
X-3627961Y-77268500D01*
X-3627963Y-77268500D01*
X-3766049Y-77309045D01*
X-3766051Y-77309046D01*
X-3766053Y-77309047D01*
X-3887128Y-77386857D01*
X-3981376Y-77495625D01*
X-3981377Y-77495627D01*
X-4041165Y-77626543D01*
X-4061647Y-77769000D01*
X-5661775Y-77769000D01*
X-5670623Y-77749627D01*
X-5670623Y-77749625D01*
X-5764871Y-77640857D01*
X-5885950Y-77563045D01*
X-6024037Y-77522500D01*
X-6024039Y-77522500D01*
X-6167961Y-77522500D01*
X-6167963Y-77522500D01*
X-6306049Y-77563045D01*
X-6306051Y-77563046D01*
X-6306053Y-77563047D01*
X-6404855Y-77626543D01*
X-6427128Y-77640857D01*
X-6521376Y-77749625D01*
X-6521377Y-77749627D01*
X-6581165Y-77880543D01*
X-6601647Y-78023000D01*
X-13482612Y-78023000D01*
X-13484834Y-78007544D01*
X-13544623Y-77876627D01*
X-13544623Y-77876625D01*
X-13638871Y-77767857D01*
X-13759950Y-77690045D01*
X-13898037Y-77649500D01*
X-13898039Y-77649500D01*
X-14041961Y-77649500D01*
X-14041963Y-77649500D01*
X-14180049Y-77690045D01*
X-14180051Y-77690046D01*
X-14180053Y-77690047D01*
X-14301128Y-77767857D01*
X-14395376Y-77876625D01*
X-14395377Y-77876627D01*
X-14455165Y-78007543D01*
X-14475647Y-78150000D01*
X-19304000Y-78150000D01*
X-19304000Y-75991000D01*
X-15745647Y-75991000D01*
X-15725165Y-76133457D01*
X-15665377Y-76264373D01*
X-15571128Y-76373143D01*
X-15450053Y-76450953D01*
X-15311962Y-76491499D01*
X-15311962Y-76491500D01*
X-15311961Y-76491500D01*
X-15168038Y-76491500D01*
X-15168036Y-76491499D01*
X-15029950Y-76450954D01*
X-15029949Y-76450953D01*
X-15029947Y-76450953D01*
X-14908872Y-76373143D01*
X-14894716Y-76356806D01*
X-14814623Y-76264374D01*
X-14814623Y-76264372D01*
X-14754834Y-76133455D01*
X-14734353Y-75991000D01*
X-14754834Y-75848544D01*
X-14814623Y-75717627D01*
X-14814623Y-75717625D01*
X-14908871Y-75608857D01*
X-15029950Y-75531045D01*
X-15168037Y-75490500D01*
X-15168039Y-75490500D01*
X-15311961Y-75490500D01*
X-15311963Y-75490500D01*
X-15450049Y-75531045D01*
X-15450051Y-75531046D01*
X-15450053Y-75531047D01*
X-15492442Y-75558289D01*
X-15571128Y-75608857D01*
X-15665376Y-75717625D01*
X-15665377Y-75717627D01*
X-15725165Y-75848543D01*
X-15745647Y-75991000D01*
X-19304000Y-75991000D01*
X-19304000Y-71684748D01*
X5522500Y-71684748D01*
X5534132Y-71743230D01*
X5534133Y-71743232D01*
X5578447Y-71809552D01*
X5644767Y-71853866D01*
X5644769Y-71853867D01*
X5703252Y-71865500D01*
X6742748Y-71865500D01*
X6801231Y-71853867D01*
X6867552Y-71809552D01*
X6911867Y-71743231D01*
X6923500Y-71684748D01*
X6923500Y-70645252D01*
X6911867Y-70586769D01*
X6873171Y-70528857D01*
X6867552Y-70520447D01*
X6801232Y-70476133D01*
X6801230Y-70476132D01*
X6742748Y-70464500D01*
X5703252Y-70464500D01*
X5644769Y-70476132D01*
X5644767Y-70476133D01*
X5578447Y-70520447D01*
X5534133Y-70586767D01*
X5534132Y-70586769D01*
X5522500Y-70645251D01*
X5522500Y-71684748D01*
X-19304000Y-71684748D01*
X-19304000Y-70911000D01*
X-7236647Y-70911000D01*
X-7216165Y-71053457D01*
X-7156377Y-71184373D01*
X-7062128Y-71293143D01*
X-6941053Y-71370953D01*
X-6802962Y-71411499D01*
X-6802962Y-71411500D01*
X-6802961Y-71411500D01*
X-6659038Y-71411500D01*
X-6659036Y-71411499D01*
X-6520950Y-71370954D01*
X-6520949Y-71370953D01*
X-6520947Y-71370953D01*
X-6399872Y-71293143D01*
X-6399871Y-71293142D01*
X-6305623Y-71184374D01*
X-6305623Y-71184372D01*
X-6245834Y-71053455D01*
X-6225353Y-70911000D01*
X-5839647Y-70911000D01*
X-5819165Y-71053457D01*
X-5759377Y-71184373D01*
X-5665128Y-71293143D01*
X-5544053Y-71370953D01*
X-5405962Y-71411499D01*
X-5405962Y-71411500D01*
X-5405961Y-71411500D01*
X-5262038Y-71411500D01*
X-5262036Y-71411499D01*
X-5123950Y-71370954D01*
X-5123949Y-71370953D01*
X-5123947Y-71370953D01*
X-5002872Y-71293143D01*
X-5002871Y-71293142D01*
X-4908623Y-71184374D01*
X-4908623Y-71184372D01*
X-4848834Y-71053455D01*
X-4828353Y-70911000D01*
X-4848834Y-70768544D01*
X-4908623Y-70637627D01*
X-4908623Y-70637625D01*
X-5002871Y-70528857D01*
X-5123950Y-70451045D01*
X-5262037Y-70410500D01*
X-5262039Y-70410500D01*
X-5405961Y-70410500D01*
X-5405963Y-70410500D01*
X-5544049Y-70451045D01*
X-5544051Y-70451046D01*
X-5544053Y-70451047D01*
X-5652042Y-70520447D01*
X-5665128Y-70528857D01*
X-5759376Y-70637625D01*
X-5759377Y-70637627D01*
X-5819165Y-70768543D01*
X-5839647Y-70911000D01*
X-6225353Y-70911000D01*
X-6245834Y-70768544D01*
X-6305623Y-70637627D01*
X-6305623Y-70637625D01*
X-6399871Y-70528857D01*
X-6520950Y-70451045D01*
X-6659037Y-70410500D01*
X-6659039Y-70410500D01*
X-6802961Y-70410500D01*
X-6802963Y-70410500D01*
X-6941049Y-70451045D01*
X-6941051Y-70451046D01*
X-6941053Y-70451047D01*
X-7049042Y-70520447D01*
X-7062128Y-70528857D01*
X-7156376Y-70637625D01*
X-7156377Y-70637627D01*
X-7216165Y-70768543D01*
X-7236647Y-70911000D01*
X-19304000Y-70911000D01*
X-19304000Y-66335094D01*
X-19303465Y-66326936D01*
X-19288036Y-66209747D01*
X-19283813Y-66193987D01*
X-19240161Y-66088602D01*
X-19232003Y-66074472D01*
X-19162561Y-65983974D01*
X-19151025Y-65972438D01*
X-19060527Y-65902996D01*
X-19046397Y-65894838D01*
X-18941012Y-65851186D01*
X-18925252Y-65846963D01*
X-18808064Y-65831535D01*
X-18799906Y-65831000D01*
X3852799Y-65831000D01*
X3860957Y-65831535D01*
G37*
%TD.AperFunction*%
%TD*%
M02*
