%TF.GenerationSoftware,KiCad,Pcbnew,7.0.10*%
%TF.CreationDate,2024-04-30T16:54:11+09:00*%
%TF.ProjectId,Panel_board,50616e65-6c5f-4626-9f61-72642e6b6963,rev?*%
%TF.SameCoordinates,Original*%
%TF.FileFunction,Legend,Bot*%
%TF.FilePolarity,Positive*%
%FSLAX46Y46*%
G04 Gerber Fmt 4.6, Leading zero omitted, Abs format (unit mm)*
G04 Created by KiCad (PCBNEW 7.0.10) date 2024-04-30 16:54:11*
%MOMM*%
%LPD*%
G01*
G04 APERTURE LIST*
G04 Aperture macros list*
%AMRoundRect*
0 Rectangle with rounded corners*
0 $1 Rounding radius*
0 $2 $3 $4 $5 $6 $7 $8 $9 X,Y pos of 4 corners*
0 Add a 4 corners polygon primitive as box body*
4,1,4,$2,$3,$4,$5,$6,$7,$8,$9,$2,$3,0*
0 Add four circle primitives for the rounded corners*
1,1,$1+$1,$2,$3*
1,1,$1+$1,$4,$5*
1,1,$1+$1,$6,$7*
1,1,$1+$1,$8,$9*
0 Add four rect primitives between the rounded corners*
20,1,$1+$1,$2,$3,$4,$5,0*
20,1,$1+$1,$4,$5,$6,$7,0*
20,1,$1+$1,$6,$7,$8,$9,0*
20,1,$1+$1,$8,$9,$2,$3,0*%
G04 Aperture macros list end*
%ADD10R,1.000000X1.000000*%
%ADD11RoundRect,0.250000X0.675000X-0.600000X0.675000X0.600000X-0.675000X0.600000X-0.675000X-0.600000X0*%
%ADD12O,1.850000X1.700000*%
%ADD13C,3.200000*%
%ADD14C,1.400000*%
%ADD15RoundRect,0.250000X1.550000X-0.650000X1.550000X0.650000X-1.550000X0.650000X-1.550000X-0.650000X0*%
%ADD16O,3.600000X1.800000*%
%ADD17C,3.250000*%
%ADD18R,1.500000X1.500000*%
%ADD19C,1.500000*%
%ADD20C,3.000000*%
%ADD21R,2.000000X2.000000*%
%ADD22C,2.000000*%
%ADD23R,1.700000X1.700000*%
%ADD24O,1.700000X1.700000*%
G04 APERTURE END LIST*
%LPC*%
D10*
%TO.C,TP8*%
X-8382000Y-22225000D03*
%TD*%
D11*
%TO.C,J2*%
X15765000Y-65726000D03*
D12*
X15765000Y-63226000D03*
X15765000Y-60726000D03*
X15765000Y-58226000D03*
%TD*%
D13*
%TO.C,H2*%
X0Y-124000000D03*
%TD*%
D14*
%TO.C,U1*%
X-15875000Y-94533000D03*
X-18415000Y-94533000D03*
X-20955000Y-94533000D03*
X-23495000Y-94533000D03*
%TD*%
D15*
%TO.C,J1*%
X14466500Y-103721000D03*
D16*
X14466500Y-100221000D03*
%TD*%
D17*
%TO.C,J11*%
X14351000Y-88691000D03*
X14351000Y-77261000D03*
D18*
X8001000Y-87421000D03*
D19*
X5461000Y-86151000D03*
X8001000Y-84881000D03*
X5461000Y-83611000D03*
X8001000Y-82341000D03*
X5461000Y-81071000D03*
X8001000Y-79801000D03*
X5461000Y-78531000D03*
D20*
X17401000Y-90746000D03*
X17401000Y-75206000D03*
%TD*%
D10*
%TO.C,TP6*%
X17399000Y-95295000D03*
%TD*%
%TO.C,TP1*%
X-22987000Y-74086000D03*
%TD*%
%TO.C,TP7*%
X-8382000Y-17145000D03*
%TD*%
%TO.C,TP4*%
X6223000Y-71165000D03*
%TD*%
D21*
%TO.C,BZ1*%
X12827000Y-25562000D03*
D22*
X12827000Y-17962000D03*
%TD*%
D23*
%TO.C,J3*%
X-16580000Y-26070000D03*
D24*
X-16580000Y-23530000D03*
X-16580000Y-20990000D03*
X-16580000Y-18450000D03*
%TD*%
D14*
%TO.C,U8*%
X-12573000Y-88691000D03*
X-12573000Y-86151000D03*
X-12573000Y-83611000D03*
X-12573000Y-81071000D03*
%TD*%
D10*
%TO.C,TP3*%
X1143000Y-71165000D03*
%TD*%
%TO.C,TP5*%
X12319000Y-95295000D03*
%TD*%
D13*
%TO.C,H1*%
X0Y0D03*
%TD*%
D10*
%TO.C,TP2*%
X-22987000Y-79166000D03*
%TD*%
%LPD*%
M02*
