%TF.GenerationSoftware,KiCad,Pcbnew,7.0.10*%
%TF.CreationDate,2024-04-30T16:31:27+09:00*%
%TF.ProjectId,ESP_Weight,4553505f-5765-4696-9768-742e6b696361,rev?*%
%TF.SameCoordinates,Original*%
%TF.FileFunction,Copper,L2,Inr*%
%TF.FilePolarity,Positive*%
%FSLAX46Y46*%
G04 Gerber Fmt 4.6, Leading zero omitted, Abs format (unit mm)*
G04 Created by KiCad (PCBNEW 7.0.10) date 2024-04-30 16:31:27*
%MOMM*%
%LPD*%
G01*
G04 APERTURE LIST*
G04 Aperture macros list*
%AMRoundRect*
0 Rectangle with rounded corners*
0 $1 Rounding radius*
0 $2 $3 $4 $5 $6 $7 $8 $9 X,Y pos of 4 corners*
0 Add a 4 corners polygon primitive as box body*
4,1,4,$2,$3,$4,$5,$6,$7,$8,$9,$2,$3,0*
0 Add four circle primitives for the rounded corners*
1,1,$1+$1,$2,$3*
1,1,$1+$1,$4,$5*
1,1,$1+$1,$6,$7*
1,1,$1+$1,$8,$9*
0 Add four rect primitives between the rounded corners*
20,1,$1+$1,$2,$3,$4,$5,0*
20,1,$1+$1,$4,$5,$6,$7,0*
20,1,$1+$1,$6,$7,$8,$9,0*
20,1,$1+$1,$8,$9,$2,$3,0*%
G04 Aperture macros list end*
%TA.AperFunction,ComponentPad*%
%ADD10C,1.800000*%
%TD*%
%TA.AperFunction,ComponentPad*%
%ADD11C,1.000000*%
%TD*%
%TA.AperFunction,ComponentPad*%
%ADD12R,1.000000X1.000000*%
%TD*%
%TA.AperFunction,ComponentPad*%
%ADD13C,1.400000*%
%TD*%
%TA.AperFunction,ComponentPad*%
%ADD14R,1.500000X1.500000*%
%TD*%
%TA.AperFunction,ComponentPad*%
%ADD15C,1.500000*%
%TD*%
%TA.AperFunction,ComponentPad*%
%ADD16C,3.000000*%
%TD*%
%TA.AperFunction,ComponentPad*%
%ADD17RoundRect,0.250000X-0.600000X-0.675000X0.600000X-0.675000X0.600000X0.675000X-0.600000X0.675000X0*%
%TD*%
%TA.AperFunction,ComponentPad*%
%ADD18O,1.700000X1.850000*%
%TD*%
%TA.AperFunction,ComponentPad*%
%ADD19O,2.300000X1.600000*%
%TD*%
%TA.AperFunction,ComponentPad*%
%ADD20C,0.630000*%
%TD*%
%TA.AperFunction,ComponentPad*%
%ADD21R,1.600000X1.600000*%
%TD*%
%TA.AperFunction,ComponentPad*%
%ADD22C,1.600000*%
%TD*%
%TA.AperFunction,ComponentPad*%
%ADD23C,4.000000*%
%TD*%
%TA.AperFunction,ComponentPad*%
%ADD24R,1.700000X1.700000*%
%TD*%
%TA.AperFunction,ComponentPad*%
%ADD25O,1.700000X1.700000*%
%TD*%
%TA.AperFunction,ComponentPad*%
%ADD26RoundRect,0.250000X-0.650000X-1.550000X0.650000X-1.550000X0.650000X1.550000X-0.650000X1.550000X0*%
%TD*%
%TA.AperFunction,ComponentPad*%
%ADD27O,1.800000X3.600000*%
%TD*%
%TA.AperFunction,ComponentPad*%
%ADD28R,3.500000X3.500000*%
%TD*%
%TA.AperFunction,ComponentPad*%
%ADD29RoundRect,0.750000X1.000000X-0.750000X1.000000X0.750000X-1.000000X0.750000X-1.000000X-0.750000X0*%
%TD*%
%TA.AperFunction,ComponentPad*%
%ADD30RoundRect,0.875000X0.875000X-0.875000X0.875000X0.875000X-0.875000X0.875000X-0.875000X-0.875000X0*%
%TD*%
%TA.AperFunction,ComponentPad*%
%ADD31C,2.400000*%
%TD*%
%TA.AperFunction,ComponentPad*%
%ADD32C,1.700000*%
%TD*%
%TA.AperFunction,ViaPad*%
%ADD33C,0.600000*%
%TD*%
%TA.AperFunction,ViaPad*%
%ADD34C,0.800000*%
%TD*%
%TA.AperFunction,ViaPad*%
%ADD35C,1.000000*%
%TD*%
G04 APERTURE END LIST*
D10*
%TO.N,Net-(D4-RK)*%
%TO.C,D4*%
X195326000Y-121105000D03*
%TO.N,Net-(D4-GK)*%
X195326000Y-123645000D03*
%TO.N,Net-(D4-BK)*%
X195326000Y-126185000D03*
%TO.N,+3.3V*%
X192786000Y-126185000D03*
%TO.N,/STATUS_1*%
X192786000Y-123645000D03*
%TO.N,/STATUS_2*%
X192786000Y-121105000D03*
%TD*%
D11*
%TO.N,/EN*%
%TO.C,JP2*%
X207421000Y-121539000D03*
%TO.N,GND*%
X206121000Y-121539000D03*
%TD*%
D12*
%TO.N,/SDA*%
%TO.C,TP8*%
X190246000Y-85598000D03*
%TD*%
%TO.N,GNDPWR*%
%TO.C,TP4*%
X115824000Y-98679000D03*
%TD*%
%TO.N,Net-(U10-SDA2)*%
%TO.C,TP10*%
X174625000Y-100394000D03*
%TD*%
%TO.N,/SCL*%
%TO.C,TP7*%
X190246000Y-80518000D03*
%TD*%
D11*
%TO.N,/IO0*%
%TO.C,JP1*%
X207421000Y-117856000D03*
%TO.N,GND*%
X206121000Y-117856000D03*
%TD*%
D13*
%TO.N,GNDPWR*%
%TO.C,U4*%
X129794000Y-83439000D03*
%TO.N,Net-(U4-+Vin)*%
X132334000Y-83439000D03*
%TO.N,GND*%
X134874000Y-83439000D03*
%TO.N,Net-(U4-+Vout)*%
X137414000Y-83439000D03*
%TD*%
D14*
%TO.N,GNDPWR*%
%TO.C,J4*%
X131087000Y-118035000D03*
D15*
%TO.N,Net-(C20-Pad1)*%
X132357000Y-115495000D03*
%TO.N,/Communication/5V_Comm_GND*%
X133627000Y-118035000D03*
%TO.N,/Communication/H_INT*%
X134897000Y-115495000D03*
%TO.N,/Communication/RFID_TX*%
X136167000Y-118035000D03*
%TO.N,/Communication/RFID_RX*%
X137437000Y-115495000D03*
%TO.N,/Communication/H_SDA*%
X138707000Y-118035000D03*
%TO.N,/Communication/H_SCL*%
X139977000Y-115495000D03*
D16*
%TO.N,N/C*%
X127762000Y-127435000D03*
X143302000Y-127435000D03*
%TD*%
D12*
%TO.N,/INT*%
%TO.C,TP18*%
X198628000Y-85852000D03*
%TD*%
%TO.N,GND*%
%TO.C,TP1*%
X147447000Y-99949000D03*
%TD*%
%TO.N,Net-(U10-SCL2)*%
%TO.C,TP9*%
X174625000Y-95314000D03*
%TD*%
%TO.N,/Communication/H_INT*%
%TO.C,TP17*%
X135255000Y-110744000D03*
%TD*%
%TO.N,+3.3V*%
%TO.C,TP2*%
X152527000Y-99949000D03*
%TD*%
D17*
%TO.N,Net-(J6-Pin_1)*%
%TO.C,J6*%
X97683000Y-110251000D03*
D18*
%TO.N,Net-(J6-Pin_2)*%
X100183000Y-110251000D03*
%TD*%
D13*
%TO.N,GNDPWR*%
%TO.C,U6*%
X129794000Y-104394000D03*
%TO.N,Net-(U6-+Vin)*%
X132334000Y-104394000D03*
%TO.N,/Communication/5V_Comm_GND*%
X134874000Y-104394000D03*
%TO.N,Net-(U6-+Vout)*%
X137414000Y-104394000D03*
%TD*%
D12*
%TO.N,/Communication/5V_Comm_GND*%
%TO.C,TP5*%
X163957000Y-104013000D03*
%TD*%
D19*
%TO.N,N/C*%
%TO.C,K1*%
X95123000Y-91059000D03*
%TO.N,Net-(J6-Pin_1)*%
X95123000Y-101219000D03*
%TO.N,Net-(D1-K)*%
X95123000Y-103759000D03*
%TO.N,unconnected-(K1-Pad7)*%
X102743000Y-103759000D03*
%TO.N,GNDPWR*%
X102743000Y-101219000D03*
%TO.N,+12V*%
X102743000Y-91059000D03*
%TD*%
D12*
%TO.N,/Communication/H_SDA*%
%TO.C,TP12*%
X154432000Y-117729000D03*
%TD*%
D20*
%TO.N,GNDPWR*%
%TO.C,U2*%
X123347000Y-114920000D03*
X122047000Y-114920000D03*
X120747000Y-114920000D03*
X123347000Y-116220000D03*
X122047000Y-116220000D03*
X120747000Y-116220000D03*
%TD*%
D21*
%TO.N,unconnected-(J7-Pad1)*%
%TO.C,J7*%
X156095000Y-121747000D03*
D22*
%TO.N,/Communication/COMM_RX*%
X158865000Y-121747000D03*
%TO.N,/Communication/COMM_TX*%
X161635000Y-121747000D03*
%TO.N,unconnected-(J7-Pad4)*%
X164405000Y-121747000D03*
%TO.N,/Communication/5V_Comm_GND*%
X167175000Y-121747000D03*
%TO.N,unconnected-(J7-Pad6)*%
X157480000Y-124587000D03*
%TO.N,unconnected-(J7-Pad7)*%
X160250000Y-124587000D03*
%TO.N,unconnected-(J7-Pad8)*%
X163020000Y-124587000D03*
%TO.N,unconnected-(J7-Pad9)*%
X165790000Y-124587000D03*
D23*
%TO.N,N/C*%
X149135000Y-123167000D03*
X174135000Y-123167000D03*
%TD*%
D12*
%TO.N,/Communication/H_SCL*%
%TO.C,TP11*%
X154432000Y-112649000D03*
%TD*%
%TO.N,+12V*%
%TO.C,TP3*%
X110744000Y-98679000D03*
%TD*%
%TO.N,/Communication/RFID_TX*%
%TO.C,TP13*%
X147447000Y-104013000D03*
%TD*%
%TO.N,/Communication/5V_Comm*%
%TO.C,TP6*%
X169037000Y-104013000D03*
%TD*%
D24*
%TO.N,/Communication/5V_Comm_GND*%
%TO.C,J2*%
X158369000Y-112649000D03*
D25*
%TO.N,/Communication/COMM_RX*%
X158369000Y-110109000D03*
%TO.N,/Communication/COMM_TX*%
X158369000Y-107569000D03*
%TO.N,unconnected-(J2-Pin_4-Pad4)*%
X158369000Y-105029000D03*
%TD*%
D26*
%TO.N,Net-(J3-Pin_1)*%
%TO.C,J3*%
X118955000Y-124448500D03*
D27*
%TO.N,Net-(J3-Pin_2)*%
X122455000Y-124448500D03*
%TD*%
D12*
%TO.N,/Communication/RFID_RX*%
%TO.C,TP14*%
X152527000Y-104013000D03*
%TD*%
D28*
%TO.N,Net-(J6-Pin_2)*%
%TO.C,J1*%
X109093000Y-118841000D03*
D29*
%TO.N,GNDPWR*%
X109093000Y-124841000D03*
D30*
%TO.N,N/C*%
X113793000Y-121841000D03*
%TD*%
D31*
%TO.N,*%
%TO.C,SW1*%
X205176001Y-124695000D03*
X198176001Y-124695000D03*
D32*
%TO.N,/EN*%
X203926001Y-127195000D03*
%TO.N,GND*%
X199426001Y-127195000D03*
%TD*%
D33*
%TO.N,GND*%
X203327000Y-82677000D03*
X193167000Y-86487000D03*
X152527000Y-92837000D03*
X183007000Y-92837000D03*
X150114000Y-87757000D03*
X147447000Y-82677000D03*
X142367000Y-97917000D03*
X198247000Y-92837000D03*
X139827000Y-80137000D03*
X162687000Y-97917000D03*
X195707000Y-82677000D03*
X200787000Y-125857000D03*
X205867000Y-100457000D03*
X205867000Y-95377000D03*
X144907000Y-92837000D03*
X203327000Y-100457000D03*
X180467000Y-125857000D03*
X152527000Y-82677000D03*
X165227000Y-90297000D03*
X149987000Y-80137000D03*
X203073000Y-108458000D03*
X203327000Y-97917000D03*
X144907000Y-97917000D03*
X208407000Y-80137000D03*
X180467000Y-80137000D03*
X172847000Y-85217000D03*
X198247000Y-118237000D03*
X205867000Y-102997000D03*
X183007000Y-95377000D03*
X155067000Y-85217000D03*
X134747000Y-87757000D03*
X208407000Y-82677000D03*
X190627000Y-125857000D03*
X160147000Y-87757000D03*
X205867000Y-97917000D03*
X160147000Y-100457000D03*
X134747000Y-80137000D03*
X200787000Y-102997000D03*
X165227000Y-80137000D03*
X157607000Y-87757000D03*
X160147000Y-90297000D03*
X167767000Y-85217000D03*
X177927000Y-82677000D03*
X208407000Y-90297000D03*
X162687000Y-85217000D03*
X162687000Y-82677000D03*
X149987000Y-85217000D03*
X149987000Y-82677000D03*
X205867000Y-128397000D03*
X193167000Y-100457000D03*
X195707000Y-113157000D03*
X183007000Y-90297000D03*
X147447000Y-90297000D03*
X160147000Y-82677000D03*
X162687000Y-87757000D03*
X193167000Y-80137000D03*
X167767000Y-87757000D03*
X134747000Y-92837000D03*
X193167000Y-92837000D03*
X147447000Y-85217000D03*
X155067000Y-92837000D03*
X198247000Y-120777000D03*
X165227000Y-82677000D03*
X162687000Y-92837000D03*
X198247000Y-102997000D03*
X203327000Y-92837000D03*
X205867000Y-110617000D03*
X134747000Y-95377000D03*
X188468000Y-90805000D03*
X193167000Y-102997000D03*
X188087000Y-125857000D03*
X160147000Y-85344000D03*
X195707000Y-97917000D03*
X205867000Y-120777000D03*
X183007000Y-102997000D03*
X142367000Y-100457000D03*
X142367000Y-95377000D03*
X205867000Y-82677000D03*
X157607000Y-97917000D03*
X170307000Y-85217000D03*
X193167000Y-128397000D03*
X165227000Y-85217000D03*
X147447000Y-97917000D03*
X134747000Y-100457000D03*
X139827000Y-100457000D03*
X195707000Y-90297000D03*
X183007000Y-110617000D03*
X134747000Y-85217000D03*
X142367000Y-80137000D03*
X188087000Y-87757000D03*
X183007000Y-105537000D03*
X155067000Y-87757000D03*
X205867000Y-80137000D03*
X203327000Y-120777000D03*
X203327000Y-125857000D03*
X138557000Y-92837000D03*
X144907000Y-100457000D03*
X167767000Y-80137000D03*
X157607000Y-82677000D03*
X172847000Y-82677000D03*
X183007000Y-108077000D03*
X208407000Y-125857000D03*
X137287000Y-100457000D03*
X147447000Y-92837000D03*
X167767000Y-82677000D03*
X195707000Y-85217000D03*
X155067000Y-82677000D03*
X170307000Y-80137000D03*
X183007000Y-97917000D03*
X183007000Y-87757000D03*
X144907000Y-90297000D03*
X208407000Y-128397000D03*
X137287000Y-85217000D03*
X183007000Y-100457000D03*
X183007000Y-82677000D03*
X155067000Y-90297000D03*
X205867000Y-92837000D03*
X149987000Y-90297000D03*
X203327000Y-102997000D03*
X157607000Y-92837000D03*
X195707000Y-80137000D03*
X195707000Y-128397000D03*
X198247000Y-82677000D03*
X134747000Y-90297000D03*
X203327000Y-113157000D03*
X137287000Y-80137000D03*
X134747000Y-97917000D03*
X188087000Y-113157000D03*
X137287000Y-97917000D03*
X152527000Y-90297000D03*
X191770000Y-109093000D03*
X144907000Y-80137000D03*
X162687000Y-80137000D03*
X198247000Y-100457000D03*
X149987000Y-92837000D03*
X172847000Y-80137000D03*
X139827000Y-85217000D03*
X205867000Y-115697000D03*
X147574000Y-87757000D03*
X157607000Y-80137000D03*
X139827000Y-97917000D03*
X155067000Y-80137000D03*
X144145000Y-94742000D03*
X152527000Y-80137000D03*
X139827000Y-95377000D03*
X149987000Y-100457000D03*
X160147000Y-97917000D03*
X157607000Y-100457000D03*
X187198000Y-96774000D03*
X167767000Y-90297000D03*
X180467000Y-123317000D03*
X198247000Y-90297000D03*
X203327000Y-123317000D03*
X152654000Y-87757000D03*
X200787000Y-110617000D03*
X193167000Y-118237000D03*
X170307000Y-82677000D03*
X165227000Y-92837000D03*
X157607000Y-85217000D03*
X195707000Y-102997000D03*
X193167000Y-97917000D03*
X208407000Y-87757000D03*
X197231000Y-86487000D03*
X203327000Y-90297000D03*
X165227000Y-87757000D03*
X203327000Y-80137000D03*
X152527000Y-85217000D03*
X157607000Y-90297000D03*
X145034000Y-87757000D03*
X203327000Y-95377000D03*
X203327000Y-118237000D03*
X160147000Y-80137000D03*
X193167000Y-82677000D03*
X200787000Y-100457000D03*
X193167000Y-95377000D03*
X144907000Y-85217000D03*
X147447000Y-80137000D03*
X139827000Y-87757000D03*
X188087000Y-80137000D03*
X162687000Y-90297000D03*
X155067000Y-100457000D03*
X195707000Y-95377000D03*
X198247000Y-80137000D03*
X160147000Y-92837000D03*
X200787000Y-92837000D03*
X208407000Y-123317000D03*
X193167000Y-90297000D03*
X152527000Y-97917000D03*
X149987000Y-97917000D03*
X155067000Y-97917000D03*
X200787000Y-90297000D03*
X200787000Y-128397000D03*
X198247000Y-115697000D03*
X195707000Y-100457000D03*
X139827000Y-90297000D03*
X198247000Y-128397000D03*
D34*
%TO.N,GNDPWR*%
X130683000Y-120777000D03*
X107823000Y-110617000D03*
X128143000Y-118237000D03*
X100203000Y-123317000D03*
X95123000Y-85217000D03*
X115443000Y-85217000D03*
X130683000Y-113538000D03*
X95123000Y-123317000D03*
X105283000Y-87757000D03*
X123063000Y-87757000D03*
X128143000Y-82931000D03*
X105283000Y-108077000D03*
X102743000Y-125857000D03*
X110363000Y-128397000D03*
X97663000Y-108077000D03*
X100203000Y-95377000D03*
X130683000Y-97917000D03*
X107823000Y-102997000D03*
X125603000Y-102997000D03*
X128143000Y-97917000D03*
X131064000Y-92837000D03*
X100203000Y-85217000D03*
X110363000Y-115697000D03*
X95123000Y-80137000D03*
X95123000Y-92837000D03*
X100203000Y-115697000D03*
X97663000Y-125857000D03*
X112903000Y-100457000D03*
X128143000Y-100457000D03*
X97663000Y-87757000D03*
X128143000Y-80137000D03*
X102743000Y-97917000D03*
X120523000Y-97917000D03*
X105283000Y-95377000D03*
X95123000Y-97917000D03*
X112903000Y-85217000D03*
X100203000Y-102997000D03*
X97663000Y-90297000D03*
X100203000Y-97917000D03*
X97663000Y-85217000D03*
X125603000Y-100457000D03*
X125603000Y-82931000D03*
X112903000Y-125857000D03*
X125603000Y-123317000D03*
X125603000Y-118237000D03*
X115443000Y-105537000D03*
X110363000Y-90297000D03*
X97663000Y-118237000D03*
X130683000Y-80137000D03*
X125603000Y-90297000D03*
X123063000Y-80137000D03*
X105283000Y-97917000D03*
X97663000Y-97917000D03*
D35*
X112268000Y-108458000D03*
D34*
X123571000Y-100457000D03*
X105283000Y-128397000D03*
X117983000Y-110617000D03*
X120523000Y-100457000D03*
X117983000Y-95377000D03*
X107823000Y-113157000D03*
X95123000Y-118237000D03*
X123063000Y-92837000D03*
D35*
X132207000Y-109347000D03*
D34*
X105283000Y-80137000D03*
X100203000Y-90297000D03*
X125603000Y-128397000D03*
X97663000Y-128397000D03*
X102743000Y-123317000D03*
X112903000Y-92837000D03*
X130683000Y-85217000D03*
X120523000Y-95377000D03*
X95123000Y-128397000D03*
X123063000Y-95377000D03*
X117983000Y-105537000D03*
X107823000Y-95377000D03*
X115443000Y-87757000D03*
X110363000Y-82677000D03*
X115443000Y-102997000D03*
X115443000Y-113792000D03*
X123063000Y-128397000D03*
X120523000Y-105537000D03*
X100203000Y-87757000D03*
X107823000Y-128397000D03*
X95123000Y-108077000D03*
D35*
X113538000Y-108458000D03*
D34*
X115443000Y-125857000D03*
X112903000Y-90297000D03*
X97663000Y-80137000D03*
X120523000Y-85217000D03*
X128143000Y-113538000D03*
X107823000Y-82677000D03*
X125603000Y-97917000D03*
X107823000Y-97917000D03*
X97663000Y-100457000D03*
X117983000Y-108077000D03*
X97663000Y-120777000D03*
X95123000Y-95377000D03*
X125603000Y-125857000D03*
X112903000Y-128397000D03*
X100203000Y-100457000D03*
X107823000Y-100457000D03*
X123571000Y-105537000D03*
X105283000Y-120777000D03*
X131064000Y-87757000D03*
X125603000Y-80137000D03*
X102743000Y-128397000D03*
X120523000Y-102997000D03*
X105283000Y-102997000D03*
X128143000Y-120777000D03*
X107823000Y-87757000D03*
X131064000Y-90297000D03*
X105283000Y-85217000D03*
X123063000Y-90297000D03*
X123571000Y-108077000D03*
X110363000Y-80137000D03*
X130683000Y-102997000D03*
X100203000Y-128397000D03*
X125603000Y-87757000D03*
X120523000Y-108077000D03*
X115443000Y-128397000D03*
X130683000Y-108077000D03*
X128143000Y-108077000D03*
X115443000Y-82677000D03*
X128143000Y-102997000D03*
D35*
X105918000Y-110363000D03*
D34*
X128143000Y-110617000D03*
X125603000Y-92837000D03*
X102743000Y-87757000D03*
X97663000Y-92837000D03*
X110363000Y-113157000D03*
X130683000Y-128397000D03*
X95123000Y-120777000D03*
X105283000Y-125857000D03*
X115443000Y-90297000D03*
X120523000Y-92837000D03*
X105283000Y-100457000D03*
X123571000Y-102997000D03*
X102743000Y-95377000D03*
X120523000Y-90297000D03*
X112903000Y-82677000D03*
X131064000Y-95377000D03*
X95123000Y-87757000D03*
X120523000Y-128397000D03*
X95123000Y-113157000D03*
D33*
X122682000Y-121158000D03*
D34*
X117983000Y-120777000D03*
X105283000Y-82677000D03*
X97663000Y-123317000D03*
D33*
X122682000Y-120142000D03*
D34*
X117983000Y-113792000D03*
X120523000Y-80137000D03*
X112903000Y-102997000D03*
X117983000Y-80137000D03*
X97663000Y-82677000D03*
X125603000Y-120777000D03*
X115443000Y-80137000D03*
X120523000Y-125857000D03*
X128143000Y-115697000D03*
X105283000Y-123317000D03*
X97663000Y-115697000D03*
X115443000Y-110617000D03*
X130683000Y-115697000D03*
X110363000Y-85217000D03*
X95123000Y-110617000D03*
X115443000Y-100457000D03*
X95123000Y-125857000D03*
X97663000Y-95377000D03*
X95123000Y-115697000D03*
X130683000Y-100457000D03*
X110363000Y-87757000D03*
X117983000Y-100457000D03*
X102743000Y-85217000D03*
X117983000Y-102997000D03*
X112903000Y-80137000D03*
X117983000Y-128397000D03*
X120523000Y-87757000D03*
D35*
X105791000Y-105537000D03*
X123952000Y-110744000D03*
D34*
X112903000Y-87757000D03*
X107823000Y-85217000D03*
X100203000Y-125857000D03*
X95123000Y-82677000D03*
X117983000Y-97917000D03*
X107823000Y-80137000D03*
X117983000Y-115697000D03*
X100203000Y-92837000D03*
D35*
X114808000Y-108458000D03*
D33*
%TO.N,/EN*%
X202692000Y-86741000D03*
D35*
%TO.N,+12V*%
X126111000Y-114808000D03*
X110998000Y-111125000D03*
X111887000Y-112014000D03*
X126111000Y-113538000D03*
D33*
%TO.N,Net-(J5-VDD)*%
X184404000Y-127508000D03*
X185928000Y-125095000D03*
%TO.N,/SDA*%
X188341000Y-85598000D03*
X186309000Y-98552000D03*
%TO.N,/SCL*%
X185674000Y-97282000D03*
X187452000Y-84836000D03*
%TO.N,/IO0*%
X189992000Y-106426000D03*
%TO.N,/M2*%
X143256000Y-96520000D03*
X194818000Y-86487000D03*
%TO.N,/M1*%
X143256000Y-92964000D03*
X196088000Y-86487000D03*
%TO.N,/USER_4*%
X198628000Y-87757000D03*
X187960000Y-105537000D03*
%TO.N,/USER_3*%
X193548000Y-87757000D03*
X187960000Y-108077000D03*
%TO.N,/Communication/5V_Comm_GND*%
X170307000Y-104775000D03*
X175387000Y-114935000D03*
X180467000Y-92075000D03*
X152527000Y-122555000D03*
X167767000Y-120015000D03*
X160147000Y-107315000D03*
X180467000Y-94615000D03*
X144907000Y-102235000D03*
X175514000Y-107442000D03*
X139954000Y-116967000D03*
X175387000Y-117475000D03*
X170307000Y-127635000D03*
X144907000Y-114935000D03*
X134747000Y-122555000D03*
X152527000Y-125095000D03*
X172847000Y-127635000D03*
X155067000Y-127635000D03*
X144907000Y-130175000D03*
X172847000Y-130175000D03*
X139827000Y-104775000D03*
X160147000Y-112395000D03*
X157607000Y-122555000D03*
X139827000Y-127635000D03*
X153416000Y-107315000D03*
X149987000Y-107315000D03*
X170307000Y-114935000D03*
X172847000Y-120015000D03*
X142367000Y-102235000D03*
X172847000Y-102235000D03*
X180467000Y-102235000D03*
X172847000Y-99695000D03*
X160147000Y-122555000D03*
X134747000Y-130175000D03*
X152527000Y-130175000D03*
X155067000Y-114935000D03*
X139827000Y-102235000D03*
X157607000Y-114935000D03*
X157607000Y-117475000D03*
X175387000Y-97155000D03*
X152527000Y-127635000D03*
X155067000Y-109855000D03*
X147447000Y-117475000D03*
X149987000Y-127635000D03*
X180467000Y-89535000D03*
X134747000Y-125095000D03*
X149987000Y-114935000D03*
X155067000Y-125095000D03*
X170307000Y-125095000D03*
X167767000Y-107315000D03*
X162687000Y-122555000D03*
X165227000Y-130175000D03*
X139827000Y-122555000D03*
X170307000Y-97155000D03*
X170307000Y-117475000D03*
X177927000Y-94615000D03*
X172847000Y-117475000D03*
X157607000Y-130175000D03*
X175387000Y-102235000D03*
X134747000Y-102235000D03*
X137287000Y-113411000D03*
X170307000Y-120015000D03*
X167767000Y-130175000D03*
X147447000Y-125095000D03*
X157607000Y-127635000D03*
X160147000Y-130175000D03*
X137287000Y-130175000D03*
X134747000Y-120015000D03*
X172847000Y-114935000D03*
X160147000Y-127635000D03*
X167767000Y-125095000D03*
X175387000Y-130175000D03*
X177927000Y-102235000D03*
X137287000Y-125095000D03*
X134747000Y-127635000D03*
X165227000Y-104775000D03*
X165227000Y-107315000D03*
X170307000Y-122555000D03*
X175387000Y-120015000D03*
X142367000Y-130175000D03*
X175387000Y-104775000D03*
X147447000Y-130175000D03*
X167767000Y-99695000D03*
X172847000Y-104775000D03*
X139827000Y-130175000D03*
X134747000Y-117475000D03*
X134747000Y-107315000D03*
X144907000Y-122555000D03*
X162687000Y-107315000D03*
X137287000Y-127635000D03*
X162687000Y-127635000D03*
X175387000Y-89535000D03*
X180467000Y-104775000D03*
X165227000Y-127635000D03*
X147447000Y-107315000D03*
X160147000Y-104775000D03*
X152527000Y-114935000D03*
X167767000Y-127635000D03*
X144907000Y-125095000D03*
X137287000Y-109855000D03*
X162687000Y-104775000D03*
X155067000Y-130175000D03*
X149987000Y-130175000D03*
X180467000Y-107315000D03*
X147447000Y-127635000D03*
X170307000Y-130175000D03*
X175387000Y-127635000D03*
X137287000Y-102235000D03*
X180467000Y-109855000D03*
X162687000Y-130175000D03*
X172847000Y-94615000D03*
X149987000Y-104775000D03*
X142367000Y-104775000D03*
X137287000Y-122555000D03*
X139827000Y-107315000D03*
X167767000Y-104775000D03*
X170307000Y-107315000D03*
%TO.N,/Communication/5V_Comm*%
X151003000Y-120650000D03*
X135128000Y-106553000D03*
X141986000Y-109220000D03*
X173101000Y-98806000D03*
X176022000Y-100203000D03*
X139700000Y-113411000D03*
X174879000Y-113030000D03*
X178943000Y-104267000D03*
X171958000Y-118491000D03*
%TO.N,Net-(U10-SDA2)*%
X147828000Y-116205000D03*
%TO.N,Net-(U10-SCL2)*%
X147828000Y-108585000D03*
%TO.N,/Communication/RFID_TX*%
X144272000Y-119888000D03*
X168529000Y-117856000D03*
%TO.N,/Communication/RFID_RX*%
X144272000Y-118618000D03*
X167259000Y-117856000D03*
%TO.N,Net-(U11-VID)*%
X178943000Y-105537000D03*
X162179000Y-117856000D03*
%TO.N,Net-(U11-VIC)*%
X165989000Y-117856000D03*
X178943000Y-106807000D03*
%TO.N,Net-(U11-VOB)*%
X174625000Y-108077000D03*
X163449000Y-117856000D03*
%TO.N,Net-(U11-VOA)*%
X174625000Y-109347000D03*
X164719000Y-117856000D03*
%TO.N,/STATUS_1*%
X190881000Y-102108000D03*
%TO.N,/STATUS_2*%
X192278000Y-90424000D03*
%TO.N,+3.3V*%
X187198000Y-100076000D03*
X199390000Y-109728000D03*
X204851000Y-113919000D03*
D35*
X145415000Y-82931000D03*
D33*
X200660000Y-85217000D03*
X185928000Y-114046000D03*
X206629000Y-109728000D03*
X189992000Y-110998000D03*
X184785000Y-104267000D03*
X208534000Y-86741000D03*
X187833000Y-89281000D03*
%TO.N,/SD_CS*%
X185039000Y-118618000D03*
X196088000Y-107569000D03*
%TO.N,/SD_MOSI*%
X206248000Y-107569000D03*
X184150000Y-120523000D03*
%TO.N,/SD_CLK*%
X197358000Y-107569000D03*
X183388000Y-119253000D03*
%TO.N,/SD_MISO*%
X182626000Y-119888000D03*
X198628000Y-107569000D03*
%TO.N,/SD_DET*%
X199898000Y-87757000D03*
X185801000Y-115316000D03*
%TO.N,/SD_PWR*%
X191739500Y-110109000D03*
X197358000Y-90424000D03*
%TD*%
%TA.AperFunction,Conductor*%
%TO.N,GNDPWR*%
G36*
X132565963Y-77622547D02*
G01*
X132648113Y-77647466D01*
X132726795Y-77671334D01*
X132738109Y-77676020D01*
X132876517Y-77750001D01*
X132900139Y-77762627D01*
X132910327Y-77769434D01*
X133052348Y-77885988D01*
X133061011Y-77894651D01*
X133177565Y-78036672D01*
X133184372Y-78046860D01*
X133270977Y-78208886D01*
X133275666Y-78220205D01*
X133328998Y-78396020D01*
X133331388Y-78408037D01*
X133349699Y-78593943D01*
X133350000Y-78600069D01*
X133350000Y-83298145D01*
X133331694Y-83342339D01*
X133287500Y-83360645D01*
X133243306Y-83342339D01*
X133225342Y-83304679D01*
X133219674Y-83250744D01*
X133161179Y-83070716D01*
X133066533Y-82906784D01*
X132939871Y-82766112D01*
X132930110Y-82759020D01*
X132786734Y-82654851D01*
X132786725Y-82654846D01*
X132613814Y-82577860D01*
X132613797Y-82577854D01*
X132428646Y-82538500D01*
X132239354Y-82538500D01*
X132054202Y-82577854D01*
X132054185Y-82577860D01*
X131881274Y-82654846D01*
X131881265Y-82654851D01*
X131728129Y-82766111D01*
X131728128Y-82766112D01*
X131601466Y-82906785D01*
X131506818Y-83070721D01*
X131448326Y-83250741D01*
X131428540Y-83439000D01*
X131448326Y-83627258D01*
X131506818Y-83807278D01*
X131506820Y-83807282D01*
X131506821Y-83807284D01*
X131601467Y-83971216D01*
X131714118Y-84096327D01*
X131728128Y-84111887D01*
X131728129Y-84111888D01*
X131881265Y-84223148D01*
X131881274Y-84223153D01*
X132054185Y-84300139D01*
X132054188Y-84300140D01*
X132054197Y-84300144D01*
X132239354Y-84339500D01*
X132428646Y-84339500D01*
X132613803Y-84300144D01*
X132786730Y-84223151D01*
X132939871Y-84111888D01*
X133066533Y-83971216D01*
X133161179Y-83807284D01*
X133219674Y-83627256D01*
X133225342Y-83573319D01*
X133248167Y-83531282D01*
X133294033Y-83517696D01*
X133336072Y-83540521D01*
X133350000Y-83579854D01*
X133350000Y-104253145D01*
X133331694Y-104297339D01*
X133287500Y-104315645D01*
X133243306Y-104297339D01*
X133225342Y-104259679D01*
X133219674Y-104205744D01*
X133161179Y-104025716D01*
X133066533Y-103861784D01*
X132939871Y-103721112D01*
X132921905Y-103708059D01*
X132786734Y-103609851D01*
X132786725Y-103609846D01*
X132613814Y-103532860D01*
X132613797Y-103532854D01*
X132428646Y-103493500D01*
X132239354Y-103493500D01*
X132054202Y-103532854D01*
X132054185Y-103532860D01*
X131881274Y-103609846D01*
X131881265Y-103609851D01*
X131728129Y-103721111D01*
X131728128Y-103721112D01*
X131601466Y-103861785D01*
X131506818Y-104025721D01*
X131448326Y-104205741D01*
X131428540Y-104394000D01*
X131448326Y-104582258D01*
X131506818Y-104762278D01*
X131506820Y-104762282D01*
X131506821Y-104762284D01*
X131601467Y-104926216D01*
X131714118Y-105051327D01*
X131728128Y-105066887D01*
X131728129Y-105066888D01*
X131881265Y-105178148D01*
X131881274Y-105178153D01*
X132054185Y-105255139D01*
X132054188Y-105255140D01*
X132054197Y-105255144D01*
X132239354Y-105294500D01*
X132428646Y-105294500D01*
X132613803Y-105255144D01*
X132786730Y-105178151D01*
X132939871Y-105066888D01*
X133066533Y-104926216D01*
X133161179Y-104762284D01*
X133219674Y-104582256D01*
X133225342Y-104528319D01*
X133248167Y-104486282D01*
X133294033Y-104472696D01*
X133336072Y-104495521D01*
X133350000Y-104534854D01*
X133350000Y-115086909D01*
X133331694Y-115131103D01*
X133287500Y-115149409D01*
X133243306Y-115131103D01*
X133232380Y-115116371D01*
X133151139Y-114964380D01*
X133151135Y-114964374D01*
X133032357Y-114819643D01*
X132887625Y-114700864D01*
X132887619Y-114700860D01*
X132722506Y-114612606D01*
X132722503Y-114612605D01*
X132722501Y-114612604D01*
X132623723Y-114582640D01*
X132543329Y-114558252D01*
X132357000Y-114539901D01*
X132170670Y-114558252D01*
X132028267Y-114601450D01*
X131991499Y-114612604D01*
X131991498Y-114612604D01*
X131991493Y-114612606D01*
X131826380Y-114700860D01*
X131826374Y-114700864D01*
X131681643Y-114819643D01*
X131562864Y-114964374D01*
X131562860Y-114964380D01*
X131474606Y-115129493D01*
X131474604Y-115129498D01*
X131474604Y-115129499D01*
X131472653Y-115135930D01*
X131420252Y-115308670D01*
X131401901Y-115494999D01*
X131401901Y-115495000D01*
X131420252Y-115681329D01*
X131474606Y-115860506D01*
X131562860Y-116025619D01*
X131562864Y-116025625D01*
X131681643Y-116170357D01*
X131826375Y-116289136D01*
X131826377Y-116289137D01*
X131826380Y-116289139D01*
X131979065Y-116370750D01*
X131991499Y-116377396D01*
X132170669Y-116431747D01*
X132357000Y-116450099D01*
X132543331Y-116431747D01*
X132722501Y-116377396D01*
X132782936Y-116345092D01*
X132830541Y-116340404D01*
X132867518Y-116370750D01*
X132872207Y-116418356D01*
X132856592Y-116444407D01*
X132372894Y-116928105D01*
X132372888Y-116928112D01*
X132080000Y-117221000D01*
X132080000Y-117635214D01*
X132080000Y-117635218D01*
X132080000Y-129552930D01*
X132079699Y-129559056D01*
X132061388Y-129744962D01*
X132058998Y-129756979D01*
X132005666Y-129932794D01*
X132000977Y-129944113D01*
X131914372Y-130106139D01*
X131907565Y-130116327D01*
X131791011Y-130258348D01*
X131782348Y-130267011D01*
X131640327Y-130383565D01*
X131630139Y-130390372D01*
X131468113Y-130476977D01*
X131456794Y-130481666D01*
X131304680Y-130527809D01*
X131286537Y-130530500D01*
X95632630Y-130530500D01*
X95629359Y-130530414D01*
X95318057Y-130514099D01*
X95311551Y-130513415D01*
X95005277Y-130464905D01*
X94998878Y-130463545D01*
X94699353Y-130383287D01*
X94693131Y-130381266D01*
X94403629Y-130270136D01*
X94397652Y-130267475D01*
X94121353Y-130126691D01*
X94115688Y-130123420D01*
X93855621Y-129954529D01*
X93850328Y-129950683D01*
X93609342Y-129755534D01*
X93604481Y-129751157D01*
X93385214Y-129531887D01*
X93380836Y-129527025D01*
X93185685Y-129286030D01*
X93181844Y-129280743D01*
X93012955Y-129020671D01*
X93009686Y-129015009D01*
X92868901Y-128738696D01*
X92866251Y-128732743D01*
X92755123Y-128443235D01*
X92753101Y-128437014D01*
X92672842Y-128137467D01*
X92671487Y-128131090D01*
X92622978Y-127824792D01*
X92622296Y-127818291D01*
X92605942Y-127506145D01*
X92605856Y-127502875D01*
X92605856Y-127435003D01*
X126056732Y-127435003D01*
X126075778Y-127689156D01*
X126075778Y-127689158D01*
X126132489Y-127937630D01*
X126182794Y-128065803D01*
X126225607Y-128174888D01*
X126353041Y-128395612D01*
X126353043Y-128395615D01*
X126353047Y-128395621D01*
X126511943Y-128594869D01*
X126511946Y-128594872D01*
X126511950Y-128594877D01*
X126698783Y-128768232D01*
X126698788Y-128768235D01*
X126698791Y-128768238D01*
X126831802Y-128858922D01*
X126909366Y-128911805D01*
X127138996Y-129022389D01*
X127260769Y-129059951D01*
X127382534Y-129097511D01*
X127382537Y-129097511D01*
X127382542Y-129097513D01*
X127634565Y-129135500D01*
X127634571Y-129135500D01*
X127889429Y-129135500D01*
X127889435Y-129135500D01*
X128141458Y-129097513D01*
X128141463Y-129097511D01*
X128141466Y-129097511D01*
X128233033Y-129069265D01*
X128385004Y-129022389D01*
X128614634Y-128911805D01*
X128825217Y-128768232D01*
X129012050Y-128594877D01*
X129170959Y-128395612D01*
X129298393Y-128174888D01*
X129391508Y-127937637D01*
X129448222Y-127689157D01*
X129467268Y-127435000D01*
X129448222Y-127180843D01*
X129421967Y-127065813D01*
X129391510Y-126932369D01*
X129391508Y-126932363D01*
X129298393Y-126695112D01*
X129170959Y-126474388D01*
X129170954Y-126474382D01*
X129170952Y-126474378D01*
X129012056Y-126275130D01*
X129012053Y-126275127D01*
X129012050Y-126275123D01*
X128878417Y-126151130D01*
X128858473Y-126107653D01*
X128875113Y-126062805D01*
X128918592Y-126042860D01*
X128947455Y-126048724D01*
X129145221Y-126141433D01*
X129408119Y-126220527D01*
X129679731Y-126260500D01*
X129679732Y-126260500D01*
X129885544Y-126260500D01*
X129885547Y-126260500D01*
X129885550Y-126260499D01*
X129885568Y-126260499D01*
X130090796Y-126245478D01*
X130090798Y-126245477D01*
X130090805Y-126245477D01*
X130358775Y-126185784D01*
X130615198Y-126087711D01*
X130854609Y-125953347D01*
X131071904Y-125785557D01*
X131262454Y-125587916D01*
X131422196Y-125364637D01*
X131547727Y-125120479D01*
X131636370Y-124860646D01*
X131686236Y-124590674D01*
X131696262Y-124316320D01*
X131666236Y-124043429D01*
X131596796Y-123777818D01*
X131489423Y-123525148D01*
X131346405Y-123290804D01*
X131170791Y-123079782D01*
X131170785Y-123079777D01*
X131170778Y-123079769D01*
X130966321Y-122896575D01*
X130798602Y-122785614D01*
X130737359Y-122745096D01*
X130488779Y-122628567D01*
X130488776Y-122628566D01*
X130488777Y-122628566D01*
X130225890Y-122549475D01*
X130225876Y-122549472D01*
X129954275Y-122509500D01*
X129954269Y-122509500D01*
X129748453Y-122509500D01*
X129748431Y-122509500D01*
X129543203Y-122524521D01*
X129275225Y-122584216D01*
X129275223Y-122584216D01*
X129018800Y-122682289D01*
X128779390Y-122816653D01*
X128562093Y-122984445D01*
X128371542Y-123182088D01*
X128371541Y-123182089D01*
X128211807Y-123405358D01*
X128211804Y-123405362D01*
X128086269Y-123649528D01*
X127997634Y-123909340D01*
X127997628Y-123909360D01*
X127947765Y-124179317D01*
X127947763Y-124179338D01*
X127937737Y-124453676D01*
X127952810Y-124590661D01*
X127967764Y-124726571D01*
X128037204Y-124992182D01*
X128144577Y-125244852D01*
X128239827Y-125400925D01*
X128287596Y-125479198D01*
X128388091Y-125599954D01*
X128463209Y-125690218D01*
X128463213Y-125690222D01*
X128463221Y-125690230D01*
X128512630Y-125734500D01*
X128605696Y-125817887D01*
X128626395Y-125861012D01*
X128610537Y-125906142D01*
X128567412Y-125926841D01*
X128536872Y-125920746D01*
X128385005Y-125847611D01*
X128384995Y-125847608D01*
X128141465Y-125772488D01*
X128141466Y-125772488D01*
X127995976Y-125750558D01*
X127889435Y-125734500D01*
X127634565Y-125734500D01*
X127382533Y-125772488D01*
X127139004Y-125847608D01*
X127139000Y-125847609D01*
X126909365Y-125958195D01*
X126698791Y-126101761D01*
X126698784Y-126101766D01*
X126698783Y-126101768D01*
X126645581Y-126151132D01*
X126511948Y-126275125D01*
X126511943Y-126275130D01*
X126353047Y-126474378D01*
X126225608Y-126695109D01*
X126132489Y-126932369D01*
X126075778Y-127180841D01*
X126075778Y-127180843D01*
X126056732Y-127434996D01*
X126056732Y-127435003D01*
X92605856Y-127435003D01*
X92605856Y-126052762D01*
X117854500Y-126052762D01*
X117857353Y-126083196D01*
X117857354Y-126083201D01*
X117902207Y-126211382D01*
X117902207Y-126211383D01*
X117942528Y-126266016D01*
X117982850Y-126320650D01*
X118092118Y-126401293D01*
X118220301Y-126446146D01*
X118250734Y-126449000D01*
X118250738Y-126449000D01*
X119659262Y-126449000D01*
X119659266Y-126449000D01*
X119689699Y-126446146D01*
X119817882Y-126401293D01*
X119927150Y-126320650D01*
X120007793Y-126211382D01*
X120052646Y-126083199D01*
X120055500Y-126052766D01*
X120055500Y-125400925D01*
X121354500Y-125400925D01*
X121369472Y-125557719D01*
X121428683Y-125759375D01*
X121478021Y-125855077D01*
X121524989Y-125946182D01*
X121524991Y-125946185D01*
X121524994Y-125946189D01*
X121654908Y-126111386D01*
X121654909Y-126111387D01*
X121813740Y-126249016D01*
X121813741Y-126249016D01*
X121813744Y-126249019D01*
X121995756Y-126354104D01*
X122194367Y-126422844D01*
X122402398Y-126452754D01*
X122612330Y-126442754D01*
X122816576Y-126393204D01*
X123007753Y-126305896D01*
X123178952Y-126183986D01*
X123323986Y-126031878D01*
X123328468Y-126024904D01*
X123437610Y-125855077D01*
X123437610Y-125855076D01*
X123437613Y-125855072D01*
X123515725Y-125659957D01*
X123555500Y-125453585D01*
X123555500Y-123496075D01*
X123540528Y-123339282D01*
X123494372Y-123182088D01*
X123481316Y-123137624D01*
X123431978Y-123041922D01*
X123385011Y-122950818D01*
X123342353Y-122896575D01*
X123301192Y-122844234D01*
X123255092Y-122785614D01*
X123171308Y-122713014D01*
X123096259Y-122647983D01*
X122914244Y-122542896D01*
X122715633Y-122474156D01*
X122715631Y-122474155D01*
X122715629Y-122474155D01*
X122507598Y-122444245D01*
X122297675Y-122454245D01*
X122297669Y-122454245D01*
X122093424Y-122503796D01*
X121902245Y-122591105D01*
X121731050Y-122713011D01*
X121586009Y-122865127D01*
X121472389Y-123041922D01*
X121394276Y-123237037D01*
X121394275Y-123237040D01*
X121354500Y-123443416D01*
X121354500Y-125400925D01*
X120055500Y-125400925D01*
X120055500Y-122844234D01*
X120052646Y-122813801D01*
X120007793Y-122685618D01*
X120005336Y-122682289D01*
X119980016Y-122647981D01*
X119927150Y-122576350D01*
X119817882Y-122495707D01*
X119689701Y-122450854D01*
X119689696Y-122450853D01*
X119669699Y-122448978D01*
X119659266Y-122448000D01*
X118250734Y-122448000D01*
X118241124Y-122448901D01*
X118220303Y-122450853D01*
X118220298Y-122450854D01*
X118092117Y-122495707D01*
X118092116Y-122495707D01*
X117982850Y-122576350D01*
X117902207Y-122685616D01*
X117902207Y-122685617D01*
X117857354Y-122813798D01*
X117857353Y-122813803D01*
X117854500Y-122844237D01*
X117854500Y-126052762D01*
X92605856Y-126052762D01*
X92605856Y-122798112D01*
X111842500Y-122798112D01*
X111842501Y-122798147D01*
X111845247Y-122844257D01*
X111888908Y-123044964D01*
X111969762Y-123233776D01*
X112084886Y-123403873D01*
X112230126Y-123549113D01*
X112400223Y-123664237D01*
X112589035Y-123745091D01*
X112789742Y-123788752D01*
X112825127Y-123790859D01*
X112835882Y-123791500D01*
X112835887Y-123791500D01*
X114750113Y-123791500D01*
X114750118Y-123791500D01*
X114763874Y-123790680D01*
X114796257Y-123788752D01*
X114796261Y-123788751D01*
X114796263Y-123788751D01*
X114996965Y-123745091D01*
X115185777Y-123664237D01*
X115355875Y-123549112D01*
X115501112Y-123403875D01*
X115616237Y-123233777D01*
X115697091Y-123044965D01*
X115740751Y-122844263D01*
X115740751Y-122844261D01*
X115740752Y-122844257D01*
X115743498Y-122798147D01*
X115743500Y-122798112D01*
X115743500Y-120883887D01*
X115743498Y-120883852D01*
X115740752Y-120837742D01*
X115730692Y-120791499D01*
X115697091Y-120637035D01*
X115616237Y-120448223D01*
X115576166Y-120389018D01*
X115501113Y-120278126D01*
X115355873Y-120132886D01*
X115185776Y-120017762D01*
X114996964Y-119936908D01*
X114796257Y-119893247D01*
X114750147Y-119890501D01*
X114750122Y-119890500D01*
X114750118Y-119890500D01*
X112835882Y-119890500D01*
X112835877Y-119890500D01*
X112835852Y-119890501D01*
X112789742Y-119893247D01*
X112589035Y-119936908D01*
X112400223Y-120017762D01*
X112230126Y-120132886D01*
X112084886Y-120278126D01*
X111969762Y-120448223D01*
X111888908Y-120637035D01*
X111845247Y-120837742D01*
X111842501Y-120883852D01*
X111842500Y-120883887D01*
X111842500Y-122798112D01*
X92605856Y-122798112D01*
X92605856Y-120119761D01*
X98983787Y-120119761D01*
X99013413Y-120389011D01*
X99013414Y-120389018D01*
X99081928Y-120651088D01*
X99187870Y-120900390D01*
X99260000Y-121018579D01*
X99328983Y-121131612D01*
X99502253Y-121339818D01*
X99502267Y-121339832D01*
X99703988Y-121520574D01*
X99703993Y-121520578D01*
X99703998Y-121520582D01*
X99704003Y-121520585D01*
X99929906Y-121670042D01*
X99929908Y-121670043D01*
X99929910Y-121670044D01*
X100175176Y-121785020D01*
X100434569Y-121863060D01*
X100702561Y-121902500D01*
X100702562Y-121902500D01*
X100905628Y-121902500D01*
X100905631Y-121902500D01*
X100905634Y-121902499D01*
X100905652Y-121902499D01*
X101108147Y-121887678D01*
X101108149Y-121887677D01*
X101108156Y-121887677D01*
X101372553Y-121828780D01*
X101625558Y-121732014D01*
X101861777Y-121599441D01*
X102076177Y-121433888D01*
X102264186Y-121238881D01*
X102421799Y-121018579D01*
X102545656Y-120777675D01*
X102560027Y-120735552D01*
X102602604Y-120610748D01*
X107142500Y-120610748D01*
X107154132Y-120669230D01*
X107154133Y-120669232D01*
X107198447Y-120735552D01*
X107264767Y-120779866D01*
X107264769Y-120779867D01*
X107323252Y-120791500D01*
X110862748Y-120791500D01*
X110921231Y-120779867D01*
X110987552Y-120735552D01*
X111031867Y-120669231D01*
X111043500Y-120610748D01*
X111043500Y-117071252D01*
X111031867Y-117012769D01*
X111031866Y-117012767D01*
X110987552Y-116946447D01*
X110921232Y-116902133D01*
X110921230Y-116902132D01*
X110862748Y-116890500D01*
X107323252Y-116890500D01*
X107264769Y-116902132D01*
X107264767Y-116902133D01*
X107198447Y-116946447D01*
X107154133Y-117012767D01*
X107154132Y-117012769D01*
X107142500Y-117071251D01*
X107142500Y-120610748D01*
X102602604Y-120610748D01*
X102633118Y-120521305D01*
X102682319Y-120254933D01*
X102692212Y-119984235D01*
X102662586Y-119714982D01*
X102594072Y-119452912D01*
X102488130Y-119203610D01*
X102347018Y-118972390D01*
X102257743Y-118865115D01*
X102173746Y-118764181D01*
X102173732Y-118764167D01*
X101972011Y-118583425D01*
X101972004Y-118583420D01*
X101972002Y-118583418D01*
X101852807Y-118504559D01*
X101746093Y-118433957D01*
X101746091Y-118433956D01*
X101604610Y-118367633D01*
X101500824Y-118318980D01*
X101500821Y-118318979D01*
X101500819Y-118318978D01*
X101241440Y-118240942D01*
X101241426Y-118240939D01*
X100973445Y-118201500D01*
X100973439Y-118201500D01*
X100770369Y-118201500D01*
X100770347Y-118201500D01*
X100567852Y-118216321D01*
X100303447Y-118275220D01*
X100303445Y-118275220D01*
X100050440Y-118371986D01*
X99814223Y-118504558D01*
X99599824Y-118670111D01*
X99599815Y-118670118D01*
X99411817Y-118865115D01*
X99411809Y-118865124D01*
X99254204Y-119085414D01*
X99130340Y-119326332D01*
X99042886Y-119582681D01*
X99042880Y-119582701D01*
X98993682Y-119849058D01*
X98993680Y-119849079D01*
X98983787Y-120119761D01*
X92605856Y-120119761D01*
X92605856Y-114808003D01*
X125405355Y-114808003D01*
X125425858Y-114976864D01*
X125425859Y-114976870D01*
X125486182Y-115135931D01*
X125582811Y-115275922D01*
X125582816Y-115275928D01*
X125582817Y-115275929D01*
X125710148Y-115388734D01*
X125860775Y-115467790D01*
X126025944Y-115508500D01*
X126025946Y-115508500D01*
X126196054Y-115508500D01*
X126196056Y-115508500D01*
X126361225Y-115467790D01*
X126511852Y-115388734D01*
X126639183Y-115275929D01*
X126735818Y-115135930D01*
X126796140Y-114976872D01*
X126797658Y-114964374D01*
X126816645Y-114808003D01*
X126816645Y-114807996D01*
X126796141Y-114639135D01*
X126796140Y-114639129D01*
X126786081Y-114612606D01*
X126735818Y-114480070D01*
X126735817Y-114480068D01*
X126639188Y-114340077D01*
X126639181Y-114340069D01*
X126511850Y-114227264D01*
X126508739Y-114225117D01*
X126509861Y-114223490D01*
X126483278Y-114191604D01*
X126487599Y-114143965D01*
X126509532Y-114122031D01*
X126508739Y-114120883D01*
X126511850Y-114118735D01*
X126511849Y-114118735D01*
X126511852Y-114118734D01*
X126639183Y-114005929D01*
X126735818Y-113865930D01*
X126796140Y-113706872D01*
X126816645Y-113538000D01*
X126796140Y-113369128D01*
X126735818Y-113210070D01*
X126735817Y-113210068D01*
X126639188Y-113070077D01*
X126639181Y-113070069D01*
X126511851Y-112957265D01*
X126361226Y-112878210D01*
X126196059Y-112837500D01*
X126196056Y-112837500D01*
X126025944Y-112837500D01*
X126025940Y-112837500D01*
X125860773Y-112878210D01*
X125710148Y-112957265D01*
X125582818Y-113070069D01*
X125582811Y-113070077D01*
X125486182Y-113210068D01*
X125425859Y-113369129D01*
X125425858Y-113369135D01*
X125405355Y-113537996D01*
X125405355Y-113538003D01*
X125425858Y-113706864D01*
X125425859Y-113706870D01*
X125486182Y-113865931D01*
X125582811Y-114005922D01*
X125582818Y-114005930D01*
X125710149Y-114118735D01*
X125713261Y-114120883D01*
X125712141Y-114122505D01*
X125738727Y-114154414D01*
X125734391Y-114202053D01*
X125712471Y-114223972D01*
X125713261Y-114225117D01*
X125710149Y-114227264D01*
X125582818Y-114340069D01*
X125582811Y-114340077D01*
X125486182Y-114480068D01*
X125425859Y-114639129D01*
X125425858Y-114639135D01*
X125405355Y-114807996D01*
X125405355Y-114808003D01*
X92605856Y-114808003D01*
X92605856Y-110980262D01*
X96632500Y-110980262D01*
X96635353Y-111010696D01*
X96635354Y-111010701D01*
X96680207Y-111138882D01*
X96680207Y-111138883D01*
X96720528Y-111193516D01*
X96760850Y-111248150D01*
X96870118Y-111328793D01*
X96998301Y-111373646D01*
X97028734Y-111376500D01*
X97028738Y-111376500D01*
X98337262Y-111376500D01*
X98337266Y-111376500D01*
X98367699Y-111373646D01*
X98495882Y-111328793D01*
X98605150Y-111248150D01*
X98685793Y-111138882D01*
X98730646Y-111010699D01*
X98733500Y-110980266D01*
X98733500Y-110377603D01*
X99132500Y-110377603D01*
X99147699Y-110531930D01*
X99147700Y-110531935D01*
X99207766Y-110729949D01*
X99207768Y-110729954D01*
X99305311Y-110912444D01*
X99305319Y-110912455D01*
X99360966Y-110980262D01*
X99436590Y-111072410D01*
X99596550Y-111203685D01*
X99596553Y-111203686D01*
X99596555Y-111203688D01*
X99671912Y-111243967D01*
X99779046Y-111301232D01*
X99977066Y-111361300D01*
X100183000Y-111381583D01*
X100388934Y-111361300D01*
X100586954Y-111301232D01*
X100769450Y-111203685D01*
X100865325Y-111125003D01*
X110292355Y-111125003D01*
X110312858Y-111293864D01*
X110312859Y-111293870D01*
X110373182Y-111452931D01*
X110469811Y-111592922D01*
X110469816Y-111592928D01*
X110469817Y-111592929D01*
X110597148Y-111705734D01*
X110747775Y-111784790D01*
X110912944Y-111825500D01*
X110912946Y-111825500D01*
X111083056Y-111825500D01*
X111120065Y-111816378D01*
X111167356Y-111823575D01*
X111195707Y-111862104D01*
X111197067Y-111884595D01*
X111181355Y-112013996D01*
X111181355Y-112014003D01*
X111201858Y-112182864D01*
X111201859Y-112182870D01*
X111262182Y-112341931D01*
X111358811Y-112481922D01*
X111358816Y-112481928D01*
X111358817Y-112481929D01*
X111486148Y-112594734D01*
X111636775Y-112673790D01*
X111801944Y-112714500D01*
X111801946Y-112714500D01*
X111972054Y-112714500D01*
X111972056Y-112714500D01*
X112137225Y-112673790D01*
X112287852Y-112594734D01*
X112415183Y-112481929D01*
X112511818Y-112341930D01*
X112572140Y-112182872D01*
X112592645Y-112014000D01*
X112572140Y-111845128D01*
X112511818Y-111686070D01*
X112447528Y-111592930D01*
X112415188Y-111546077D01*
X112415181Y-111546069D01*
X112287851Y-111433265D01*
X112137226Y-111354210D01*
X111972059Y-111313500D01*
X111972056Y-111313500D01*
X111801944Y-111313500D01*
X111801938Y-111313500D01*
X111764932Y-111322621D01*
X111717641Y-111315422D01*
X111689292Y-111276893D01*
X111687932Y-111254403D01*
X111688692Y-111248150D01*
X111701959Y-111138883D01*
X111703645Y-111125002D01*
X111703645Y-111124996D01*
X111683141Y-110956135D01*
X111683140Y-110956129D01*
X111622817Y-110797068D01*
X111526188Y-110657077D01*
X111526181Y-110657069D01*
X111398851Y-110544265D01*
X111248226Y-110465210D01*
X111083059Y-110424500D01*
X111083056Y-110424500D01*
X110912944Y-110424500D01*
X110912940Y-110424500D01*
X110747773Y-110465210D01*
X110597148Y-110544265D01*
X110469818Y-110657069D01*
X110469811Y-110657077D01*
X110373182Y-110797068D01*
X110312859Y-110956129D01*
X110312858Y-110956135D01*
X110292355Y-111124996D01*
X110292355Y-111125003D01*
X100865325Y-111125003D01*
X100929410Y-111072410D01*
X101060685Y-110912450D01*
X101158232Y-110729954D01*
X101218300Y-110531934D01*
X101233500Y-110377608D01*
X101233500Y-110124392D01*
X101218300Y-109970066D01*
X101158232Y-109772046D01*
X101060685Y-109589550D01*
X100929410Y-109429590D01*
X100769450Y-109298315D01*
X100769448Y-109298313D01*
X100769444Y-109298311D01*
X100586954Y-109200768D01*
X100586949Y-109200766D01*
X100388935Y-109140700D01*
X100388930Y-109140699D01*
X100183000Y-109120417D01*
X99977069Y-109140699D01*
X99977064Y-109140700D01*
X99779050Y-109200766D01*
X99779045Y-109200768D01*
X99596555Y-109298311D01*
X99596544Y-109298319D01*
X99436591Y-109429588D01*
X99436588Y-109429591D01*
X99305319Y-109589544D01*
X99305311Y-109589555D01*
X99207768Y-109772045D01*
X99207766Y-109772050D01*
X99147700Y-109970064D01*
X99147699Y-109970069D01*
X99132500Y-110124396D01*
X99132500Y-110377603D01*
X98733500Y-110377603D01*
X98733500Y-109521734D01*
X98730646Y-109491301D01*
X98685793Y-109363118D01*
X98605150Y-109253850D01*
X98495882Y-109173207D01*
X98367701Y-109128354D01*
X98367696Y-109128353D01*
X98347699Y-109126478D01*
X98337266Y-109125500D01*
X97028734Y-109125500D01*
X97019124Y-109126401D01*
X96998303Y-109128353D01*
X96998298Y-109128354D01*
X96870117Y-109173207D01*
X96870116Y-109173207D01*
X96760850Y-109253850D01*
X96680207Y-109363116D01*
X96680207Y-109363117D01*
X96635354Y-109491298D01*
X96635353Y-109491303D01*
X96632500Y-109521737D01*
X96632500Y-110980262D01*
X92605856Y-110980262D01*
X92605856Y-103809938D01*
X93768631Y-103809938D01*
X93799443Y-104011065D01*
X93799444Y-104011070D01*
X93870114Y-104201888D01*
X93977744Y-104374566D01*
X93977745Y-104374568D01*
X94117939Y-104522052D01*
X94204437Y-104582256D01*
X94284951Y-104638295D01*
X94471942Y-104718540D01*
X94671259Y-104759500D01*
X94671262Y-104759500D01*
X95523749Y-104759500D01*
X95629929Y-104748701D01*
X95675438Y-104744074D01*
X95869588Y-104683159D01*
X96047502Y-104584409D01*
X96201895Y-104451866D01*
X96326448Y-104290958D01*
X96416060Y-104108271D01*
X96467063Y-103911285D01*
X96472203Y-103809938D01*
X101388631Y-103809938D01*
X101419443Y-104011065D01*
X101419444Y-104011070D01*
X101490114Y-104201888D01*
X101597744Y-104374566D01*
X101597745Y-104374568D01*
X101737939Y-104522052D01*
X101824437Y-104582256D01*
X101904951Y-104638295D01*
X102091942Y-104718540D01*
X102291259Y-104759500D01*
X102291262Y-104759500D01*
X103143749Y-104759500D01*
X103249929Y-104748701D01*
X103295438Y-104744074D01*
X103489588Y-104683159D01*
X103667502Y-104584409D01*
X103821895Y-104451866D01*
X103946448Y-104290958D01*
X104036060Y-104108271D01*
X104087063Y-103911285D01*
X104097369Y-103708064D01*
X104066556Y-103506929D01*
X103995886Y-103316113D01*
X103940365Y-103227037D01*
X103888255Y-103143433D01*
X103888254Y-103143431D01*
X103748060Y-102995947D01*
X103581049Y-102879705D01*
X103394057Y-102799459D01*
X103194743Y-102758500D01*
X103194741Y-102758500D01*
X102342258Y-102758500D01*
X102342251Y-102758500D01*
X102190564Y-102773925D01*
X102190563Y-102773925D01*
X101996411Y-102834841D01*
X101915582Y-102879705D01*
X101818498Y-102933591D01*
X101818496Y-102933592D01*
X101818491Y-102933596D01*
X101664109Y-103066129D01*
X101664105Y-103066134D01*
X101539555Y-103227037D01*
X101539553Y-103227040D01*
X101449941Y-103409726D01*
X101398937Y-103606715D01*
X101388631Y-103809938D01*
X96472203Y-103809938D01*
X96477369Y-103708064D01*
X96446556Y-103506929D01*
X96375886Y-103316113D01*
X96320365Y-103227037D01*
X96268255Y-103143433D01*
X96268254Y-103143431D01*
X96128060Y-102995947D01*
X95961049Y-102879705D01*
X95774057Y-102799459D01*
X95574743Y-102758500D01*
X95574741Y-102758500D01*
X94722258Y-102758500D01*
X94722251Y-102758500D01*
X94570564Y-102773925D01*
X94570563Y-102773925D01*
X94376411Y-102834841D01*
X94295582Y-102879705D01*
X94198498Y-102933591D01*
X94198496Y-102933592D01*
X94198491Y-102933596D01*
X94044109Y-103066129D01*
X94044105Y-103066134D01*
X93919555Y-103227037D01*
X93919553Y-103227040D01*
X93829941Y-103409726D01*
X93778937Y-103606715D01*
X93768631Y-103809938D01*
X92605856Y-103809938D01*
X92605856Y-101269938D01*
X93768631Y-101269938D01*
X93799443Y-101471065D01*
X93799444Y-101471070D01*
X93870114Y-101661888D01*
X93977744Y-101834566D01*
X93977745Y-101834568D01*
X94117939Y-101982052D01*
X94207522Y-102044403D01*
X94284951Y-102098295D01*
X94471942Y-102178540D01*
X94671259Y-102219500D01*
X94671262Y-102219500D01*
X95523749Y-102219500D01*
X95629929Y-102208701D01*
X95675438Y-102204074D01*
X95869588Y-102143159D01*
X96047502Y-102044409D01*
X96201895Y-101911866D01*
X96326448Y-101750958D01*
X96416060Y-101568271D01*
X96467063Y-101371285D01*
X96477369Y-101168064D01*
X96446556Y-100966929D01*
X96375886Y-100776113D01*
X96320365Y-100687037D01*
X96268255Y-100603433D01*
X96268254Y-100603431D01*
X96128060Y-100455947D01*
X95961049Y-100339705D01*
X95774057Y-100259459D01*
X95574743Y-100218500D01*
X95574741Y-100218500D01*
X94722258Y-100218500D01*
X94722251Y-100218500D01*
X94570564Y-100233925D01*
X94570563Y-100233925D01*
X94376411Y-100294841D01*
X94295582Y-100339705D01*
X94198498Y-100393591D01*
X94198496Y-100393592D01*
X94198491Y-100393596D01*
X94044109Y-100526129D01*
X94044105Y-100526134D01*
X93919555Y-100687037D01*
X93919553Y-100687040D01*
X93829941Y-100869726D01*
X93778937Y-101066715D01*
X93768631Y-101269938D01*
X92605856Y-101269938D01*
X92605856Y-99198748D01*
X110043500Y-99198748D01*
X110055132Y-99257230D01*
X110055133Y-99257232D01*
X110099447Y-99323552D01*
X110165767Y-99367866D01*
X110165769Y-99367867D01*
X110224252Y-99379500D01*
X111263748Y-99379500D01*
X111322231Y-99367867D01*
X111388552Y-99323552D01*
X111432867Y-99257231D01*
X111444500Y-99198748D01*
X111444500Y-98159252D01*
X111432867Y-98100769D01*
X111432866Y-98100767D01*
X111388552Y-98034447D01*
X111322232Y-97990133D01*
X111322230Y-97990132D01*
X111263748Y-97978500D01*
X110224252Y-97978500D01*
X110165769Y-97990132D01*
X110165767Y-97990133D01*
X110099447Y-98034447D01*
X110055133Y-98100767D01*
X110055132Y-98100769D01*
X110043500Y-98159251D01*
X110043500Y-99198748D01*
X92605856Y-99198748D01*
X92605856Y-91109938D01*
X93768631Y-91109938D01*
X93799443Y-91311065D01*
X93799444Y-91311070D01*
X93870114Y-91501888D01*
X93977744Y-91674566D01*
X93977745Y-91674568D01*
X94117939Y-91822052D01*
X94207522Y-91884403D01*
X94284951Y-91938295D01*
X94471942Y-92018540D01*
X94671259Y-92059500D01*
X94671262Y-92059500D01*
X95523749Y-92059500D01*
X95629929Y-92048701D01*
X95675438Y-92044074D01*
X95869588Y-91983159D01*
X96047502Y-91884409D01*
X96201895Y-91751866D01*
X96326448Y-91590958D01*
X96416060Y-91408271D01*
X96467063Y-91211285D01*
X96472203Y-91109938D01*
X101388631Y-91109938D01*
X101419443Y-91311065D01*
X101419444Y-91311070D01*
X101490114Y-91501888D01*
X101597744Y-91674566D01*
X101597745Y-91674568D01*
X101737939Y-91822052D01*
X101827522Y-91884403D01*
X101904951Y-91938295D01*
X102091942Y-92018540D01*
X102291259Y-92059500D01*
X102291262Y-92059500D01*
X103143749Y-92059500D01*
X103249929Y-92048701D01*
X103295438Y-92044074D01*
X103489588Y-91983159D01*
X103667502Y-91884409D01*
X103821895Y-91751866D01*
X103946448Y-91590958D01*
X104036060Y-91408271D01*
X104087063Y-91211285D01*
X104097369Y-91008064D01*
X104066556Y-90806929D01*
X103995886Y-90616113D01*
X103940365Y-90527037D01*
X103888255Y-90443433D01*
X103888254Y-90443431D01*
X103748060Y-90295947D01*
X103581049Y-90179705D01*
X103394057Y-90099459D01*
X103194743Y-90058500D01*
X103194741Y-90058500D01*
X102342258Y-90058500D01*
X102342251Y-90058500D01*
X102190564Y-90073925D01*
X102190563Y-90073925D01*
X101996411Y-90134841D01*
X101915582Y-90179705D01*
X101818498Y-90233591D01*
X101818496Y-90233592D01*
X101818491Y-90233596D01*
X101664109Y-90366129D01*
X101664105Y-90366134D01*
X101539555Y-90527037D01*
X101539553Y-90527040D01*
X101449941Y-90709726D01*
X101398937Y-90906715D01*
X101388631Y-91109938D01*
X96472203Y-91109938D01*
X96477369Y-91008064D01*
X96446556Y-90806929D01*
X96375886Y-90616113D01*
X96320365Y-90527037D01*
X96268255Y-90443433D01*
X96268254Y-90443431D01*
X96128060Y-90295947D01*
X95961049Y-90179705D01*
X95774057Y-90099459D01*
X95574743Y-90058500D01*
X95574741Y-90058500D01*
X94722258Y-90058500D01*
X94722251Y-90058500D01*
X94570564Y-90073925D01*
X94570563Y-90073925D01*
X94376411Y-90134841D01*
X94295582Y-90179705D01*
X94198498Y-90233591D01*
X94198496Y-90233592D01*
X94198491Y-90233596D01*
X94044109Y-90366129D01*
X94044105Y-90366134D01*
X93919555Y-90527037D01*
X93919553Y-90527040D01*
X93829941Y-90709726D01*
X93778937Y-90906715D01*
X93768631Y-91109938D01*
X92605856Y-91109938D01*
X92605856Y-81093761D01*
X98932787Y-81093761D01*
X98947661Y-81228941D01*
X98962414Y-81363018D01*
X99030928Y-81625088D01*
X99136870Y-81874390D01*
X99209000Y-81992579D01*
X99277983Y-82105612D01*
X99451253Y-82313818D01*
X99451267Y-82313832D01*
X99652988Y-82494574D01*
X99652993Y-82494578D01*
X99652998Y-82494582D01*
X99653003Y-82494585D01*
X99878906Y-82644042D01*
X99878908Y-82644043D01*
X99878910Y-82644044D01*
X100124176Y-82759020D01*
X100383569Y-82837060D01*
X100651561Y-82876500D01*
X100651562Y-82876500D01*
X100854628Y-82876500D01*
X100854631Y-82876500D01*
X100854634Y-82876499D01*
X100854652Y-82876499D01*
X101057147Y-82861678D01*
X101057149Y-82861677D01*
X101057156Y-82861677D01*
X101321553Y-82802780D01*
X101574558Y-82706014D01*
X101810777Y-82573441D01*
X102025177Y-82407888D01*
X102213186Y-82212881D01*
X102370799Y-81992579D01*
X102494656Y-81751675D01*
X102582118Y-81495305D01*
X102631319Y-81228933D01*
X102641212Y-80958235D01*
X102611586Y-80688982D01*
X102543072Y-80426912D01*
X102437130Y-80177610D01*
X102296018Y-79946390D01*
X102206743Y-79839115D01*
X102122746Y-79738181D01*
X102122732Y-79738167D01*
X101921011Y-79557425D01*
X101921004Y-79557420D01*
X101921002Y-79557418D01*
X101801807Y-79478559D01*
X101695093Y-79407957D01*
X101695091Y-79407956D01*
X101553610Y-79341633D01*
X101449824Y-79292980D01*
X101449821Y-79292979D01*
X101449819Y-79292978D01*
X101190440Y-79214942D01*
X101190426Y-79214939D01*
X100922445Y-79175500D01*
X100922439Y-79175500D01*
X100719369Y-79175500D01*
X100719347Y-79175500D01*
X100516852Y-79190321D01*
X100252447Y-79249220D01*
X100252445Y-79249220D01*
X99999440Y-79345986D01*
X99763223Y-79478558D01*
X99548824Y-79644111D01*
X99548815Y-79644118D01*
X99360817Y-79839115D01*
X99360809Y-79839124D01*
X99203204Y-80059414D01*
X99079340Y-80300332D01*
X98991886Y-80556681D01*
X98991880Y-80556701D01*
X98942682Y-80823058D01*
X98942680Y-80823079D01*
X98932787Y-81093761D01*
X92605856Y-81093761D01*
X92605856Y-80646630D01*
X92605942Y-80643359D01*
X92606122Y-80639928D01*
X92622256Y-80332060D01*
X92622939Y-80325558D01*
X92671454Y-80019247D01*
X92672808Y-80012881D01*
X92753071Y-79713332D01*
X92755082Y-79707141D01*
X92866222Y-79417613D01*
X92868881Y-79411642D01*
X92870759Y-79407956D01*
X93009669Y-79135330D01*
X93012919Y-79129699D01*
X93181824Y-78869609D01*
X93185665Y-78864323D01*
X93313498Y-78706463D01*
X93380832Y-78623312D01*
X93385191Y-78618472D01*
X93604472Y-78399191D01*
X93609312Y-78394832D01*
X93850328Y-78199660D01*
X93855609Y-78195824D01*
X94115699Y-78026919D01*
X94121330Y-78023669D01*
X94397647Y-77882878D01*
X94403613Y-77880222D01*
X94693141Y-77769082D01*
X94699332Y-77767071D01*
X94998881Y-77686808D01*
X95005247Y-77685454D01*
X95311563Y-77636938D01*
X95318060Y-77636256D01*
X95629359Y-77619941D01*
X95632630Y-77619856D01*
X132547821Y-77619856D01*
X132565963Y-77622547D01*
G37*
%TD.AperFunction*%
%TD*%
%TA.AperFunction,Conductor*%
%TO.N,/Communication/5V_Comm_GND*%
G36*
X180105056Y-88265301D02*
G01*
X180290966Y-88283611D01*
X180302975Y-88286000D01*
X180478799Y-88339335D01*
X180490109Y-88344020D01*
X180652139Y-88430627D01*
X180662327Y-88437434D01*
X180804348Y-88553988D01*
X180813011Y-88562651D01*
X180929565Y-88704672D01*
X180936372Y-88714860D01*
X181022977Y-88876886D01*
X181027666Y-88888205D01*
X181080998Y-89064020D01*
X181083388Y-89076037D01*
X181101699Y-89261943D01*
X181102000Y-89268069D01*
X181102000Y-110326716D01*
X181101699Y-110332842D01*
X181083388Y-110518749D01*
X181080998Y-110530766D01*
X181027666Y-110706581D01*
X181022977Y-110717900D01*
X180936372Y-110879926D01*
X180929565Y-110890114D01*
X180811052Y-111034522D01*
X180806933Y-111039066D01*
X176568894Y-115277105D01*
X176568888Y-115277112D01*
X176276000Y-115570000D01*
X176276000Y-115984214D01*
X176276000Y-115984218D01*
X176276000Y-122265214D01*
X176257694Y-122309408D01*
X176213500Y-122327714D01*
X176169306Y-122309408D01*
X176157447Y-122292860D01*
X176044778Y-122064389D01*
X175884520Y-121824546D01*
X175694327Y-121607673D01*
X175477454Y-121417480D01*
X175318286Y-121311127D01*
X175237613Y-121257223D01*
X175098177Y-121188461D01*
X174978902Y-121129641D01*
X174920903Y-121109953D01*
X174705754Y-121036919D01*
X174422847Y-120980645D01*
X174422830Y-120980643D01*
X174135002Y-120961778D01*
X174134998Y-120961778D01*
X173847169Y-120980643D01*
X173847152Y-120980645D01*
X173564245Y-121036919D01*
X173291100Y-121129640D01*
X173032386Y-121257223D01*
X172792543Y-121417482D01*
X172575673Y-121607673D01*
X172385482Y-121824543D01*
X172225223Y-122064386D01*
X172097640Y-122323100D01*
X172004919Y-122596245D01*
X171948645Y-122879152D01*
X171948643Y-122879169D01*
X171929778Y-123166997D01*
X171929778Y-123167002D01*
X171948643Y-123454830D01*
X171948645Y-123454847D01*
X172004919Y-123737754D01*
X172051887Y-123876117D01*
X172097641Y-124010902D01*
X172225222Y-124269611D01*
X172385480Y-124509454D01*
X172575673Y-124726327D01*
X172792546Y-124916520D01*
X173032389Y-125076778D01*
X173291098Y-125204359D01*
X173564247Y-125297081D01*
X173847161Y-125353356D01*
X174077432Y-125368448D01*
X174134998Y-125372222D01*
X174135000Y-125372222D01*
X174135002Y-125372222D01*
X174187334Y-125368791D01*
X174422839Y-125353356D01*
X174705753Y-125297081D01*
X174978902Y-125204359D01*
X175237611Y-125076778D01*
X175477454Y-124916520D01*
X175694327Y-124726327D01*
X175884520Y-124509454D01*
X176044778Y-124269611D01*
X176157447Y-124041139D01*
X176193410Y-124009602D01*
X176241143Y-124012730D01*
X176272683Y-124048695D01*
X176276000Y-124068785D01*
X176276000Y-129552930D01*
X176275699Y-129559056D01*
X176257388Y-129744962D01*
X176254998Y-129756979D01*
X176201666Y-129932794D01*
X176196977Y-129944113D01*
X176110372Y-130106139D01*
X176103565Y-130116327D01*
X175987011Y-130258348D01*
X175978348Y-130267011D01*
X175836327Y-130383565D01*
X175826139Y-130390372D01*
X175664113Y-130476977D01*
X175652794Y-130481666D01*
X175500680Y-130527809D01*
X175482537Y-130530500D01*
X133381463Y-130530500D01*
X133363320Y-130527809D01*
X133211205Y-130481666D01*
X133199886Y-130476977D01*
X133037860Y-130390372D01*
X133027672Y-130383565D01*
X132885651Y-130267011D01*
X132876988Y-130258348D01*
X132760434Y-130116327D01*
X132753627Y-130106139D01*
X132667022Y-129944113D01*
X132662335Y-129932799D01*
X132609000Y-129756975D01*
X132606611Y-129744962D01*
X132588301Y-129559056D01*
X132588000Y-129552930D01*
X132588000Y-124453676D01*
X139367737Y-124453676D01*
X139373875Y-124509456D01*
X139397764Y-124726571D01*
X139467204Y-124992182D01*
X139574577Y-125244852D01*
X139683244Y-125422909D01*
X139717596Y-125479198D01*
X139811755Y-125592341D01*
X139893209Y-125690218D01*
X139893213Y-125690222D01*
X139893221Y-125690230D01*
X140097678Y-125873424D01*
X140121205Y-125888989D01*
X140326641Y-126024904D01*
X140575221Y-126141433D01*
X140838119Y-126220527D01*
X141109731Y-126260500D01*
X141109732Y-126260500D01*
X141315544Y-126260500D01*
X141315547Y-126260500D01*
X141315550Y-126260499D01*
X141315568Y-126260499D01*
X141520796Y-126245478D01*
X141520798Y-126245477D01*
X141520805Y-126245477D01*
X141788775Y-126185784D01*
X142045198Y-126087711D01*
X142114838Y-126048626D01*
X142162337Y-126042961D01*
X142199930Y-126072541D01*
X142205596Y-126120040D01*
X142187939Y-126148943D01*
X142083901Y-126245477D01*
X142051948Y-126275125D01*
X142051943Y-126275130D01*
X141893047Y-126474378D01*
X141765608Y-126695109D01*
X141672489Y-126932369D01*
X141615778Y-127180841D01*
X141615778Y-127180843D01*
X141596732Y-127434996D01*
X141596732Y-127435003D01*
X141615778Y-127689156D01*
X141615778Y-127689158D01*
X141672489Y-127937630D01*
X141672492Y-127937637D01*
X141765607Y-128174888D01*
X141893041Y-128395612D01*
X141893043Y-128395615D01*
X141893047Y-128395621D01*
X142051943Y-128594869D01*
X142051946Y-128594872D01*
X142051950Y-128594877D01*
X142238783Y-128768232D01*
X142238788Y-128768235D01*
X142238791Y-128768238D01*
X142371802Y-128858922D01*
X142449366Y-128911805D01*
X142678996Y-129022389D01*
X142800769Y-129059951D01*
X142922534Y-129097511D01*
X142922537Y-129097511D01*
X142922542Y-129097513D01*
X143174565Y-129135500D01*
X143174571Y-129135500D01*
X143429429Y-129135500D01*
X143429435Y-129135500D01*
X143681458Y-129097513D01*
X143681463Y-129097511D01*
X143681466Y-129097511D01*
X143773033Y-129069265D01*
X143925004Y-129022389D01*
X144154634Y-128911805D01*
X144365217Y-128768232D01*
X144552050Y-128594877D01*
X144710959Y-128395612D01*
X144838393Y-128174888D01*
X144931508Y-127937637D01*
X144988222Y-127689157D01*
X145007268Y-127435000D01*
X144988222Y-127180843D01*
X144961967Y-127065813D01*
X144931510Y-126932369D01*
X144931508Y-126932363D01*
X144838393Y-126695112D01*
X144710959Y-126474388D01*
X144710954Y-126474382D01*
X144710952Y-126474378D01*
X144552056Y-126275130D01*
X144552053Y-126275127D01*
X144552050Y-126275123D01*
X144365217Y-126101768D01*
X144365211Y-126101764D01*
X144365208Y-126101761D01*
X144154634Y-125958195D01*
X143944500Y-125857000D01*
X143925004Y-125847611D01*
X143925001Y-125847610D01*
X143924999Y-125847609D01*
X143924995Y-125847608D01*
X143681465Y-125772488D01*
X143681466Y-125772488D01*
X143535976Y-125750558D01*
X143429435Y-125734500D01*
X143174565Y-125734500D01*
X142922533Y-125772488D01*
X142679004Y-125847608D01*
X142678994Y-125847611D01*
X142532450Y-125918183D01*
X142484690Y-125920865D01*
X142449022Y-125888989D01*
X142446340Y-125841229D01*
X142467132Y-125812407D01*
X142501904Y-125785557D01*
X142692454Y-125587916D01*
X142852196Y-125364637D01*
X142977727Y-125120479D01*
X142992637Y-125076776D01*
X143047309Y-124916517D01*
X143066370Y-124860646D01*
X143116236Y-124590674D01*
X143126262Y-124316320D01*
X143096236Y-124043429D01*
X143026796Y-123777818D01*
X142919423Y-123525148D01*
X142776405Y-123290804D01*
X142673376Y-123167002D01*
X146929778Y-123167002D01*
X146948643Y-123454830D01*
X146948645Y-123454847D01*
X147004919Y-123737754D01*
X147051887Y-123876117D01*
X147097641Y-124010902D01*
X147225222Y-124269611D01*
X147385480Y-124509454D01*
X147575673Y-124726327D01*
X147792546Y-124916520D01*
X148032389Y-125076778D01*
X148291098Y-125204359D01*
X148564247Y-125297081D01*
X148847161Y-125353356D01*
X149077432Y-125368448D01*
X149134998Y-125372222D01*
X149135000Y-125372222D01*
X149135002Y-125372222D01*
X149187334Y-125368791D01*
X149422839Y-125353356D01*
X149705753Y-125297081D01*
X149978902Y-125204359D01*
X150237611Y-125076778D01*
X150477454Y-124916520D01*
X150694327Y-124726327D01*
X150816514Y-124587000D01*
X156474659Y-124587000D01*
X156493975Y-124783130D01*
X156493976Y-124783132D01*
X156551186Y-124971727D01*
X156585550Y-125036018D01*
X156644086Y-125145532D01*
X156644090Y-125145538D01*
X156769117Y-125297883D01*
X156921462Y-125422910D01*
X156921464Y-125422911D01*
X156921467Y-125422913D01*
X156966690Y-125447085D01*
X157095273Y-125515814D01*
X157283868Y-125573024D01*
X157480000Y-125592341D01*
X157676132Y-125573024D01*
X157864727Y-125515814D01*
X158038538Y-125422910D01*
X158190883Y-125297883D01*
X158315910Y-125145538D01*
X158408814Y-124971727D01*
X158466024Y-124783132D01*
X158485341Y-124587000D01*
X159244659Y-124587000D01*
X159263975Y-124783130D01*
X159263976Y-124783132D01*
X159321186Y-124971727D01*
X159355550Y-125036018D01*
X159414086Y-125145532D01*
X159414090Y-125145538D01*
X159539117Y-125297883D01*
X159691462Y-125422910D01*
X159691464Y-125422911D01*
X159691467Y-125422913D01*
X159736690Y-125447085D01*
X159865273Y-125515814D01*
X160053868Y-125573024D01*
X160250000Y-125592341D01*
X160446132Y-125573024D01*
X160634727Y-125515814D01*
X160808538Y-125422910D01*
X160960883Y-125297883D01*
X161085910Y-125145538D01*
X161178814Y-124971727D01*
X161236024Y-124783132D01*
X161255341Y-124587000D01*
X162014659Y-124587000D01*
X162033975Y-124783130D01*
X162033976Y-124783132D01*
X162091186Y-124971727D01*
X162125550Y-125036018D01*
X162184086Y-125145532D01*
X162184090Y-125145538D01*
X162309117Y-125297883D01*
X162461462Y-125422910D01*
X162461464Y-125422911D01*
X162461467Y-125422913D01*
X162506690Y-125447085D01*
X162635273Y-125515814D01*
X162823868Y-125573024D01*
X163020000Y-125592341D01*
X163216132Y-125573024D01*
X163404727Y-125515814D01*
X163578538Y-125422910D01*
X163730883Y-125297883D01*
X163855910Y-125145538D01*
X163948814Y-124971727D01*
X164006024Y-124783132D01*
X164025341Y-124587000D01*
X164784659Y-124587000D01*
X164803975Y-124783130D01*
X164803976Y-124783132D01*
X164861186Y-124971727D01*
X164895550Y-125036018D01*
X164954086Y-125145532D01*
X164954090Y-125145538D01*
X165079117Y-125297883D01*
X165231462Y-125422910D01*
X165231464Y-125422911D01*
X165231467Y-125422913D01*
X165276690Y-125447085D01*
X165405273Y-125515814D01*
X165593868Y-125573024D01*
X165790000Y-125592341D01*
X165986132Y-125573024D01*
X166174727Y-125515814D01*
X166348538Y-125422910D01*
X166500883Y-125297883D01*
X166625910Y-125145538D01*
X166718814Y-124971727D01*
X166776024Y-124783132D01*
X166795341Y-124587000D01*
X166776024Y-124390868D01*
X166718814Y-124202273D01*
X166625910Y-124028462D01*
X166500883Y-123876117D01*
X166348538Y-123751090D01*
X166348532Y-123751086D01*
X166239018Y-123692550D01*
X166174727Y-123658186D01*
X166054184Y-123621619D01*
X165986130Y-123600975D01*
X165790000Y-123581659D01*
X165593869Y-123600975D01*
X165473325Y-123637542D01*
X165405273Y-123658186D01*
X165405271Y-123658186D01*
X165405271Y-123658187D01*
X165231467Y-123751086D01*
X165231461Y-123751090D01*
X165079117Y-123876117D01*
X164954090Y-124028461D01*
X164954086Y-124028467D01*
X164861187Y-124202271D01*
X164803975Y-124390869D01*
X164784659Y-124586999D01*
X164784659Y-124587000D01*
X164025341Y-124587000D01*
X164006024Y-124390868D01*
X163948814Y-124202273D01*
X163855910Y-124028462D01*
X163730883Y-123876117D01*
X163578538Y-123751090D01*
X163578532Y-123751086D01*
X163469018Y-123692550D01*
X163404727Y-123658186D01*
X163284184Y-123621619D01*
X163216130Y-123600975D01*
X163020000Y-123581659D01*
X162823869Y-123600975D01*
X162703325Y-123637542D01*
X162635273Y-123658186D01*
X162635271Y-123658186D01*
X162635271Y-123658187D01*
X162461467Y-123751086D01*
X162461461Y-123751090D01*
X162309117Y-123876117D01*
X162184090Y-124028461D01*
X162184086Y-124028467D01*
X162091187Y-124202271D01*
X162033975Y-124390869D01*
X162014659Y-124586999D01*
X162014659Y-124587000D01*
X161255341Y-124587000D01*
X161236024Y-124390868D01*
X161178814Y-124202273D01*
X161085910Y-124028462D01*
X160960883Y-123876117D01*
X160808538Y-123751090D01*
X160808532Y-123751086D01*
X160699018Y-123692550D01*
X160634727Y-123658186D01*
X160514184Y-123621619D01*
X160446130Y-123600975D01*
X160250000Y-123581659D01*
X160053869Y-123600975D01*
X159933325Y-123637542D01*
X159865273Y-123658186D01*
X159865271Y-123658186D01*
X159865271Y-123658187D01*
X159691467Y-123751086D01*
X159691461Y-123751090D01*
X159539117Y-123876117D01*
X159414090Y-124028461D01*
X159414086Y-124028467D01*
X159321187Y-124202271D01*
X159263975Y-124390869D01*
X159244659Y-124586999D01*
X159244659Y-124587000D01*
X158485341Y-124587000D01*
X158466024Y-124390868D01*
X158408814Y-124202273D01*
X158315910Y-124028462D01*
X158190883Y-123876117D01*
X158038538Y-123751090D01*
X158038532Y-123751086D01*
X157929018Y-123692550D01*
X157864727Y-123658186D01*
X157744184Y-123621619D01*
X157676130Y-123600975D01*
X157480000Y-123581659D01*
X157283869Y-123600975D01*
X157163325Y-123637542D01*
X157095273Y-123658186D01*
X157095271Y-123658186D01*
X157095271Y-123658187D01*
X156921467Y-123751086D01*
X156921461Y-123751090D01*
X156769117Y-123876117D01*
X156644090Y-124028461D01*
X156644086Y-124028467D01*
X156551187Y-124202271D01*
X156493975Y-124390869D01*
X156474659Y-124586999D01*
X156474659Y-124587000D01*
X150816514Y-124587000D01*
X150884520Y-124509454D01*
X151044778Y-124269611D01*
X151172359Y-124010902D01*
X151265081Y-123737753D01*
X151321356Y-123454839D01*
X151340222Y-123167000D01*
X151321356Y-122879161D01*
X151265081Y-122596247D01*
X151255067Y-122566748D01*
X155094500Y-122566748D01*
X155106132Y-122625230D01*
X155106133Y-122625232D01*
X155150447Y-122691552D01*
X155216767Y-122735866D01*
X155216769Y-122735867D01*
X155275252Y-122747500D01*
X156914748Y-122747500D01*
X156973231Y-122735867D01*
X157039552Y-122691552D01*
X157083867Y-122625231D01*
X157095500Y-122566748D01*
X157095500Y-121747000D01*
X157859659Y-121747000D01*
X157878975Y-121943130D01*
X157878976Y-121943132D01*
X157936186Y-122131727D01*
X157936187Y-122131728D01*
X158029086Y-122305532D01*
X158029090Y-122305538D01*
X158154117Y-122457883D01*
X158306462Y-122582910D01*
X158306464Y-122582911D01*
X158306467Y-122582913D01*
X158351690Y-122607085D01*
X158480273Y-122675814D01*
X158668868Y-122733024D01*
X158865000Y-122752341D01*
X159061132Y-122733024D01*
X159249727Y-122675814D01*
X159423538Y-122582910D01*
X159575883Y-122457883D01*
X159700910Y-122305538D01*
X159793814Y-122131727D01*
X159851024Y-121943132D01*
X159870341Y-121747000D01*
X160629659Y-121747000D01*
X160648975Y-121943130D01*
X160648976Y-121943132D01*
X160706186Y-122131727D01*
X160706187Y-122131728D01*
X160799086Y-122305532D01*
X160799090Y-122305538D01*
X160924117Y-122457883D01*
X161076462Y-122582910D01*
X161076464Y-122582911D01*
X161076467Y-122582913D01*
X161121690Y-122607085D01*
X161250273Y-122675814D01*
X161438868Y-122733024D01*
X161635000Y-122752341D01*
X161831132Y-122733024D01*
X162019727Y-122675814D01*
X162193538Y-122582910D01*
X162345883Y-122457883D01*
X162470910Y-122305538D01*
X162563814Y-122131727D01*
X162621024Y-121943132D01*
X162640341Y-121747000D01*
X163399659Y-121747000D01*
X163418975Y-121943130D01*
X163418976Y-121943132D01*
X163476186Y-122131727D01*
X163476187Y-122131728D01*
X163569086Y-122305532D01*
X163569090Y-122305538D01*
X163694117Y-122457883D01*
X163846462Y-122582910D01*
X163846464Y-122582911D01*
X163846467Y-122582913D01*
X163891690Y-122607085D01*
X164020273Y-122675814D01*
X164208868Y-122733024D01*
X164405000Y-122752341D01*
X164601132Y-122733024D01*
X164789727Y-122675814D01*
X164963538Y-122582910D01*
X165115883Y-122457883D01*
X165240910Y-122305538D01*
X165333814Y-122131727D01*
X165391024Y-121943132D01*
X165410341Y-121747000D01*
X165391024Y-121550868D01*
X165333814Y-121362273D01*
X165240910Y-121188462D01*
X165115883Y-121036117D01*
X164963538Y-120911090D01*
X164963532Y-120911086D01*
X164854018Y-120852550D01*
X164789727Y-120818186D01*
X164669184Y-120781619D01*
X164601130Y-120760975D01*
X164405000Y-120741659D01*
X164208869Y-120760975D01*
X164088325Y-120797542D01*
X164020273Y-120818186D01*
X164020271Y-120818186D01*
X164020271Y-120818187D01*
X163846467Y-120911086D01*
X163846461Y-120911090D01*
X163694117Y-121036117D01*
X163569090Y-121188461D01*
X163569086Y-121188467D01*
X163532336Y-121257223D01*
X163476186Y-121362273D01*
X163455542Y-121430325D01*
X163418975Y-121550869D01*
X163399659Y-121746999D01*
X163399659Y-121747000D01*
X162640341Y-121747000D01*
X162621024Y-121550868D01*
X162563814Y-121362273D01*
X162470910Y-121188462D01*
X162345883Y-121036117D01*
X162193538Y-120911090D01*
X162193532Y-120911086D01*
X162084018Y-120852550D01*
X162019727Y-120818186D01*
X161899184Y-120781619D01*
X161831130Y-120760975D01*
X161635000Y-120741659D01*
X161438869Y-120760975D01*
X161318325Y-120797542D01*
X161250273Y-120818186D01*
X161250271Y-120818186D01*
X161250271Y-120818187D01*
X161076467Y-120911086D01*
X161076461Y-120911090D01*
X160924117Y-121036117D01*
X160799090Y-121188461D01*
X160799086Y-121188467D01*
X160762336Y-121257223D01*
X160706186Y-121362273D01*
X160685542Y-121430325D01*
X160648975Y-121550869D01*
X160629659Y-121746999D01*
X160629659Y-121747000D01*
X159870341Y-121747000D01*
X159851024Y-121550868D01*
X159793814Y-121362273D01*
X159700910Y-121188462D01*
X159575883Y-121036117D01*
X159423538Y-120911090D01*
X159423532Y-120911086D01*
X159314018Y-120852550D01*
X159249727Y-120818186D01*
X159129184Y-120781619D01*
X159061130Y-120760975D01*
X158865000Y-120741659D01*
X158668869Y-120760975D01*
X158548325Y-120797542D01*
X158480273Y-120818186D01*
X158480271Y-120818186D01*
X158480271Y-120818187D01*
X158306467Y-120911086D01*
X158306461Y-120911090D01*
X158154117Y-121036117D01*
X158029090Y-121188461D01*
X158029086Y-121188467D01*
X157992336Y-121257223D01*
X157936186Y-121362273D01*
X157915542Y-121430325D01*
X157878975Y-121550869D01*
X157859659Y-121746999D01*
X157859659Y-121747000D01*
X157095500Y-121747000D01*
X157095500Y-120927252D01*
X157083867Y-120868769D01*
X157050069Y-120818187D01*
X157039552Y-120802447D01*
X156973232Y-120758133D01*
X156973230Y-120758132D01*
X156914748Y-120746500D01*
X155275252Y-120746500D01*
X155216769Y-120758132D01*
X155216767Y-120758133D01*
X155150447Y-120802447D01*
X155106133Y-120868767D01*
X155106132Y-120868769D01*
X155094500Y-120927251D01*
X155094500Y-122566748D01*
X151255067Y-122566748D01*
X151172359Y-122323098D01*
X151044778Y-122064389D01*
X150884520Y-121824546D01*
X150694327Y-121607673D01*
X150477454Y-121417480D01*
X150318286Y-121311127D01*
X150237613Y-121257223D01*
X150098177Y-121188461D01*
X149978902Y-121129641D01*
X149920903Y-121109953D01*
X149705754Y-121036919D01*
X149422847Y-120980645D01*
X149422830Y-120980643D01*
X149135002Y-120961778D01*
X149134998Y-120961778D01*
X148847169Y-120980643D01*
X148847152Y-120980645D01*
X148564245Y-121036919D01*
X148291100Y-121129640D01*
X148032386Y-121257223D01*
X147792543Y-121417482D01*
X147575673Y-121607673D01*
X147385482Y-121824543D01*
X147225223Y-122064386D01*
X147097640Y-122323100D01*
X147004919Y-122596245D01*
X146948645Y-122879152D01*
X146948643Y-122879169D01*
X146929778Y-123166997D01*
X146929778Y-123167002D01*
X142673376Y-123167002D01*
X142600791Y-123079782D01*
X142600785Y-123079777D01*
X142600778Y-123079769D01*
X142396321Y-122896575D01*
X142241355Y-122794051D01*
X142167359Y-122745096D01*
X141918779Y-122628567D01*
X141918776Y-122628566D01*
X141918777Y-122628566D01*
X141655890Y-122549475D01*
X141655876Y-122549472D01*
X141384275Y-122509500D01*
X141384269Y-122509500D01*
X141178453Y-122509500D01*
X141178431Y-122509500D01*
X140973203Y-122524521D01*
X140705225Y-122584216D01*
X140705223Y-122584216D01*
X140448800Y-122682289D01*
X140209390Y-122816653D01*
X139992093Y-122984445D01*
X139801542Y-123182088D01*
X139801541Y-123182089D01*
X139641807Y-123405358D01*
X139641804Y-123405362D01*
X139516269Y-123649528D01*
X139427634Y-123909340D01*
X139427628Y-123909360D01*
X139377765Y-124179317D01*
X139377763Y-124179338D01*
X139367737Y-124453676D01*
X132588000Y-124453676D01*
X132588000Y-120650000D01*
X150497353Y-120650000D01*
X150517834Y-120792455D01*
X150517835Y-120792457D01*
X150572013Y-120911090D01*
X150577623Y-120923372D01*
X150577623Y-120923374D01*
X150627247Y-120980643D01*
X150671872Y-121032143D01*
X150792947Y-121109953D01*
X150792949Y-121109953D01*
X150792950Y-121109954D01*
X150931036Y-121150499D01*
X150931038Y-121150500D01*
X150931039Y-121150500D01*
X151074962Y-121150500D01*
X151074962Y-121150499D01*
X151213053Y-121109953D01*
X151334128Y-121032143D01*
X151428377Y-120923373D01*
X151488165Y-120792457D01*
X151508647Y-120650000D01*
X151488165Y-120507543D01*
X151428377Y-120376627D01*
X151428376Y-120376625D01*
X151334128Y-120267857D01*
X151213053Y-120190047D01*
X151213051Y-120190046D01*
X151213049Y-120190045D01*
X151074963Y-120149500D01*
X151074961Y-120149500D01*
X150931039Y-120149500D01*
X150931037Y-120149500D01*
X150792950Y-120190045D01*
X150671871Y-120267857D01*
X150577623Y-120376625D01*
X150577623Y-120376627D01*
X150517834Y-120507544D01*
X150497353Y-120650000D01*
X132588000Y-120650000D01*
X132588000Y-119888000D01*
X143766353Y-119888000D01*
X143786834Y-120030455D01*
X143846623Y-120161372D01*
X143846623Y-120161374D01*
X143938891Y-120267857D01*
X143940872Y-120270143D01*
X144061947Y-120347953D01*
X144061949Y-120347953D01*
X144061950Y-120347954D01*
X144200036Y-120388499D01*
X144200038Y-120388500D01*
X144200039Y-120388500D01*
X144343962Y-120388500D01*
X144343962Y-120388499D01*
X144482053Y-120347953D01*
X144603128Y-120270143D01*
X144697377Y-120161373D01*
X144757165Y-120030457D01*
X144777647Y-119888000D01*
X144757165Y-119745543D01*
X144697377Y-119614627D01*
X144697376Y-119614625D01*
X144603128Y-119505857D01*
X144482053Y-119428047D01*
X144482051Y-119428046D01*
X144482049Y-119428045D01*
X144343963Y-119387500D01*
X144343961Y-119387500D01*
X144200039Y-119387500D01*
X144200037Y-119387500D01*
X144061950Y-119428045D01*
X143940871Y-119505857D01*
X143846623Y-119614625D01*
X143846623Y-119614627D01*
X143786834Y-119745544D01*
X143766353Y-119888000D01*
X132588000Y-119888000D01*
X132588000Y-118035000D01*
X135211901Y-118035000D01*
X135230252Y-118221329D01*
X135235353Y-118238143D01*
X135271256Y-118356500D01*
X135284606Y-118400506D01*
X135372860Y-118565619D01*
X135372864Y-118565625D01*
X135491643Y-118710357D01*
X135636375Y-118829136D01*
X135636377Y-118829137D01*
X135636380Y-118829139D01*
X135801493Y-118917393D01*
X135801499Y-118917396D01*
X135980669Y-118971747D01*
X136167000Y-118990099D01*
X136353331Y-118971747D01*
X136532501Y-118917396D01*
X136697625Y-118829136D01*
X136842357Y-118710357D01*
X136961136Y-118565625D01*
X137049396Y-118400501D01*
X137103747Y-118221331D01*
X137122099Y-118035000D01*
X137751901Y-118035000D01*
X137770252Y-118221329D01*
X137775353Y-118238143D01*
X137811256Y-118356500D01*
X137824606Y-118400506D01*
X137912860Y-118565619D01*
X137912864Y-118565625D01*
X138031643Y-118710357D01*
X138176375Y-118829136D01*
X138176377Y-118829137D01*
X138176380Y-118829139D01*
X138341493Y-118917393D01*
X138341499Y-118917396D01*
X138520669Y-118971747D01*
X138707000Y-118990099D01*
X138893331Y-118971747D01*
X139072501Y-118917396D01*
X139237625Y-118829136D01*
X139382357Y-118710357D01*
X139458153Y-118618000D01*
X143766353Y-118618000D01*
X143786834Y-118760455D01*
X143786835Y-118760457D01*
X143818201Y-118829139D01*
X143846623Y-118891372D01*
X143846623Y-118891374D01*
X143916267Y-118971747D01*
X143940872Y-119000143D01*
X144061947Y-119077953D01*
X144061949Y-119077953D01*
X144061950Y-119077954D01*
X144200036Y-119118499D01*
X144200038Y-119118500D01*
X144200039Y-119118500D01*
X144343962Y-119118500D01*
X144343962Y-119118499D01*
X144482053Y-119077953D01*
X144603128Y-119000143D01*
X144697377Y-118891373D01*
X144757165Y-118760457D01*
X144777647Y-118618000D01*
X144759387Y-118491000D01*
X171452353Y-118491000D01*
X171472834Y-118633455D01*
X171472835Y-118633457D01*
X171507954Y-118710357D01*
X171532623Y-118764372D01*
X171532623Y-118764374D01*
X171626871Y-118873142D01*
X171626872Y-118873143D01*
X171747947Y-118950953D01*
X171747949Y-118950953D01*
X171747950Y-118950954D01*
X171886036Y-118991499D01*
X171886038Y-118991500D01*
X171886039Y-118991500D01*
X172029962Y-118991500D01*
X172029962Y-118991499D01*
X172168053Y-118950953D01*
X172289128Y-118873143D01*
X172383377Y-118764373D01*
X172443165Y-118633457D01*
X172463647Y-118491000D01*
X172443165Y-118348543D01*
X172383377Y-118217627D01*
X172383376Y-118217625D01*
X172289128Y-118108857D01*
X172168053Y-118031047D01*
X172168051Y-118031046D01*
X172168049Y-118031045D01*
X172029963Y-117990500D01*
X172029961Y-117990500D01*
X171886039Y-117990500D01*
X171886037Y-117990500D01*
X171747950Y-118031045D01*
X171626871Y-118108857D01*
X171532623Y-118217625D01*
X171532623Y-118217627D01*
X171472834Y-118348544D01*
X171452353Y-118491000D01*
X144759387Y-118491000D01*
X144757165Y-118475543D01*
X144697377Y-118344627D01*
X144697376Y-118344625D01*
X144614298Y-118248748D01*
X153731500Y-118248748D01*
X153743132Y-118307230D01*
X153743133Y-118307232D01*
X153787447Y-118373552D01*
X153853767Y-118417866D01*
X153853769Y-118417867D01*
X153912252Y-118429500D01*
X154951748Y-118429500D01*
X155010231Y-118417867D01*
X155076552Y-118373552D01*
X155120867Y-118307231D01*
X155132500Y-118248748D01*
X155132500Y-117856000D01*
X161673353Y-117856000D01*
X161693834Y-117998455D01*
X161753623Y-118129372D01*
X161753623Y-118129374D01*
X161833304Y-118221331D01*
X161847872Y-118238143D01*
X161968947Y-118315953D01*
X161968949Y-118315953D01*
X161968950Y-118315954D01*
X162107036Y-118356499D01*
X162107038Y-118356500D01*
X162107039Y-118356500D01*
X162250962Y-118356500D01*
X162250962Y-118356499D01*
X162389053Y-118315953D01*
X162510128Y-118238143D01*
X162604377Y-118129373D01*
X162664165Y-117998457D01*
X162684647Y-117856000D01*
X162943353Y-117856000D01*
X162963834Y-117998455D01*
X163023623Y-118129372D01*
X163023623Y-118129374D01*
X163103304Y-118221331D01*
X163117872Y-118238143D01*
X163238947Y-118315953D01*
X163238949Y-118315953D01*
X163238950Y-118315954D01*
X163377036Y-118356499D01*
X163377038Y-118356500D01*
X163377039Y-118356500D01*
X163520962Y-118356500D01*
X163520962Y-118356499D01*
X163659053Y-118315953D01*
X163780128Y-118238143D01*
X163874377Y-118129373D01*
X163934165Y-117998457D01*
X163954647Y-117856000D01*
X164213353Y-117856000D01*
X164233834Y-117998455D01*
X164293623Y-118129372D01*
X164293623Y-118129374D01*
X164373304Y-118221331D01*
X164387872Y-118238143D01*
X164508947Y-118315953D01*
X164508949Y-118315953D01*
X164508950Y-118315954D01*
X164647036Y-118356499D01*
X164647038Y-118356500D01*
X164647039Y-118356500D01*
X164790962Y-118356500D01*
X164790962Y-118356499D01*
X164929053Y-118315953D01*
X165050128Y-118238143D01*
X165144377Y-118129373D01*
X165204165Y-117998457D01*
X165224647Y-117856000D01*
X165483353Y-117856000D01*
X165503834Y-117998455D01*
X165563623Y-118129372D01*
X165563623Y-118129374D01*
X165643304Y-118221331D01*
X165657872Y-118238143D01*
X165778947Y-118315953D01*
X165778949Y-118315953D01*
X165778950Y-118315954D01*
X165917036Y-118356499D01*
X165917038Y-118356500D01*
X165917039Y-118356500D01*
X166060962Y-118356500D01*
X166060962Y-118356499D01*
X166199053Y-118315953D01*
X166320128Y-118238143D01*
X166414377Y-118129373D01*
X166474165Y-117998457D01*
X166494647Y-117856000D01*
X166753353Y-117856000D01*
X166773834Y-117998455D01*
X166833623Y-118129372D01*
X166833623Y-118129374D01*
X166913304Y-118221331D01*
X166927872Y-118238143D01*
X167048947Y-118315953D01*
X167048949Y-118315953D01*
X167048950Y-118315954D01*
X167187036Y-118356499D01*
X167187038Y-118356500D01*
X167187039Y-118356500D01*
X167330962Y-118356500D01*
X167330962Y-118356499D01*
X167469053Y-118315953D01*
X167590128Y-118238143D01*
X167684377Y-118129373D01*
X167744165Y-117998457D01*
X167764647Y-117856000D01*
X168023353Y-117856000D01*
X168043834Y-117998455D01*
X168103623Y-118129372D01*
X168103623Y-118129374D01*
X168183304Y-118221331D01*
X168197872Y-118238143D01*
X168318947Y-118315953D01*
X168318949Y-118315953D01*
X168318950Y-118315954D01*
X168457036Y-118356499D01*
X168457038Y-118356500D01*
X168457039Y-118356500D01*
X168600962Y-118356500D01*
X168600962Y-118356499D01*
X168739053Y-118315953D01*
X168860128Y-118238143D01*
X168954377Y-118129373D01*
X169014165Y-117998457D01*
X169034647Y-117856000D01*
X169014165Y-117713543D01*
X168954377Y-117582627D01*
X168954376Y-117582625D01*
X168860128Y-117473857D01*
X168739053Y-117396047D01*
X168739051Y-117396046D01*
X168739049Y-117396045D01*
X168600963Y-117355500D01*
X168600961Y-117355500D01*
X168457039Y-117355500D01*
X168457037Y-117355500D01*
X168318950Y-117396045D01*
X168197871Y-117473857D01*
X168103623Y-117582625D01*
X168103623Y-117582627D01*
X168043834Y-117713544D01*
X168023353Y-117856000D01*
X167764647Y-117856000D01*
X167744165Y-117713543D01*
X167684377Y-117582627D01*
X167684376Y-117582625D01*
X167590128Y-117473857D01*
X167469053Y-117396047D01*
X167469051Y-117396046D01*
X167469049Y-117396045D01*
X167330963Y-117355500D01*
X167330961Y-117355500D01*
X167187039Y-117355500D01*
X167187037Y-117355500D01*
X167048950Y-117396045D01*
X166927871Y-117473857D01*
X166833623Y-117582625D01*
X166833623Y-117582627D01*
X166773834Y-117713544D01*
X166753353Y-117856000D01*
X166494647Y-117856000D01*
X166474165Y-117713543D01*
X166414377Y-117582627D01*
X166414376Y-117582625D01*
X166320128Y-117473857D01*
X166199053Y-117396047D01*
X166199051Y-117396046D01*
X166199049Y-117396045D01*
X166060963Y-117355500D01*
X166060961Y-117355500D01*
X165917039Y-117355500D01*
X165917037Y-117355500D01*
X165778950Y-117396045D01*
X165657871Y-117473857D01*
X165563623Y-117582625D01*
X165563623Y-117582627D01*
X165503834Y-117713544D01*
X165483353Y-117856000D01*
X165224647Y-117856000D01*
X165204165Y-117713543D01*
X165144377Y-117582627D01*
X165144376Y-117582625D01*
X165050128Y-117473857D01*
X164929053Y-117396047D01*
X164929051Y-117396046D01*
X164929049Y-117396045D01*
X164790963Y-117355500D01*
X164790961Y-117355500D01*
X164647039Y-117355500D01*
X164647037Y-117355500D01*
X164508950Y-117396045D01*
X164387871Y-117473857D01*
X164293623Y-117582625D01*
X164293623Y-117582627D01*
X164233834Y-117713544D01*
X164213353Y-117856000D01*
X163954647Y-117856000D01*
X163934165Y-117713543D01*
X163874377Y-117582627D01*
X163874376Y-117582625D01*
X163780128Y-117473857D01*
X163659053Y-117396047D01*
X163659051Y-117396046D01*
X163659049Y-117396045D01*
X163520963Y-117355500D01*
X163520961Y-117355500D01*
X163377039Y-117355500D01*
X163377037Y-117355500D01*
X163238950Y-117396045D01*
X163117871Y-117473857D01*
X163023623Y-117582625D01*
X163023623Y-117582627D01*
X162963834Y-117713544D01*
X162943353Y-117856000D01*
X162684647Y-117856000D01*
X162664165Y-117713543D01*
X162604377Y-117582627D01*
X162604376Y-117582625D01*
X162510128Y-117473857D01*
X162389053Y-117396047D01*
X162389051Y-117396046D01*
X162389049Y-117396045D01*
X162250963Y-117355500D01*
X162250961Y-117355500D01*
X162107039Y-117355500D01*
X162107037Y-117355500D01*
X161968950Y-117396045D01*
X161847871Y-117473857D01*
X161753623Y-117582625D01*
X161753623Y-117582627D01*
X161693834Y-117713544D01*
X161673353Y-117856000D01*
X155132500Y-117856000D01*
X155132500Y-117209252D01*
X155120867Y-117150769D01*
X155120866Y-117150767D01*
X155076552Y-117084447D01*
X155010232Y-117040133D01*
X155010230Y-117040132D01*
X154951748Y-117028500D01*
X153912252Y-117028500D01*
X153853769Y-117040132D01*
X153853767Y-117040133D01*
X153787447Y-117084447D01*
X153743133Y-117150767D01*
X153743132Y-117150769D01*
X153731500Y-117209251D01*
X153731500Y-118248748D01*
X144614298Y-118248748D01*
X144603128Y-118235857D01*
X144580522Y-118221329D01*
X144482053Y-118158047D01*
X144482051Y-118158046D01*
X144482049Y-118158045D01*
X144343963Y-118117500D01*
X144343961Y-118117500D01*
X144200039Y-118117500D01*
X144200037Y-118117500D01*
X144061950Y-118158045D01*
X143940871Y-118235857D01*
X143846623Y-118344625D01*
X143846623Y-118344627D01*
X143786834Y-118475544D01*
X143766353Y-118618000D01*
X139458153Y-118618000D01*
X139501136Y-118565625D01*
X139589396Y-118400501D01*
X139643747Y-118221331D01*
X139662099Y-118035000D01*
X139661709Y-118031045D01*
X139643747Y-117848670D01*
X139643747Y-117848669D01*
X139589396Y-117669499D01*
X139589393Y-117669493D01*
X139501139Y-117504380D01*
X139501135Y-117504374D01*
X139476090Y-117473857D01*
X139382357Y-117359643D01*
X139237625Y-117240864D01*
X139237619Y-117240860D01*
X139072506Y-117152606D01*
X139072503Y-117152605D01*
X139072501Y-117152604D01*
X138973723Y-117122640D01*
X138893329Y-117098252D01*
X138707000Y-117079901D01*
X138520670Y-117098252D01*
X138378267Y-117141450D01*
X138341499Y-117152604D01*
X138341498Y-117152604D01*
X138341493Y-117152606D01*
X138176380Y-117240860D01*
X138176374Y-117240864D01*
X138031643Y-117359643D01*
X137912864Y-117504374D01*
X137912860Y-117504380D01*
X137824606Y-117669493D01*
X137770252Y-117848670D01*
X137751901Y-118034999D01*
X137751901Y-118035000D01*
X137122099Y-118035000D01*
X137121709Y-118031045D01*
X137103747Y-117848670D01*
X137103747Y-117848669D01*
X137049396Y-117669499D01*
X137049393Y-117669493D01*
X136961139Y-117504380D01*
X136961135Y-117504374D01*
X136936090Y-117473857D01*
X136842357Y-117359643D01*
X136697625Y-117240864D01*
X136697619Y-117240860D01*
X136532506Y-117152606D01*
X136532503Y-117152605D01*
X136532501Y-117152604D01*
X136433723Y-117122640D01*
X136353329Y-117098252D01*
X136167000Y-117079901D01*
X135980670Y-117098252D01*
X135838267Y-117141450D01*
X135801499Y-117152604D01*
X135801498Y-117152604D01*
X135801493Y-117152606D01*
X135636380Y-117240860D01*
X135636374Y-117240864D01*
X135491643Y-117359643D01*
X135372864Y-117504374D01*
X135372860Y-117504380D01*
X135284606Y-117669493D01*
X135230252Y-117848670D01*
X135211901Y-118034999D01*
X135211901Y-118035000D01*
X132588000Y-118035000D01*
X132588000Y-117892283D01*
X132588301Y-117886157D01*
X132605302Y-117713544D01*
X132606612Y-117700244D01*
X132608999Y-117688239D01*
X132662336Y-117512409D01*
X132667018Y-117501106D01*
X132753630Y-117339068D01*
X132760430Y-117328890D01*
X132878957Y-117184465D01*
X132883056Y-117179943D01*
X133565107Y-116497893D01*
X133858000Y-116205000D01*
X133858000Y-115765587D01*
X133876306Y-115721393D01*
X133920500Y-115703087D01*
X133964694Y-115721393D01*
X133980307Y-115747441D01*
X134003185Y-115822857D01*
X134014606Y-115860506D01*
X134102860Y-116025619D01*
X134102864Y-116025625D01*
X134221643Y-116170357D01*
X134366375Y-116289136D01*
X134366377Y-116289137D01*
X134366380Y-116289139D01*
X134531493Y-116377393D01*
X134531499Y-116377396D01*
X134710669Y-116431747D01*
X134897000Y-116450099D01*
X135083331Y-116431747D01*
X135262501Y-116377396D01*
X135427625Y-116289136D01*
X135572357Y-116170357D01*
X135691136Y-116025625D01*
X135779396Y-115860501D01*
X135833747Y-115681331D01*
X135852099Y-115495000D01*
X136481901Y-115495000D01*
X136500252Y-115681329D01*
X136554606Y-115860506D01*
X136642860Y-116025619D01*
X136642864Y-116025625D01*
X136761643Y-116170357D01*
X136906375Y-116289136D01*
X136906377Y-116289137D01*
X136906380Y-116289139D01*
X137071493Y-116377393D01*
X137071499Y-116377396D01*
X137250669Y-116431747D01*
X137437000Y-116450099D01*
X137623331Y-116431747D01*
X137802501Y-116377396D01*
X137967625Y-116289136D01*
X138112357Y-116170357D01*
X138231136Y-116025625D01*
X138319396Y-115860501D01*
X138373747Y-115681331D01*
X138392099Y-115495000D01*
X139021901Y-115495000D01*
X139040252Y-115681329D01*
X139094606Y-115860506D01*
X139182860Y-116025619D01*
X139182864Y-116025625D01*
X139301643Y-116170357D01*
X139446375Y-116289136D01*
X139446377Y-116289137D01*
X139446380Y-116289139D01*
X139611493Y-116377393D01*
X139611499Y-116377396D01*
X139790669Y-116431747D01*
X139977000Y-116450099D01*
X140163331Y-116431747D01*
X140342501Y-116377396D01*
X140507625Y-116289136D01*
X140610145Y-116205000D01*
X147322353Y-116205000D01*
X147342834Y-116347455D01*
X147342835Y-116347457D01*
X147381329Y-116431747D01*
X147402623Y-116478372D01*
X147402623Y-116478374D01*
X147496871Y-116587142D01*
X147496872Y-116587143D01*
X147617947Y-116664953D01*
X147617949Y-116664953D01*
X147617950Y-116664954D01*
X147756036Y-116705499D01*
X147756038Y-116705500D01*
X147756039Y-116705500D01*
X147899962Y-116705500D01*
X147899962Y-116705499D01*
X148038053Y-116664953D01*
X148159128Y-116587143D01*
X148253377Y-116478373D01*
X148313165Y-116347457D01*
X148333647Y-116205000D01*
X148313165Y-116062543D01*
X148253377Y-115931627D01*
X148253376Y-115931625D01*
X148159128Y-115822857D01*
X148038053Y-115745047D01*
X148038051Y-115745046D01*
X148038049Y-115745045D01*
X147899963Y-115704500D01*
X147899961Y-115704500D01*
X147756039Y-115704500D01*
X147756037Y-115704500D01*
X147617950Y-115745045D01*
X147496871Y-115822857D01*
X147402623Y-115931625D01*
X147402623Y-115931627D01*
X147342834Y-116062544D01*
X147322353Y-116205000D01*
X140610145Y-116205000D01*
X140652357Y-116170357D01*
X140771136Y-116025625D01*
X140859396Y-115860501D01*
X140913747Y-115681331D01*
X140932099Y-115495000D01*
X140913747Y-115308669D01*
X140859396Y-115129499D01*
X140771136Y-114964375D01*
X140652357Y-114819643D01*
X140507625Y-114700864D01*
X140507619Y-114700860D01*
X140342506Y-114612606D01*
X140342503Y-114612605D01*
X140342501Y-114612604D01*
X140243723Y-114582640D01*
X140163329Y-114558252D01*
X139977000Y-114539901D01*
X139790670Y-114558252D01*
X139648267Y-114601450D01*
X139611499Y-114612604D01*
X139611498Y-114612604D01*
X139611493Y-114612606D01*
X139446380Y-114700860D01*
X139446374Y-114700864D01*
X139301643Y-114819643D01*
X139182864Y-114964374D01*
X139182860Y-114964380D01*
X139094606Y-115129493D01*
X139040252Y-115308670D01*
X139021901Y-115494999D01*
X139021901Y-115495000D01*
X138392099Y-115495000D01*
X138373747Y-115308669D01*
X138319396Y-115129499D01*
X138231136Y-114964375D01*
X138112357Y-114819643D01*
X137967625Y-114700864D01*
X137967619Y-114700860D01*
X137802506Y-114612606D01*
X137802503Y-114612605D01*
X137802501Y-114612604D01*
X137703723Y-114582640D01*
X137623329Y-114558252D01*
X137437000Y-114539901D01*
X137250670Y-114558252D01*
X137108267Y-114601450D01*
X137071499Y-114612604D01*
X137071498Y-114612604D01*
X137071493Y-114612606D01*
X136906380Y-114700860D01*
X136906374Y-114700864D01*
X136761643Y-114819643D01*
X136642864Y-114964374D01*
X136642860Y-114964380D01*
X136554606Y-115129493D01*
X136500252Y-115308670D01*
X136481901Y-115494999D01*
X136481901Y-115495000D01*
X135852099Y-115495000D01*
X135833747Y-115308669D01*
X135779396Y-115129499D01*
X135691136Y-114964375D01*
X135572357Y-114819643D01*
X135427625Y-114700864D01*
X135427619Y-114700860D01*
X135262506Y-114612606D01*
X135262503Y-114612605D01*
X135262501Y-114612604D01*
X135163723Y-114582640D01*
X135083329Y-114558252D01*
X134897000Y-114539901D01*
X134710670Y-114558252D01*
X134568267Y-114601450D01*
X134531499Y-114612604D01*
X134531498Y-114612604D01*
X134531493Y-114612606D01*
X134366380Y-114700860D01*
X134366374Y-114700864D01*
X134221643Y-114819643D01*
X134102864Y-114964374D01*
X134102860Y-114964380D01*
X134014606Y-115129493D01*
X134014604Y-115129498D01*
X134014604Y-115129499D01*
X133985813Y-115224412D01*
X133980309Y-115242555D01*
X133949962Y-115279532D01*
X133902357Y-115284221D01*
X133865380Y-115253874D01*
X133858000Y-115224412D01*
X133858000Y-113411000D01*
X139194353Y-113411000D01*
X139214834Y-113553455D01*
X139274623Y-113684372D01*
X139274623Y-113684374D01*
X139368871Y-113793142D01*
X139368872Y-113793143D01*
X139489947Y-113870953D01*
X139489949Y-113870953D01*
X139489950Y-113870954D01*
X139628036Y-113911499D01*
X139628038Y-113911500D01*
X139628039Y-113911500D01*
X139771962Y-113911500D01*
X139771962Y-113911499D01*
X139910053Y-113870953D01*
X140031128Y-113793143D01*
X140125377Y-113684373D01*
X140185165Y-113553457D01*
X140205647Y-113411000D01*
X140185165Y-113268543D01*
X140139590Y-113168748D01*
X153731500Y-113168748D01*
X153743132Y-113227230D01*
X153743133Y-113227232D01*
X153787447Y-113293552D01*
X153853767Y-113337866D01*
X153853769Y-113337867D01*
X153912252Y-113349500D01*
X154951748Y-113349500D01*
X155010231Y-113337867D01*
X155076552Y-113293552D01*
X155120867Y-113227231D01*
X155132500Y-113168748D01*
X155132500Y-113030000D01*
X174373353Y-113030000D01*
X174393834Y-113172455D01*
X174393835Y-113172457D01*
X174437716Y-113268543D01*
X174453623Y-113303372D01*
X174453623Y-113303374D01*
X174547871Y-113412142D01*
X174547872Y-113412143D01*
X174668947Y-113489953D01*
X174668949Y-113489953D01*
X174668950Y-113489954D01*
X174807036Y-113530499D01*
X174807038Y-113530500D01*
X174807039Y-113530500D01*
X174950962Y-113530500D01*
X174950962Y-113530499D01*
X175089053Y-113489953D01*
X175210128Y-113412143D01*
X175304377Y-113303373D01*
X175364165Y-113172457D01*
X175384647Y-113030000D01*
X175364165Y-112887543D01*
X175304377Y-112756627D01*
X175304376Y-112756625D01*
X175210128Y-112647857D01*
X175089053Y-112570047D01*
X175089051Y-112570046D01*
X175089049Y-112570045D01*
X174950963Y-112529500D01*
X174950961Y-112529500D01*
X174807039Y-112529500D01*
X174807037Y-112529500D01*
X174668950Y-112570045D01*
X174547871Y-112647857D01*
X174453623Y-112756625D01*
X174453623Y-112756627D01*
X174393834Y-112887544D01*
X174373353Y-113030000D01*
X155132500Y-113030000D01*
X155132500Y-112129252D01*
X155120867Y-112070769D01*
X155120866Y-112070767D01*
X155076552Y-112004447D01*
X155010232Y-111960133D01*
X155010230Y-111960132D01*
X154951748Y-111948500D01*
X153912252Y-111948500D01*
X153853769Y-111960132D01*
X153853767Y-111960133D01*
X153787447Y-112004447D01*
X153743133Y-112070767D01*
X153743132Y-112070769D01*
X153731500Y-112129251D01*
X153731500Y-113168748D01*
X140139590Y-113168748D01*
X140125377Y-113137627D01*
X140125376Y-113137625D01*
X140031128Y-113028857D01*
X139910053Y-112951047D01*
X139910051Y-112951046D01*
X139910049Y-112951045D01*
X139771963Y-112910500D01*
X139771961Y-112910500D01*
X139628039Y-112910500D01*
X139628037Y-112910500D01*
X139489950Y-112951045D01*
X139368871Y-113028857D01*
X139274623Y-113137625D01*
X139274623Y-113137627D01*
X139214834Y-113268544D01*
X139194353Y-113411000D01*
X133858000Y-113411000D01*
X133858000Y-111263748D01*
X134554500Y-111263748D01*
X134566132Y-111322230D01*
X134566133Y-111322232D01*
X134610447Y-111388552D01*
X134676767Y-111432866D01*
X134676769Y-111432867D01*
X134735252Y-111444500D01*
X135774748Y-111444500D01*
X135833231Y-111432867D01*
X135899552Y-111388552D01*
X135943867Y-111322231D01*
X135955500Y-111263748D01*
X135955500Y-110224252D01*
X135943867Y-110165769D01*
X135905935Y-110109000D01*
X157313417Y-110109000D01*
X157333699Y-110314930D01*
X157333700Y-110314935D01*
X157393766Y-110512949D01*
X157393768Y-110512954D01*
X157491311Y-110695444D01*
X157491313Y-110695448D01*
X157491315Y-110695450D01*
X157622590Y-110855410D01*
X157782550Y-110986685D01*
X157782553Y-110986686D01*
X157782555Y-110986688D01*
X157857912Y-111026967D01*
X157965046Y-111084232D01*
X158163066Y-111144300D01*
X158369000Y-111164583D01*
X158574934Y-111144300D01*
X158772954Y-111084232D01*
X158955450Y-110986685D01*
X159115410Y-110855410D01*
X159246685Y-110695450D01*
X159344232Y-110512954D01*
X159404300Y-110314934D01*
X159424583Y-110109000D01*
X159404300Y-109903066D01*
X159344232Y-109705046D01*
X159246685Y-109522550D01*
X159115410Y-109362590D01*
X159096413Y-109347000D01*
X174119353Y-109347000D01*
X174139834Y-109489455D01*
X174139835Y-109489457D01*
X174154945Y-109522544D01*
X174199623Y-109620372D01*
X174199623Y-109620374D01*
X174272991Y-109705045D01*
X174293872Y-109729143D01*
X174414947Y-109806953D01*
X174414949Y-109806953D01*
X174414950Y-109806954D01*
X174553036Y-109847499D01*
X174553038Y-109847500D01*
X174553039Y-109847500D01*
X174696962Y-109847500D01*
X174696962Y-109847499D01*
X174835053Y-109806953D01*
X174956128Y-109729143D01*
X175050377Y-109620373D01*
X175110165Y-109489457D01*
X175130647Y-109347000D01*
X175110165Y-109204543D01*
X175050377Y-109073627D01*
X175050376Y-109073625D01*
X174956128Y-108964857D01*
X174835053Y-108887047D01*
X174835051Y-108887046D01*
X174835049Y-108887045D01*
X174696963Y-108846500D01*
X174696961Y-108846500D01*
X174553039Y-108846500D01*
X174553037Y-108846500D01*
X174414950Y-108887045D01*
X174293871Y-108964857D01*
X174199623Y-109073625D01*
X174199623Y-109073627D01*
X174139834Y-109204544D01*
X174119353Y-109347000D01*
X159096413Y-109347000D01*
X158955455Y-109231319D01*
X158955453Y-109231318D01*
X158955450Y-109231315D01*
X158955448Y-109231313D01*
X158955444Y-109231311D01*
X158772954Y-109133768D01*
X158772949Y-109133766D01*
X158574935Y-109073700D01*
X158574930Y-109073699D01*
X158369000Y-109053417D01*
X158163069Y-109073699D01*
X158163064Y-109073700D01*
X157965050Y-109133766D01*
X157965045Y-109133768D01*
X157782555Y-109231311D01*
X157782544Y-109231319D01*
X157622591Y-109362588D01*
X157622588Y-109362591D01*
X157491319Y-109522544D01*
X157491311Y-109522555D01*
X157393768Y-109705045D01*
X157393766Y-109705050D01*
X157333700Y-109903064D01*
X157333699Y-109903069D01*
X157313417Y-110108999D01*
X157313417Y-110109000D01*
X135905935Y-110109000D01*
X135905934Y-110108999D01*
X135899552Y-110099447D01*
X135833232Y-110055133D01*
X135833230Y-110055132D01*
X135774748Y-110043500D01*
X134735252Y-110043500D01*
X134676769Y-110055132D01*
X134676767Y-110055133D01*
X134610447Y-110099447D01*
X134566133Y-110165767D01*
X134566132Y-110165769D01*
X134554500Y-110224251D01*
X134554500Y-111263748D01*
X133858000Y-111263748D01*
X133858000Y-109220000D01*
X141480353Y-109220000D01*
X141500834Y-109362455D01*
X141560623Y-109493372D01*
X141560623Y-109493374D01*
X141654871Y-109602142D01*
X141654872Y-109602143D01*
X141775947Y-109679953D01*
X141861403Y-109705045D01*
X141914036Y-109720499D01*
X141914038Y-109720500D01*
X141914039Y-109720500D01*
X142057962Y-109720500D01*
X142057962Y-109720499D01*
X142196053Y-109679953D01*
X142317128Y-109602143D01*
X142411377Y-109493373D01*
X142471165Y-109362457D01*
X142491647Y-109220000D01*
X142471165Y-109077543D01*
X142411377Y-108946627D01*
X142411376Y-108946625D01*
X142317128Y-108837857D01*
X142196053Y-108760047D01*
X142196051Y-108760046D01*
X142196049Y-108760045D01*
X142057963Y-108719500D01*
X142057961Y-108719500D01*
X141914039Y-108719500D01*
X141914037Y-108719500D01*
X141775950Y-108760045D01*
X141654871Y-108837857D01*
X141560623Y-108946625D01*
X141560623Y-108946627D01*
X141500834Y-109077544D01*
X141480353Y-109220000D01*
X133858000Y-109220000D01*
X133858000Y-108585000D01*
X147322353Y-108585000D01*
X147342834Y-108727455D01*
X147402623Y-108858372D01*
X147402623Y-108858374D01*
X147479093Y-108946625D01*
X147496872Y-108967143D01*
X147617947Y-109044953D01*
X147715851Y-109073700D01*
X147756036Y-109085499D01*
X147756038Y-109085500D01*
X147756039Y-109085500D01*
X147899962Y-109085500D01*
X147899962Y-109085499D01*
X148038053Y-109044953D01*
X148159128Y-108967143D01*
X148253377Y-108858373D01*
X148313165Y-108727457D01*
X148333647Y-108585000D01*
X148313165Y-108442543D01*
X148253377Y-108311627D01*
X148253376Y-108311625D01*
X148159128Y-108202857D01*
X148038053Y-108125047D01*
X148038051Y-108125046D01*
X148038049Y-108125045D01*
X147899963Y-108084500D01*
X147899961Y-108084500D01*
X147756039Y-108084500D01*
X147756037Y-108084500D01*
X147617950Y-108125045D01*
X147496871Y-108202857D01*
X147402623Y-108311625D01*
X147402623Y-108311627D01*
X147342834Y-108442544D01*
X147322353Y-108585000D01*
X133858000Y-108585000D01*
X133858000Y-107569000D01*
X157313417Y-107569000D01*
X157333699Y-107774930D01*
X157333700Y-107774935D01*
X157393766Y-107972949D01*
X157393768Y-107972954D01*
X157491311Y-108155444D01*
X157491319Y-108155455D01*
X157622588Y-108315408D01*
X157622591Y-108315411D01*
X157665193Y-108350373D01*
X157782550Y-108446685D01*
X157782553Y-108446686D01*
X157782555Y-108446688D01*
X157805855Y-108459142D01*
X157965046Y-108544232D01*
X158163066Y-108604300D01*
X158369000Y-108624583D01*
X158574934Y-108604300D01*
X158772954Y-108544232D01*
X158955450Y-108446685D01*
X159115410Y-108315410D01*
X159246685Y-108155450D01*
X159288618Y-108077000D01*
X174119353Y-108077000D01*
X174139834Y-108219455D01*
X174139835Y-108219457D01*
X174183656Y-108315411D01*
X174199623Y-108350372D01*
X174199623Y-108350374D01*
X174279488Y-108442543D01*
X174293872Y-108459143D01*
X174414947Y-108536953D01*
X174414949Y-108536953D01*
X174414950Y-108536954D01*
X174553036Y-108577499D01*
X174553038Y-108577500D01*
X174553039Y-108577500D01*
X174696962Y-108577500D01*
X174696962Y-108577499D01*
X174835053Y-108536953D01*
X174956128Y-108459143D01*
X175050377Y-108350373D01*
X175110165Y-108219457D01*
X175130647Y-108077000D01*
X175110165Y-107934543D01*
X175050377Y-107803627D01*
X175050376Y-107803625D01*
X174956128Y-107694857D01*
X174835053Y-107617047D01*
X174835051Y-107617046D01*
X174835049Y-107617045D01*
X174696963Y-107576500D01*
X174696961Y-107576500D01*
X174553039Y-107576500D01*
X174553037Y-107576500D01*
X174414950Y-107617045D01*
X174293871Y-107694857D01*
X174199623Y-107803625D01*
X174199623Y-107803627D01*
X174139834Y-107934544D01*
X174119353Y-108077000D01*
X159288618Y-108077000D01*
X159344232Y-107972954D01*
X159404300Y-107774934D01*
X159424583Y-107569000D01*
X159404300Y-107363066D01*
X159344232Y-107165046D01*
X159284608Y-107053499D01*
X159246688Y-106982555D01*
X159246686Y-106982553D01*
X159246685Y-106982550D01*
X159207622Y-106934951D01*
X159115411Y-106822591D01*
X159115408Y-106822588D01*
X159096414Y-106807000D01*
X178437353Y-106807000D01*
X178457834Y-106949455D01*
X178457835Y-106949457D01*
X178505350Y-107053500D01*
X178517623Y-107080372D01*
X178517623Y-107080374D01*
X178590991Y-107165045D01*
X178611872Y-107189143D01*
X178732947Y-107266953D01*
X178732949Y-107266953D01*
X178732950Y-107266954D01*
X178871036Y-107307499D01*
X178871038Y-107307500D01*
X178871039Y-107307500D01*
X179014962Y-107307500D01*
X179014962Y-107307499D01*
X179153053Y-107266953D01*
X179274128Y-107189143D01*
X179368377Y-107080373D01*
X179428165Y-106949457D01*
X179448647Y-106807000D01*
X179428165Y-106664543D01*
X179368377Y-106533627D01*
X179368376Y-106533625D01*
X179274128Y-106424857D01*
X179251855Y-106410543D01*
X179153053Y-106347047D01*
X179153051Y-106347046D01*
X179153049Y-106347045D01*
X179014963Y-106306500D01*
X179014961Y-106306500D01*
X178871039Y-106306500D01*
X178871037Y-106306500D01*
X178732950Y-106347045D01*
X178611871Y-106424857D01*
X178517623Y-106533625D01*
X178517623Y-106533627D01*
X178457834Y-106664544D01*
X178437353Y-106807000D01*
X159096414Y-106807000D01*
X158955455Y-106691319D01*
X158955453Y-106691318D01*
X158955450Y-106691315D01*
X158955448Y-106691313D01*
X158955444Y-106691311D01*
X158772954Y-106593768D01*
X158772949Y-106593766D01*
X158574935Y-106533700D01*
X158574930Y-106533699D01*
X158369000Y-106513417D01*
X158163069Y-106533699D01*
X158163064Y-106533700D01*
X157965050Y-106593766D01*
X157965045Y-106593768D01*
X157782555Y-106691311D01*
X157782544Y-106691319D01*
X157622591Y-106822588D01*
X157622588Y-106822591D01*
X157491319Y-106982544D01*
X157491311Y-106982555D01*
X157393768Y-107165045D01*
X157393766Y-107165050D01*
X157333700Y-107363064D01*
X157333699Y-107363069D01*
X157313417Y-107568999D01*
X157313417Y-107569000D01*
X133858000Y-107569000D01*
X133858000Y-106553000D01*
X134622353Y-106553000D01*
X134642834Y-106695455D01*
X134642835Y-106695457D01*
X134700895Y-106822590D01*
X134702623Y-106826372D01*
X134702623Y-106826374D01*
X134796871Y-106935142D01*
X134796872Y-106935143D01*
X134917947Y-107012953D01*
X134917949Y-107012953D01*
X134917950Y-107012954D01*
X135056036Y-107053499D01*
X135056038Y-107053500D01*
X135056039Y-107053500D01*
X135199962Y-107053500D01*
X135199962Y-107053499D01*
X135338053Y-107012953D01*
X135459128Y-106935143D01*
X135553377Y-106826373D01*
X135613165Y-106695457D01*
X135633647Y-106553000D01*
X135613165Y-106410543D01*
X135553377Y-106279627D01*
X135553376Y-106279625D01*
X135459128Y-106170857D01*
X135338053Y-106093047D01*
X135338051Y-106093046D01*
X135338049Y-106093045D01*
X135199963Y-106052500D01*
X135199961Y-106052500D01*
X135056039Y-106052500D01*
X135056037Y-106052500D01*
X134917950Y-106093045D01*
X134796871Y-106170857D01*
X134702623Y-106279625D01*
X134702623Y-106279627D01*
X134642834Y-106410544D01*
X134622353Y-106553000D01*
X133858000Y-106553000D01*
X133858000Y-104394000D01*
X136508540Y-104394000D01*
X136528326Y-104582258D01*
X136586818Y-104762278D01*
X136586820Y-104762282D01*
X136586821Y-104762284D01*
X136681467Y-104926216D01*
X136794118Y-105051327D01*
X136808128Y-105066887D01*
X136808129Y-105066888D01*
X136961265Y-105178148D01*
X136961274Y-105178153D01*
X137134185Y-105255139D01*
X137134188Y-105255140D01*
X137134197Y-105255144D01*
X137319354Y-105294500D01*
X137508646Y-105294500D01*
X137693803Y-105255144D01*
X137866730Y-105178151D01*
X138019871Y-105066888D01*
X138053986Y-105029000D01*
X157313417Y-105029000D01*
X157333699Y-105234930D01*
X157333700Y-105234935D01*
X157393766Y-105432949D01*
X157393768Y-105432954D01*
X157491311Y-105615444D01*
X157491319Y-105615455D01*
X157622588Y-105775408D01*
X157622591Y-105775411D01*
X157665193Y-105810373D01*
X157782550Y-105906685D01*
X157782553Y-105906686D01*
X157782555Y-105906688D01*
X157805855Y-105919142D01*
X157965046Y-106004232D01*
X158163066Y-106064300D01*
X158369000Y-106084583D01*
X158574934Y-106064300D01*
X158772954Y-106004232D01*
X158955450Y-105906685D01*
X159115410Y-105775410D01*
X159246685Y-105615450D01*
X159288618Y-105537000D01*
X178437353Y-105537000D01*
X178457834Y-105679455D01*
X178457835Y-105679457D01*
X178501656Y-105775411D01*
X178517623Y-105810372D01*
X178517623Y-105810374D01*
X178601073Y-105906680D01*
X178611872Y-105919143D01*
X178732947Y-105996953D01*
X178732949Y-105996953D01*
X178732950Y-105996954D01*
X178871036Y-106037499D01*
X178871038Y-106037500D01*
X178871039Y-106037500D01*
X179014962Y-106037500D01*
X179014962Y-106037499D01*
X179153053Y-105996953D01*
X179274128Y-105919143D01*
X179368377Y-105810373D01*
X179428165Y-105679457D01*
X179448647Y-105537000D01*
X179428165Y-105394543D01*
X179368377Y-105263627D01*
X179368376Y-105263625D01*
X179274128Y-105154857D01*
X179153053Y-105077047D01*
X179153051Y-105077046D01*
X179153049Y-105077045D01*
X179014963Y-105036500D01*
X179014961Y-105036500D01*
X178871039Y-105036500D01*
X178871037Y-105036500D01*
X178732950Y-105077045D01*
X178611871Y-105154857D01*
X178517623Y-105263625D01*
X178517623Y-105263627D01*
X178457834Y-105394544D01*
X178437353Y-105537000D01*
X159288618Y-105537000D01*
X159344232Y-105432954D01*
X159404300Y-105234934D01*
X159424583Y-105029000D01*
X159404300Y-104823066D01*
X159344232Y-104625046D01*
X159294897Y-104532748D01*
X168336500Y-104532748D01*
X168348132Y-104591230D01*
X168348133Y-104591232D01*
X168392447Y-104657552D01*
X168458767Y-104701866D01*
X168458769Y-104701867D01*
X168517252Y-104713500D01*
X169556748Y-104713500D01*
X169615231Y-104701867D01*
X169681552Y-104657552D01*
X169725867Y-104591231D01*
X169737500Y-104532748D01*
X169737500Y-104267000D01*
X178437353Y-104267000D01*
X178457834Y-104409455D01*
X178457835Y-104409457D01*
X178472945Y-104442544D01*
X178517623Y-104540372D01*
X178517623Y-104540374D01*
X178553916Y-104582258D01*
X178611872Y-104649143D01*
X178732947Y-104726953D01*
X178853254Y-104762278D01*
X178871036Y-104767499D01*
X178871038Y-104767500D01*
X178871039Y-104767500D01*
X179014962Y-104767500D01*
X179014962Y-104767499D01*
X179153053Y-104726953D01*
X179274128Y-104649143D01*
X179368377Y-104540373D01*
X179428165Y-104409457D01*
X179448647Y-104267000D01*
X179428165Y-104124543D01*
X179368377Y-103993627D01*
X179368376Y-103993625D01*
X179274128Y-103884857D01*
X179238227Y-103861785D01*
X179153053Y-103807047D01*
X179153051Y-103807046D01*
X179153049Y-103807045D01*
X179014963Y-103766500D01*
X179014961Y-103766500D01*
X178871039Y-103766500D01*
X178871037Y-103766500D01*
X178732950Y-103807045D01*
X178611871Y-103884857D01*
X178517623Y-103993625D01*
X178517623Y-103993627D01*
X178457834Y-104124544D01*
X178437353Y-104267000D01*
X169737500Y-104267000D01*
X169737500Y-103493252D01*
X169725867Y-103434769D01*
X169725866Y-103434767D01*
X169681552Y-103368447D01*
X169615232Y-103324133D01*
X169615230Y-103324132D01*
X169556748Y-103312500D01*
X168517252Y-103312500D01*
X168458769Y-103324132D01*
X168458767Y-103324133D01*
X168392447Y-103368447D01*
X168348133Y-103434767D01*
X168348132Y-103434769D01*
X168336500Y-103493251D01*
X168336500Y-104532748D01*
X159294897Y-104532748D01*
X159246685Y-104442550D01*
X159115410Y-104282590D01*
X159096413Y-104267000D01*
X158955455Y-104151319D01*
X158955453Y-104151318D01*
X158955450Y-104151315D01*
X158955448Y-104151313D01*
X158955444Y-104151311D01*
X158772954Y-104053768D01*
X158772949Y-104053766D01*
X158574935Y-103993700D01*
X158574930Y-103993699D01*
X158369000Y-103973417D01*
X158163069Y-103993699D01*
X158163064Y-103993700D01*
X157965050Y-104053766D01*
X157965045Y-104053768D01*
X157782555Y-104151311D01*
X157782544Y-104151319D01*
X157622591Y-104282588D01*
X157622588Y-104282591D01*
X157491319Y-104442544D01*
X157491311Y-104442555D01*
X157393768Y-104625045D01*
X157393766Y-104625050D01*
X157333700Y-104823064D01*
X157333699Y-104823069D01*
X157313417Y-105028999D01*
X157313417Y-105029000D01*
X138053986Y-105029000D01*
X138146533Y-104926216D01*
X138241179Y-104762284D01*
X138299674Y-104582256D01*
X138304877Y-104532748D01*
X146746500Y-104532748D01*
X146758132Y-104591230D01*
X146758133Y-104591232D01*
X146802447Y-104657552D01*
X146868767Y-104701866D01*
X146868769Y-104701867D01*
X146927252Y-104713500D01*
X147966748Y-104713500D01*
X148025231Y-104701867D01*
X148091552Y-104657552D01*
X148135867Y-104591231D01*
X148147500Y-104532748D01*
X151826500Y-104532748D01*
X151838132Y-104591230D01*
X151838133Y-104591232D01*
X151882447Y-104657552D01*
X151948767Y-104701866D01*
X151948769Y-104701867D01*
X152007252Y-104713500D01*
X153046748Y-104713500D01*
X153105231Y-104701867D01*
X153171552Y-104657552D01*
X153215867Y-104591231D01*
X153227500Y-104532748D01*
X153227500Y-103493252D01*
X153215867Y-103434769D01*
X153215866Y-103434767D01*
X153171552Y-103368447D01*
X153105232Y-103324133D01*
X153105230Y-103324132D01*
X153046748Y-103312500D01*
X152007252Y-103312500D01*
X151948769Y-103324132D01*
X151948767Y-103324133D01*
X151882447Y-103368447D01*
X151838133Y-103434767D01*
X151838132Y-103434769D01*
X151826500Y-103493251D01*
X151826500Y-104532748D01*
X148147500Y-104532748D01*
X148147500Y-103493252D01*
X148135867Y-103434769D01*
X148135866Y-103434767D01*
X148091552Y-103368447D01*
X148025232Y-103324133D01*
X148025230Y-103324132D01*
X147966748Y-103312500D01*
X146927252Y-103312500D01*
X146868769Y-103324132D01*
X146868767Y-103324133D01*
X146802447Y-103368447D01*
X146758133Y-103434767D01*
X146758132Y-103434769D01*
X146746500Y-103493251D01*
X146746500Y-104532748D01*
X138304877Y-104532748D01*
X138319460Y-104394000D01*
X138299674Y-104205744D01*
X138281988Y-104151311D01*
X138241181Y-104025721D01*
X138241180Y-104025719D01*
X138241179Y-104025716D01*
X138146533Y-103861784D01*
X138019871Y-103721112D01*
X138019870Y-103721111D01*
X137866734Y-103609851D01*
X137866725Y-103609846D01*
X137693814Y-103532860D01*
X137693797Y-103532854D01*
X137508646Y-103493500D01*
X137319354Y-103493500D01*
X137134202Y-103532854D01*
X137134185Y-103532860D01*
X136961274Y-103609846D01*
X136961265Y-103609851D01*
X136808129Y-103721111D01*
X136808128Y-103721112D01*
X136681466Y-103861785D01*
X136586818Y-104025721D01*
X136528326Y-104205741D01*
X136508540Y-104394000D01*
X133858000Y-104394000D01*
X133858000Y-102730069D01*
X133858301Y-102723943D01*
X133876612Y-102538031D01*
X133878999Y-102526026D01*
X133932336Y-102350196D01*
X133937018Y-102338893D01*
X134023630Y-102176855D01*
X134030430Y-102166677D01*
X134146989Y-102024649D01*
X134155651Y-102015988D01*
X134297677Y-101899430D01*
X134307855Y-101892630D01*
X134469893Y-101806018D01*
X134481196Y-101801336D01*
X134657026Y-101747999D01*
X134669031Y-101745612D01*
X134854944Y-101727301D01*
X134861070Y-101727000D01*
X162145991Y-101727000D01*
X162560000Y-101727000D01*
X163373798Y-100913748D01*
X173924500Y-100913748D01*
X173936132Y-100972230D01*
X173936133Y-100972232D01*
X173980447Y-101038552D01*
X174046767Y-101082866D01*
X174046769Y-101082867D01*
X174105252Y-101094500D01*
X175144748Y-101094500D01*
X175203231Y-101082867D01*
X175269552Y-101038552D01*
X175313867Y-100972231D01*
X175325500Y-100913748D01*
X175325500Y-100203000D01*
X175516353Y-100203000D01*
X175536834Y-100345455D01*
X175596623Y-100476372D01*
X175596623Y-100476374D01*
X175640691Y-100527231D01*
X175690872Y-100585143D01*
X175811947Y-100662953D01*
X175811949Y-100662953D01*
X175811950Y-100662954D01*
X175950036Y-100703499D01*
X175950038Y-100703500D01*
X175950039Y-100703500D01*
X176093962Y-100703500D01*
X176093962Y-100703499D01*
X176232053Y-100662953D01*
X176353128Y-100585143D01*
X176447377Y-100476373D01*
X176507165Y-100345457D01*
X176527647Y-100203000D01*
X176507165Y-100060543D01*
X176447377Y-99929627D01*
X176447376Y-99929625D01*
X176353128Y-99820857D01*
X176345208Y-99815767D01*
X176232053Y-99743047D01*
X176232051Y-99743046D01*
X176232049Y-99743045D01*
X176093963Y-99702500D01*
X176093961Y-99702500D01*
X175950039Y-99702500D01*
X175950037Y-99702500D01*
X175811950Y-99743045D01*
X175690871Y-99820857D01*
X175596623Y-99929625D01*
X175596623Y-99929627D01*
X175536834Y-100060544D01*
X175516353Y-100203000D01*
X175325500Y-100203000D01*
X175325500Y-99874252D01*
X175313867Y-99815769D01*
X175313866Y-99815767D01*
X175269552Y-99749447D01*
X175203232Y-99705133D01*
X175203230Y-99705132D01*
X175144748Y-99693500D01*
X174105252Y-99693500D01*
X174046769Y-99705132D01*
X174046767Y-99705133D01*
X173980447Y-99749447D01*
X173936133Y-99815767D01*
X173936132Y-99815769D01*
X173924500Y-99874251D01*
X173924500Y-100913748D01*
X163373798Y-100913748D01*
X165482962Y-98806000D01*
X172595353Y-98806000D01*
X172615834Y-98948455D01*
X172675623Y-99079372D01*
X172675623Y-99079374D01*
X172769871Y-99188142D01*
X172769872Y-99188143D01*
X172890947Y-99265953D01*
X173022050Y-99304448D01*
X173029036Y-99306499D01*
X173029038Y-99306500D01*
X173029039Y-99306500D01*
X173172962Y-99306500D01*
X173172962Y-99306499D01*
X173311053Y-99265953D01*
X173432128Y-99188143D01*
X173526377Y-99079373D01*
X173586165Y-98948457D01*
X173606647Y-98806000D01*
X173586165Y-98663543D01*
X173526377Y-98532627D01*
X173526376Y-98532625D01*
X173432128Y-98423857D01*
X173422236Y-98417500D01*
X173311053Y-98346047D01*
X173311051Y-98346046D01*
X173311049Y-98346045D01*
X173172963Y-98305500D01*
X173172961Y-98305500D01*
X173029039Y-98305500D01*
X173029037Y-98305500D01*
X172890950Y-98346045D01*
X172769871Y-98423857D01*
X172675623Y-98532625D01*
X172675623Y-98532627D01*
X172615834Y-98663544D01*
X172595353Y-98806000D01*
X165482962Y-98806000D01*
X168457210Y-95833748D01*
X173924500Y-95833748D01*
X173936132Y-95892230D01*
X173936133Y-95892232D01*
X173980447Y-95958552D01*
X174046767Y-96002866D01*
X174046769Y-96002867D01*
X174105252Y-96014500D01*
X175144748Y-96014500D01*
X175203231Y-96002867D01*
X175269552Y-95958552D01*
X175313867Y-95892231D01*
X175325500Y-95833748D01*
X175325500Y-94794252D01*
X175313867Y-94735769D01*
X175313866Y-94735767D01*
X175269552Y-94669447D01*
X175203232Y-94625133D01*
X175203230Y-94625132D01*
X175144748Y-94613500D01*
X174105252Y-94613500D01*
X174046769Y-94625132D01*
X174046767Y-94625133D01*
X173980447Y-94669447D01*
X173936133Y-94735767D01*
X173936132Y-94735769D01*
X173924500Y-94794251D01*
X173924500Y-95833748D01*
X168457210Y-95833748D01*
X169295520Y-94996000D01*
X175736021Y-88559820D01*
X175740543Y-88555724D01*
X175884951Y-88437282D01*
X175895113Y-88430496D01*
X176057108Y-88343951D01*
X176068410Y-88339272D01*
X176244163Y-88285982D01*
X176256171Y-88283595D01*
X176442000Y-88265301D01*
X176448123Y-88265000D01*
X180098930Y-88265000D01*
X180105056Y-88265301D01*
G37*
%TD.AperFunction*%
%TD*%
%TA.AperFunction,Conductor*%
%TO.N,GND*%
G36*
X205995640Y-77619941D02*
G01*
X206306937Y-77636256D01*
X206313438Y-77636938D01*
X206619748Y-77685453D01*
X206626122Y-77686809D01*
X206925661Y-77767070D01*
X206931863Y-77769084D01*
X207182644Y-77865350D01*
X207221381Y-77880220D01*
X207227357Y-77882881D01*
X207503660Y-78023664D01*
X207509308Y-78026924D01*
X207562685Y-78061588D01*
X207769383Y-78195820D01*
X207774676Y-78199665D01*
X208015676Y-78394823D01*
X208020537Y-78399201D01*
X208239798Y-78618462D01*
X208244176Y-78623323D01*
X208439334Y-78864323D01*
X208443179Y-78869616D01*
X208612069Y-79129682D01*
X208615340Y-79135348D01*
X208756118Y-79411642D01*
X208758779Y-79417618D01*
X208869911Y-79707126D01*
X208871932Y-79713348D01*
X208952187Y-80012865D01*
X208953548Y-80019264D01*
X209002060Y-80325558D01*
X209002743Y-80332064D01*
X209019058Y-80643359D01*
X209019144Y-80646630D01*
X209019144Y-86369032D01*
X209000838Y-86413226D01*
X208956644Y-86431532D01*
X208912450Y-86413226D01*
X208909410Y-86409961D01*
X208865128Y-86358857D01*
X208771210Y-86298500D01*
X208744053Y-86281047D01*
X208744051Y-86281046D01*
X208744049Y-86281045D01*
X208605963Y-86240500D01*
X208605961Y-86240500D01*
X208462039Y-86240500D01*
X208462037Y-86240500D01*
X208323950Y-86281045D01*
X208202871Y-86358857D01*
X208108623Y-86467625D01*
X208108623Y-86467627D01*
X208048834Y-86598544D01*
X208028353Y-86741000D01*
X208048834Y-86883455D01*
X208058366Y-86904327D01*
X208096350Y-86987500D01*
X208108623Y-87014372D01*
X208108623Y-87014374D01*
X208202871Y-87123142D01*
X208202872Y-87123143D01*
X208323947Y-87200953D01*
X208323949Y-87200953D01*
X208323950Y-87200954D01*
X208462036Y-87241499D01*
X208462038Y-87241500D01*
X208462039Y-87241500D01*
X208605962Y-87241500D01*
X208605962Y-87241499D01*
X208744053Y-87200953D01*
X208865128Y-87123143D01*
X208909409Y-87072038D01*
X208952185Y-87050626D01*
X208997572Y-87065732D01*
X209018985Y-87108508D01*
X209019144Y-87112967D01*
X209019144Y-127503727D01*
X209019058Y-127506997D01*
X209002747Y-127818291D01*
X209002064Y-127824797D01*
X208953556Y-128131088D01*
X208952195Y-128137488D01*
X208871941Y-128437006D01*
X208869920Y-128443228D01*
X208758789Y-128732735D01*
X208756128Y-128738711D01*
X208615351Y-129015004D01*
X208612080Y-129020670D01*
X208443186Y-129280742D01*
X208439340Y-129286035D01*
X208244195Y-129527016D01*
X208239818Y-129531878D01*
X208020537Y-129751155D01*
X208015675Y-129755532D01*
X207774684Y-129950677D01*
X207769391Y-129954522D01*
X207509323Y-130123407D01*
X207503657Y-130126678D01*
X207227361Y-130267451D01*
X207221385Y-130270112D01*
X206931885Y-130381234D01*
X206925663Y-130383256D01*
X206626126Y-130463508D01*
X206619726Y-130464868D01*
X206313443Y-130513370D01*
X206306937Y-130514053D01*
X205994570Y-130530414D01*
X205991301Y-130530500D01*
X178594440Y-130530500D01*
X178576311Y-130527813D01*
X178498201Y-130504137D01*
X178423403Y-130481466D01*
X178412081Y-130476779D01*
X178250002Y-130390186D01*
X178239816Y-130383382D01*
X178097741Y-130266822D01*
X178089087Y-130258169D01*
X178006125Y-130157105D01*
X177972495Y-130116136D01*
X177965686Y-130105948D01*
X177879051Y-129943901D01*
X177874360Y-129932580D01*
X177821009Y-129756735D01*
X177818618Y-129744716D01*
X177800301Y-129558776D01*
X177800000Y-129552649D01*
X177800000Y-127508000D01*
X183898353Y-127508000D01*
X183918834Y-127650455D01*
X183978623Y-127781372D01*
X183978623Y-127781374D01*
X184072871Y-127890142D01*
X184072872Y-127890143D01*
X184193947Y-127967953D01*
X184193949Y-127967953D01*
X184193950Y-127967954D01*
X184332036Y-128008499D01*
X184332038Y-128008500D01*
X184332039Y-128008500D01*
X184475962Y-128008500D01*
X184475962Y-128008499D01*
X184614053Y-127967953D01*
X184735128Y-127890143D01*
X184829377Y-127781373D01*
X184889165Y-127650457D01*
X184909647Y-127508000D01*
X184889165Y-127365543D01*
X184829377Y-127234627D01*
X184829376Y-127234625D01*
X184735128Y-127125857D01*
X184614053Y-127048047D01*
X184614051Y-127048046D01*
X184614049Y-127048045D01*
X184475963Y-127007500D01*
X184475961Y-127007500D01*
X184332039Y-127007500D01*
X184332037Y-127007500D01*
X184193950Y-127048045D01*
X184072871Y-127125857D01*
X183978623Y-127234625D01*
X183978623Y-127234627D01*
X183918834Y-127365544D01*
X183898353Y-127508000D01*
X177800000Y-127508000D01*
X177800000Y-126185003D01*
X191680785Y-126185003D01*
X191699601Y-126388075D01*
X191699603Y-126388086D01*
X191716819Y-126448591D01*
X191755418Y-126584250D01*
X191846327Y-126766821D01*
X191846328Y-126766822D01*
X191846330Y-126766826D01*
X191969227Y-126929569D01*
X191969232Y-126929574D01*
X191969236Y-126929579D01*
X192071467Y-127022775D01*
X192119954Y-127066977D01*
X192119955Y-127066978D01*
X192119959Y-127066981D01*
X192293363Y-127174348D01*
X192483544Y-127248024D01*
X192684024Y-127285500D01*
X192684027Y-127285500D01*
X192887973Y-127285500D01*
X192887976Y-127285500D01*
X193088456Y-127248024D01*
X193278637Y-127174348D01*
X193452041Y-127066981D01*
X193602764Y-126929579D01*
X193725673Y-126766821D01*
X193816582Y-126584250D01*
X193872397Y-126388083D01*
X193878954Y-126317319D01*
X193891215Y-126185003D01*
X194220785Y-126185003D01*
X194239601Y-126388075D01*
X194239603Y-126388086D01*
X194256819Y-126448591D01*
X194295418Y-126584250D01*
X194386327Y-126766821D01*
X194386328Y-126766822D01*
X194386330Y-126766826D01*
X194509227Y-126929569D01*
X194509232Y-126929574D01*
X194509236Y-126929579D01*
X194611467Y-127022775D01*
X194659954Y-127066977D01*
X194659955Y-127066978D01*
X194659959Y-127066981D01*
X194833363Y-127174348D01*
X195023544Y-127248024D01*
X195224024Y-127285500D01*
X195224027Y-127285500D01*
X195427973Y-127285500D01*
X195427976Y-127285500D01*
X195628456Y-127248024D01*
X195765328Y-127195000D01*
X202870418Y-127195000D01*
X202890700Y-127400930D01*
X202890701Y-127400935D01*
X202950767Y-127598949D01*
X202950769Y-127598954D01*
X203048312Y-127781444D01*
X203048320Y-127781455D01*
X203176494Y-127937637D01*
X203179591Y-127941410D01*
X203339551Y-128072685D01*
X203339554Y-128072686D01*
X203339556Y-128072688D01*
X203381211Y-128094953D01*
X203522047Y-128170232D01*
X203720067Y-128230300D01*
X203926001Y-128250583D01*
X204131935Y-128230300D01*
X204329955Y-128170232D01*
X204512451Y-128072685D01*
X204672411Y-127941410D01*
X204803686Y-127781450D01*
X204901233Y-127598954D01*
X204961301Y-127400934D01*
X204981584Y-127195000D01*
X204961301Y-126989066D01*
X204901233Y-126791046D01*
X204803686Y-126608550D01*
X204672411Y-126448590D01*
X204598686Y-126388086D01*
X204512456Y-126317319D01*
X204512454Y-126317318D01*
X204512451Y-126317315D01*
X204512449Y-126317313D01*
X204512445Y-126317311D01*
X204329955Y-126219768D01*
X204329950Y-126219766D01*
X204131936Y-126159700D01*
X204131931Y-126159699D01*
X203926001Y-126139417D01*
X203720070Y-126159699D01*
X203720065Y-126159700D01*
X203522051Y-126219766D01*
X203522046Y-126219768D01*
X203339556Y-126317311D01*
X203339545Y-126317319D01*
X203179592Y-126448588D01*
X203179589Y-126448591D01*
X203048320Y-126608544D01*
X203048312Y-126608555D01*
X202950769Y-126791045D01*
X202950767Y-126791050D01*
X202890701Y-126989064D01*
X202890700Y-126989069D01*
X202870418Y-127194999D01*
X202870418Y-127195000D01*
X195765328Y-127195000D01*
X195818637Y-127174348D01*
X195992041Y-127066981D01*
X196142764Y-126929579D01*
X196265673Y-126766821D01*
X196356582Y-126584250D01*
X196412397Y-126388083D01*
X196418954Y-126317319D01*
X196431215Y-126185003D01*
X196431215Y-126184996D01*
X196412398Y-125981924D01*
X196412396Y-125981913D01*
X196381527Y-125873423D01*
X196356582Y-125785750D01*
X196265673Y-125603179D01*
X196265670Y-125603175D01*
X196265669Y-125603173D01*
X196142772Y-125440430D01*
X196142767Y-125440425D01*
X196142764Y-125440421D01*
X196047258Y-125353356D01*
X195992045Y-125303022D01*
X195992042Y-125303020D01*
X195992041Y-125303019D01*
X195818637Y-125195652D01*
X195818635Y-125195651D01*
X195763356Y-125174236D01*
X195628456Y-125121976D01*
X195628453Y-125121975D01*
X195628452Y-125121975D01*
X195427980Y-125084500D01*
X195427976Y-125084500D01*
X195224024Y-125084500D01*
X195224019Y-125084500D01*
X195023547Y-125121975D01*
X194833364Y-125195651D01*
X194659954Y-125303022D01*
X194509234Y-125440423D01*
X194509227Y-125440430D01*
X194386330Y-125603173D01*
X194386327Y-125603179D01*
X194295418Y-125785749D01*
X194239603Y-125981913D01*
X194239601Y-125981924D01*
X194220785Y-126184996D01*
X194220785Y-126185003D01*
X193891215Y-126185003D01*
X193891215Y-126184996D01*
X193872398Y-125981924D01*
X193872396Y-125981913D01*
X193841527Y-125873423D01*
X193816582Y-125785750D01*
X193725673Y-125603179D01*
X193725670Y-125603175D01*
X193725669Y-125603173D01*
X193602772Y-125440430D01*
X193602767Y-125440425D01*
X193602764Y-125440421D01*
X193507258Y-125353356D01*
X193452045Y-125303022D01*
X193452042Y-125303020D01*
X193452041Y-125303019D01*
X193278637Y-125195652D01*
X193278635Y-125195651D01*
X193223356Y-125174236D01*
X193088456Y-125121976D01*
X193088453Y-125121975D01*
X193088452Y-125121975D01*
X192887980Y-125084500D01*
X192887976Y-125084500D01*
X192684024Y-125084500D01*
X192684019Y-125084500D01*
X192483547Y-125121975D01*
X192293364Y-125195651D01*
X192119954Y-125303022D01*
X191969234Y-125440423D01*
X191969227Y-125440430D01*
X191846330Y-125603173D01*
X191846327Y-125603179D01*
X191755418Y-125785749D01*
X191699603Y-125981913D01*
X191699601Y-125981924D01*
X191680785Y-126184996D01*
X191680785Y-126185003D01*
X177800000Y-126185003D01*
X177800000Y-125095000D01*
X185422353Y-125095000D01*
X185442834Y-125237455D01*
X185442835Y-125237457D01*
X185500559Y-125363854D01*
X185502623Y-125368372D01*
X185502623Y-125368374D01*
X185549879Y-125422910D01*
X185596872Y-125477143D01*
X185717947Y-125554953D01*
X185717949Y-125554953D01*
X185717950Y-125554954D01*
X185779492Y-125573024D01*
X185845280Y-125592341D01*
X185856036Y-125595499D01*
X185856038Y-125595500D01*
X185856039Y-125595500D01*
X185999962Y-125595500D01*
X185999962Y-125595499D01*
X186138053Y-125554953D01*
X186259128Y-125477143D01*
X186353377Y-125368373D01*
X186413165Y-125237457D01*
X186433647Y-125095000D01*
X186413165Y-124952543D01*
X186353377Y-124821627D01*
X186353376Y-124821625D01*
X186259128Y-124712857D01*
X186231342Y-124695000D01*
X186138053Y-124635047D01*
X186138051Y-124635046D01*
X186138049Y-124635045D01*
X185999963Y-124594500D01*
X185999961Y-124594500D01*
X185856039Y-124594500D01*
X185856037Y-124594500D01*
X185717950Y-124635045D01*
X185596871Y-124712857D01*
X185502623Y-124821625D01*
X185502623Y-124821627D01*
X185442834Y-124952544D01*
X185422353Y-125095000D01*
X177800000Y-125095000D01*
X177800000Y-123645003D01*
X191680785Y-123645003D01*
X191699601Y-123848075D01*
X191699603Y-123848086D01*
X191750267Y-124026145D01*
X191755418Y-124044250D01*
X191846327Y-124226821D01*
X191846328Y-124226822D01*
X191846330Y-124226826D01*
X191969227Y-124389569D01*
X191969232Y-124389574D01*
X191969236Y-124389579D01*
X192071467Y-124482775D01*
X192119954Y-124526977D01*
X192119955Y-124526978D01*
X192119959Y-124526981D01*
X192293363Y-124634348D01*
X192483544Y-124708024D01*
X192684024Y-124745500D01*
X192684027Y-124745500D01*
X192887973Y-124745500D01*
X192887976Y-124745500D01*
X193088456Y-124708024D01*
X193278637Y-124634348D01*
X193452041Y-124526981D01*
X193602764Y-124389579D01*
X193725673Y-124226821D01*
X193816582Y-124044250D01*
X193872397Y-123848083D01*
X193872398Y-123848075D01*
X193891215Y-123645003D01*
X194220785Y-123645003D01*
X194239601Y-123848075D01*
X194239603Y-123848086D01*
X194290267Y-124026145D01*
X194295418Y-124044250D01*
X194386327Y-124226821D01*
X194386328Y-124226822D01*
X194386330Y-124226826D01*
X194509227Y-124389569D01*
X194509232Y-124389574D01*
X194509236Y-124389579D01*
X194611467Y-124482775D01*
X194659954Y-124526977D01*
X194659955Y-124526978D01*
X194659959Y-124526981D01*
X194833363Y-124634348D01*
X195023544Y-124708024D01*
X195224024Y-124745500D01*
X195224027Y-124745500D01*
X195427973Y-124745500D01*
X195427976Y-124745500D01*
X195628456Y-124708024D01*
X195662075Y-124695000D01*
X196770701Y-124695000D01*
X196789867Y-124926305D01*
X196789869Y-124926315D01*
X196846840Y-125151287D01*
X196846842Y-125151295D01*
X196846844Y-125151300D01*
X196913395Y-125303019D01*
X196940078Y-125363851D01*
X196940080Y-125363854D01*
X196943033Y-125368374D01*
X197067022Y-125558153D01*
X197067025Y-125558156D01*
X197224218Y-125728914D01*
X197224221Y-125728917D01*
X197407373Y-125871469D01*
X197407375Y-125871470D01*
X197611498Y-125981936D01*
X197831020Y-126057298D01*
X198059952Y-126095500D01*
X198059955Y-126095500D01*
X198292047Y-126095500D01*
X198292050Y-126095500D01*
X198520982Y-126057298D01*
X198740504Y-125981936D01*
X198944627Y-125871470D01*
X199127785Y-125728913D01*
X199284980Y-125558153D01*
X199411925Y-125363849D01*
X199505158Y-125151300D01*
X199562135Y-124926305D01*
X199581301Y-124695000D01*
X203770701Y-124695000D01*
X203789867Y-124926305D01*
X203789869Y-124926315D01*
X203846840Y-125151287D01*
X203846842Y-125151295D01*
X203846844Y-125151300D01*
X203913395Y-125303019D01*
X203940078Y-125363851D01*
X203940080Y-125363854D01*
X203943033Y-125368374D01*
X204067022Y-125558153D01*
X204067025Y-125558156D01*
X204224218Y-125728914D01*
X204224221Y-125728917D01*
X204407373Y-125871469D01*
X204407375Y-125871470D01*
X204611498Y-125981936D01*
X204831020Y-126057298D01*
X205059952Y-126095500D01*
X205059955Y-126095500D01*
X205292047Y-126095500D01*
X205292050Y-126095500D01*
X205520982Y-126057298D01*
X205740504Y-125981936D01*
X205944627Y-125871470D01*
X206127785Y-125728913D01*
X206284980Y-125558153D01*
X206411925Y-125363849D01*
X206505158Y-125151300D01*
X206562135Y-124926305D01*
X206581301Y-124695000D01*
X206562135Y-124463695D01*
X206505158Y-124238700D01*
X206411925Y-124026151D01*
X206284980Y-123831847D01*
X206127785Y-123661087D01*
X206127784Y-123661086D01*
X206127783Y-123661085D01*
X206127780Y-123661082D01*
X205944628Y-123518530D01*
X205944626Y-123518529D01*
X205880426Y-123483786D01*
X205740504Y-123408064D01*
X205520982Y-123332702D01*
X205292050Y-123294500D01*
X205059952Y-123294500D01*
X204888253Y-123323151D01*
X204831019Y-123332702D01*
X204619366Y-123405363D01*
X204611498Y-123408064D01*
X204548951Y-123441913D01*
X204407375Y-123518529D01*
X204407373Y-123518530D01*
X204224221Y-123661082D01*
X204224218Y-123661085D01*
X204067025Y-123831843D01*
X204067021Y-123831848D01*
X203940080Y-124026145D01*
X203940078Y-124026148D01*
X203846845Y-124238697D01*
X203846840Y-124238712D01*
X203789869Y-124463684D01*
X203789867Y-124463694D01*
X203770701Y-124695000D01*
X199581301Y-124695000D01*
X199562135Y-124463695D01*
X199505158Y-124238700D01*
X199411925Y-124026151D01*
X199284980Y-123831847D01*
X199127785Y-123661087D01*
X199127784Y-123661086D01*
X199127783Y-123661085D01*
X199127780Y-123661082D01*
X198944628Y-123518530D01*
X198944626Y-123518529D01*
X198880426Y-123483786D01*
X198740504Y-123408064D01*
X198520982Y-123332702D01*
X198292050Y-123294500D01*
X198059952Y-123294500D01*
X197888253Y-123323151D01*
X197831019Y-123332702D01*
X197619366Y-123405363D01*
X197611498Y-123408064D01*
X197548951Y-123441913D01*
X197407375Y-123518529D01*
X197407373Y-123518530D01*
X197224221Y-123661082D01*
X197224218Y-123661085D01*
X197067025Y-123831843D01*
X197067021Y-123831848D01*
X196940080Y-124026145D01*
X196940078Y-124026148D01*
X196846845Y-124238697D01*
X196846840Y-124238712D01*
X196789869Y-124463684D01*
X196789867Y-124463694D01*
X196770701Y-124695000D01*
X195662075Y-124695000D01*
X195818637Y-124634348D01*
X195992041Y-124526981D01*
X196142764Y-124389579D01*
X196265673Y-124226821D01*
X196356582Y-124044250D01*
X196412397Y-123848083D01*
X196412398Y-123848075D01*
X196431215Y-123645003D01*
X196431215Y-123644996D01*
X196412398Y-123441924D01*
X196412396Y-123441913D01*
X196381322Y-123332702D01*
X196356582Y-123245750D01*
X196265673Y-123063179D01*
X196265670Y-123063175D01*
X196265669Y-123063173D01*
X196142772Y-122900430D01*
X196142767Y-122900425D01*
X196142764Y-122900421D01*
X196048209Y-122814223D01*
X195992045Y-122763022D01*
X195992042Y-122763020D01*
X195992041Y-122763019D01*
X195818637Y-122655652D01*
X195818635Y-122655651D01*
X195740111Y-122625231D01*
X195628456Y-122581976D01*
X195628453Y-122581975D01*
X195628452Y-122581975D01*
X195427980Y-122544500D01*
X195427976Y-122544500D01*
X195224024Y-122544500D01*
X195224019Y-122544500D01*
X195023547Y-122581975D01*
X195023544Y-122581975D01*
X195023544Y-122581976D01*
X194986706Y-122596247D01*
X194833364Y-122655651D01*
X194659954Y-122763022D01*
X194509234Y-122900423D01*
X194509227Y-122900430D01*
X194386330Y-123063173D01*
X194386327Y-123063179D01*
X194295418Y-123245749D01*
X194239603Y-123441913D01*
X194239601Y-123441924D01*
X194220785Y-123644996D01*
X194220785Y-123645003D01*
X193891215Y-123645003D01*
X193891215Y-123644996D01*
X193872398Y-123441924D01*
X193872396Y-123441913D01*
X193841322Y-123332702D01*
X193816582Y-123245750D01*
X193725673Y-123063179D01*
X193725670Y-123063175D01*
X193725669Y-123063173D01*
X193602772Y-122900430D01*
X193602767Y-122900425D01*
X193602764Y-122900421D01*
X193508209Y-122814223D01*
X193452045Y-122763022D01*
X193452042Y-122763020D01*
X193452041Y-122763019D01*
X193278637Y-122655652D01*
X193278635Y-122655651D01*
X193200111Y-122625231D01*
X193088456Y-122581976D01*
X193088453Y-122581975D01*
X193088452Y-122581975D01*
X192887980Y-122544500D01*
X192887976Y-122544500D01*
X192684024Y-122544500D01*
X192684019Y-122544500D01*
X192483547Y-122581975D01*
X192483544Y-122581975D01*
X192483544Y-122581976D01*
X192446706Y-122596247D01*
X192293364Y-122655651D01*
X192119954Y-122763022D01*
X191969234Y-122900423D01*
X191969227Y-122900430D01*
X191846330Y-123063173D01*
X191846327Y-123063179D01*
X191755418Y-123245749D01*
X191699603Y-123441913D01*
X191699601Y-123441924D01*
X191680785Y-123644996D01*
X191680785Y-123645003D01*
X177800000Y-123645003D01*
X177800000Y-121105003D01*
X191680785Y-121105003D01*
X191699601Y-121308075D01*
X191699603Y-121308086D01*
X191735396Y-121433881D01*
X191755418Y-121504250D01*
X191846327Y-121686821D01*
X191846328Y-121686822D01*
X191846330Y-121686826D01*
X191969227Y-121849569D01*
X191969232Y-121849574D01*
X191969236Y-121849579D01*
X192011028Y-121887677D01*
X192119954Y-121986977D01*
X192119955Y-121986978D01*
X192119959Y-121986981D01*
X192293363Y-122094348D01*
X192483544Y-122168024D01*
X192684024Y-122205500D01*
X192684027Y-122205500D01*
X192887973Y-122205500D01*
X192887976Y-122205500D01*
X193088456Y-122168024D01*
X193278637Y-122094348D01*
X193452041Y-121986981D01*
X193602764Y-121849579D01*
X193618472Y-121828779D01*
X193709776Y-121707872D01*
X193725673Y-121686821D01*
X193816582Y-121504250D01*
X193872397Y-121308083D01*
X193878809Y-121238884D01*
X193891215Y-121105003D01*
X194220785Y-121105003D01*
X194239601Y-121308075D01*
X194239603Y-121308086D01*
X194275396Y-121433881D01*
X194295418Y-121504250D01*
X194386327Y-121686821D01*
X194386328Y-121686822D01*
X194386330Y-121686826D01*
X194509227Y-121849569D01*
X194509232Y-121849574D01*
X194509236Y-121849579D01*
X194551028Y-121887677D01*
X194659954Y-121986977D01*
X194659955Y-121986978D01*
X194659959Y-121986981D01*
X194833363Y-122094348D01*
X195023544Y-122168024D01*
X195224024Y-122205500D01*
X195224027Y-122205500D01*
X195427973Y-122205500D01*
X195427976Y-122205500D01*
X195628456Y-122168024D01*
X195818637Y-122094348D01*
X195992041Y-121986981D01*
X196142764Y-121849579D01*
X196158472Y-121828779D01*
X196249776Y-121707872D01*
X196265673Y-121686821D01*
X196356582Y-121504250D01*
X196412397Y-121308083D01*
X196418809Y-121238884D01*
X196431215Y-121105003D01*
X196431215Y-121104996D01*
X196412398Y-120901924D01*
X196412396Y-120901913D01*
X196382367Y-120796374D01*
X196356582Y-120705750D01*
X196265673Y-120523179D01*
X196265670Y-120523175D01*
X196265669Y-120523173D01*
X196142772Y-120360430D01*
X196142767Y-120360425D01*
X196142764Y-120360421D01*
X196021229Y-120249627D01*
X195992045Y-120223022D01*
X195992042Y-120223020D01*
X195992041Y-120223019D01*
X195825273Y-120119761D01*
X198983787Y-120119761D01*
X199013357Y-120388499D01*
X199013414Y-120389018D01*
X199081928Y-120651088D01*
X199187870Y-120900390D01*
X199292039Y-121071077D01*
X199328983Y-121131612D01*
X199502253Y-121339818D01*
X199502267Y-121339832D01*
X199703988Y-121520574D01*
X199703993Y-121520578D01*
X199703998Y-121520582D01*
X199776902Y-121568815D01*
X199929906Y-121670042D01*
X199929908Y-121670043D01*
X199929910Y-121670044D01*
X200175176Y-121785020D01*
X200434569Y-121863060D01*
X200702561Y-121902500D01*
X200702562Y-121902500D01*
X200905628Y-121902500D01*
X200905631Y-121902500D01*
X200905634Y-121902499D01*
X200905652Y-121902499D01*
X201108147Y-121887678D01*
X201108149Y-121887677D01*
X201108156Y-121887677D01*
X201372553Y-121828780D01*
X201625558Y-121732014D01*
X201861777Y-121599441D01*
X201940047Y-121539003D01*
X206715355Y-121539003D01*
X206735858Y-121707864D01*
X206735859Y-121707870D01*
X206796182Y-121866931D01*
X206892811Y-122006922D01*
X206892818Y-122006930D01*
X207020148Y-122119734D01*
X207042998Y-122131727D01*
X207170775Y-122198790D01*
X207335944Y-122239500D01*
X207335946Y-122239500D01*
X207506054Y-122239500D01*
X207506056Y-122239500D01*
X207671225Y-122198790D01*
X207821852Y-122119734D01*
X207949183Y-122006929D01*
X208045818Y-121866930D01*
X208106140Y-121707872D01*
X208106141Y-121707864D01*
X208126645Y-121539003D01*
X208126645Y-121538996D01*
X208106141Y-121370135D01*
X208106140Y-121370129D01*
X208094645Y-121339820D01*
X208045818Y-121211070D01*
X208030213Y-121188462D01*
X207949188Y-121071077D01*
X207949181Y-121071069D01*
X207821851Y-120958265D01*
X207671226Y-120879210D01*
X207506059Y-120838500D01*
X207506056Y-120838500D01*
X207335944Y-120838500D01*
X207335940Y-120838500D01*
X207170773Y-120879210D01*
X207020148Y-120958265D01*
X206892818Y-121071069D01*
X206892811Y-121071077D01*
X206796182Y-121211068D01*
X206735859Y-121370129D01*
X206735858Y-121370135D01*
X206715355Y-121538996D01*
X206715355Y-121539003D01*
X201940047Y-121539003D01*
X202076177Y-121433888D01*
X202264186Y-121238881D01*
X202412095Y-121032143D01*
X202421795Y-121018585D01*
X202421795Y-121018583D01*
X202421799Y-121018579D01*
X202545656Y-120777675D01*
X202633118Y-120521305D01*
X202682319Y-120254933D01*
X202692212Y-119984235D01*
X202662586Y-119714982D01*
X202594072Y-119452912D01*
X202488130Y-119203610D01*
X202347018Y-118972390D01*
X202329178Y-118950953D01*
X202173746Y-118764181D01*
X202173732Y-118764167D01*
X201972011Y-118583425D01*
X201972004Y-118583420D01*
X201972002Y-118583418D01*
X201945108Y-118565625D01*
X201746093Y-118433957D01*
X201746091Y-118433956D01*
X201580861Y-118356500D01*
X201500824Y-118318980D01*
X201500821Y-118318979D01*
X201500819Y-118318978D01*
X201241440Y-118240942D01*
X201241426Y-118240939D01*
X200973445Y-118201500D01*
X200973439Y-118201500D01*
X200770369Y-118201500D01*
X200770347Y-118201500D01*
X200567852Y-118216321D01*
X200303447Y-118275220D01*
X200303445Y-118275220D01*
X200050440Y-118371986D01*
X199814223Y-118504558D01*
X199599824Y-118670111D01*
X199599815Y-118670118D01*
X199411817Y-118865115D01*
X199411809Y-118865124D01*
X199254204Y-119085414D01*
X199130340Y-119326332D01*
X199042886Y-119582681D01*
X199042880Y-119582701D01*
X198993682Y-119849058D01*
X198993680Y-119849079D01*
X198983787Y-120119761D01*
X195825273Y-120119761D01*
X195818637Y-120115652D01*
X195818635Y-120115651D01*
X195763356Y-120094236D01*
X195628456Y-120041976D01*
X195628453Y-120041975D01*
X195628452Y-120041975D01*
X195427980Y-120004500D01*
X195427976Y-120004500D01*
X195224024Y-120004500D01*
X195224019Y-120004500D01*
X195023547Y-120041975D01*
X194833364Y-120115651D01*
X194659954Y-120223022D01*
X194509234Y-120360423D01*
X194509227Y-120360430D01*
X194386330Y-120523173D01*
X194386327Y-120523179D01*
X194295418Y-120705749D01*
X194239603Y-120901913D01*
X194239601Y-120901924D01*
X194220785Y-121104996D01*
X194220785Y-121105003D01*
X193891215Y-121105003D01*
X193891215Y-121104996D01*
X193872398Y-120901924D01*
X193872396Y-120901913D01*
X193842367Y-120796374D01*
X193816582Y-120705750D01*
X193725673Y-120523179D01*
X193725670Y-120523175D01*
X193725669Y-120523173D01*
X193602772Y-120360430D01*
X193602767Y-120360425D01*
X193602764Y-120360421D01*
X193481229Y-120249627D01*
X193452045Y-120223022D01*
X193452042Y-120223020D01*
X193452041Y-120223019D01*
X193278637Y-120115652D01*
X193278635Y-120115651D01*
X193223356Y-120094236D01*
X193088456Y-120041976D01*
X193088453Y-120041975D01*
X193088452Y-120041975D01*
X192887980Y-120004500D01*
X192887976Y-120004500D01*
X192684024Y-120004500D01*
X192684019Y-120004500D01*
X192483547Y-120041975D01*
X192293364Y-120115651D01*
X192119954Y-120223022D01*
X191969234Y-120360423D01*
X191969227Y-120360430D01*
X191846330Y-120523173D01*
X191846327Y-120523179D01*
X191755418Y-120705749D01*
X191699603Y-120901913D01*
X191699601Y-120901924D01*
X191680785Y-121104996D01*
X191680785Y-121105003D01*
X177800000Y-121105003D01*
X177800000Y-120523000D01*
X183644353Y-120523000D01*
X183664834Y-120665455D01*
X183664835Y-120665457D01*
X183716080Y-120777667D01*
X183724623Y-120796372D01*
X183724623Y-120796374D01*
X183816073Y-120901913D01*
X183818872Y-120905143D01*
X183939947Y-120982953D01*
X184061279Y-121018579D01*
X184078036Y-121023499D01*
X184078038Y-121023500D01*
X184078039Y-121023500D01*
X184221962Y-121023500D01*
X184221962Y-121023499D01*
X184360053Y-120982953D01*
X184481128Y-120905143D01*
X184575377Y-120796373D01*
X184635165Y-120665457D01*
X184655647Y-120523000D01*
X184635165Y-120380543D01*
X184575377Y-120249627D01*
X184575376Y-120249625D01*
X184481128Y-120140857D01*
X184441908Y-120115652D01*
X184360053Y-120063047D01*
X184360051Y-120063046D01*
X184360049Y-120063045D01*
X184221963Y-120022500D01*
X184221961Y-120022500D01*
X184078039Y-120022500D01*
X184078037Y-120022500D01*
X183939950Y-120063045D01*
X183818871Y-120140857D01*
X183724623Y-120249625D01*
X183724623Y-120249627D01*
X183664834Y-120380544D01*
X183644353Y-120523000D01*
X177800000Y-120523000D01*
X177800000Y-119888000D01*
X182120353Y-119888000D01*
X182140834Y-120030455D01*
X182140835Y-120030457D01*
X182181619Y-120119761D01*
X182200623Y-120161372D01*
X182200623Y-120161374D01*
X182281699Y-120254941D01*
X182294872Y-120270143D01*
X182415947Y-120347953D01*
X182415949Y-120347953D01*
X182415950Y-120347954D01*
X182554036Y-120388499D01*
X182554038Y-120388500D01*
X182554039Y-120388500D01*
X182697962Y-120388500D01*
X182697962Y-120388499D01*
X182836053Y-120347953D01*
X182957128Y-120270143D01*
X183051377Y-120161373D01*
X183111165Y-120030457D01*
X183131647Y-119888000D01*
X183117169Y-119787303D01*
X183128999Y-119740955D01*
X183170138Y-119716546D01*
X183196641Y-119718442D01*
X183316036Y-119753499D01*
X183316038Y-119753500D01*
X183316039Y-119753500D01*
X183459962Y-119753500D01*
X183459962Y-119753499D01*
X183598053Y-119712953D01*
X183719128Y-119635143D01*
X183813377Y-119526373D01*
X183873165Y-119395457D01*
X183893647Y-119253000D01*
X183873165Y-119110543D01*
X183813377Y-118979627D01*
X183813376Y-118979625D01*
X183719128Y-118870857D01*
X183710193Y-118865115D01*
X183598053Y-118793047D01*
X183598051Y-118793046D01*
X183598049Y-118793045D01*
X183459963Y-118752500D01*
X183459961Y-118752500D01*
X183316039Y-118752500D01*
X183316037Y-118752500D01*
X183177950Y-118793045D01*
X183056871Y-118870857D01*
X182962623Y-118979625D01*
X182962623Y-118979627D01*
X182902834Y-119110544D01*
X182882353Y-119253000D01*
X182896830Y-119353695D01*
X182885000Y-119400044D01*
X182843860Y-119424453D01*
X182817358Y-119422557D01*
X182697963Y-119387500D01*
X182697961Y-119387500D01*
X182554039Y-119387500D01*
X182554037Y-119387500D01*
X182415950Y-119428045D01*
X182294871Y-119505857D01*
X182200623Y-119614625D01*
X182200623Y-119614627D01*
X182140834Y-119745544D01*
X182120353Y-119888000D01*
X177800000Y-119888000D01*
X177800000Y-118618000D01*
X184533353Y-118618000D01*
X184553834Y-118760455D01*
X184553835Y-118760457D01*
X184601635Y-118865124D01*
X184613623Y-118891372D01*
X184613623Y-118891374D01*
X184683267Y-118971747D01*
X184707872Y-119000143D01*
X184828947Y-119077953D01*
X184828949Y-119077953D01*
X184828950Y-119077954D01*
X184967036Y-119118499D01*
X184967038Y-119118500D01*
X184967039Y-119118500D01*
X185110962Y-119118500D01*
X185110962Y-119118499D01*
X185249053Y-119077953D01*
X185370128Y-119000143D01*
X185464377Y-118891373D01*
X185524165Y-118760457D01*
X185544647Y-118618000D01*
X185524165Y-118475543D01*
X185464377Y-118344627D01*
X185464376Y-118344625D01*
X185370128Y-118235857D01*
X185347525Y-118221331D01*
X185249053Y-118158047D01*
X185249051Y-118158046D01*
X185249049Y-118158045D01*
X185110963Y-118117500D01*
X185110961Y-118117500D01*
X184967039Y-118117500D01*
X184967037Y-118117500D01*
X184828950Y-118158045D01*
X184707871Y-118235857D01*
X184613623Y-118344625D01*
X184613623Y-118344627D01*
X184553834Y-118475544D01*
X184533353Y-118618000D01*
X177800000Y-118618000D01*
X177800000Y-117856003D01*
X206715355Y-117856003D01*
X206735858Y-118024864D01*
X206735859Y-118024870D01*
X206796182Y-118183931D01*
X206892811Y-118323922D01*
X206892818Y-118323930D01*
X206929582Y-118356500D01*
X207020148Y-118436734D01*
X207170775Y-118515790D01*
X207335944Y-118556500D01*
X207335946Y-118556500D01*
X207506054Y-118556500D01*
X207506056Y-118556500D01*
X207671225Y-118515790D01*
X207821852Y-118436734D01*
X207949183Y-118323929D01*
X207952601Y-118318978D01*
X208006465Y-118240942D01*
X208045818Y-118183930D01*
X208106140Y-118024872D01*
X208117058Y-117934953D01*
X208126645Y-117856003D01*
X208126645Y-117855996D01*
X208106141Y-117687135D01*
X208106140Y-117687129D01*
X208079717Y-117617457D01*
X208045818Y-117528070D01*
X208045817Y-117528068D01*
X207949188Y-117388077D01*
X207949181Y-117388069D01*
X207821851Y-117275265D01*
X207671226Y-117196210D01*
X207506059Y-117155500D01*
X207506056Y-117155500D01*
X207335944Y-117155500D01*
X207335940Y-117155500D01*
X207170773Y-117196210D01*
X207020148Y-117275265D01*
X206892818Y-117388069D01*
X206892811Y-117388077D01*
X206796182Y-117528068D01*
X206735859Y-117687129D01*
X206735858Y-117687135D01*
X206715355Y-117855996D01*
X206715355Y-117856003D01*
X177800000Y-117856003D01*
X177800000Y-116505376D01*
X177800300Y-116499259D01*
X177800946Y-116492684D01*
X177818560Y-116313601D01*
X177820941Y-116301613D01*
X177874125Y-116126024D01*
X177878800Y-116114720D01*
X177965178Y-115952846D01*
X177971958Y-115942681D01*
X178090164Y-115798360D01*
X178094273Y-115793817D01*
X178112096Y-115775954D01*
X178571028Y-115316000D01*
X185295353Y-115316000D01*
X185315834Y-115458455D01*
X185375623Y-115589372D01*
X185375623Y-115589374D01*
X185455304Y-115681331D01*
X185469872Y-115698143D01*
X185590947Y-115775953D01*
X185590949Y-115775953D01*
X185590950Y-115775954D01*
X185729036Y-115816499D01*
X185729038Y-115816500D01*
X185729039Y-115816500D01*
X185872962Y-115816500D01*
X185872962Y-115816499D01*
X186011053Y-115775953D01*
X186132128Y-115698143D01*
X186226377Y-115589373D01*
X186286165Y-115458457D01*
X186306647Y-115316000D01*
X186286165Y-115173543D01*
X186226377Y-115042627D01*
X186226376Y-115042625D01*
X186132128Y-114933857D01*
X186011053Y-114856047D01*
X186011051Y-114856046D01*
X186011049Y-114856045D01*
X185872963Y-114815500D01*
X185872961Y-114815500D01*
X185729039Y-114815500D01*
X185729037Y-114815500D01*
X185590950Y-114856045D01*
X185469871Y-114933857D01*
X185375623Y-115042625D01*
X185375623Y-115042627D01*
X185315834Y-115173544D01*
X185295353Y-115316000D01*
X178571028Y-115316000D01*
X179838207Y-114046000D01*
X185422353Y-114046000D01*
X185442834Y-114188455D01*
X185502623Y-114319372D01*
X185502623Y-114319374D01*
X185589382Y-114419499D01*
X185596872Y-114428143D01*
X185717947Y-114505953D01*
X185717949Y-114505953D01*
X185717950Y-114505954D01*
X185856036Y-114546499D01*
X185856038Y-114546500D01*
X185856039Y-114546500D01*
X185999962Y-114546500D01*
X185999962Y-114546499D01*
X186138053Y-114505953D01*
X186259128Y-114428143D01*
X186353377Y-114319373D01*
X186413165Y-114188457D01*
X186433647Y-114046000D01*
X186415387Y-113919000D01*
X204345353Y-113919000D01*
X204365834Y-114061455D01*
X204425623Y-114192372D01*
X204425623Y-114192374D01*
X204519871Y-114301142D01*
X204519872Y-114301143D01*
X204640947Y-114378953D01*
X204640949Y-114378953D01*
X204640950Y-114378954D01*
X204779036Y-114419499D01*
X204779038Y-114419500D01*
X204779039Y-114419500D01*
X204922962Y-114419500D01*
X204922962Y-114419499D01*
X205061053Y-114378953D01*
X205182128Y-114301143D01*
X205276377Y-114192373D01*
X205336165Y-114061457D01*
X205356647Y-113919000D01*
X205336165Y-113776543D01*
X205276377Y-113645627D01*
X205276376Y-113645625D01*
X205182128Y-113536857D01*
X205153950Y-113518748D01*
X205061053Y-113459047D01*
X205061051Y-113459046D01*
X205061049Y-113459045D01*
X204922963Y-113418500D01*
X204922961Y-113418500D01*
X204779039Y-113418500D01*
X204779037Y-113418500D01*
X204640950Y-113459045D01*
X204519871Y-113536857D01*
X204425623Y-113645625D01*
X204425623Y-113645627D01*
X204365834Y-113776544D01*
X204345353Y-113919000D01*
X186415387Y-113919000D01*
X186413165Y-113903543D01*
X186353377Y-113772627D01*
X186353376Y-113772625D01*
X186259128Y-113663857D01*
X186138053Y-113586047D01*
X186138051Y-113586046D01*
X186138049Y-113586045D01*
X185999963Y-113545500D01*
X185999961Y-113545500D01*
X185856039Y-113545500D01*
X185856037Y-113545500D01*
X185717950Y-113586045D01*
X185596871Y-113663857D01*
X185502623Y-113772625D01*
X185502623Y-113772627D01*
X185442834Y-113903544D01*
X185422353Y-114046000D01*
X179838207Y-114046000D01*
X180213000Y-113670373D01*
X182333893Y-111544758D01*
X182333895Y-111544755D01*
X182626000Y-111252000D01*
X182626000Y-110998000D01*
X189486353Y-110998000D01*
X189506834Y-111140455D01*
X189566623Y-111271372D01*
X189566623Y-111271374D01*
X189610691Y-111322231D01*
X189660872Y-111380143D01*
X189781947Y-111457953D01*
X189781949Y-111457953D01*
X189781950Y-111457954D01*
X189920036Y-111498499D01*
X189920038Y-111498500D01*
X189920039Y-111498500D01*
X190063962Y-111498500D01*
X190063962Y-111498499D01*
X190202053Y-111457953D01*
X190323128Y-111380143D01*
X190417377Y-111271373D01*
X190477165Y-111140457D01*
X190497647Y-110998000D01*
X190477165Y-110855543D01*
X190417377Y-110724627D01*
X190417376Y-110724625D01*
X190323128Y-110615857D01*
X190250145Y-110568954D01*
X190202053Y-110538047D01*
X190202051Y-110538046D01*
X190202049Y-110538045D01*
X190063963Y-110497500D01*
X190063961Y-110497500D01*
X189920039Y-110497500D01*
X189920037Y-110497500D01*
X189781950Y-110538045D01*
X189660871Y-110615857D01*
X189566623Y-110724625D01*
X189566623Y-110724627D01*
X189506834Y-110855544D01*
X189486353Y-110998000D01*
X182626000Y-110998000D01*
X182626000Y-110109000D01*
X191233853Y-110109000D01*
X191254334Y-110251455D01*
X191254335Y-110251457D01*
X191301850Y-110355500D01*
X191314123Y-110382372D01*
X191314123Y-110382374D01*
X191408371Y-110491142D01*
X191408372Y-110491143D01*
X191529447Y-110568953D01*
X191529449Y-110568953D01*
X191529450Y-110568954D01*
X191667536Y-110609499D01*
X191667538Y-110609500D01*
X191667539Y-110609500D01*
X191811462Y-110609500D01*
X191811462Y-110609499D01*
X191949553Y-110568953D01*
X192070628Y-110491143D01*
X192164877Y-110382373D01*
X192224665Y-110251457D01*
X192245147Y-110109000D01*
X192224665Y-109966543D01*
X192164877Y-109835627D01*
X192164876Y-109835625D01*
X192071618Y-109728000D01*
X198884353Y-109728000D01*
X198904834Y-109870455D01*
X198904835Y-109870457D01*
X198948716Y-109966543D01*
X198964623Y-110001372D01*
X198964623Y-110001374D01*
X199058871Y-110110142D01*
X199058872Y-110110143D01*
X199179947Y-110187953D01*
X199303571Y-110224252D01*
X199318036Y-110228499D01*
X199318038Y-110228500D01*
X199318039Y-110228500D01*
X199461962Y-110228500D01*
X199461962Y-110228499D01*
X199600053Y-110187953D01*
X199721128Y-110110143D01*
X199815377Y-110001373D01*
X199875165Y-109870457D01*
X199895647Y-109728000D01*
X206123353Y-109728000D01*
X206143834Y-109870455D01*
X206143835Y-109870457D01*
X206187716Y-109966543D01*
X206203623Y-110001372D01*
X206203623Y-110001374D01*
X206297871Y-110110142D01*
X206297872Y-110110143D01*
X206418947Y-110187953D01*
X206542571Y-110224252D01*
X206557036Y-110228499D01*
X206557038Y-110228500D01*
X206557039Y-110228500D01*
X206700962Y-110228500D01*
X206700962Y-110228499D01*
X206839053Y-110187953D01*
X206960128Y-110110143D01*
X207054377Y-110001373D01*
X207114165Y-109870457D01*
X207134647Y-109728000D01*
X207114165Y-109585543D01*
X207054377Y-109454627D01*
X207054376Y-109454625D01*
X206960128Y-109345857D01*
X206839053Y-109268047D01*
X206839051Y-109268046D01*
X206839049Y-109268045D01*
X206700963Y-109227500D01*
X206700961Y-109227500D01*
X206557039Y-109227500D01*
X206557037Y-109227500D01*
X206418950Y-109268045D01*
X206297871Y-109345857D01*
X206203623Y-109454625D01*
X206203623Y-109454627D01*
X206143834Y-109585544D01*
X206123353Y-109728000D01*
X199895647Y-109728000D01*
X199875165Y-109585543D01*
X199815377Y-109454627D01*
X199815376Y-109454625D01*
X199721128Y-109345857D01*
X199600053Y-109268047D01*
X199600051Y-109268046D01*
X199600049Y-109268045D01*
X199461963Y-109227500D01*
X199461961Y-109227500D01*
X199318039Y-109227500D01*
X199318037Y-109227500D01*
X199179950Y-109268045D01*
X199058871Y-109345857D01*
X198964623Y-109454625D01*
X198964623Y-109454627D01*
X198904834Y-109585544D01*
X198884353Y-109728000D01*
X192071618Y-109728000D01*
X192070628Y-109726857D01*
X192036689Y-109705046D01*
X191949553Y-109649047D01*
X191949551Y-109649046D01*
X191949549Y-109649045D01*
X191811463Y-109608500D01*
X191811461Y-109608500D01*
X191667539Y-109608500D01*
X191667537Y-109608500D01*
X191529450Y-109649045D01*
X191408371Y-109726857D01*
X191314123Y-109835625D01*
X191314123Y-109835627D01*
X191254334Y-109966544D01*
X191233853Y-110109000D01*
X182626000Y-110109000D01*
X182626000Y-108077000D01*
X187454353Y-108077000D01*
X187474834Y-108219455D01*
X187534623Y-108350372D01*
X187534623Y-108350374D01*
X187614488Y-108442543D01*
X187628872Y-108459143D01*
X187749947Y-108536953D01*
X187749949Y-108536953D01*
X187749950Y-108536954D01*
X187888036Y-108577499D01*
X187888038Y-108577500D01*
X187888039Y-108577500D01*
X188031962Y-108577500D01*
X188031962Y-108577499D01*
X188170053Y-108536953D01*
X188291128Y-108459143D01*
X188385377Y-108350373D01*
X188445165Y-108219457D01*
X188465647Y-108077000D01*
X188445165Y-107934543D01*
X188385377Y-107803627D01*
X188385376Y-107803625D01*
X188291128Y-107694857D01*
X188170053Y-107617047D01*
X188170051Y-107617046D01*
X188170049Y-107617045D01*
X188031963Y-107576500D01*
X188031961Y-107576500D01*
X187888039Y-107576500D01*
X187888037Y-107576500D01*
X187749950Y-107617045D01*
X187628871Y-107694857D01*
X187534623Y-107803625D01*
X187534623Y-107803627D01*
X187474834Y-107934544D01*
X187454353Y-108077000D01*
X182626000Y-108077000D01*
X182626000Y-107569000D01*
X195582353Y-107569000D01*
X195602834Y-107711455D01*
X195602835Y-107711457D01*
X195650350Y-107815500D01*
X195662623Y-107842372D01*
X195662623Y-107842374D01*
X195742488Y-107934543D01*
X195756872Y-107951143D01*
X195877947Y-108028953D01*
X195877949Y-108028953D01*
X195877950Y-108028954D01*
X196016036Y-108069499D01*
X196016038Y-108069500D01*
X196016039Y-108069500D01*
X196159962Y-108069500D01*
X196159962Y-108069499D01*
X196298053Y-108028953D01*
X196419128Y-107951143D01*
X196513377Y-107842373D01*
X196573165Y-107711457D01*
X196593647Y-107569000D01*
X196852353Y-107569000D01*
X196872834Y-107711455D01*
X196872835Y-107711457D01*
X196920350Y-107815500D01*
X196932623Y-107842372D01*
X196932623Y-107842374D01*
X197012488Y-107934543D01*
X197026872Y-107951143D01*
X197147947Y-108028953D01*
X197147949Y-108028953D01*
X197147950Y-108028954D01*
X197286036Y-108069499D01*
X197286038Y-108069500D01*
X197286039Y-108069500D01*
X197429962Y-108069500D01*
X197429962Y-108069499D01*
X197568053Y-108028953D01*
X197689128Y-107951143D01*
X197783377Y-107842373D01*
X197843165Y-107711457D01*
X197863647Y-107569000D01*
X198122353Y-107569000D01*
X198142834Y-107711455D01*
X198142835Y-107711457D01*
X198190350Y-107815500D01*
X198202623Y-107842372D01*
X198202623Y-107842374D01*
X198282488Y-107934543D01*
X198296872Y-107951143D01*
X198417947Y-108028953D01*
X198417949Y-108028953D01*
X198417950Y-108028954D01*
X198556036Y-108069499D01*
X198556038Y-108069500D01*
X198556039Y-108069500D01*
X198699962Y-108069500D01*
X198699962Y-108069499D01*
X198838053Y-108028953D01*
X198959128Y-107951143D01*
X199053377Y-107842373D01*
X199113165Y-107711457D01*
X199133647Y-107569000D01*
X205742353Y-107569000D01*
X205762834Y-107711455D01*
X205762835Y-107711457D01*
X205810350Y-107815500D01*
X205822623Y-107842372D01*
X205822623Y-107842374D01*
X205902488Y-107934543D01*
X205916872Y-107951143D01*
X206037947Y-108028953D01*
X206037949Y-108028953D01*
X206037950Y-108028954D01*
X206176036Y-108069499D01*
X206176038Y-108069500D01*
X206176039Y-108069500D01*
X206319962Y-108069500D01*
X206319962Y-108069499D01*
X206458053Y-108028953D01*
X206579128Y-107951143D01*
X206673377Y-107842373D01*
X206733165Y-107711457D01*
X206753647Y-107569000D01*
X206733165Y-107426543D01*
X206673377Y-107295627D01*
X206673376Y-107295625D01*
X206579128Y-107186857D01*
X206556855Y-107172543D01*
X206458053Y-107109047D01*
X206458051Y-107109046D01*
X206458049Y-107109045D01*
X206319963Y-107068500D01*
X206319961Y-107068500D01*
X206176039Y-107068500D01*
X206176037Y-107068500D01*
X206037950Y-107109045D01*
X205916871Y-107186857D01*
X205822623Y-107295625D01*
X205822623Y-107295627D01*
X205762834Y-107426544D01*
X205742353Y-107569000D01*
X199133647Y-107569000D01*
X199113165Y-107426543D01*
X199053377Y-107295627D01*
X199053376Y-107295625D01*
X198959128Y-107186857D01*
X198936855Y-107172543D01*
X198838053Y-107109047D01*
X198838051Y-107109046D01*
X198838049Y-107109045D01*
X198699963Y-107068500D01*
X198699961Y-107068500D01*
X198556039Y-107068500D01*
X198556037Y-107068500D01*
X198417950Y-107109045D01*
X198296871Y-107186857D01*
X198202623Y-107295625D01*
X198202623Y-107295627D01*
X198142834Y-107426544D01*
X198122353Y-107569000D01*
X197863647Y-107569000D01*
X197843165Y-107426543D01*
X197783377Y-107295627D01*
X197783376Y-107295625D01*
X197689128Y-107186857D01*
X197666855Y-107172543D01*
X197568053Y-107109047D01*
X197568051Y-107109046D01*
X197568049Y-107109045D01*
X197429963Y-107068500D01*
X197429961Y-107068500D01*
X197286039Y-107068500D01*
X197286037Y-107068500D01*
X197147950Y-107109045D01*
X197026871Y-107186857D01*
X196932623Y-107295625D01*
X196932623Y-107295627D01*
X196872834Y-107426544D01*
X196852353Y-107569000D01*
X196593647Y-107569000D01*
X196573165Y-107426543D01*
X196513377Y-107295627D01*
X196513376Y-107295625D01*
X196419128Y-107186857D01*
X196396855Y-107172543D01*
X196298053Y-107109047D01*
X196298051Y-107109046D01*
X196298049Y-107109045D01*
X196159963Y-107068500D01*
X196159961Y-107068500D01*
X196016039Y-107068500D01*
X196016037Y-107068500D01*
X195877950Y-107109045D01*
X195756871Y-107186857D01*
X195662623Y-107295625D01*
X195662623Y-107295627D01*
X195602834Y-107426544D01*
X195582353Y-107569000D01*
X182626000Y-107569000D01*
X182626000Y-106426000D01*
X189486353Y-106426000D01*
X189506834Y-106568455D01*
X189506835Y-106568457D01*
X189550716Y-106664543D01*
X189566623Y-106699372D01*
X189566623Y-106699374D01*
X189660871Y-106808142D01*
X189660872Y-106808143D01*
X189781947Y-106885953D01*
X189781949Y-106885953D01*
X189781950Y-106885954D01*
X189920036Y-106926499D01*
X189920038Y-106926500D01*
X189920039Y-106926500D01*
X190063962Y-106926500D01*
X190063962Y-106926499D01*
X190202053Y-106885953D01*
X190323128Y-106808143D01*
X190417377Y-106699373D01*
X190477165Y-106568457D01*
X190497647Y-106426000D01*
X190477165Y-106283543D01*
X190417377Y-106152627D01*
X190417376Y-106152625D01*
X190323128Y-106043857D01*
X190250145Y-105996954D01*
X190202053Y-105966047D01*
X190202051Y-105966046D01*
X190202049Y-105966045D01*
X190063963Y-105925500D01*
X190063961Y-105925500D01*
X189920039Y-105925500D01*
X189920037Y-105925500D01*
X189781950Y-105966045D01*
X189660871Y-106043857D01*
X189566623Y-106152625D01*
X189566623Y-106152627D01*
X189506834Y-106283544D01*
X189486353Y-106426000D01*
X182626000Y-106426000D01*
X182626000Y-105537000D01*
X187454353Y-105537000D01*
X187474834Y-105679455D01*
X187534623Y-105810372D01*
X187534623Y-105810374D01*
X187618077Y-105906685D01*
X187628872Y-105919143D01*
X187749947Y-105996953D01*
X187749949Y-105996953D01*
X187749950Y-105996954D01*
X187888036Y-106037499D01*
X187888038Y-106037500D01*
X187888039Y-106037500D01*
X188031962Y-106037500D01*
X188031962Y-106037499D01*
X188170053Y-105996953D01*
X188291128Y-105919143D01*
X188385377Y-105810373D01*
X188445165Y-105679457D01*
X188465647Y-105537000D01*
X188445165Y-105394543D01*
X188385377Y-105263627D01*
X188385376Y-105263625D01*
X188291128Y-105154857D01*
X188170053Y-105077047D01*
X188170051Y-105077046D01*
X188170049Y-105077045D01*
X188031963Y-105036500D01*
X188031961Y-105036500D01*
X187888039Y-105036500D01*
X187888037Y-105036500D01*
X187749950Y-105077045D01*
X187628871Y-105154857D01*
X187534623Y-105263625D01*
X187534623Y-105263627D01*
X187474834Y-105394544D01*
X187454353Y-105537000D01*
X182626000Y-105537000D01*
X182626000Y-104267000D01*
X184279353Y-104267000D01*
X184299834Y-104409455D01*
X184359623Y-104540372D01*
X184359623Y-104540374D01*
X184403691Y-104591231D01*
X184453872Y-104649143D01*
X184574947Y-104726953D01*
X184574949Y-104726953D01*
X184574950Y-104726954D01*
X184713036Y-104767499D01*
X184713038Y-104767500D01*
X184713039Y-104767500D01*
X184856962Y-104767500D01*
X184856962Y-104767499D01*
X184995053Y-104726953D01*
X185116128Y-104649143D01*
X185210377Y-104540373D01*
X185270165Y-104409457D01*
X185290647Y-104267000D01*
X185270165Y-104124543D01*
X185210377Y-103993627D01*
X185210376Y-103993625D01*
X185116128Y-103884857D01*
X184995053Y-103807047D01*
X184995051Y-103807046D01*
X184995049Y-103807045D01*
X184856963Y-103766500D01*
X184856961Y-103766500D01*
X184713039Y-103766500D01*
X184713037Y-103766500D01*
X184574950Y-103807045D01*
X184453871Y-103884857D01*
X184359623Y-103993625D01*
X184359623Y-103993627D01*
X184299834Y-104124544D01*
X184279353Y-104267000D01*
X182626000Y-104267000D01*
X182626000Y-102108000D01*
X190375353Y-102108000D01*
X190395834Y-102250455D01*
X190455623Y-102381372D01*
X190455623Y-102381374D01*
X190549871Y-102490142D01*
X190549872Y-102490143D01*
X190670947Y-102567953D01*
X190670949Y-102567953D01*
X190670950Y-102567954D01*
X190809036Y-102608499D01*
X190809038Y-102608500D01*
X190809039Y-102608500D01*
X190952962Y-102608500D01*
X190952962Y-102608499D01*
X191091053Y-102567953D01*
X191212128Y-102490143D01*
X191306377Y-102381373D01*
X191366165Y-102250457D01*
X191386647Y-102108000D01*
X191366165Y-101965543D01*
X191306377Y-101834627D01*
X191306376Y-101834625D01*
X191212128Y-101725857D01*
X191091053Y-101648047D01*
X191091051Y-101648046D01*
X191091049Y-101648045D01*
X190952963Y-101607500D01*
X190952961Y-101607500D01*
X190809039Y-101607500D01*
X190809037Y-101607500D01*
X190670950Y-101648045D01*
X190549871Y-101725857D01*
X190455623Y-101834625D01*
X190455623Y-101834627D01*
X190395834Y-101965544D01*
X190375353Y-102108000D01*
X182626000Y-102108000D01*
X182626000Y-100076000D01*
X186692353Y-100076000D01*
X186712834Y-100218455D01*
X186772623Y-100349372D01*
X186772623Y-100349374D01*
X186866871Y-100458142D01*
X186866872Y-100458143D01*
X186987947Y-100535953D01*
X186987949Y-100535953D01*
X186987950Y-100535954D01*
X187126036Y-100576499D01*
X187126038Y-100576500D01*
X187126039Y-100576500D01*
X187269962Y-100576500D01*
X187269962Y-100576499D01*
X187408053Y-100535953D01*
X187529128Y-100458143D01*
X187623377Y-100349373D01*
X187683165Y-100218457D01*
X187703647Y-100076000D01*
X187683165Y-99933543D01*
X187623377Y-99802627D01*
X187623376Y-99802625D01*
X187529128Y-99693857D01*
X187528572Y-99693500D01*
X187408053Y-99616047D01*
X187408051Y-99616046D01*
X187408049Y-99616045D01*
X187269963Y-99575500D01*
X187269961Y-99575500D01*
X187126039Y-99575500D01*
X187126037Y-99575500D01*
X186987950Y-99616045D01*
X186866871Y-99693857D01*
X186772623Y-99802625D01*
X186772623Y-99802627D01*
X186712834Y-99933544D01*
X186692353Y-100076000D01*
X182626000Y-100076000D01*
X182626000Y-98552000D01*
X185803353Y-98552000D01*
X185823834Y-98694455D01*
X185883623Y-98825372D01*
X185883623Y-98825374D01*
X185977871Y-98934142D01*
X185977872Y-98934143D01*
X186098947Y-99011953D01*
X186098949Y-99011953D01*
X186098950Y-99011954D01*
X186237036Y-99052499D01*
X186237038Y-99052500D01*
X186237039Y-99052500D01*
X186380962Y-99052500D01*
X186380962Y-99052499D01*
X186519053Y-99011953D01*
X186640128Y-98934143D01*
X186734377Y-98825373D01*
X186794165Y-98694457D01*
X186814647Y-98552000D01*
X186794165Y-98409543D01*
X186734377Y-98278627D01*
X186734376Y-98278625D01*
X186640128Y-98169857D01*
X186519053Y-98092047D01*
X186519051Y-98092046D01*
X186519049Y-98092045D01*
X186380963Y-98051500D01*
X186380961Y-98051500D01*
X186237039Y-98051500D01*
X186237037Y-98051500D01*
X186098950Y-98092045D01*
X185977871Y-98169857D01*
X185883623Y-98278625D01*
X185883623Y-98278627D01*
X185823834Y-98409544D01*
X185803353Y-98552000D01*
X182626000Y-98552000D01*
X182626000Y-97282000D01*
X185168353Y-97282000D01*
X185188834Y-97424455D01*
X185248623Y-97555372D01*
X185248623Y-97555374D01*
X185335383Y-97655500D01*
X185342872Y-97664143D01*
X185463947Y-97741953D01*
X185463949Y-97741953D01*
X185463950Y-97741954D01*
X185602036Y-97782499D01*
X185602038Y-97782500D01*
X185602039Y-97782500D01*
X185745962Y-97782500D01*
X185745962Y-97782499D01*
X185884053Y-97741953D01*
X186005128Y-97664143D01*
X186099377Y-97555373D01*
X186159165Y-97424457D01*
X186179647Y-97282000D01*
X186159165Y-97139543D01*
X186099377Y-97008627D01*
X186099376Y-97008625D01*
X186005128Y-96899857D01*
X185884053Y-96822047D01*
X185884051Y-96822046D01*
X185884049Y-96822045D01*
X185745963Y-96781500D01*
X185745961Y-96781500D01*
X185602039Y-96781500D01*
X185602037Y-96781500D01*
X185463950Y-96822045D01*
X185342871Y-96899857D01*
X185248623Y-97008625D01*
X185248623Y-97008627D01*
X185188834Y-97139544D01*
X185168353Y-97282000D01*
X182626000Y-97282000D01*
X182626000Y-90424000D01*
X191772353Y-90424000D01*
X191792834Y-90566455D01*
X191852623Y-90697372D01*
X191852623Y-90697374D01*
X191946871Y-90806142D01*
X191946872Y-90806143D01*
X192067947Y-90883953D01*
X192067949Y-90883953D01*
X192067950Y-90883954D01*
X192206036Y-90924499D01*
X192206038Y-90924500D01*
X192206039Y-90924500D01*
X192349962Y-90924500D01*
X192349962Y-90924499D01*
X192488053Y-90883953D01*
X192609128Y-90806143D01*
X192703377Y-90697373D01*
X192763165Y-90566457D01*
X192783647Y-90424000D01*
X196852353Y-90424000D01*
X196872834Y-90566455D01*
X196932623Y-90697372D01*
X196932623Y-90697374D01*
X197026871Y-90806142D01*
X197026872Y-90806143D01*
X197147947Y-90883953D01*
X197147949Y-90883953D01*
X197147950Y-90883954D01*
X197286036Y-90924499D01*
X197286038Y-90924500D01*
X197286039Y-90924500D01*
X197429962Y-90924500D01*
X197429962Y-90924499D01*
X197568053Y-90883953D01*
X197689128Y-90806143D01*
X197783377Y-90697373D01*
X197843165Y-90566457D01*
X197863647Y-90424000D01*
X197843165Y-90281543D01*
X197783377Y-90150627D01*
X197783376Y-90150625D01*
X197689128Y-90041857D01*
X197679236Y-90035500D01*
X197568053Y-89964047D01*
X197568051Y-89964046D01*
X197568049Y-89964045D01*
X197429963Y-89923500D01*
X197429961Y-89923500D01*
X197286039Y-89923500D01*
X197286037Y-89923500D01*
X197147950Y-89964045D01*
X197026871Y-90041857D01*
X196932623Y-90150625D01*
X196932623Y-90150627D01*
X196872834Y-90281544D01*
X196852353Y-90424000D01*
X192783647Y-90424000D01*
X192763165Y-90281543D01*
X192703377Y-90150627D01*
X192703376Y-90150625D01*
X192609128Y-90041857D01*
X192599236Y-90035500D01*
X192488053Y-89964047D01*
X192488051Y-89964046D01*
X192488049Y-89964045D01*
X192349963Y-89923500D01*
X192349961Y-89923500D01*
X192206039Y-89923500D01*
X192206037Y-89923500D01*
X192067950Y-89964045D01*
X191946871Y-90041857D01*
X191852623Y-90150625D01*
X191852623Y-90150627D01*
X191792834Y-90281544D01*
X191772353Y-90424000D01*
X182626000Y-90424000D01*
X182626000Y-89281000D01*
X187327353Y-89281000D01*
X187347834Y-89423455D01*
X187407623Y-89554372D01*
X187407623Y-89554374D01*
X187501871Y-89663142D01*
X187501872Y-89663143D01*
X187622947Y-89740953D01*
X187622949Y-89740953D01*
X187622950Y-89740954D01*
X187761036Y-89781499D01*
X187761038Y-89781500D01*
X187761039Y-89781500D01*
X187904962Y-89781500D01*
X187904962Y-89781499D01*
X188043053Y-89740953D01*
X188164128Y-89663143D01*
X188258377Y-89554373D01*
X188318165Y-89423457D01*
X188338647Y-89281000D01*
X188318165Y-89138543D01*
X188258377Y-89007627D01*
X188258376Y-89007625D01*
X188164128Y-88898857D01*
X188043053Y-88821047D01*
X188043051Y-88821046D01*
X188043049Y-88821045D01*
X187904963Y-88780500D01*
X187904961Y-88780500D01*
X187761039Y-88780500D01*
X187761037Y-88780500D01*
X187622950Y-88821045D01*
X187501871Y-88898857D01*
X187407623Y-89007625D01*
X187407623Y-89007627D01*
X187347834Y-89138544D01*
X187327353Y-89281000D01*
X182626000Y-89281000D01*
X182626000Y-87757000D01*
X193042353Y-87757000D01*
X193062834Y-87899455D01*
X193122623Y-88030372D01*
X193122623Y-88030374D01*
X193216871Y-88139142D01*
X193216872Y-88139143D01*
X193337947Y-88216953D01*
X193337949Y-88216953D01*
X193337950Y-88216954D01*
X193476036Y-88257499D01*
X193476038Y-88257500D01*
X193476039Y-88257500D01*
X193619962Y-88257500D01*
X193619962Y-88257499D01*
X193758053Y-88216953D01*
X193879128Y-88139143D01*
X193973377Y-88030373D01*
X194033165Y-87899457D01*
X194053647Y-87757000D01*
X198122353Y-87757000D01*
X198142834Y-87899455D01*
X198202623Y-88030372D01*
X198202623Y-88030374D01*
X198296871Y-88139142D01*
X198296872Y-88139143D01*
X198417947Y-88216953D01*
X198417949Y-88216953D01*
X198417950Y-88216954D01*
X198556036Y-88257499D01*
X198556038Y-88257500D01*
X198556039Y-88257500D01*
X198699962Y-88257500D01*
X198699962Y-88257499D01*
X198838053Y-88216953D01*
X198959128Y-88139143D01*
X199053377Y-88030373D01*
X199113165Y-87899457D01*
X199133647Y-87757000D01*
X199392353Y-87757000D01*
X199412834Y-87899455D01*
X199472623Y-88030372D01*
X199472623Y-88030374D01*
X199566871Y-88139142D01*
X199566872Y-88139143D01*
X199687947Y-88216953D01*
X199687949Y-88216953D01*
X199687950Y-88216954D01*
X199826036Y-88257499D01*
X199826038Y-88257500D01*
X199826039Y-88257500D01*
X199969962Y-88257500D01*
X199969962Y-88257499D01*
X200108053Y-88216953D01*
X200229128Y-88139143D01*
X200323377Y-88030373D01*
X200383165Y-87899457D01*
X200403647Y-87757000D01*
X200383165Y-87614543D01*
X200323377Y-87483627D01*
X200323376Y-87483625D01*
X200229128Y-87374857D01*
X200108053Y-87297047D01*
X200108051Y-87297046D01*
X200108049Y-87297045D01*
X199969963Y-87256500D01*
X199969961Y-87256500D01*
X199826039Y-87256500D01*
X199826037Y-87256500D01*
X199687950Y-87297045D01*
X199566871Y-87374857D01*
X199472623Y-87483625D01*
X199472623Y-87483627D01*
X199412834Y-87614544D01*
X199392353Y-87757000D01*
X199133647Y-87757000D01*
X199113165Y-87614543D01*
X199053377Y-87483627D01*
X199053376Y-87483625D01*
X198959128Y-87374857D01*
X198838053Y-87297047D01*
X198838051Y-87297046D01*
X198838049Y-87297045D01*
X198699963Y-87256500D01*
X198699961Y-87256500D01*
X198556039Y-87256500D01*
X198556037Y-87256500D01*
X198417950Y-87297045D01*
X198296871Y-87374857D01*
X198202623Y-87483625D01*
X198202623Y-87483627D01*
X198142834Y-87614544D01*
X198122353Y-87757000D01*
X194053647Y-87757000D01*
X194033165Y-87614543D01*
X193973377Y-87483627D01*
X193973376Y-87483625D01*
X193879128Y-87374857D01*
X193758053Y-87297047D01*
X193758051Y-87297046D01*
X193758049Y-87297045D01*
X193619963Y-87256500D01*
X193619961Y-87256500D01*
X193476039Y-87256500D01*
X193476037Y-87256500D01*
X193337950Y-87297045D01*
X193216871Y-87374857D01*
X193122623Y-87483625D01*
X193122623Y-87483627D01*
X193062834Y-87614544D01*
X193042353Y-87757000D01*
X182626000Y-87757000D01*
X182626000Y-87503000D01*
X181626000Y-87503000D01*
X181625996Y-87503000D01*
X176055218Y-87503000D01*
X176055214Y-87503000D01*
X175641000Y-87503000D01*
X175348112Y-87795888D01*
X175348105Y-87795894D01*
X162474066Y-100669933D01*
X162469522Y-100674052D01*
X162325114Y-100792565D01*
X162314926Y-100799372D01*
X162152900Y-100885977D01*
X162141581Y-100890666D01*
X161965766Y-100943998D01*
X161953749Y-100946388D01*
X161767842Y-100964699D01*
X161761716Y-100965000D01*
X134861070Y-100965000D01*
X134854944Y-100964699D01*
X134669037Y-100946388D01*
X134657020Y-100943998D01*
X134481205Y-100890666D01*
X134469886Y-100885977D01*
X134307860Y-100799372D01*
X134297672Y-100792565D01*
X134155651Y-100676011D01*
X134146988Y-100667348D01*
X134030434Y-100525327D01*
X134023627Y-100515139D01*
X133998830Y-100468748D01*
X151826500Y-100468748D01*
X151838132Y-100527230D01*
X151838133Y-100527232D01*
X151882447Y-100593552D01*
X151948767Y-100637866D01*
X151948769Y-100637867D01*
X152007252Y-100649500D01*
X153046748Y-100649500D01*
X153105231Y-100637867D01*
X153171552Y-100593552D01*
X153215867Y-100527231D01*
X153227500Y-100468748D01*
X153227500Y-99429252D01*
X153215867Y-99370769D01*
X153177171Y-99312857D01*
X153171552Y-99304447D01*
X153105232Y-99260133D01*
X153105230Y-99260132D01*
X153046748Y-99248500D01*
X152007252Y-99248500D01*
X151948769Y-99260132D01*
X151948767Y-99260133D01*
X151882447Y-99304447D01*
X151838133Y-99370767D01*
X151838132Y-99370769D01*
X151826500Y-99429251D01*
X151826500Y-100468748D01*
X133998830Y-100468748D01*
X133937020Y-100353109D01*
X133932335Y-100341799D01*
X133879000Y-100165975D01*
X133876611Y-100153962D01*
X133868932Y-100076000D01*
X133858301Y-99968056D01*
X133858000Y-99961930D01*
X133858000Y-96520000D01*
X142750353Y-96520000D01*
X142770834Y-96662455D01*
X142830623Y-96793372D01*
X142830623Y-96793374D01*
X142907095Y-96881627D01*
X142924872Y-96902143D01*
X143045947Y-96979953D01*
X143045949Y-96979953D01*
X143045950Y-96979954D01*
X143184036Y-97020499D01*
X143184038Y-97020500D01*
X143184039Y-97020500D01*
X143327962Y-97020500D01*
X143327962Y-97020499D01*
X143466053Y-96979953D01*
X143587128Y-96902143D01*
X143681377Y-96793373D01*
X143741165Y-96662457D01*
X143761647Y-96520000D01*
X143741165Y-96377543D01*
X143681377Y-96246627D01*
X143681376Y-96246625D01*
X143587128Y-96137857D01*
X143466053Y-96060047D01*
X143466051Y-96060046D01*
X143466049Y-96060045D01*
X143327963Y-96019500D01*
X143327961Y-96019500D01*
X143184039Y-96019500D01*
X143184037Y-96019500D01*
X143045950Y-96060045D01*
X142924871Y-96137857D01*
X142830623Y-96246625D01*
X142830623Y-96246627D01*
X142770834Y-96377544D01*
X142750353Y-96520000D01*
X133858000Y-96520000D01*
X133858000Y-92964000D01*
X142750353Y-92964000D01*
X142770834Y-93106455D01*
X142830623Y-93237372D01*
X142830623Y-93237374D01*
X142924871Y-93346142D01*
X142924872Y-93346143D01*
X143045947Y-93423953D01*
X143045949Y-93423953D01*
X143045950Y-93423954D01*
X143184036Y-93464499D01*
X143184038Y-93464500D01*
X143184039Y-93464500D01*
X143327962Y-93464500D01*
X143327962Y-93464499D01*
X143466053Y-93423953D01*
X143587128Y-93346143D01*
X143681377Y-93237373D01*
X143741165Y-93106457D01*
X143761647Y-92964000D01*
X143741165Y-92821543D01*
X143681377Y-92690627D01*
X143681376Y-92690625D01*
X143587128Y-92581857D01*
X143577236Y-92575500D01*
X143466053Y-92504047D01*
X143466051Y-92504046D01*
X143466049Y-92504045D01*
X143327963Y-92463500D01*
X143327961Y-92463500D01*
X143184039Y-92463500D01*
X143184037Y-92463500D01*
X143045950Y-92504045D01*
X142924871Y-92581857D01*
X142830623Y-92690625D01*
X142830623Y-92690627D01*
X142770834Y-92821544D01*
X142750353Y-92964000D01*
X133858000Y-92964000D01*
X133858000Y-86487000D01*
X194312353Y-86487000D01*
X194332834Y-86629455D01*
X194392623Y-86760372D01*
X194392623Y-86760374D01*
X194486871Y-86869142D01*
X194486872Y-86869143D01*
X194607947Y-86946953D01*
X194607949Y-86946953D01*
X194607950Y-86946954D01*
X194746036Y-86987499D01*
X194746038Y-86987500D01*
X194746039Y-86987500D01*
X194889962Y-86987500D01*
X194889962Y-86987499D01*
X195028053Y-86946953D01*
X195149128Y-86869143D01*
X195243377Y-86760373D01*
X195303165Y-86629457D01*
X195323647Y-86487000D01*
X195582353Y-86487000D01*
X195602834Y-86629455D01*
X195662623Y-86760372D01*
X195662623Y-86760374D01*
X195756871Y-86869142D01*
X195756872Y-86869143D01*
X195877947Y-86946953D01*
X195877949Y-86946953D01*
X195877950Y-86946954D01*
X196016036Y-86987499D01*
X196016038Y-86987500D01*
X196016039Y-86987500D01*
X196159962Y-86987500D01*
X196159962Y-86987499D01*
X196298053Y-86946953D01*
X196419128Y-86869143D01*
X196513377Y-86760373D01*
X196522224Y-86741000D01*
X202186353Y-86741000D01*
X202206834Y-86883455D01*
X202216366Y-86904327D01*
X202254350Y-86987500D01*
X202266623Y-87014372D01*
X202266623Y-87014374D01*
X202360871Y-87123142D01*
X202360872Y-87123143D01*
X202481947Y-87200953D01*
X202481949Y-87200953D01*
X202481950Y-87200954D01*
X202620036Y-87241499D01*
X202620038Y-87241500D01*
X202620039Y-87241500D01*
X202763962Y-87241500D01*
X202763962Y-87241499D01*
X202902053Y-87200953D01*
X203023128Y-87123143D01*
X203117377Y-87014373D01*
X203177165Y-86883457D01*
X203197647Y-86741000D01*
X203177165Y-86598543D01*
X203117377Y-86467627D01*
X203117376Y-86467625D01*
X203023128Y-86358857D01*
X202929210Y-86298500D01*
X202902053Y-86281047D01*
X202902051Y-86281046D01*
X202902049Y-86281045D01*
X202763963Y-86240500D01*
X202763961Y-86240500D01*
X202620039Y-86240500D01*
X202620037Y-86240500D01*
X202481950Y-86281045D01*
X202360871Y-86358857D01*
X202266623Y-86467625D01*
X202266623Y-86467627D01*
X202206834Y-86598544D01*
X202186353Y-86741000D01*
X196522224Y-86741000D01*
X196573165Y-86629457D01*
X196593647Y-86487000D01*
X196577076Y-86371748D01*
X197927500Y-86371748D01*
X197939132Y-86430230D01*
X197939133Y-86430232D01*
X197983447Y-86496552D01*
X198049767Y-86540866D01*
X198049769Y-86540867D01*
X198108252Y-86552500D01*
X199147748Y-86552500D01*
X199206231Y-86540867D01*
X199272552Y-86496552D01*
X199316867Y-86430231D01*
X199328500Y-86371748D01*
X199328500Y-85332252D01*
X199316867Y-85273769D01*
X199316866Y-85273767D01*
X199278935Y-85217000D01*
X200154353Y-85217000D01*
X200174834Y-85359455D01*
X200174835Y-85359457D01*
X200218716Y-85455543D01*
X200234623Y-85490372D01*
X200234623Y-85490374D01*
X200328871Y-85599142D01*
X200328872Y-85599143D01*
X200449947Y-85676953D01*
X200449949Y-85676953D01*
X200449950Y-85676954D01*
X200588036Y-85717499D01*
X200588038Y-85717500D01*
X200588039Y-85717500D01*
X200731962Y-85717500D01*
X200731962Y-85717499D01*
X200870053Y-85676953D01*
X200991128Y-85599143D01*
X201085377Y-85490373D01*
X201145165Y-85359457D01*
X201165647Y-85217000D01*
X201145165Y-85074543D01*
X201085377Y-84943627D01*
X201085376Y-84943625D01*
X200991128Y-84834857D01*
X200870053Y-84757047D01*
X200870051Y-84757046D01*
X200870049Y-84757045D01*
X200731963Y-84716500D01*
X200731961Y-84716500D01*
X200588039Y-84716500D01*
X200588037Y-84716500D01*
X200449950Y-84757045D01*
X200328871Y-84834857D01*
X200234623Y-84943625D01*
X200234623Y-84943627D01*
X200174834Y-85074544D01*
X200154353Y-85217000D01*
X199278935Y-85217000D01*
X199272552Y-85207447D01*
X199206232Y-85163133D01*
X199206230Y-85163132D01*
X199147748Y-85151500D01*
X198108252Y-85151500D01*
X198049769Y-85163132D01*
X198049767Y-85163133D01*
X197983447Y-85207447D01*
X197939133Y-85273767D01*
X197939132Y-85273769D01*
X197927500Y-85332251D01*
X197927500Y-86371748D01*
X196577076Y-86371748D01*
X196573165Y-86344543D01*
X196513377Y-86213627D01*
X196513376Y-86213625D01*
X196419128Y-86104857D01*
X196346145Y-86057954D01*
X196298053Y-86027047D01*
X196298051Y-86027046D01*
X196298049Y-86027045D01*
X196159963Y-85986500D01*
X196159961Y-85986500D01*
X196016039Y-85986500D01*
X196016037Y-85986500D01*
X195877950Y-86027045D01*
X195756871Y-86104857D01*
X195662623Y-86213625D01*
X195662623Y-86213627D01*
X195602834Y-86344544D01*
X195582353Y-86487000D01*
X195323647Y-86487000D01*
X195303165Y-86344543D01*
X195243377Y-86213627D01*
X195243376Y-86213625D01*
X195149128Y-86104857D01*
X195076145Y-86057954D01*
X195028053Y-86027047D01*
X195028051Y-86027046D01*
X195028049Y-86027045D01*
X194889963Y-85986500D01*
X194889961Y-85986500D01*
X194746039Y-85986500D01*
X194746037Y-85986500D01*
X194607950Y-86027045D01*
X194486871Y-86104857D01*
X194392623Y-86213625D01*
X194392623Y-86213627D01*
X194332834Y-86344544D01*
X194312353Y-86487000D01*
X133858000Y-86487000D01*
X133858000Y-86117748D01*
X189545500Y-86117748D01*
X189557132Y-86176230D01*
X189557133Y-86176232D01*
X189601447Y-86242552D01*
X189667767Y-86286866D01*
X189667769Y-86286867D01*
X189726252Y-86298500D01*
X190765748Y-86298500D01*
X190824231Y-86286867D01*
X190890552Y-86242552D01*
X190934867Y-86176231D01*
X190946500Y-86117748D01*
X190946500Y-85078252D01*
X190934867Y-85019769D01*
X190907263Y-84978457D01*
X190890552Y-84953447D01*
X190824232Y-84909133D01*
X190824230Y-84909132D01*
X190765748Y-84897500D01*
X189726252Y-84897500D01*
X189667769Y-84909132D01*
X189667767Y-84909133D01*
X189601447Y-84953447D01*
X189557133Y-85019767D01*
X189557132Y-85019769D01*
X189545500Y-85078251D01*
X189545500Y-86117748D01*
X133858000Y-86117748D01*
X133858000Y-85598000D01*
X187835353Y-85598000D01*
X187855834Y-85740455D01*
X187915623Y-85871372D01*
X187915623Y-85871374D01*
X188009871Y-85980142D01*
X188009872Y-85980143D01*
X188130947Y-86057953D01*
X188130949Y-86057953D01*
X188130950Y-86057954D01*
X188269036Y-86098499D01*
X188269038Y-86098500D01*
X188269039Y-86098500D01*
X188412962Y-86098500D01*
X188412962Y-86098499D01*
X188551053Y-86057953D01*
X188672128Y-85980143D01*
X188766377Y-85871373D01*
X188826165Y-85740457D01*
X188846647Y-85598000D01*
X188826165Y-85455543D01*
X188766377Y-85324627D01*
X188766376Y-85324625D01*
X188672128Y-85215857D01*
X188659042Y-85207447D01*
X188551053Y-85138047D01*
X188551051Y-85138046D01*
X188551049Y-85138045D01*
X188412963Y-85097500D01*
X188412961Y-85097500D01*
X188269039Y-85097500D01*
X188269037Y-85097500D01*
X188130950Y-85138045D01*
X188009871Y-85215857D01*
X187915623Y-85324625D01*
X187915623Y-85324627D01*
X187855834Y-85455544D01*
X187835353Y-85598000D01*
X133858000Y-85598000D01*
X133858000Y-84836000D01*
X186946353Y-84836000D01*
X186966834Y-84978455D01*
X186966835Y-84978457D01*
X187012410Y-85078252D01*
X187026623Y-85109372D01*
X187026623Y-85109374D01*
X187120871Y-85218142D01*
X187120872Y-85218143D01*
X187241947Y-85295953D01*
X187365571Y-85332252D01*
X187380036Y-85336499D01*
X187380038Y-85336500D01*
X187380039Y-85336500D01*
X187523962Y-85336500D01*
X187523962Y-85336499D01*
X187662053Y-85295953D01*
X187783128Y-85218143D01*
X187877377Y-85109373D01*
X187937165Y-84978457D01*
X187957647Y-84836000D01*
X187937165Y-84693543D01*
X187877377Y-84562627D01*
X187877376Y-84562625D01*
X187783128Y-84453857D01*
X187662053Y-84376047D01*
X187662051Y-84376046D01*
X187662049Y-84376045D01*
X187523963Y-84335500D01*
X187523961Y-84335500D01*
X187380039Y-84335500D01*
X187380037Y-84335500D01*
X187241950Y-84376045D01*
X187120871Y-84453857D01*
X187026623Y-84562625D01*
X187026623Y-84562627D01*
X186966834Y-84693544D01*
X186946353Y-84836000D01*
X133858000Y-84836000D01*
X133858000Y-83439000D01*
X136508540Y-83439000D01*
X136528326Y-83627258D01*
X136586818Y-83807278D01*
X136586820Y-83807282D01*
X136586821Y-83807284D01*
X136681467Y-83971216D01*
X136794118Y-84096327D01*
X136808128Y-84111887D01*
X136808129Y-84111888D01*
X136961265Y-84223148D01*
X136961274Y-84223153D01*
X137134185Y-84300139D01*
X137134188Y-84300140D01*
X137134197Y-84300144D01*
X137319354Y-84339500D01*
X137508646Y-84339500D01*
X137693803Y-84300144D01*
X137866730Y-84223151D01*
X138019871Y-84111888D01*
X138146533Y-83971216D01*
X138241179Y-83807284D01*
X138299674Y-83627256D01*
X138319460Y-83439000D01*
X138299674Y-83250744D01*
X138295988Y-83239401D01*
X138241181Y-83070721D01*
X138241180Y-83070719D01*
X138241179Y-83070716D01*
X138160516Y-82931003D01*
X144709355Y-82931003D01*
X144729858Y-83099864D01*
X144729859Y-83099870D01*
X144790182Y-83258931D01*
X144886811Y-83398922D01*
X144886816Y-83398928D01*
X144886817Y-83398929D01*
X145014148Y-83511734D01*
X145164775Y-83590790D01*
X145329944Y-83631500D01*
X145329946Y-83631500D01*
X145500054Y-83631500D01*
X145500056Y-83631500D01*
X145665225Y-83590790D01*
X145815852Y-83511734D01*
X145943183Y-83398929D01*
X146039818Y-83258930D01*
X146100140Y-83099872D01*
X146120645Y-82931000D01*
X146114027Y-82876500D01*
X146100141Y-82762135D01*
X146100140Y-82762129D01*
X146098961Y-82759021D01*
X146039818Y-82603070D01*
X146022413Y-82577854D01*
X145943188Y-82463077D01*
X145943181Y-82463069D01*
X145815851Y-82350265D01*
X145665226Y-82271210D01*
X145500059Y-82230500D01*
X145500056Y-82230500D01*
X145329944Y-82230500D01*
X145329940Y-82230500D01*
X145164773Y-82271210D01*
X145014148Y-82350265D01*
X144886818Y-82463069D01*
X144886811Y-82463077D01*
X144790182Y-82603068D01*
X144729859Y-82762129D01*
X144729858Y-82762135D01*
X144709355Y-82930996D01*
X144709355Y-82931003D01*
X138160516Y-82931003D01*
X138146533Y-82906784D01*
X138019871Y-82766112D01*
X138019870Y-82766111D01*
X137866734Y-82654851D01*
X137866725Y-82654846D01*
X137693814Y-82577860D01*
X137693797Y-82577854D01*
X137508646Y-82538500D01*
X137319354Y-82538500D01*
X137134202Y-82577854D01*
X137134185Y-82577860D01*
X136961274Y-82654846D01*
X136961265Y-82654851D01*
X136808129Y-82766111D01*
X136808128Y-82766112D01*
X136681466Y-82906785D01*
X136586818Y-83070721D01*
X136528326Y-83250741D01*
X136508540Y-83439000D01*
X133858000Y-83439000D01*
X133858000Y-81037748D01*
X189545500Y-81037748D01*
X189557132Y-81096230D01*
X189557133Y-81096232D01*
X189601447Y-81162552D01*
X189667767Y-81206866D01*
X189667769Y-81206867D01*
X189726252Y-81218500D01*
X190765748Y-81218500D01*
X190824231Y-81206867D01*
X190890552Y-81162552D01*
X190934867Y-81096231D01*
X190935358Y-81093761D01*
X198932787Y-81093761D01*
X198947661Y-81228941D01*
X198962414Y-81363018D01*
X199030928Y-81625088D01*
X199136870Y-81874390D01*
X199209000Y-81992579D01*
X199277983Y-82105612D01*
X199451253Y-82313818D01*
X199451267Y-82313832D01*
X199652988Y-82494574D01*
X199652993Y-82494578D01*
X199652998Y-82494582D01*
X199653003Y-82494585D01*
X199878906Y-82644042D01*
X199878908Y-82644043D01*
X199878910Y-82644044D01*
X200124176Y-82759020D01*
X200383569Y-82837060D01*
X200651561Y-82876500D01*
X200651562Y-82876500D01*
X200854628Y-82876500D01*
X200854631Y-82876500D01*
X200854634Y-82876499D01*
X200854652Y-82876499D01*
X201057147Y-82861678D01*
X201057149Y-82861677D01*
X201057156Y-82861677D01*
X201321553Y-82802780D01*
X201574558Y-82706014D01*
X201810777Y-82573441D01*
X202025177Y-82407888D01*
X202213186Y-82212881D01*
X202370799Y-81992579D01*
X202494656Y-81751675D01*
X202582118Y-81495305D01*
X202631319Y-81228933D01*
X202641212Y-80958235D01*
X202611586Y-80688982D01*
X202543072Y-80426912D01*
X202437130Y-80177610D01*
X202296018Y-79946390D01*
X202290506Y-79939767D01*
X202122746Y-79738181D01*
X202122732Y-79738167D01*
X201921011Y-79557425D01*
X201921004Y-79557420D01*
X201921002Y-79557418D01*
X201801807Y-79478559D01*
X201695093Y-79407957D01*
X201695091Y-79407956D01*
X201553610Y-79341633D01*
X201449824Y-79292980D01*
X201449821Y-79292979D01*
X201449819Y-79292978D01*
X201190440Y-79214942D01*
X201190426Y-79214939D01*
X200922445Y-79175500D01*
X200922439Y-79175500D01*
X200719369Y-79175500D01*
X200719347Y-79175500D01*
X200516852Y-79190321D01*
X200252447Y-79249220D01*
X200252445Y-79249220D01*
X199999440Y-79345986D01*
X199763223Y-79478558D01*
X199548824Y-79644111D01*
X199548815Y-79644118D01*
X199360817Y-79839115D01*
X199360809Y-79839124D01*
X199203204Y-80059414D01*
X199079340Y-80300332D01*
X198991886Y-80556681D01*
X198991880Y-80556701D01*
X198942682Y-80823058D01*
X198942680Y-80823079D01*
X198932787Y-81093761D01*
X190935358Y-81093761D01*
X190946500Y-81037748D01*
X190946500Y-79998252D01*
X190934867Y-79939769D01*
X190934866Y-79939767D01*
X190890552Y-79873447D01*
X190824232Y-79829133D01*
X190824230Y-79829132D01*
X190765748Y-79817500D01*
X189726252Y-79817500D01*
X189667769Y-79829132D01*
X189667767Y-79829133D01*
X189601447Y-79873447D01*
X189557133Y-79939767D01*
X189557132Y-79939769D01*
X189545500Y-79998251D01*
X189545500Y-81037748D01*
X133858000Y-81037748D01*
X133858000Y-78600069D01*
X133858301Y-78593943D01*
X133872434Y-78450448D01*
X133876612Y-78408031D01*
X133878999Y-78396026D01*
X133932336Y-78220196D01*
X133937018Y-78208893D01*
X134023630Y-78046855D01*
X134030430Y-78036677D01*
X134146989Y-77894649D01*
X134155651Y-77885988D01*
X134159437Y-77882881D01*
X134297677Y-77769430D01*
X134307855Y-77762630D01*
X134469893Y-77676018D01*
X134481200Y-77671335D01*
X134596843Y-77636256D01*
X134642037Y-77622547D01*
X134660179Y-77619856D01*
X205985715Y-77619856D01*
X205992370Y-77619856D01*
X205995640Y-77619941D01*
G37*
%TD.AperFunction*%
%TD*%
M02*
