%TF.GenerationSoftware,KiCad,Pcbnew,7.0.10*%
%TF.CreationDate,2024-04-30T16:31:27+09:00*%
%TF.ProjectId,ESP_Weight,4553505f-5765-4696-9768-742e6b696361,rev?*%
%TF.SameCoordinates,Original*%
%TF.FileFunction,Legend,Bot*%
%TF.FilePolarity,Positive*%
%FSLAX46Y46*%
G04 Gerber Fmt 4.6, Leading zero omitted, Abs format (unit mm)*
G04 Created by KiCad (PCBNEW 7.0.10) date 2024-04-30 16:31:27*
%MOMM*%
%LPD*%
G01*
G04 APERTURE LIST*
G04 Aperture macros list*
%AMRoundRect*
0 Rectangle with rounded corners*
0 $1 Rounding radius*
0 $2 $3 $4 $5 $6 $7 $8 $9 X,Y pos of 4 corners*
0 Add a 4 corners polygon primitive as box body*
4,1,4,$2,$3,$4,$5,$6,$7,$8,$9,$2,$3,0*
0 Add four circle primitives for the rounded corners*
1,1,$1+$1,$2,$3*
1,1,$1+$1,$4,$5*
1,1,$1+$1,$6,$7*
1,1,$1+$1,$8,$9*
0 Add four rect primitives between the rounded corners*
20,1,$1+$1,$2,$3,$4,$5,0*
20,1,$1+$1,$4,$5,$6,$7,0*
20,1,$1+$1,$6,$7,$8,$9,0*
20,1,$1+$1,$8,$9,$2,$3,0*%
%AMFreePoly0*
4,1,6,1.000000,0.000000,0.500000,-0.750000,-0.500000,-0.750000,-0.500000,0.750000,0.500000,0.750000,1.000000,0.000000,1.000000,0.000000,$1*%
%AMFreePoly1*
4,1,6,0.500000,-0.750000,-0.650000,-0.750000,-0.150000,0.000000,-0.650000,0.750000,0.500000,0.750000,0.500000,-0.750000,0.500000,-0.750000,$1*%
G04 Aperture macros list end*
%ADD10C,0.150000*%
%ADD11C,0.120000*%
%ADD12C,3.200000*%
%ADD13C,1.800000*%
%ADD14C,1.000000*%
%ADD15R,1.000000X1.000000*%
%ADD16C,1.400000*%
%ADD17C,3.250000*%
%ADD18R,1.500000X1.500000*%
%ADD19C,1.500000*%
%ADD20C,3.000000*%
%ADD21RoundRect,0.250000X-0.600000X-0.675000X0.600000X-0.675000X0.600000X0.675000X-0.600000X0.675000X0*%
%ADD22O,1.700000X1.850000*%
%ADD23O,2.300000X1.600000*%
%ADD24C,0.770000*%
%ADD25R,1.600000X1.600000*%
%ADD26C,1.600000*%
%ADD27C,4.000000*%
%ADD28R,1.700000X1.700000*%
%ADD29O,1.700000X1.700000*%
%ADD30RoundRect,0.250000X-0.650000X-1.550000X0.650000X-1.550000X0.650000X1.550000X-0.650000X1.550000X0*%
%ADD31O,1.800000X3.600000*%
%ADD32R,3.500000X3.500000*%
%ADD33RoundRect,0.750000X1.000000X-0.750000X1.000000X0.750000X-1.000000X0.750000X-1.000000X-0.750000X0*%
%ADD34RoundRect,0.875000X0.875000X-0.875000X0.875000X0.875000X-0.875000X0.875000X-0.875000X-0.875000X0*%
%ADD35C,2.400000*%
%ADD36C,1.700000*%
%ADD37FreePoly0,0.000000*%
%ADD38FreePoly1,0.000000*%
G04 APERTURE END LIST*
D10*
X116322762Y-129471009D02*
X116656095Y-129471009D01*
X116656095Y-129994819D02*
X116656095Y-128994819D01*
X116656095Y-128994819D02*
X116179905Y-128994819D01*
X115798952Y-129994819D02*
X115798952Y-129328152D01*
X115798952Y-128994819D02*
X115846571Y-129042438D01*
X115846571Y-129042438D02*
X115798952Y-129090057D01*
X115798952Y-129090057D02*
X115751333Y-129042438D01*
X115751333Y-129042438D02*
X115798952Y-128994819D01*
X115798952Y-128994819D02*
X115798952Y-129090057D01*
X115370381Y-129947200D02*
X115275143Y-129994819D01*
X115275143Y-129994819D02*
X115084667Y-129994819D01*
X115084667Y-129994819D02*
X114989429Y-129947200D01*
X114989429Y-129947200D02*
X114941810Y-129851961D01*
X114941810Y-129851961D02*
X114941810Y-129804342D01*
X114941810Y-129804342D02*
X114989429Y-129709104D01*
X114989429Y-129709104D02*
X115084667Y-129661485D01*
X115084667Y-129661485D02*
X115227524Y-129661485D01*
X115227524Y-129661485D02*
X115322762Y-129613866D01*
X115322762Y-129613866D02*
X115370381Y-129518628D01*
X115370381Y-129518628D02*
X115370381Y-129471009D01*
X115370381Y-129471009D02*
X115322762Y-129375771D01*
X115322762Y-129375771D02*
X115227524Y-129328152D01*
X115227524Y-129328152D02*
X115084667Y-129328152D01*
X115084667Y-129328152D02*
X114989429Y-129375771D01*
X114513238Y-129994819D02*
X114513238Y-128994819D01*
X114084667Y-129994819D02*
X114084667Y-129471009D01*
X114084667Y-129471009D02*
X114132286Y-129375771D01*
X114132286Y-129375771D02*
X114227524Y-129328152D01*
X114227524Y-129328152D02*
X114370381Y-129328152D01*
X114370381Y-129328152D02*
X114465619Y-129375771D01*
X114465619Y-129375771D02*
X114513238Y-129423390D01*
X113608476Y-129994819D02*
X113608476Y-129328152D01*
X113608476Y-128994819D02*
X113656095Y-129042438D01*
X113656095Y-129042438D02*
X113608476Y-129090057D01*
X113608476Y-129090057D02*
X113560857Y-129042438D01*
X113560857Y-129042438D02*
X113608476Y-128994819D01*
X113608476Y-128994819D02*
X113608476Y-129090057D01*
X113132286Y-129328152D02*
X113132286Y-129994819D01*
X113132286Y-129423390D02*
X113084667Y-129375771D01*
X113084667Y-129375771D02*
X112989429Y-129328152D01*
X112989429Y-129328152D02*
X112846572Y-129328152D01*
X112846572Y-129328152D02*
X112751334Y-129375771D01*
X112751334Y-129375771D02*
X112703715Y-129471009D01*
X112703715Y-129471009D02*
X112703715Y-129994819D01*
X111798953Y-129328152D02*
X111798953Y-130137676D01*
X111798953Y-130137676D02*
X111846572Y-130232914D01*
X111846572Y-130232914D02*
X111894191Y-130280533D01*
X111894191Y-130280533D02*
X111989429Y-130328152D01*
X111989429Y-130328152D02*
X112132286Y-130328152D01*
X112132286Y-130328152D02*
X112227524Y-130280533D01*
X111798953Y-129947200D02*
X111894191Y-129994819D01*
X111894191Y-129994819D02*
X112084667Y-129994819D01*
X112084667Y-129994819D02*
X112179905Y-129947200D01*
X112179905Y-129947200D02*
X112227524Y-129899580D01*
X112227524Y-129899580D02*
X112275143Y-129804342D01*
X112275143Y-129804342D02*
X112275143Y-129518628D01*
X112275143Y-129518628D02*
X112227524Y-129423390D01*
X112227524Y-129423390D02*
X112179905Y-129375771D01*
X112179905Y-129375771D02*
X112084667Y-129328152D01*
X112084667Y-129328152D02*
X111894191Y-129328152D01*
X111894191Y-129328152D02*
X111798953Y-129375771D01*
X111370381Y-129947200D02*
X111227524Y-129994819D01*
X111227524Y-129994819D02*
X110989429Y-129994819D01*
X110989429Y-129994819D02*
X110894191Y-129947200D01*
X110894191Y-129947200D02*
X110846572Y-129899580D01*
X110846572Y-129899580D02*
X110798953Y-129804342D01*
X110798953Y-129804342D02*
X110798953Y-129709104D01*
X110798953Y-129709104D02*
X110846572Y-129613866D01*
X110846572Y-129613866D02*
X110894191Y-129566247D01*
X110894191Y-129566247D02*
X110989429Y-129518628D01*
X110989429Y-129518628D02*
X111179905Y-129471009D01*
X111179905Y-129471009D02*
X111275143Y-129423390D01*
X111275143Y-129423390D02*
X111322762Y-129375771D01*
X111322762Y-129375771D02*
X111370381Y-129280533D01*
X111370381Y-129280533D02*
X111370381Y-129185295D01*
X111370381Y-129185295D02*
X111322762Y-129090057D01*
X111322762Y-129090057D02*
X111275143Y-129042438D01*
X111275143Y-129042438D02*
X111179905Y-128994819D01*
X111179905Y-128994819D02*
X110941810Y-128994819D01*
X110941810Y-128994819D02*
X110798953Y-129042438D01*
X109941810Y-129947200D02*
X110037048Y-129994819D01*
X110037048Y-129994819D02*
X110227524Y-129994819D01*
X110227524Y-129994819D02*
X110322762Y-129947200D01*
X110322762Y-129947200D02*
X110370381Y-129899580D01*
X110370381Y-129899580D02*
X110418000Y-129804342D01*
X110418000Y-129804342D02*
X110418000Y-129518628D01*
X110418000Y-129518628D02*
X110370381Y-129423390D01*
X110370381Y-129423390D02*
X110322762Y-129375771D01*
X110322762Y-129375771D02*
X110227524Y-129328152D01*
X110227524Y-129328152D02*
X110037048Y-129328152D01*
X110037048Y-129328152D02*
X109941810Y-129375771D01*
X109084667Y-129994819D02*
X109084667Y-129471009D01*
X109084667Y-129471009D02*
X109132286Y-129375771D01*
X109132286Y-129375771D02*
X109227524Y-129328152D01*
X109227524Y-129328152D02*
X109418000Y-129328152D01*
X109418000Y-129328152D02*
X109513238Y-129375771D01*
X109084667Y-129947200D02*
X109179905Y-129994819D01*
X109179905Y-129994819D02*
X109418000Y-129994819D01*
X109418000Y-129994819D02*
X109513238Y-129947200D01*
X109513238Y-129947200D02*
X109560857Y-129851961D01*
X109560857Y-129851961D02*
X109560857Y-129756723D01*
X109560857Y-129756723D02*
X109513238Y-129661485D01*
X109513238Y-129661485D02*
X109418000Y-129613866D01*
X109418000Y-129613866D02*
X109179905Y-129613866D01*
X109179905Y-129613866D02*
X109084667Y-129566247D01*
X108465619Y-129994819D02*
X108560857Y-129947200D01*
X108560857Y-129947200D02*
X108608476Y-129851961D01*
X108608476Y-129851961D02*
X108608476Y-128994819D01*
X107703714Y-129947200D02*
X107798952Y-129994819D01*
X107798952Y-129994819D02*
X107989428Y-129994819D01*
X107989428Y-129994819D02*
X108084666Y-129947200D01*
X108084666Y-129947200D02*
X108132285Y-129851961D01*
X108132285Y-129851961D02*
X108132285Y-129471009D01*
X108132285Y-129471009D02*
X108084666Y-129375771D01*
X108084666Y-129375771D02*
X107989428Y-129328152D01*
X107989428Y-129328152D02*
X107798952Y-129328152D01*
X107798952Y-129328152D02*
X107703714Y-129375771D01*
X107703714Y-129375771D02*
X107656095Y-129471009D01*
X107656095Y-129471009D02*
X107656095Y-129566247D01*
X107656095Y-129566247D02*
X108132285Y-129661485D01*
X107465619Y-130090057D02*
X106703714Y-130090057D01*
X106465618Y-129994819D02*
X106465618Y-128994819D01*
X106465618Y-128994819D02*
X106132285Y-129709104D01*
X106132285Y-129709104D02*
X105798952Y-128994819D01*
X105798952Y-128994819D02*
X105798952Y-129994819D01*
X104894190Y-129994819D02*
X104894190Y-129471009D01*
X104894190Y-129471009D02*
X104941809Y-129375771D01*
X104941809Y-129375771D02*
X105037047Y-129328152D01*
X105037047Y-129328152D02*
X105227523Y-129328152D01*
X105227523Y-129328152D02*
X105322761Y-129375771D01*
X104894190Y-129947200D02*
X104989428Y-129994819D01*
X104989428Y-129994819D02*
X105227523Y-129994819D01*
X105227523Y-129994819D02*
X105322761Y-129947200D01*
X105322761Y-129947200D02*
X105370380Y-129851961D01*
X105370380Y-129851961D02*
X105370380Y-129756723D01*
X105370380Y-129756723D02*
X105322761Y-129661485D01*
X105322761Y-129661485D02*
X105227523Y-129613866D01*
X105227523Y-129613866D02*
X104989428Y-129613866D01*
X104989428Y-129613866D02*
X104894190Y-129566247D01*
X104417999Y-129994819D02*
X104417999Y-129328152D01*
X104417999Y-128994819D02*
X104465618Y-129042438D01*
X104465618Y-129042438D02*
X104417999Y-129090057D01*
X104417999Y-129090057D02*
X104370380Y-129042438D01*
X104370380Y-129042438D02*
X104417999Y-128994819D01*
X104417999Y-128994819D02*
X104417999Y-129090057D01*
X103941809Y-129328152D02*
X103941809Y-129994819D01*
X103941809Y-129423390D02*
X103894190Y-129375771D01*
X103894190Y-129375771D02*
X103798952Y-129328152D01*
X103798952Y-129328152D02*
X103656095Y-129328152D01*
X103656095Y-129328152D02*
X103560857Y-129375771D01*
X103560857Y-129375771D02*
X103513238Y-129471009D01*
X103513238Y-129471009D02*
X103513238Y-129994819D01*
X102703714Y-129471009D02*
X102560857Y-129518628D01*
X102560857Y-129518628D02*
X102513238Y-129566247D01*
X102513238Y-129566247D02*
X102465619Y-129661485D01*
X102465619Y-129661485D02*
X102465619Y-129804342D01*
X102465619Y-129804342D02*
X102513238Y-129899580D01*
X102513238Y-129899580D02*
X102560857Y-129947200D01*
X102560857Y-129947200D02*
X102656095Y-129994819D01*
X102656095Y-129994819D02*
X103037047Y-129994819D01*
X103037047Y-129994819D02*
X103037047Y-128994819D01*
X103037047Y-128994819D02*
X102703714Y-128994819D01*
X102703714Y-128994819D02*
X102608476Y-129042438D01*
X102608476Y-129042438D02*
X102560857Y-129090057D01*
X102560857Y-129090057D02*
X102513238Y-129185295D01*
X102513238Y-129185295D02*
X102513238Y-129280533D01*
X102513238Y-129280533D02*
X102560857Y-129375771D01*
X102560857Y-129375771D02*
X102608476Y-129423390D01*
X102608476Y-129423390D02*
X102703714Y-129471009D01*
X102703714Y-129471009D02*
X103037047Y-129471009D01*
X101894190Y-129994819D02*
X101989428Y-129947200D01*
X101989428Y-129947200D02*
X102037047Y-129899580D01*
X102037047Y-129899580D02*
X102084666Y-129804342D01*
X102084666Y-129804342D02*
X102084666Y-129518628D01*
X102084666Y-129518628D02*
X102037047Y-129423390D01*
X102037047Y-129423390D02*
X101989428Y-129375771D01*
X101989428Y-129375771D02*
X101894190Y-129328152D01*
X101894190Y-129328152D02*
X101751333Y-129328152D01*
X101751333Y-129328152D02*
X101656095Y-129375771D01*
X101656095Y-129375771D02*
X101608476Y-129423390D01*
X101608476Y-129423390D02*
X101560857Y-129518628D01*
X101560857Y-129518628D02*
X101560857Y-129804342D01*
X101560857Y-129804342D02*
X101608476Y-129899580D01*
X101608476Y-129899580D02*
X101656095Y-129947200D01*
X101656095Y-129947200D02*
X101751333Y-129994819D01*
X101751333Y-129994819D02*
X101894190Y-129994819D01*
X100703714Y-129994819D02*
X100703714Y-129471009D01*
X100703714Y-129471009D02*
X100751333Y-129375771D01*
X100751333Y-129375771D02*
X100846571Y-129328152D01*
X100846571Y-129328152D02*
X101037047Y-129328152D01*
X101037047Y-129328152D02*
X101132285Y-129375771D01*
X100703714Y-129947200D02*
X100798952Y-129994819D01*
X100798952Y-129994819D02*
X101037047Y-129994819D01*
X101037047Y-129994819D02*
X101132285Y-129947200D01*
X101132285Y-129947200D02*
X101179904Y-129851961D01*
X101179904Y-129851961D02*
X101179904Y-129756723D01*
X101179904Y-129756723D02*
X101132285Y-129661485D01*
X101132285Y-129661485D02*
X101037047Y-129613866D01*
X101037047Y-129613866D02*
X100798952Y-129613866D01*
X100798952Y-129613866D02*
X100703714Y-129566247D01*
X100227523Y-129994819D02*
X100227523Y-129328152D01*
X100227523Y-129518628D02*
X100179904Y-129423390D01*
X100179904Y-129423390D02*
X100132285Y-129375771D01*
X100132285Y-129375771D02*
X100037047Y-129328152D01*
X100037047Y-129328152D02*
X99941809Y-129328152D01*
X99179904Y-129994819D02*
X99179904Y-128994819D01*
X99179904Y-129947200D02*
X99275142Y-129994819D01*
X99275142Y-129994819D02*
X99465618Y-129994819D01*
X99465618Y-129994819D02*
X99560856Y-129947200D01*
X99560856Y-129947200D02*
X99608475Y-129899580D01*
X99608475Y-129899580D02*
X99656094Y-129804342D01*
X99656094Y-129804342D02*
X99656094Y-129518628D01*
X99656094Y-129518628D02*
X99608475Y-129423390D01*
X99608475Y-129423390D02*
X99560856Y-129375771D01*
X99560856Y-129375771D02*
X99465618Y-129328152D01*
X99465618Y-129328152D02*
X99275142Y-129328152D01*
X99275142Y-129328152D02*
X99179904Y-129375771D01*
X98941809Y-130090057D02*
X98179904Y-130090057D01*
X98084665Y-128994819D02*
X97751332Y-129994819D01*
X97751332Y-129994819D02*
X97417999Y-128994819D01*
X97179903Y-128994819D02*
X96560856Y-128994819D01*
X96560856Y-128994819D02*
X96894189Y-129375771D01*
X96894189Y-129375771D02*
X96751332Y-129375771D01*
X96751332Y-129375771D02*
X96656094Y-129423390D01*
X96656094Y-129423390D02*
X96608475Y-129471009D01*
X96608475Y-129471009D02*
X96560856Y-129566247D01*
X96560856Y-129566247D02*
X96560856Y-129804342D01*
X96560856Y-129804342D02*
X96608475Y-129899580D01*
X96608475Y-129899580D02*
X96656094Y-129947200D01*
X96656094Y-129947200D02*
X96751332Y-129994819D01*
X96751332Y-129994819D02*
X97037046Y-129994819D01*
X97037046Y-129994819D02*
X97132284Y-129947200D01*
X97132284Y-129947200D02*
X97179903Y-129899580D01*
X96132284Y-129899580D02*
X96084665Y-129947200D01*
X96084665Y-129947200D02*
X96132284Y-129994819D01*
X96132284Y-129994819D02*
X96179903Y-129947200D01*
X96179903Y-129947200D02*
X96132284Y-129899580D01*
X96132284Y-129899580D02*
X96132284Y-129994819D01*
X95227523Y-128994819D02*
X95417999Y-128994819D01*
X95417999Y-128994819D02*
X95513237Y-129042438D01*
X95513237Y-129042438D02*
X95560856Y-129090057D01*
X95560856Y-129090057D02*
X95656094Y-129232914D01*
X95656094Y-129232914D02*
X95703713Y-129423390D01*
X95703713Y-129423390D02*
X95703713Y-129804342D01*
X95703713Y-129804342D02*
X95656094Y-129899580D01*
X95656094Y-129899580D02*
X95608475Y-129947200D01*
X95608475Y-129947200D02*
X95513237Y-129994819D01*
X95513237Y-129994819D02*
X95322761Y-129994819D01*
X95322761Y-129994819D02*
X95227523Y-129947200D01*
X95227523Y-129947200D02*
X95179904Y-129899580D01*
X95179904Y-129899580D02*
X95132285Y-129804342D01*
X95132285Y-129804342D02*
X95132285Y-129566247D01*
X95132285Y-129566247D02*
X95179904Y-129471009D01*
X95179904Y-129471009D02*
X95227523Y-129423390D01*
X95227523Y-129423390D02*
X95322761Y-129375771D01*
X95322761Y-129375771D02*
X95513237Y-129375771D01*
X95513237Y-129375771D02*
X95608475Y-129423390D01*
X95608475Y-129423390D02*
X95656094Y-129471009D01*
X95656094Y-129471009D02*
X95703713Y-129566247D01*
X99766333Y-115427819D02*
X99766333Y-116142104D01*
X99766333Y-116142104D02*
X99813952Y-116284961D01*
X99813952Y-116284961D02*
X99909190Y-116380200D01*
X99909190Y-116380200D02*
X100052047Y-116427819D01*
X100052047Y-116427819D02*
X100147285Y-116427819D01*
X99290142Y-116427819D02*
X99290142Y-115427819D01*
X99290142Y-115427819D02*
X98909190Y-115427819D01*
X98909190Y-115427819D02*
X98813952Y-115475438D01*
X98813952Y-115475438D02*
X98766333Y-115523057D01*
X98766333Y-115523057D02*
X98718714Y-115618295D01*
X98718714Y-115618295D02*
X98718714Y-115761152D01*
X98718714Y-115761152D02*
X98766333Y-115856390D01*
X98766333Y-115856390D02*
X98813952Y-115904009D01*
X98813952Y-115904009D02*
X98909190Y-115951628D01*
X98909190Y-115951628D02*
X99290142Y-115951628D01*
X98385380Y-115427819D02*
X97766333Y-115427819D01*
X97766333Y-115427819D02*
X98099666Y-115808771D01*
X98099666Y-115808771D02*
X97956809Y-115808771D01*
X97956809Y-115808771D02*
X97861571Y-115856390D01*
X97861571Y-115856390D02*
X97813952Y-115904009D01*
X97813952Y-115904009D02*
X97766333Y-115999247D01*
X97766333Y-115999247D02*
X97766333Y-116237342D01*
X97766333Y-116237342D02*
X97813952Y-116332580D01*
X97813952Y-116332580D02*
X97861571Y-116380200D01*
X97861571Y-116380200D02*
X97956809Y-116427819D01*
X97956809Y-116427819D02*
X98242523Y-116427819D01*
X98242523Y-116427819D02*
X98337761Y-116380200D01*
X98337761Y-116380200D02*
X98385380Y-116332580D01*
X101218713Y-112680200D02*
X101075856Y-112727819D01*
X101075856Y-112727819D02*
X100837761Y-112727819D01*
X100837761Y-112727819D02*
X100742523Y-112680200D01*
X100742523Y-112680200D02*
X100694904Y-112632580D01*
X100694904Y-112632580D02*
X100647285Y-112537342D01*
X100647285Y-112537342D02*
X100647285Y-112442104D01*
X100647285Y-112442104D02*
X100694904Y-112346866D01*
X100694904Y-112346866D02*
X100742523Y-112299247D01*
X100742523Y-112299247D02*
X100837761Y-112251628D01*
X100837761Y-112251628D02*
X101028237Y-112204009D01*
X101028237Y-112204009D02*
X101123475Y-112156390D01*
X101123475Y-112156390D02*
X101171094Y-112108771D01*
X101171094Y-112108771D02*
X101218713Y-112013533D01*
X101218713Y-112013533D02*
X101218713Y-111918295D01*
X101218713Y-111918295D02*
X101171094Y-111823057D01*
X101171094Y-111823057D02*
X101123475Y-111775438D01*
X101123475Y-111775438D02*
X101028237Y-111727819D01*
X101028237Y-111727819D02*
X100790142Y-111727819D01*
X100790142Y-111727819D02*
X100647285Y-111775438D01*
X100313951Y-111727819D02*
X100075856Y-112727819D01*
X100075856Y-112727819D02*
X99885380Y-112013533D01*
X99885380Y-112013533D02*
X99694904Y-112727819D01*
X99694904Y-112727819D02*
X99456809Y-111727819D01*
X99313952Y-112823057D02*
X98552047Y-112823057D01*
X98123475Y-111727819D02*
X97932999Y-111727819D01*
X97932999Y-111727819D02*
X97837761Y-111775438D01*
X97837761Y-111775438D02*
X97742523Y-111870676D01*
X97742523Y-111870676D02*
X97694904Y-112061152D01*
X97694904Y-112061152D02*
X97694904Y-112394485D01*
X97694904Y-112394485D02*
X97742523Y-112584961D01*
X97742523Y-112584961D02*
X97837761Y-112680200D01*
X97837761Y-112680200D02*
X97932999Y-112727819D01*
X97932999Y-112727819D02*
X98123475Y-112727819D01*
X98123475Y-112727819D02*
X98218713Y-112680200D01*
X98218713Y-112680200D02*
X98313951Y-112584961D01*
X98313951Y-112584961D02*
X98361570Y-112394485D01*
X98361570Y-112394485D02*
X98361570Y-112061152D01*
X98361570Y-112061152D02*
X98313951Y-111870676D01*
X98313951Y-111870676D02*
X98218713Y-111775438D01*
X98218713Y-111775438D02*
X98123475Y-111727819D01*
X97266332Y-112727819D02*
X97266332Y-111727819D01*
X97266332Y-111727819D02*
X96694904Y-112727819D01*
X96694904Y-112727819D02*
X96694904Y-111727819D01*
D11*
%TO.C,JP3*%
X97533000Y-113173000D02*
X97533000Y-115173000D01*
X97533000Y-115173000D02*
X100333000Y-115173000D01*
X100333000Y-113173000D02*
X97533000Y-113173000D01*
X100333000Y-115173000D02*
X100333000Y-113173000D01*
%TD*%
%LPC*%
D12*
%TO.C,H2*%
X200787000Y-81026000D03*
%TD*%
D13*
%TO.C,D4*%
X195326000Y-121105000D03*
X195326000Y-123645000D03*
X195326000Y-126185000D03*
X192786000Y-126185000D03*
X192786000Y-123645000D03*
X192786000Y-121105000D03*
%TD*%
D14*
%TO.C,JP2*%
X207421000Y-121539000D03*
X206121000Y-121539000D03*
%TD*%
D15*
%TO.C,TP8*%
X190246000Y-85598000D03*
%TD*%
%TO.C,TP4*%
X115824000Y-98679000D03*
%TD*%
%TO.C,TP10*%
X174625000Y-100394000D03*
%TD*%
D12*
%TO.C,H4*%
X200838000Y-120052000D03*
%TD*%
D15*
%TO.C,TP7*%
X190246000Y-80518000D03*
%TD*%
D14*
%TO.C,JP1*%
X207421000Y-117856000D03*
X206121000Y-117856000D03*
%TD*%
D16*
%TO.C,U4*%
X129794000Y-83439000D03*
X132334000Y-83439000D03*
X134874000Y-83439000D03*
X137414000Y-83439000D03*
%TD*%
D17*
%TO.C,J4*%
X129817000Y-124385000D03*
X141247000Y-124385000D03*
D18*
X131087000Y-118035000D03*
D19*
X132357000Y-115495000D03*
X133627000Y-118035000D03*
X134897000Y-115495000D03*
X136167000Y-118035000D03*
X137437000Y-115495000D03*
X138707000Y-118035000D03*
X139977000Y-115495000D03*
D20*
X127762000Y-127435000D03*
X143302000Y-127435000D03*
%TD*%
D15*
%TO.C,TP18*%
X198628000Y-85852000D03*
%TD*%
D12*
%TO.C,H1*%
X100787000Y-81026000D03*
%TD*%
D15*
%TO.C,TP1*%
X147447000Y-99949000D03*
%TD*%
%TO.C,TP9*%
X174625000Y-95314000D03*
%TD*%
D12*
%TO.C,H3*%
X100838000Y-120052000D03*
%TD*%
D15*
%TO.C,TP17*%
X135255000Y-110744000D03*
%TD*%
%TO.C,TP2*%
X152527000Y-99949000D03*
%TD*%
D21*
%TO.C,J6*%
X97683000Y-110251000D03*
D22*
X100183000Y-110251000D03*
%TD*%
D16*
%TO.C,U6*%
X129794000Y-104394000D03*
X132334000Y-104394000D03*
X134874000Y-104394000D03*
X137414000Y-104394000D03*
%TD*%
D15*
%TO.C,TP5*%
X163957000Y-104013000D03*
%TD*%
D23*
%TO.C,K1*%
X95123000Y-91059000D03*
X95123000Y-101219000D03*
X95123000Y-103759000D03*
X102743000Y-103759000D03*
X102743000Y-101219000D03*
X102743000Y-91059000D03*
%TD*%
D15*
%TO.C,TP12*%
X154432000Y-117729000D03*
%TD*%
D24*
%TO.C,U2*%
X123347000Y-114920000D03*
X122047000Y-114920000D03*
X120747000Y-114920000D03*
X123347000Y-116220000D03*
X122047000Y-116220000D03*
X120747000Y-116220000D03*
%TD*%
D25*
%TO.C,J7*%
X156095000Y-121747000D03*
D26*
X158865000Y-121747000D03*
X161635000Y-121747000D03*
X164405000Y-121747000D03*
X167175000Y-121747000D03*
X157480000Y-124587000D03*
X160250000Y-124587000D03*
X163020000Y-124587000D03*
X165790000Y-124587000D03*
D27*
X149135000Y-123167000D03*
X174135000Y-123167000D03*
%TD*%
D15*
%TO.C,TP11*%
X154432000Y-112649000D03*
%TD*%
%TO.C,TP3*%
X110744000Y-98679000D03*
%TD*%
%TO.C,TP13*%
X147447000Y-104013000D03*
%TD*%
%TO.C,TP6*%
X169037000Y-104013000D03*
%TD*%
D28*
%TO.C,J2*%
X158369000Y-112649000D03*
D29*
X158369000Y-110109000D03*
X158369000Y-107569000D03*
X158369000Y-105029000D03*
%TD*%
D30*
%TO.C,J3*%
X118955000Y-124448500D03*
D31*
X122455000Y-124448500D03*
%TD*%
D15*
%TO.C,TP14*%
X152527000Y-104013000D03*
%TD*%
D32*
%TO.C,J1*%
X109093000Y-118841000D03*
D33*
X109093000Y-124841000D03*
D34*
X113793000Y-121841000D03*
%TD*%
D35*
%TO.C,SW1*%
X205176001Y-124695000D03*
X198176001Y-124695000D03*
D36*
X203926001Y-127195000D03*
X199426001Y-127195000D03*
%TD*%
D37*
%TO.C,JP3*%
X98208000Y-114173000D03*
D38*
X99658000Y-114173000D03*
%TD*%
%LPD*%
M02*
