%TF.GenerationSoftware,KiCad,Pcbnew,7.0.10*%
%TF.CreationDate,2024-04-30T16:31:27+09:00*%
%TF.ProjectId,ESP_Weight,4553505f-5765-4696-9768-742e6b696361,rev?*%
%TF.SameCoordinates,Original*%
%TF.FileFunction,Soldermask,Top*%
%TF.FilePolarity,Negative*%
%FSLAX46Y46*%
G04 Gerber Fmt 4.6, Leading zero omitted, Abs format (unit mm)*
G04 Created by KiCad (PCBNEW 7.0.10) date 2024-04-30 16:31:27*
%MOMM*%
%LPD*%
G01*
G04 APERTURE LIST*
G04 Aperture macros list*
%AMRoundRect*
0 Rectangle with rounded corners*
0 $1 Rounding radius*
0 $2 $3 $4 $5 $6 $7 $8 $9 X,Y pos of 4 corners*
0 Add a 4 corners polygon primitive as box body*
4,1,4,$2,$3,$4,$5,$6,$7,$8,$9,$2,$3,0*
0 Add four circle primitives for the rounded corners*
1,1,$1+$1,$2,$3*
1,1,$1+$1,$4,$5*
1,1,$1+$1,$6,$7*
1,1,$1+$1,$8,$9*
0 Add four rect primitives between the rounded corners*
20,1,$1+$1,$2,$3,$4,$5,0*
20,1,$1+$1,$4,$5,$6,$7,0*
20,1,$1+$1,$6,$7,$8,$9,0*
20,1,$1+$1,$8,$9,$2,$3,0*%
G04 Aperture macros list end*
%ADD10RoundRect,0.218750X-0.218750X-0.256250X0.218750X-0.256250X0.218750X0.256250X-0.218750X0.256250X0*%
%ADD11RoundRect,0.200000X-0.275000X0.200000X-0.275000X-0.200000X0.275000X-0.200000X0.275000X0.200000X0*%
%ADD12RoundRect,0.225000X-0.250000X0.225000X-0.250000X-0.225000X0.250000X-0.225000X0.250000X0.225000X0*%
%ADD13R,0.450000X0.700000*%
%ADD14RoundRect,0.102000X-0.450000X0.750000X-0.450000X-0.750000X0.450000X-0.750000X0.450000X0.750000X0*%
%ADD15RoundRect,0.102000X-0.450000X0.450000X-0.450000X-0.450000X0.450000X-0.450000X0.450000X0.450000X0*%
%ADD16RoundRect,0.102000X-0.750000X0.450000X-0.750000X-0.450000X0.750000X-0.450000X0.750000X0.450000X0*%
%ADD17RoundRect,0.225000X0.250000X-0.225000X0.250000X0.225000X-0.250000X0.225000X-0.250000X-0.225000X0*%
%ADD18C,3.200000*%
%ADD19C,1.800000*%
%ADD20RoundRect,0.290520X0.516480X0.546480X-0.516480X0.546480X-0.516480X-0.546480X0.516480X-0.546480X0*%
%ADD21RoundRect,0.200000X0.275000X-0.200000X0.275000X0.200000X-0.275000X0.200000X-0.275000X-0.200000X0*%
%ADD22RoundRect,0.225000X-0.225000X-0.250000X0.225000X-0.250000X0.225000X0.250000X-0.225000X0.250000X0*%
%ADD23RoundRect,0.112500X0.187500X0.112500X-0.187500X0.112500X-0.187500X-0.112500X0.187500X-0.112500X0*%
%ADD24C,1.000000*%
%ADD25R,1.000000X1.000000*%
%ADD26RoundRect,0.150000X0.150000X-0.825000X0.150000X0.825000X-0.150000X0.825000X-0.150000X-0.825000X0*%
%ADD27RoundRect,0.150000X0.875000X0.150000X-0.875000X0.150000X-0.875000X-0.150000X0.875000X-0.150000X0*%
%ADD28RoundRect,0.250000X-0.312500X-1.450000X0.312500X-1.450000X0.312500X1.450000X-0.312500X1.450000X0*%
%ADD29RoundRect,0.150000X-0.150000X0.512500X-0.150000X-0.512500X0.150000X-0.512500X0.150000X0.512500X0*%
%ADD30RoundRect,0.200000X0.200000X0.275000X-0.200000X0.275000X-0.200000X-0.275000X0.200000X-0.275000X0*%
%ADD31RoundRect,0.200000X-0.200000X-0.275000X0.200000X-0.275000X0.200000X0.275000X-0.200000X0.275000X0*%
%ADD32RoundRect,0.250000X-0.375000X-0.625000X0.375000X-0.625000X0.375000X0.625000X-0.375000X0.625000X0*%
%ADD33RoundRect,0.200000X0.200000X0.450000X-0.200000X0.450000X-0.200000X-0.450000X0.200000X-0.450000X0*%
%ADD34RoundRect,0.250001X0.799999X1.249999X-0.799999X1.249999X-0.799999X-1.249999X0.799999X-1.249999X0*%
%ADD35C,1.400000*%
%ADD36RoundRect,0.218750X0.218750X0.256250X-0.218750X0.256250X-0.218750X-0.256250X0.218750X-0.256250X0*%
%ADD37C,3.250000*%
%ADD38R,1.500000X1.500000*%
%ADD39C,1.500000*%
%ADD40C,3.000000*%
%ADD41RoundRect,0.150000X-0.150000X0.825000X-0.150000X-0.825000X0.150000X-0.825000X0.150000X0.825000X0*%
%ADD42RoundRect,0.250000X1.000000X-1.750000X1.000000X1.750000X-1.000000X1.750000X-1.000000X-1.750000X0*%
%ADD43RoundRect,0.225000X0.225000X0.250000X-0.225000X0.250000X-0.225000X-0.250000X0.225000X-0.250000X0*%
%ADD44R,0.430000X0.760000*%
%ADD45RoundRect,0.112500X-0.112500X0.187500X-0.112500X-0.187500X0.112500X-0.187500X0.112500X0.187500X0*%
%ADD46RoundRect,0.250000X-0.600000X-0.675000X0.600000X-0.675000X0.600000X0.675000X-0.600000X0.675000X0*%
%ADD47O,1.700000X1.850000*%
%ADD48R,0.700000X0.450000*%
%ADD49RoundRect,0.150000X0.150000X-0.587500X0.150000X0.587500X-0.150000X0.587500X-0.150000X-0.587500X0*%
%ADD50RoundRect,0.150000X-0.150000X0.587500X-0.150000X-0.587500X0.150000X-0.587500X0.150000X0.587500X0*%
%ADD51RoundRect,0.290520X-0.516480X-0.546480X0.516480X-0.546480X0.516480X0.546480X-0.516480X0.546480X0*%
%ADD52O,2.300000X1.600000*%
%ADD53R,3.100000X2.400000*%
%ADD54RoundRect,0.070000X-0.250000X1.100000X-0.250000X-1.100000X0.250000X-1.100000X0.250000X1.100000X0*%
%ADD55C,0.770000*%
%ADD56RoundRect,0.150000X0.825000X0.150000X-0.825000X0.150000X-0.825000X-0.150000X0.825000X-0.150000X0*%
%ADD57R,1.600000X1.600000*%
%ADD58C,1.600000*%
%ADD59C,4.000000*%
%ADD60RoundRect,0.218750X-0.256250X0.218750X-0.256250X-0.218750X0.256250X-0.218750X0.256250X0.218750X0*%
%ADD61RoundRect,0.150000X-0.825000X-0.150000X0.825000X-0.150000X0.825000X0.150000X-0.825000X0.150000X0*%
%ADD62R,1.550000X1.350000*%
%ADD63R,1.900000X1.350000*%
%ADD64R,1.170000X1.800000*%
%ADD65R,0.850000X1.100000*%
%ADD66R,0.750000X1.100000*%
%ADD67R,1.200000X1.000000*%
%ADD68RoundRect,0.250000X0.650000X-1.000000X0.650000X1.000000X-0.650000X1.000000X-0.650000X-1.000000X0*%
%ADD69R,1.700000X1.700000*%
%ADD70O,1.700000X1.700000*%
%ADD71RoundRect,0.250000X-0.650000X-1.550000X0.650000X-1.550000X0.650000X1.550000X-0.650000X1.550000X0*%
%ADD72O,1.800000X3.600000*%
%ADD73R,3.500000X3.500000*%
%ADD74RoundRect,0.750000X1.000000X-0.750000X1.000000X0.750000X-1.000000X0.750000X-1.000000X-0.750000X0*%
%ADD75RoundRect,0.875000X0.875000X-0.875000X0.875000X0.875000X-0.875000X0.875000X-0.875000X-0.875000X0*%
%ADD76C,2.400000*%
%ADD77C,1.700000*%
%ADD78R,1.800000X1.000000*%
%ADD79R,3.100000X4.500000*%
G04 APERTURE END LIST*
D10*
%TO.C,FB3*%
X135864500Y-106553000D03*
X137439500Y-106553000D03*
%TD*%
D11*
%TO.C,R2*%
X120142000Y-108776000D03*
X120142000Y-110426000D03*
%TD*%
D12*
%TO.C,C1*%
X205867000Y-85204000D03*
X205867000Y-86754000D03*
%TD*%
D13*
%TO.C,U9*%
X158608000Y-118475000D03*
X159908000Y-118475000D03*
X159258000Y-116475000D03*
%TD*%
D12*
%TO.C,C4*%
X130556000Y-106540000D03*
X130556000Y-108090000D03*
%TD*%
D14*
%TO.C,U5*%
X207518000Y-88889000D03*
D15*
X201578000Y-94739000D03*
X200178000Y-94739000D03*
X198778000Y-94739000D03*
X201578000Y-96139000D03*
X200178000Y-96139000D03*
X198778000Y-96139000D03*
X201578000Y-97539000D03*
X200178000Y-97539000D03*
X198778000Y-97539000D03*
D14*
X206248000Y-88889000D03*
X204978000Y-88889000D03*
X203708000Y-88889000D03*
X202438000Y-88889000D03*
X201168000Y-88889000D03*
X199898000Y-88889000D03*
X198628000Y-88889000D03*
X197358000Y-88889000D03*
X196088000Y-88889000D03*
X194818000Y-88889000D03*
X193548000Y-88889000D03*
X192278000Y-88889000D03*
X191008000Y-88889000D03*
D16*
X189758000Y-91929000D03*
X189758000Y-93199000D03*
X189758000Y-94469000D03*
X189758000Y-95739000D03*
X189758000Y-97009000D03*
X189758000Y-98279000D03*
X189758000Y-99549000D03*
X189758000Y-100819000D03*
X189758000Y-102089000D03*
X189758000Y-103359000D03*
D14*
X191008000Y-106389000D03*
X192278000Y-106389000D03*
X193548000Y-106389000D03*
X194818000Y-106389000D03*
X196088000Y-106389000D03*
X197358000Y-106389000D03*
X198628000Y-106389000D03*
X199898000Y-106389000D03*
X201168000Y-106389000D03*
X202438000Y-106389000D03*
X203708000Y-106389000D03*
X204978000Y-106389000D03*
X206248000Y-106389000D03*
X207518000Y-106389000D03*
%TD*%
D17*
%TO.C,C21*%
X186563000Y-101105000D03*
X186563000Y-99555000D03*
%TD*%
%TO.C,C8*%
X140970000Y-82944000D03*
X140970000Y-81394000D03*
%TD*%
D18*
%TO.C,H2*%
X200787000Y-81026000D03*
%TD*%
D19*
%TO.C,D4*%
X195326000Y-121105000D03*
X195326000Y-123645000D03*
X195326000Y-126185000D03*
X192786000Y-126185000D03*
X192786000Y-123645000D03*
X192786000Y-121105000D03*
%TD*%
D20*
%TO.C,U3*%
X138454000Y-96520000D03*
X138454000Y-93980000D03*
X128754000Y-93980000D03*
X128754000Y-96520000D03*
%TD*%
D21*
%TO.C,R10*%
X144780000Y-112585000D03*
X144780000Y-110935000D03*
%TD*%
D22*
%TO.C,C17*%
X165849000Y-108966000D03*
X167399000Y-108966000D03*
%TD*%
D23*
%TO.C,D2*%
X184946000Y-80137000D03*
X182846000Y-80137000D03*
%TD*%
D24*
%TO.C,JP2*%
X207421000Y-121539000D03*
X206121000Y-121539000D03*
%TD*%
D25*
%TO.C,TP8*%
X190246000Y-85598000D03*
%TD*%
D26*
%TO.C,U14*%
X146558000Y-114870000D03*
X147828000Y-114870000D03*
X149098000Y-114870000D03*
X150368000Y-114870000D03*
X150368000Y-109920000D03*
X149098000Y-109920000D03*
X147828000Y-109920000D03*
X146558000Y-109920000D03*
%TD*%
D25*
%TO.C,TP4*%
X115824000Y-98679000D03*
%TD*%
%TO.C,TP10*%
X174625000Y-100394000D03*
%TD*%
D27*
%TO.C,U11*%
X186514000Y-111887000D03*
X186514000Y-110617000D03*
X186514000Y-109347000D03*
X186514000Y-108077000D03*
X186514000Y-106807000D03*
X186514000Y-105537000D03*
X186514000Y-104267000D03*
X186514000Y-102997000D03*
X177214000Y-102997000D03*
X177214000Y-104267000D03*
X177214000Y-105537000D03*
X177214000Y-106807000D03*
X177214000Y-108077000D03*
X177214000Y-109347000D03*
X177214000Y-110617000D03*
X177214000Y-111887000D03*
%TD*%
D28*
%TO.C,F2*%
X126154000Y-110998000D03*
X130429000Y-110998000D03*
%TD*%
D29*
%TO.C,U15*%
X140650000Y-109860500D03*
X139700000Y-109860500D03*
X138750000Y-109860500D03*
X138750000Y-112135500D03*
X139700000Y-112135500D03*
X140650000Y-112135500D03*
%TD*%
D12*
%TO.C,C19*%
X172974000Y-111620000D03*
X172974000Y-113170000D03*
%TD*%
D17*
%TO.C,C18*%
X143002000Y-109233000D03*
X143002000Y-107683000D03*
%TD*%
D12*
%TO.C,C2*%
X207645000Y-85204000D03*
X207645000Y-86754000D03*
%TD*%
D30*
%TO.C,R12*%
X142176000Y-92964000D03*
X140526000Y-92964000D03*
%TD*%
D31*
%TO.C,R14*%
X125286000Y-87503000D03*
X126936000Y-87503000D03*
%TD*%
D17*
%TO.C,C22*%
X177165000Y-101105000D03*
X177165000Y-99555000D03*
%TD*%
D18*
%TO.C,H4*%
X200838000Y-120052000D03*
%TD*%
D25*
%TO.C,TP7*%
X190246000Y-80518000D03*
%TD*%
D32*
%TO.C,F1*%
X104645000Y-115570000D03*
X107445000Y-115570000D03*
%TD*%
D22*
%TO.C,C26*%
X175755000Y-80244000D03*
X177305000Y-80244000D03*
%TD*%
D24*
%TO.C,JP1*%
X207421000Y-117856000D03*
X206121000Y-117856000D03*
%TD*%
D30*
%TO.C,R18*%
X196024000Y-109776500D03*
X194374000Y-109776500D03*
%TD*%
D33*
%TO.C,J9*%
X204821000Y-115211000D03*
X203571000Y-115211000D03*
X202321000Y-115211000D03*
X201071000Y-115211000D03*
D34*
X207371000Y-112461000D03*
X198521000Y-112461000D03*
%TD*%
D12*
%TO.C,C12*%
X174879000Y-110477000D03*
X174879000Y-112027000D03*
%TD*%
D35*
%TO.C,U4*%
X129794000Y-83439000D03*
X132334000Y-83439000D03*
X134874000Y-83439000D03*
X137414000Y-83439000D03*
%TD*%
D21*
%TO.C,R16*%
X194564000Y-117030000D03*
X194564000Y-115380000D03*
%TD*%
%TO.C,R17*%
X196215000Y-117030000D03*
X196215000Y-115380000D03*
%TD*%
D31*
%TO.C,R7*%
X173419000Y-91948000D03*
X175069000Y-91948000D03*
%TD*%
D36*
%TO.C,TH3*%
X127660500Y-106553000D03*
X126085500Y-106553000D03*
%TD*%
%TO.C,TH2*%
X122580500Y-81775000D03*
X121005500Y-81775000D03*
%TD*%
D12*
%TO.C,C28*%
X186690000Y-80505000D03*
X186690000Y-82055000D03*
%TD*%
D37*
%TO.C,J4*%
X129817000Y-124385000D03*
X141247000Y-124385000D03*
D38*
X131087000Y-118035000D03*
D39*
X132357000Y-115495000D03*
X133627000Y-118035000D03*
X134897000Y-115495000D03*
X136167000Y-118035000D03*
X137437000Y-115495000D03*
X138707000Y-118035000D03*
X139977000Y-115495000D03*
D40*
X127762000Y-127435000D03*
X143302000Y-127435000D03*
%TD*%
D25*
%TO.C,TP18*%
X198628000Y-85852000D03*
%TD*%
D18*
%TO.C,H1*%
X100787000Y-81026000D03*
%TD*%
D41*
%TO.C,U13*%
X171069000Y-111255000D03*
X169799000Y-111255000D03*
X168529000Y-111255000D03*
X167259000Y-111255000D03*
X165989000Y-111255000D03*
X164719000Y-111255000D03*
X163449000Y-111255000D03*
X162179000Y-111255000D03*
X162179000Y-116205000D03*
X163449000Y-116205000D03*
X164719000Y-116205000D03*
X165989000Y-116205000D03*
X167259000Y-116205000D03*
X168529000Y-116205000D03*
X169799000Y-116205000D03*
X171069000Y-116205000D03*
%TD*%
D42*
%TO.C,C10*%
X113538000Y-113714500D03*
X113538000Y-105714500D03*
%TD*%
D11*
%TO.C,R8*%
X151003000Y-116904000D03*
X151003000Y-118554000D03*
%TD*%
D25*
%TO.C,TP1*%
X147447000Y-99949000D03*
%TD*%
D43*
%TO.C,C13*%
X170574000Y-108966000D03*
X169024000Y-108966000D03*
%TD*%
D12*
%TO.C,C25*%
X118237000Y-116827000D03*
X118237000Y-118377000D03*
%TD*%
%TO.C,C7*%
X132334000Y-106540000D03*
X132334000Y-108090000D03*
%TD*%
D25*
%TO.C,TP9*%
X174625000Y-95314000D03*
%TD*%
D11*
%TO.C,R5*%
X172085000Y-98807000D03*
X172085000Y-100457000D03*
%TD*%
D36*
%TO.C,FB1*%
X144145000Y-82931000D03*
X142570000Y-82931000D03*
%TD*%
D30*
%TO.C,R4*%
X187642000Y-93980000D03*
X185992000Y-93980000D03*
%TD*%
D31*
%TO.C,R3*%
X204915000Y-108585000D03*
X206565000Y-108585000D03*
%TD*%
D44*
%TO.C,RN1*%
X182569000Y-115568000D03*
X183369000Y-115568000D03*
X184169000Y-115568000D03*
X184969000Y-115568000D03*
X184969000Y-114048000D03*
X184169000Y-114048000D03*
X183369000Y-114048000D03*
X182569000Y-114048000D03*
%TD*%
D18*
%TO.C,H3*%
X100838000Y-120052000D03*
%TD*%
D21*
%TO.C,R6*%
X172085000Y-97028000D03*
X172085000Y-95378000D03*
%TD*%
D45*
%TO.C,D3*%
X186690000Y-84167000D03*
X186690000Y-86267000D03*
%TD*%
D25*
%TO.C,TP17*%
X135255000Y-110744000D03*
%TD*%
%TO.C,TP2*%
X152527000Y-99949000D03*
%TD*%
D46*
%TO.C,J6*%
X97683000Y-110251000D03*
D47*
X100183000Y-110251000D03*
%TD*%
D48*
%TO.C,U8*%
X146193000Y-117079000D03*
X146193000Y-118379000D03*
X148193000Y-117729000D03*
%TD*%
D49*
%TO.C,U1*%
X121478000Y-85979000D03*
X123378000Y-85979000D03*
X122428000Y-84104000D03*
%TD*%
D35*
%TO.C,U6*%
X129794000Y-104394000D03*
X132334000Y-104394000D03*
X134874000Y-104394000D03*
X137414000Y-104394000D03*
%TD*%
D22*
%TO.C,C16*%
X162674000Y-108966000D03*
X164224000Y-108966000D03*
%TD*%
D50*
%TO.C,Q1*%
X192720000Y-110109000D03*
X190820000Y-110109000D03*
X191770000Y-111984000D03*
%TD*%
D12*
%TO.C,C11*%
X188849000Y-110477000D03*
X188849000Y-112027000D03*
%TD*%
D11*
%TO.C,R9*%
X201676000Y-85154000D03*
X201676000Y-86804000D03*
%TD*%
D25*
%TO.C,TP5*%
X163957000Y-104013000D03*
%TD*%
D51*
%TO.C,U12*%
X177014000Y-89281000D03*
X177014000Y-91821000D03*
X186714000Y-91821000D03*
X186714000Y-89281000D03*
%TD*%
D52*
%TO.C,K1*%
X95123000Y-91059000D03*
X95123000Y-101219000D03*
X95123000Y-103759000D03*
X102743000Y-103759000D03*
X102743000Y-101219000D03*
X102743000Y-91059000D03*
%TD*%
D25*
%TO.C,TP12*%
X154432000Y-117729000D03*
%TD*%
D30*
%TO.C,R11*%
X142176000Y-96520000D03*
X140526000Y-96520000D03*
%TD*%
D53*
%TO.C,U2*%
X122047000Y-115570000D03*
D54*
X123952000Y-112695000D03*
X122682000Y-112695000D03*
X121412000Y-112695000D03*
X120142000Y-112695000D03*
X120142000Y-118445000D03*
X121412000Y-118445000D03*
X122682000Y-118445000D03*
X123952000Y-118445000D03*
D55*
X123347000Y-114920000D03*
X122047000Y-114920000D03*
X120747000Y-114920000D03*
X123347000Y-116220000D03*
X122047000Y-116220000D03*
X120747000Y-116220000D03*
%TD*%
D56*
%TO.C,U10*%
X184339000Y-99822000D03*
X184339000Y-98552000D03*
X184339000Y-97282000D03*
X184339000Y-96012000D03*
X179389000Y-96012000D03*
X179389000Y-97282000D03*
X179389000Y-98552000D03*
X179389000Y-99822000D03*
%TD*%
D57*
%TO.C,J7*%
X156095000Y-121747000D03*
D58*
X158865000Y-121747000D03*
X161635000Y-121747000D03*
X164405000Y-121747000D03*
X167175000Y-121747000D03*
X157480000Y-124587000D03*
X160250000Y-124587000D03*
X163020000Y-124587000D03*
X165790000Y-124587000D03*
D59*
X149135000Y-123167000D03*
X174135000Y-123167000D03*
%TD*%
D25*
%TO.C,TP11*%
X154432000Y-112649000D03*
%TD*%
D17*
%TO.C,C23*%
X119761000Y-85816500D03*
X119761000Y-84266500D03*
%TD*%
%TO.C,C3*%
X126238000Y-81788000D03*
X126238000Y-80238000D03*
%TD*%
D43*
%TO.C,C27*%
X191275000Y-114173000D03*
X189725000Y-114173000D03*
%TD*%
D60*
%TO.C,RV1*%
X105156000Y-91541500D03*
X105156000Y-93116500D03*
%TD*%
D61*
%TO.C,U16*%
X179389000Y-82042000D03*
X179389000Y-83312000D03*
X179389000Y-84582000D03*
X179389000Y-85852000D03*
X184339000Y-85852000D03*
X184339000Y-84582000D03*
X184339000Y-83312000D03*
X184339000Y-82042000D03*
%TD*%
D25*
%TO.C,TP3*%
X110744000Y-98679000D03*
%TD*%
D62*
%TO.C,J5*%
X190096000Y-128515000D03*
D63*
X186771000Y-117815000D03*
X180801000Y-117815000D03*
D64*
X178776000Y-128290000D03*
D65*
X187636000Y-128640000D03*
X186536000Y-128640000D03*
X185436000Y-128640000D03*
X184336000Y-128640000D03*
X183236000Y-128640000D03*
X182136000Y-128640000D03*
X181036000Y-128640000D03*
D66*
X179986000Y-128640000D03*
D67*
X190271000Y-122490000D03*
X190271000Y-118790000D03*
%TD*%
D31*
%TO.C,R19*%
X186627000Y-115316000D03*
X188277000Y-115316000D03*
%TD*%
D21*
%TO.C,R15*%
X192913000Y-117030000D03*
X192913000Y-115380000D03*
%TD*%
D25*
%TO.C,TP13*%
X147447000Y-104013000D03*
%TD*%
D17*
%TO.C,C15*%
X144780000Y-109233000D03*
X144780000Y-107683000D03*
%TD*%
D22*
%TO.C,C9*%
X139052000Y-106553000D03*
X140602000Y-106553000D03*
%TD*%
D68*
%TO.C,D1*%
X105918000Y-112395000D03*
X105918000Y-108395000D03*
%TD*%
D31*
%TO.C,R1*%
X199327000Y-108585000D03*
X200977000Y-108585000D03*
%TD*%
D17*
%TO.C,C6*%
X203581000Y-86754000D03*
X203581000Y-85204000D03*
%TD*%
D43*
%TO.C,C14*%
X171082000Y-118491000D03*
X169532000Y-118491000D03*
%TD*%
D25*
%TO.C,TP6*%
X169037000Y-104013000D03*
%TD*%
D20*
%TO.C,U7*%
X138454000Y-90043000D03*
X138454000Y-87503000D03*
X128754000Y-87503000D03*
X128754000Y-90043000D03*
%TD*%
D31*
%TO.C,R13*%
X125286000Y-93980000D03*
X126936000Y-93980000D03*
%TD*%
D69*
%TO.C,J2*%
X158369000Y-112649000D03*
D70*
X158369000Y-110109000D03*
X158369000Y-107569000D03*
X158369000Y-105029000D03*
%TD*%
D17*
%TO.C,C20*%
X132355500Y-112281000D03*
X132355500Y-110731000D03*
%TD*%
D71*
%TO.C,J3*%
X118955000Y-124448500D03*
D72*
X122455000Y-124448500D03*
%TD*%
D25*
%TO.C,TP14*%
X152527000Y-104013000D03*
%TD*%
D73*
%TO.C,J1*%
X109093000Y-118841000D03*
D74*
X109093000Y-124841000D03*
D75*
X113793000Y-121841000D03*
%TD*%
D12*
%TO.C,C24*%
X125095000Y-84266500D03*
X125095000Y-85816500D03*
%TD*%
D76*
%TO.C,SW1*%
X205176001Y-124695000D03*
X198176001Y-124695000D03*
D77*
X203926001Y-127195000D03*
X199426001Y-127195000D03*
%TD*%
D78*
%TO.C,Y1*%
X176530000Y-82042000D03*
X176530000Y-84542000D03*
%TD*%
D17*
%TO.C,C5*%
X124333000Y-81788000D03*
X124333000Y-80238000D03*
%TD*%
D79*
%TO.C,J8*%
X142418000Y-87884000D03*
X171018000Y-87884000D03*
%TD*%
M02*
