M48
; DRILL file {KiCad 7.0.10} date Tue Apr 30 16:31:27 2024
; FORMAT={-:-/ absolute / inch / decimal}
; #@! TF.CreationDate,2024-04-30T16:31:27+09:00
; #@! TF.GenerationSoftware,Kicad,Pcbnew,7.0.10
; #@! TF.FileFunction,Plated,1,4,PTH
FMAT,2
INCH
; #@! TA.AperFunction,Plated,PTH,ViaDrill
T1C0.0118
; #@! TA.AperFunction,Plated,PTH,ComponentDrill
T2C0.0130
; #@! TA.AperFunction,Plated,PTH,ViaDrill
T3C0.0157
; #@! TA.AperFunction,Plated,PTH,ViaDrill
T4C0.0197
; #@! TA.AperFunction,Plated,PTH,ComponentDrill
T5C0.0197
; #@! TA.AperFunction,Plated,PTH,ComponentDrill
T6C0.0300
; #@! TA.AperFunction,Plated,PTH,ComponentDrill
T7C0.0335
; #@! TA.AperFunction,Plated,PTH,ComponentDrill
T8C0.0354
; #@! TA.AperFunction,Plated,PTH,ComponentDrill
T9C0.0394
; #@! TA.AperFunction,Plated,PTH,ComponentDrill
T10C0.0472
; #@! TA.AperFunction,Plated,PTH,ComponentDrill
T11C0.0591
; #@! TA.AperFunction,Plated,PTH,ComponentDrill
T12C0.0630
; #@! TA.AperFunction,Plated,PTH,ComponentDrill
T13C0.1260
%
G90
G05
T1
X4.83Y-4.73
X4.83Y-4.77
X5.305Y-3.155
X5.305Y-3.355
X5.305Y-3.455
X5.305Y-3.555
X5.305Y-3.655
X5.305Y-3.755
X5.305Y-3.855
X5.305Y-3.955
X5.305Y-4.025
X5.305Y-4.225
X5.305Y-4.625
X5.305Y-4.725
X5.305Y-4.825
X5.305Y-4.925
X5.305Y-5.025
X5.305Y-5.125
X5.32Y-4.195
X5.405Y-3.155
X5.405Y-3.355
X5.405Y-3.855
X5.405Y-3.955
X5.405Y-4.025
X5.405Y-4.325
X5.405Y-4.465
X5.405Y-4.825
X5.405Y-4.925
X5.405Y-5.025
X5.405Y-5.125
X5.455Y-3.655
X5.5Y-4.465
X5.505Y-3.155
X5.505Y-3.355
X5.505Y-3.455
X5.505Y-3.555
X5.505Y-3.755
X5.505Y-3.855
X5.505Y-3.955
X5.505Y-4.025
X5.505Y-4.125
X5.505Y-4.225
X5.505Y-4.825
X5.505Y-5.025
X5.505Y-5.125
X5.51Y-4.605
X5.59Y-4.3
X5.605Y-3.155
X5.605Y-3.755
X5.605Y-3.855
X5.605Y-3.955
X5.605Y-4.025
X5.605Y-4.125
X5.605Y-5.125
X5.64Y-3.66
X5.64Y-3.8
X5.675Y-3.73
X5.68Y-4.67
X5.68Y-4.72
X5.705Y-3.155
X5.705Y-3.355
X5.705Y-3.555
X5.705Y-3.655
X5.705Y-3.855
X5.705Y-3.955
X5.705Y-4.025
X5.705Y-4.525
X5.705Y-4.825
X5.705Y-4.925
X5.705Y-5.125
X5.71Y-3.455
X5.805Y-3.155
X5.805Y-3.255
X5.805Y-3.355
X5.805Y-3.555
X5.805Y-3.655
X5.805Y-3.855
X5.805Y-4.225
X5.805Y-4.625
X5.805Y-4.925
X5.805Y-5.025
X5.805Y-5.125
X5.81Y-3.455
X5.82Y-4.275
X5.82Y-4.575
X5.905Y-3.155
X5.905Y-3.255
X5.905Y-3.355
X5.905Y-3.555
X5.905Y-3.655
X5.905Y-3.855
X5.905Y-3.955
X5.905Y-4.125
X5.905Y-4.225
X5.905Y-4.525
X5.905Y-5.025
X5.905Y-5.125
X5.91Y-3.455
X5.945Y-4.75
X6.005Y-3.155
X6.005Y-3.255
X6.005Y-3.355
X6.005Y-3.555
X6.005Y-3.655
X6.005Y-3.855
X6.005Y-4.525
X6.005Y-4.825
X6.005Y-4.925
X6.005Y-5.025
X6.005Y-5.125
X6.01Y-3.455
X6.04Y-4.225
X6.105Y-3.155
X6.105Y-3.255
X6.105Y-3.355
X6.105Y-3.455
X6.105Y-3.555
X6.105Y-3.655
X6.105Y-3.855
X6.105Y-3.955
X6.105Y-4.325
X6.105Y-4.525
X6.105Y-4.925
X6.105Y-5.025
X6.105Y-5.125
X6.205Y-3.155
X6.205Y-3.255
X6.205Y-3.355
X6.205Y-3.455
X6.205Y-3.555
X6.205Y-3.655
X6.205Y-3.855
X6.205Y-3.955
X6.205Y-4.525
X6.205Y-4.625
X6.205Y-4.825
X6.205Y-5.025
X6.205Y-5.125
X6.305Y-3.155
X6.305Y-3.255
X6.305Y-3.36
X6.305Y-3.455
X6.305Y-3.555
X6.305Y-3.655
X6.305Y-3.855
X6.305Y-3.955
X6.305Y-4.125
X6.305Y-4.225
X6.305Y-4.425
X6.305Y-4.825
X6.305Y-5.025
X6.305Y-5.125
X6.385Y-4.64
X6.405Y-3.155
X6.405Y-3.255
X6.405Y-3.355
X6.405Y-3.455
X6.405Y-3.555
X6.405Y-3.655
X6.405Y-3.855
X6.405Y-4.125
X6.405Y-4.225
X6.405Y-4.825
X6.405Y-5.025
X6.405Y-5.125
X6.435Y-4.64
X6.485Y-4.64
X6.505Y-3.155
X6.505Y-3.255
X6.505Y-3.355
X6.505Y-3.455
X6.505Y-3.555
X6.505Y-3.655
X6.505Y-4.125
X6.505Y-4.225
X6.505Y-5.025
X6.505Y-5.125
X6.535Y-4.64
X6.585Y-4.64
X6.605Y-3.155
X6.605Y-3.255
X6.605Y-3.355
X6.605Y-3.455
X6.605Y-3.555
X6.605Y-3.925
X6.605Y-4.125
X6.605Y-4.225
X6.605Y-4.725
X6.605Y-4.925
X6.605Y-5.025
X6.605Y-5.125
X6.635Y-4.64
X6.705Y-3.155
X6.705Y-3.255
X6.705Y-3.355
X6.705Y-3.825
X6.705Y-4.125
X6.705Y-4.225
X6.705Y-4.525
X6.705Y-4.625
X6.705Y-4.725
X6.705Y-4.825
X6.705Y-4.925
X6.705Y-5.025
X6.705Y-5.125
X6.77Y-4.665
X6.805Y-3.155
X6.805Y-3.255
X6.805Y-3.355
X6.805Y-3.725
X6.805Y-3.925
X6.805Y-4.025
X6.805Y-4.125
X6.805Y-4.525
X6.805Y-4.625
X6.805Y-4.725
X6.805Y-5.025
X6.805Y-5.125
X6.815Y-3.89
X6.875Y-4.255
X6.875Y-4.305
X6.885Y-4.45
X6.905Y-3.525
X6.905Y-3.825
X6.905Y-4.025
X6.905Y-4.125
X6.905Y-4.525
X6.905Y-4.625
X6.905Y-4.725
X6.905Y-5.025
X6.905Y-5.125
X6.91Y-4.23
X6.93Y-3.945
X7.005Y-3.255
X7.005Y-3.725
X7.005Y-4.025
X7.045Y-4.105
X7.045Y-4.155
X7.045Y-4.205
X7.105Y-3.155
X7.105Y-3.525
X7.105Y-3.625
X7.105Y-3.725
X7.105Y-4.025
X7.105Y-4.125
X7.105Y-4.225
X7.105Y-4.325
X7.105Y-4.855
X7.105Y-4.955
X7.19Y-4.72
X7.205Y-3.255
X7.205Y-3.455
X7.205Y-3.555
X7.205Y-3.655
X7.205Y-3.755
X7.205Y-3.855
X7.205Y-3.955
X7.205Y-4.055
X7.205Y-4.155
X7.205Y-4.255
X7.205Y-4.355
X7.22Y-4.695
X7.25Y-4.745
X7.26Y-5.02
X7.275Y-4.105
X7.285Y-4.67
X7.31Y-3.83
X7.315Y-4.54
X7.32Y-4.49
X7.32Y-4.925
X7.335Y-3.88
X7.37Y-3.81
X7.37Y-3.94
X7.38Y-3.34
X7.395Y-3.515
X7.4Y-4.155
X7.4Y-4.255
X7.405Y-3.155
X7.405Y-3.455
X7.405Y-4.455
X7.405Y-4.955
X7.415Y-3.37
X7.42Y-3.575
X7.48Y-4.19
X7.48Y-4.37
X7.505Y-4.955
X7.515Y-4.02
X7.5488Y-4.335
X7.55Y-4.295
X7.57Y-3.56
X7.605Y-3.155
X7.605Y-3.255
X7.605Y-3.405
X7.605Y-3.555
X7.605Y-3.655
X7.605Y-3.755
X7.605Y-3.855
X7.605Y-3.955
X7.605Y-4.055
X7.605Y-4.655
X7.605Y-5.055
X7.62Y-3.455
X7.67Y-3.405
X7.705Y-3.155
X7.705Y-3.255
X7.705Y-3.355
X7.705Y-3.555
X7.705Y-3.755
X7.705Y-3.855
X7.705Y-3.955
X7.705Y-4.055
X7.705Y-4.455
X7.705Y-5.055
X7.72Y-3.405
X7.72Y-4.235
X7.765Y-3.405
X7.77Y-3.56
X7.77Y-4.235
X7.805Y-3.155
X7.805Y-3.255
X7.805Y-3.555
X7.805Y-3.655
X7.805Y-3.955
X7.805Y-4.055
X7.805Y-4.555
X7.805Y-4.655
X7.805Y-4.755
X7.805Y-5.055
X7.82Y-3.455
X7.82Y-4.235
X7.85Y-4.32
X7.87Y-3.455
X7.9Y-3.355
X7.905Y-3.555
X7.905Y-3.655
X7.905Y-3.955
X7.905Y-4.055
X7.905Y-4.355
X7.905Y-4.955
X7.905Y-5.055
X7.98Y-3.415
X7.995Y-4.27
X8.005Y-3.155
X8.005Y-3.255
X8.005Y-3.555
X8.005Y-3.655
X8.005Y-3.755
X8.005Y-3.855
X8.005Y-3.955
X8.005Y-4.055
X8.005Y-4.455
X8.005Y-4.655
X8.005Y-4.755
X8.005Y-4.855
X8.005Y-4.955
X8.065Y-4.485
X8.105Y-3.155
X8.105Y-3.255
X8.105Y-3.655
X8.105Y-3.755
X8.105Y-3.855
X8.105Y-3.955
X8.105Y-4.055
X8.105Y-4.355
X8.105Y-4.555
X8.105Y-4.755
X8.105Y-5.055
X8.12Y-4.235
X8.135Y-4.32
X8.205Y-3.155
X8.205Y-3.255
X8.205Y-3.455
X8.205Y-3.555
X8.205Y-4.855
X8.205Y-4.955
X8.205Y-5.055
X8.21Y-3.415
T2
X4.7538Y-4.5244
X4.7538Y-4.5756
X4.805Y-4.5244
X4.805Y-4.5756
X4.8562Y-4.5244
X4.8562Y-4.5756
T3
X3.745Y-3.155
X3.745Y-3.255
X3.745Y-3.355
X3.745Y-3.455
X3.745Y-3.655
X3.745Y-3.755
X3.745Y-3.855
X3.745Y-4.255
X3.745Y-4.355
X3.745Y-4.455
X3.745Y-4.555
X3.745Y-4.655
X3.745Y-4.755
X3.745Y-4.855
X3.745Y-4.955
X3.745Y-5.055
X3.845Y-3.155
X3.845Y-3.255
X3.845Y-3.355
X3.845Y-3.455
X3.845Y-3.555
X3.845Y-3.655
X3.845Y-3.755
X3.845Y-3.855
X3.845Y-3.955
X3.845Y-4.255
X3.845Y-4.555
X3.845Y-4.655
X3.845Y-4.755
X3.845Y-4.855
X3.845Y-4.955
X3.845Y-5.055
X3.945Y-3.355
X3.945Y-3.455
X3.945Y-3.555
X3.945Y-3.655
X3.945Y-3.755
X3.945Y-3.855
X3.945Y-3.955
X3.945Y-4.055
X3.945Y-4.555
X3.945Y-4.855
X3.945Y-4.955
X3.945Y-5.055
X4.045Y-3.355
X4.045Y-3.455
X4.045Y-3.755
X4.045Y-3.855
X4.045Y-4.855
X4.045Y-4.955
X4.045Y-5.055
X4.145Y-3.155
X4.145Y-3.255
X4.145Y-3.355
X4.145Y-3.455
X4.145Y-3.755
X4.145Y-3.855
X4.145Y-3.955
X4.145Y-4.055
X4.145Y-4.255
X4.145Y-4.755
X4.145Y-4.855
X4.145Y-4.955
X4.145Y-5.055
X4.245Y-3.155
X4.245Y-3.255
X4.245Y-3.355
X4.245Y-3.455
X4.245Y-3.755
X4.245Y-3.855
X4.245Y-3.955
X4.245Y-4.055
X4.245Y-4.355
X4.245Y-4.455
X4.245Y-5.055
X4.345Y-3.155
X4.345Y-3.255
X4.345Y-3.355
X4.345Y-3.455
X4.345Y-3.555
X4.345Y-4.455
X4.345Y-4.555
X4.345Y-5.055
X4.445Y-3.155
X4.445Y-3.255
X4.445Y-3.355
X4.445Y-3.455
X4.445Y-3.555
X4.445Y-3.655
X4.445Y-3.955
X4.445Y-4.055
X4.445Y-4.955
X4.445Y-5.055
X4.545Y-3.155
X4.545Y-3.255
X4.545Y-3.355
X4.545Y-3.455
X4.545Y-3.555
X4.545Y-3.955
X4.545Y-4.055
X4.545Y-4.155
X4.545Y-4.355
X4.545Y-4.48
X4.545Y-4.955
X4.545Y-5.055
X4.645Y-3.155
X4.645Y-3.755
X4.645Y-3.855
X4.645Y-3.955
X4.645Y-4.055
X4.645Y-4.155
X4.645Y-4.255
X4.645Y-4.355
X4.645Y-4.48
X4.645Y-4.555
X4.645Y-4.755
X4.645Y-5.055
X4.745Y-3.155
X4.745Y-3.355
X4.745Y-3.455
X4.745Y-3.555
X4.745Y-3.655
X4.745Y-3.755
X4.745Y-3.855
X4.745Y-3.955
X4.745Y-4.055
X4.745Y-4.155
X4.745Y-4.255
X4.745Y-4.955
X4.745Y-5.055
X4.845Y-3.155
X4.845Y-3.455
X4.845Y-3.555
X4.845Y-3.655
X4.845Y-3.755
X4.845Y-5.055
X4.865Y-3.955
X4.865Y-4.055
X4.865Y-4.155
X4.865Y-4.255
X4.945Y-3.155
X4.945Y-3.265
X4.945Y-3.455
X4.945Y-3.555
X4.945Y-3.655
X4.945Y-3.855
X4.945Y-3.955
X4.945Y-4.055
X4.945Y-4.655
X4.945Y-4.755
X4.945Y-4.855
X4.945Y-4.955
X4.945Y-5.055
X5.045Y-3.155
X5.045Y-3.265
X5.045Y-3.855
X5.045Y-3.955
X5.045Y-4.055
X5.045Y-4.255
X5.045Y-4.355
X5.045Y-4.47
X5.045Y-4.555
X5.045Y-4.655
X5.045Y-4.755
X5.145Y-3.155
X5.145Y-3.355
X5.145Y-3.855
X5.145Y-3.955
X5.145Y-4.055
X5.145Y-4.255
X5.145Y-4.47
X5.145Y-4.555
X5.145Y-4.755
X5.145Y-5.055
X5.16Y-3.455
X5.16Y-3.555
X5.16Y-3.655
X5.16Y-3.755
T4
X4.165Y-4.155
X4.17Y-4.345
X4.37Y-4.375
X4.405Y-4.41
X4.42Y-4.27
X4.47Y-4.27
X4.52Y-4.27
X4.88Y-4.36
X4.965Y-4.47
X4.965Y-4.52
X5.205Y-4.305
X5.725Y-3.265
T5
X4.36Y-3.885
X4.56Y-3.885
X5.325Y-4.36
X5.805Y-3.935
X5.805Y-4.095
X6.005Y-3.935
X6.005Y-4.095
X6.08Y-4.435
X6.08Y-4.635
X6.455Y-4.095
X6.655Y-4.095
X6.875Y-3.7525
X6.875Y-3.9525
X7.49Y-3.17
X7.49Y-3.37
X7.82Y-3.38
X8.115Y-4.64
X8.115Y-4.785
X8.1662Y-4.64
X8.1662Y-4.785
T6
X5.11Y-3.285
X5.11Y-4.11
X5.21Y-3.285
X5.21Y-4.11
X5.31Y-3.285
X5.31Y-4.11
X5.41Y-3.285
X5.41Y-4.11
T7
X3.8458Y-4.3406
X3.9442Y-4.3406
T8
X5.1609Y-4.647
X5.2109Y-4.547
X5.2609Y-4.647
X5.3109Y-4.547
X5.3609Y-4.647
X5.4109Y-4.547
X5.4609Y-4.647
X5.5109Y-4.547
T9
X3.745Y-3.585
X3.745Y-3.985
X3.745Y-4.085
X4.045Y-3.585
X4.045Y-3.985
X4.045Y-4.085
X6.1455Y-4.7932
X6.2Y-4.905
X6.235Y-4.135
X6.235Y-4.235
X6.235Y-4.335
X6.235Y-4.435
X6.2545Y-4.7932
X6.3091Y-4.905
X6.3636Y-4.7932
X6.4181Y-4.905
X6.4726Y-4.7932
X6.5272Y-4.905
X6.5817Y-4.7932
X7.59Y-4.7679
X7.59Y-4.8679
X7.59Y-4.9679
X7.69Y-4.7679
X7.69Y-4.8679
X7.69Y-4.9679
X7.8514Y-5.0077
X8.0286Y-5.0077
T10
X4.6833Y-4.8995
X4.8211Y-4.8995
T11
X7.8022Y-4.9093
X8.0778Y-4.9093
T12
X5.03Y-5.0171
X5.6418Y-5.0171
T13
X5.8715Y-4.8491
X6.8557Y-4.8491
T9
G00X4.2556Y-4.6788
M15
G01X4.3344Y-4.6788
M16
G05
G00X4.2556Y-4.915
M15
G01X4.3344Y-4.915
M16
G05
G00X4.48Y-4.8363
M15
G01X4.48Y-4.7575
M16
G05
M30
